ISO-10303-21;
HEADER;
/* Generated by software containing ST-Developer
 * from STEP Tools, Inc. (www.steptools.com) 
 */

FILE_DESCRIPTION(
/* description */ (''),
/* implementation_level */ '2;1');

FILE_NAME(
/* name */ 'NordicTRMNLPCBHolder.step',
/* time_stamp */ '2026-04-13T10:15:56+03:00',
/* author */ (''),
/* organization */ (''),
/* preprocessor_version */ 'ST-DEVELOPER v20.1',
/* originating_system */ 'Autodesk Translation Framework v14.24.0.0',
/* authorisation */ '');

FILE_SCHEMA (('AUTOMOTIVE_DESIGN { 1 0 10303 214 3 1 1 }'));
ENDSEC;

DATA;
#10=MECHANICAL_DESIGN_GEOMETRIC_PRESENTATION_REPRESENTATION('',(#13),#655);
#11=SHAPE_REPRESENTATION_RELATIONSHIP('SRR','None',#662,#12);
#12=ADVANCED_BREP_SHAPE_REPRESENTATION('',(#14),#654);
#13=STYLED_ITEM('',(#671),#14);
#14=MANIFOLD_SOLID_BREP('Body88',#379);
#15=FACE_BOUND('',#68,.T.);
#16=FACE_BOUND('',#70,.T.);
#17=FACE_BOUND('',#87,.T.);
#18=FACE_BOUND('',#88,.T.);
#19=FACE_BOUND('',#89,.T.);
#20=FACE_BOUND('',#90,.T.);
#21=PLANE('',#396);
#22=PLANE('',#400);
#23=PLANE('',#401);
#24=PLANE('',#402);
#25=PLANE('',#403);
#26=PLANE('',#405);
#27=PLANE('',#409);
#28=PLANE('',#412);
#29=PLANE('',#416);
#30=PLANE('',#420);
#31=PLANE('',#424);
#32=PLANE('',#428);
#33=PLANE('',#429);
#34=PLANE('',#430);
#35=PLANE('',#431);
#36=PLANE('',#432);
#37=FACE_OUTER_BOUND('',#61,.T.);
#38=FACE_OUTER_BOUND('',#62,.T.);
#39=FACE_OUTER_BOUND('',#63,.T.);
#40=FACE_OUTER_BOUND('',#64,.T.);
#41=FACE_OUTER_BOUND('',#65,.T.);
#42=FACE_OUTER_BOUND('',#66,.T.);
#43=FACE_OUTER_BOUND('',#67,.T.);
#44=FACE_OUTER_BOUND('',#69,.T.);
#45=FACE_OUTER_BOUND('',#71,.T.);
#46=FACE_OUTER_BOUND('',#72,.T.);
#47=FACE_OUTER_BOUND('',#73,.T.);
#48=FACE_OUTER_BOUND('',#74,.T.);
#49=FACE_OUTER_BOUND('',#75,.T.);
#50=FACE_OUTER_BOUND('',#76,.T.);
#51=FACE_OUTER_BOUND('',#77,.T.);
#52=FACE_OUTER_BOUND('',#78,.T.);
#53=FACE_OUTER_BOUND('',#79,.T.);
#54=FACE_OUTER_BOUND('',#80,.T.);
#55=FACE_OUTER_BOUND('',#81,.T.);
#56=FACE_OUTER_BOUND('',#82,.T.);
#57=FACE_OUTER_BOUND('',#83,.T.);
#58=FACE_OUTER_BOUND('',#84,.T.);
#59=FACE_OUTER_BOUND('',#85,.T.);
#60=FACE_OUTER_BOUND('',#86,.T.);
#61=EDGE_LOOP('',(#251,#252,#253,#254));
#62=EDGE_LOOP('',(#255,#256,#257,#258));
#63=EDGE_LOOP('',(#259,#260,#261,#262));
#64=EDGE_LOOP('',(#263,#264,#265,#266,#267,#268));
#65=EDGE_LOOP('',(#269,#270,#271,#272,#273,#274));
#66=EDGE_LOOP('',(#275,#276,#277,#278,#279,#280,#281,#282));
#67=EDGE_LOOP('',(#283,#284,#285,#286));
#68=EDGE_LOOP('',(#287));
#69=EDGE_LOOP('',(#288,#289,#290,#291));
#70=EDGE_LOOP('',(#292));
#71=EDGE_LOOP('',(#293,#294,#295,#296));
#72=EDGE_LOOP('',(#297));
#73=EDGE_LOOP('',(#298,#299,#300,#301));
#74=EDGE_LOOP('',(#302));
#75=EDGE_LOOP('',(#303,#304,#305,#306));
#76=EDGE_LOOP('',(#307));
#77=EDGE_LOOP('',(#308,#309,#310,#311));
#78=EDGE_LOOP('',(#312));
#79=EDGE_LOOP('',(#313,#314,#315,#316));
#80=EDGE_LOOP('',(#317));
#81=EDGE_LOOP('',(#318,#319,#320,#321));
#82=EDGE_LOOP('',(#322));
#83=EDGE_LOOP('',(#323,#324,#325,#326));
#84=EDGE_LOOP('',(#327,#328,#329,#330));
#85=EDGE_LOOP('',(#331,#332,#333,#334));
#86=EDGE_LOOP('',(#335,#336,#337,#338,#339,#340,#341,#342));
#87=EDGE_LOOP('',(#343));
#88=EDGE_LOOP('',(#344));
#89=EDGE_LOOP('',(#345));
#90=EDGE_LOOP('',(#346));
#91=LINE('',#553,#123);
#92=LINE('',#556,#124);
#93=LINE('',#559,#125);
#94=LINE('',#561,#126);
#95=LINE('',#562,#127);
#96=LINE('',#568,#128);
#97=LINE('',#571,#129);
#98=LINE('',#573,#130);
#99=LINE('',#574,#131);
#100=LINE('',#577,#132);
#101=LINE('',#579,#133);
#102=LINE('',#580,#134);
#103=LINE('',#583,#135);
#104=LINE('',#585,#136);
#105=LINE('',#587,#137);
#106=LINE('',#589,#138);
#107=LINE('',#590,#139);
#108=LINE('',#593,#140);
#109=LINE('',#594,#141);
#110=LINE('',#599,#142);
#111=LINE('',#600,#143);
#112=LINE('',#605,#144);
#113=LINE('',#610,#145);
#114=LINE('',#617,#146);
#115=LINE('',#624,#147);
#116=LINE('',#631,#148);
#117=LINE('',#638,#149);
#118=LINE('',#643,#150);
#119=LINE('',#644,#151);
#120=LINE('',#647,#152);
#121=LINE('',#648,#153);
#122=LINE('',#650,#154);
#123=VECTOR('',#439,10.);
#124=VECTOR('',#442,10.);
#125=VECTOR('',#445,10.);
#126=VECTOR('',#446,10.);
#127=VECTOR('',#447,10.);
#128=VECTOR('',#454,10.);
#129=VECTOR('',#457,10.);
#130=VECTOR('',#458,10.);
#131=VECTOR('',#459,10.);
#132=VECTOR('',#462,10.);
#133=VECTOR('',#463,10.);
#134=VECTOR('',#464,10.);
#135=VECTOR('',#467,10.);
#136=VECTOR('',#468,10.);
#137=VECTOR('',#469,10.);
#138=VECTOR('',#470,10.);
#139=VECTOR('',#471,10.);
#140=VECTOR('',#474,10.);
#141=VECTOR('',#475,10.);
#142=VECTOR('',#480,10.);
#143=VECTOR('',#481,10.);
#144=VECTOR('',#486,2.);
#145=VECTOR('',#493,2.);
#146=VECTOR('',#502,2.);
#147=VECTOR('',#511,2.);
#148=VECTOR('',#520,2.);
#149=VECTOR('',#529,2.);
#150=VECTOR('',#536,10.);
#151=VECTOR('',#537,10.);
#152=VECTOR('',#540,10.);
#153=VECTOR('',#541,10.);
#154=VECTOR('',#544,10.);
#155=CIRCLE('',#394,2.5);
#156=CIRCLE('',#395,2.5);
#157=CIRCLE('',#398,2.5);
#158=CIRCLE('',#399,2.5);
#159=CIRCLE('',#404,2.);
#160=CIRCLE('',#406,2.);
#161=CIRCLE('',#408,2.);
#162=CIRCLE('',#411,2.);
#163=CIRCLE('',#414,2.);
#164=CIRCLE('',#415,2.);
#165=CIRCLE('',#418,2.);
#166=CIRCLE('',#419,2.);
#167=CIRCLE('',#422,2.);
#168=CIRCLE('',#423,2.);
#169=CIRCLE('',#426,2.);
#170=CIRCLE('',#427,2.);
#171=VERTEX_POINT('',#549);
#172=VERTEX_POINT('',#550);
#173=VERTEX_POINT('',#552);
#174=VERTEX_POINT('',#554);
#175=VERTEX_POINT('',#558);
#176=VERTEX_POINT('',#560);
#177=VERTEX_POINT('',#564);
#178=VERTEX_POINT('',#566);
#179=VERTEX_POINT('',#570);
#180=VERTEX_POINT('',#572);
#181=VERTEX_POINT('',#576);
#182=VERTEX_POINT('',#578);
#183=VERTEX_POINT('',#582);
#184=VERTEX_POINT('',#584);
#185=VERTEX_POINT('',#586);
#186=VERTEX_POINT('',#588);
#187=VERTEX_POINT('',#592);
#188=VERTEX_POINT('',#595);
#189=VERTEX_POINT('',#598);
#190=VERTEX_POINT('',#601);
#191=VERTEX_POINT('',#604);
#192=VERTEX_POINT('',#609);
#193=VERTEX_POINT('',#614);
#194=VERTEX_POINT('',#616);
#195=VERTEX_POINT('',#621);
#196=VERTEX_POINT('',#623);
#197=VERTEX_POINT('',#628);
#198=VERTEX_POINT('',#630);
#199=VERTEX_POINT('',#635);
#200=VERTEX_POINT('',#637);
#201=VERTEX_POINT('',#642);
#202=VERTEX_POINT('',#646);
#203=EDGE_CURVE('',#171,#172,#155,.F.);
#204=EDGE_CURVE('',#172,#173,#91,.T.);
#205=EDGE_CURVE('',#173,#174,#156,.F.);
#206=EDGE_CURVE('',#174,#171,#92,.T.);
#207=EDGE_CURVE('',#175,#172,#93,.T.);
#208=EDGE_CURVE('',#176,#175,#94,.T.);
#209=EDGE_CURVE('',#176,#173,#95,.T.);
#210=EDGE_CURVE('',#177,#176,#157,.F.);
#211=EDGE_CURVE('',#175,#178,#158,.F.);
#212=EDGE_CURVE('',#178,#177,#96,.T.);
#213=EDGE_CURVE('',#178,#179,#97,.T.);
#214=EDGE_CURVE('',#180,#171,#98,.T.);
#215=EDGE_CURVE('',#179,#180,#99,.T.);
#216=EDGE_CURVE('',#181,#177,#100,.T.);
#217=EDGE_CURVE('',#182,#181,#101,.T.);
#218=EDGE_CURVE('',#174,#182,#102,.T.);
#219=EDGE_CURVE('',#182,#183,#103,.F.);
#220=EDGE_CURVE('',#183,#184,#104,.T.);
#221=EDGE_CURVE('',#184,#185,#105,.T.);
#222=EDGE_CURVE('',#185,#186,#106,.T.);
#223=EDGE_CURVE('',#186,#180,#107,.F.);
#224=EDGE_CURVE('',#181,#187,#108,.T.);
#225=EDGE_CURVE('',#187,#183,#109,.T.);
#226=EDGE_CURVE('',#188,#188,#159,.F.);
#227=EDGE_CURVE('',#189,#186,#110,.F.);
#228=EDGE_CURVE('',#189,#179,#111,.T.);
#229=EDGE_CURVE('',#190,#190,#160,.F.);
#230=EDGE_CURVE('',#190,#191,#112,.T.);
#231=EDGE_CURVE('',#191,#191,#161,.T.);
#232=EDGE_CURVE('',#188,#192,#113,.T.);
#233=EDGE_CURVE('',#192,#192,#162,.T.);
#234=EDGE_CURVE('',#193,#193,#163,.T.);
#235=EDGE_CURVE('',#193,#194,#114,.T.);
#236=EDGE_CURVE('',#194,#194,#164,.T.);
#237=EDGE_CURVE('',#195,#195,#165,.T.);
#238=EDGE_CURVE('',#195,#196,#115,.T.);
#239=EDGE_CURVE('',#196,#196,#166,.T.);
#240=EDGE_CURVE('',#197,#197,#167,.T.);
#241=EDGE_CURVE('',#197,#198,#116,.T.);
#242=EDGE_CURVE('',#198,#198,#168,.T.);
#243=EDGE_CURVE('',#199,#199,#169,.T.);
#244=EDGE_CURVE('',#199,#200,#117,.T.);
#245=EDGE_CURVE('',#200,#200,#170,.T.);
#246=EDGE_CURVE('',#201,#187,#118,.T.);
#247=EDGE_CURVE('',#201,#184,#119,.T.);
#248=EDGE_CURVE('',#189,#202,#120,.T.);
#249=EDGE_CURVE('',#202,#185,#121,.T.);
#250=EDGE_CURVE('',#202,#201,#122,.T.);
#251=ORIENTED_EDGE('',*,*,#203,.T.);
#252=ORIENTED_EDGE('',*,*,#204,.T.);
#253=ORIENTED_EDGE('',*,*,#205,.T.);
#254=ORIENTED_EDGE('',*,*,#206,.T.);
#255=ORIENTED_EDGE('',*,*,#204,.F.);
#256=ORIENTED_EDGE('',*,*,#207,.F.);
#257=ORIENTED_EDGE('',*,*,#208,.F.);
#258=ORIENTED_EDGE('',*,*,#209,.T.);
#259=ORIENTED_EDGE('',*,*,#210,.T.);
#260=ORIENTED_EDGE('',*,*,#208,.T.);
#261=ORIENTED_EDGE('',*,*,#211,.T.);
#262=ORIENTED_EDGE('',*,*,#212,.T.);
#263=ORIENTED_EDGE('',*,*,#213,.F.);
#264=ORIENTED_EDGE('',*,*,#211,.F.);
#265=ORIENTED_EDGE('',*,*,#207,.T.);
#266=ORIENTED_EDGE('',*,*,#203,.F.);
#267=ORIENTED_EDGE('',*,*,#214,.F.);
#268=ORIENTED_EDGE('',*,*,#215,.F.);
#269=ORIENTED_EDGE('',*,*,#216,.F.);
#270=ORIENTED_EDGE('',*,*,#217,.F.);
#271=ORIENTED_EDGE('',*,*,#218,.F.);
#272=ORIENTED_EDGE('',*,*,#205,.F.);
#273=ORIENTED_EDGE('',*,*,#209,.F.);
#274=ORIENTED_EDGE('',*,*,#210,.F.);
#275=ORIENTED_EDGE('',*,*,#218,.T.);
#276=ORIENTED_EDGE('',*,*,#219,.T.);
#277=ORIENTED_EDGE('',*,*,#220,.T.);
#278=ORIENTED_EDGE('',*,*,#221,.T.);
#279=ORIENTED_EDGE('',*,*,#222,.T.);
#280=ORIENTED_EDGE('',*,*,#223,.T.);
#281=ORIENTED_EDGE('',*,*,#214,.T.);
#282=ORIENTED_EDGE('',*,*,#206,.F.);
#283=ORIENTED_EDGE('',*,*,#217,.T.);
#284=ORIENTED_EDGE('',*,*,#224,.T.);
#285=ORIENTED_EDGE('',*,*,#225,.T.);
#286=ORIENTED_EDGE('',*,*,#219,.F.);
#287=ORIENTED_EDGE('',*,*,#226,.T.);
#288=ORIENTED_EDGE('',*,*,#215,.T.);
#289=ORIENTED_EDGE('',*,*,#223,.F.);
#290=ORIENTED_EDGE('',*,*,#227,.F.);
#291=ORIENTED_EDGE('',*,*,#228,.T.);
#292=ORIENTED_EDGE('',*,*,#229,.T.);
#293=ORIENTED_EDGE('',*,*,#229,.F.);
#294=ORIENTED_EDGE('',*,*,#230,.T.);
#295=ORIENTED_EDGE('',*,*,#231,.T.);
#296=ORIENTED_EDGE('',*,*,#230,.F.);
#297=ORIENTED_EDGE('',*,*,#231,.F.);
#298=ORIENTED_EDGE('',*,*,#226,.F.);
#299=ORIENTED_EDGE('',*,*,#232,.T.);
#300=ORIENTED_EDGE('',*,*,#233,.T.);
#301=ORIENTED_EDGE('',*,*,#232,.F.);
#302=ORIENTED_EDGE('',*,*,#233,.F.);
#303=ORIENTED_EDGE('',*,*,#234,.F.);
#304=ORIENTED_EDGE('',*,*,#235,.T.);
#305=ORIENTED_EDGE('',*,*,#236,.T.);
#306=ORIENTED_EDGE('',*,*,#235,.F.);
#307=ORIENTED_EDGE('',*,*,#236,.F.);
#308=ORIENTED_EDGE('',*,*,#237,.F.);
#309=ORIENTED_EDGE('',*,*,#238,.T.);
#310=ORIENTED_EDGE('',*,*,#239,.T.);
#311=ORIENTED_EDGE('',*,*,#238,.F.);
#312=ORIENTED_EDGE('',*,*,#239,.F.);
#313=ORIENTED_EDGE('',*,*,#240,.F.);
#314=ORIENTED_EDGE('',*,*,#241,.T.);
#315=ORIENTED_EDGE('',*,*,#242,.T.);
#316=ORIENTED_EDGE('',*,*,#241,.F.);
#317=ORIENTED_EDGE('',*,*,#242,.F.);
#318=ORIENTED_EDGE('',*,*,#243,.F.);
#319=ORIENTED_EDGE('',*,*,#244,.T.);
#320=ORIENTED_EDGE('',*,*,#245,.T.);
#321=ORIENTED_EDGE('',*,*,#244,.F.);
#322=ORIENTED_EDGE('',*,*,#245,.F.);
#323=ORIENTED_EDGE('',*,*,#246,.F.);
#324=ORIENTED_EDGE('',*,*,#247,.T.);
#325=ORIENTED_EDGE('',*,*,#220,.F.);
#326=ORIENTED_EDGE('',*,*,#225,.F.);
#327=ORIENTED_EDGE('',*,*,#248,.F.);
#328=ORIENTED_EDGE('',*,*,#227,.T.);
#329=ORIENTED_EDGE('',*,*,#222,.F.);
#330=ORIENTED_EDGE('',*,*,#249,.F.);
#331=ORIENTED_EDGE('',*,*,#250,.F.);
#332=ORIENTED_EDGE('',*,*,#249,.T.);
#333=ORIENTED_EDGE('',*,*,#221,.F.);
#334=ORIENTED_EDGE('',*,*,#247,.F.);
#335=ORIENTED_EDGE('',*,*,#213,.T.);
#336=ORIENTED_EDGE('',*,*,#228,.F.);
#337=ORIENTED_EDGE('',*,*,#248,.T.);
#338=ORIENTED_EDGE('',*,*,#250,.T.);
#339=ORIENTED_EDGE('',*,*,#246,.T.);
#340=ORIENTED_EDGE('',*,*,#224,.F.);
#341=ORIENTED_EDGE('',*,*,#216,.T.);
#342=ORIENTED_EDGE('',*,*,#212,.F.);
#343=ORIENTED_EDGE('',*,*,#234,.T.);
#344=ORIENTED_EDGE('',*,*,#237,.T.);
#345=ORIENTED_EDGE('',*,*,#240,.T.);
#346=ORIENTED_EDGE('',*,*,#243,.T.);
#347=CYLINDRICAL_SURFACE('',#393,2.5);
#348=CYLINDRICAL_SURFACE('',#397,2.5);
#349=CYLINDRICAL_SURFACE('',#407,2.);
#350=CYLINDRICAL_SURFACE('',#410,2.);
#351=CYLINDRICAL_SURFACE('',#413,2.);
#352=CYLINDRICAL_SURFACE('',#417,2.);
#353=CYLINDRICAL_SURFACE('',#421,2.);
#354=CYLINDRICAL_SURFACE('',#425,2.);
#355=ADVANCED_FACE('',(#37),#347,.T.);
#356=ADVANCED_FACE('',(#38),#21,.F.);
#357=ADVANCED_FACE('',(#39),#348,.T.);
#358=ADVANCED_FACE('',(#40),#22,.F.);
#359=ADVANCED_FACE('',(#41),#23,.F.);
#360=ADVANCED_FACE('',(#42),#24,.T.);
#361=ADVANCED_FACE('',(#43,#15),#25,.T.);
#362=ADVANCED_FACE('',(#44,#16),#26,.T.);
#363=ADVANCED_FACE('',(#45),#349,.F.);
#364=ADVANCED_FACE('',(#46),#27,.F.);
#365=ADVANCED_FACE('',(#47),#350,.F.);
#366=ADVANCED_FACE('',(#48),#28,.F.);
#367=ADVANCED_FACE('',(#49),#351,.F.);
#368=ADVANCED_FACE('',(#50),#29,.T.);
#369=ADVANCED_FACE('',(#51),#352,.F.);
#370=ADVANCED_FACE('',(#52),#30,.T.);
#371=ADVANCED_FACE('',(#53),#353,.F.);
#372=ADVANCED_FACE('',(#54),#31,.T.);
#373=ADVANCED_FACE('',(#55),#354,.F.);
#374=ADVANCED_FACE('',(#56),#32,.T.);
#375=ADVANCED_FACE('',(#57),#33,.T.);
#376=ADVANCED_FACE('',(#58),#34,.T.);
#377=ADVANCED_FACE('',(#59),#35,.T.);
#378=ADVANCED_FACE('',(#60,#17,#18,#19,#20),#36,.T.);
#379=CLOSED_SHELL('',(#355,#356,#357,#358,#359,#360,#361,#362,#363,#364,
#365,#366,#367,#368,#369,#370,#371,#372,#373,#374,#375,#376,#377,#378));
#380=DERIVED_UNIT_ELEMENT(#382,1.);
#381=DERIVED_UNIT_ELEMENT(#657,-3.);
#382=(
MASS_UNIT()
NAMED_UNIT(*)
SI_UNIT(.KILO.,.GRAM.)
);
#383=DERIVED_UNIT((#380,#381));
#384=MEASURE_REPRESENTATION_ITEM('density measure',
POSITIVE_RATIO_MEASURE(7850.),#383);
#385=PROPERTY_DEFINITION_REPRESENTATION(#390,#387);
#386=PROPERTY_DEFINITION_REPRESENTATION(#391,#388);
#387=REPRESENTATION('material name',(#389),#654);
#388=REPRESENTATION('density',(#384),#654);
#389=DESCRIPTIVE_REPRESENTATION_ITEM('Steel','Steel');
#390=PROPERTY_DEFINITION('material property','material name',#664);
#391=PROPERTY_DEFINITION('material property','density of part',#664);
#392=AXIS2_PLACEMENT_3D('',#547,#433,#434);
#393=AXIS2_PLACEMENT_3D('',#548,#435,#436);
#394=AXIS2_PLACEMENT_3D('',#551,#437,#438);
#395=AXIS2_PLACEMENT_3D('',#555,#440,#441);
#396=AXIS2_PLACEMENT_3D('',#557,#443,#444);
#397=AXIS2_PLACEMENT_3D('',#563,#448,#449);
#398=AXIS2_PLACEMENT_3D('',#565,#450,#451);
#399=AXIS2_PLACEMENT_3D('',#567,#452,#453);
#400=AXIS2_PLACEMENT_3D('',#569,#455,#456);
#401=AXIS2_PLACEMENT_3D('',#575,#460,#461);
#402=AXIS2_PLACEMENT_3D('',#581,#465,#466);
#403=AXIS2_PLACEMENT_3D('',#591,#472,#473);
#404=AXIS2_PLACEMENT_3D('',#596,#476,#477);
#405=AXIS2_PLACEMENT_3D('',#597,#478,#479);
#406=AXIS2_PLACEMENT_3D('',#602,#482,#483);
#407=AXIS2_PLACEMENT_3D('',#603,#484,#485);
#408=AXIS2_PLACEMENT_3D('',#606,#487,#488);
#409=AXIS2_PLACEMENT_3D('',#607,#489,#490);
#410=AXIS2_PLACEMENT_3D('',#608,#491,#492);
#411=AXIS2_PLACEMENT_3D('',#611,#494,#495);
#412=AXIS2_PLACEMENT_3D('',#612,#496,#497);
#413=AXIS2_PLACEMENT_3D('',#613,#498,#499);
#414=AXIS2_PLACEMENT_3D('',#615,#500,#501);
#415=AXIS2_PLACEMENT_3D('',#618,#503,#504);
#416=AXIS2_PLACEMENT_3D('',#619,#505,#506);
#417=AXIS2_PLACEMENT_3D('',#620,#507,#508);
#418=AXIS2_PLACEMENT_3D('',#622,#509,#510);
#419=AXIS2_PLACEMENT_3D('',#625,#512,#513);
#420=AXIS2_PLACEMENT_3D('',#626,#514,#515);
#421=AXIS2_PLACEMENT_3D('',#627,#516,#517);
#422=AXIS2_PLACEMENT_3D('',#629,#518,#519);
#423=AXIS2_PLACEMENT_3D('',#632,#521,#522);
#424=AXIS2_PLACEMENT_3D('',#633,#523,#524);
#425=AXIS2_PLACEMENT_3D('',#634,#525,#526);
#426=AXIS2_PLACEMENT_3D('',#636,#527,#528);
#427=AXIS2_PLACEMENT_3D('',#639,#530,#531);
#428=AXIS2_PLACEMENT_3D('',#640,#532,#533);
#429=AXIS2_PLACEMENT_3D('',#641,#534,#535);
#430=AXIS2_PLACEMENT_3D('',#645,#538,#539);
#431=AXIS2_PLACEMENT_3D('',#649,#542,#543);
#432=AXIS2_PLACEMENT_3D('',#651,#545,#546);
#433=DIRECTION('axis',(0.,0.,1.));
#434=DIRECTION('refdir',(1.,0.,0.));
#435=DIRECTION('center_axis',(1.,0.,0.));
#436=DIRECTION('ref_axis',(0.,-0.707106781186547,0.707106781186547));
#437=DIRECTION('center_axis',(-1.,0.,0.));
#438=DIRECTION('ref_axis',(0.,-0.707106781186547,0.707106781186547));
#439=DIRECTION('',(1.,0.,0.));
#440=DIRECTION('center_axis',(1.,0.,0.));
#441=DIRECTION('ref_axis',(0.,-0.707106781186547,0.707106781186547));
#442=DIRECTION('',(-1.,0.,0.));
#443=DIRECTION('center_axis',(0.,1.,0.));
#444=DIRECTION('ref_axis',(-1.,0.,0.));
#445=DIRECTION('',(0.,0.,1.));
#446=DIRECTION('',(-1.,0.,0.));
#447=DIRECTION('',(0.,0.,1.));
#448=DIRECTION('center_axis',(-1.,0.,0.));
#449=DIRECTION('ref_axis',(0.,-0.707106781186547,-0.707106781186547));
#450=DIRECTION('center_axis',(1.,0.,0.));
#451=DIRECTION('ref_axis',(0.,-0.707106781186547,-0.707106781186547));
#452=DIRECTION('center_axis',(-1.,0.,0.));
#453=DIRECTION('ref_axis',(0.,-0.707106781186547,-0.707106781186547));
#454=DIRECTION('',(1.,0.,0.));
#455=DIRECTION('center_axis',(-1.,0.,0.));
#456=DIRECTION('ref_axis',(0.,-1.,0.));
#457=DIRECTION('',(0.,-1.,0.));
#458=DIRECTION('',(0.,1.,0.));
#459=DIRECTION('',(0.,0.,1.));
#460=DIRECTION('center_axis',(1.,0.,0.));
#461=DIRECTION('ref_axis',(0.,1.,0.));
#462=DIRECTION('',(0.,1.,0.));
#463=DIRECTION('',(0.,0.,-1.));
#464=DIRECTION('',(0.,-1.,0.));
#465=DIRECTION('center_axis',(0.,0.,1.));
#466=DIRECTION('ref_axis',(1.,0.,0.));
#467=DIRECTION('',(-1.,0.,0.));
#468=DIRECTION('',(0.,1.,0.));
#469=DIRECTION('',(-1.,0.,0.));
#470=DIRECTION('',(0.,-1.,0.));
#471=DIRECTION('',(-1.,0.,0.));
#472=DIRECTION('center_axis',(0.,-1.,0.));
#473=DIRECTION('ref_axis',(1.,0.,0.));
#474=DIRECTION('',(1.,0.,0.));
#475=DIRECTION('',(0.,0.,1.));
#476=DIRECTION('center_axis',(0.,-1.,0.));
#477=DIRECTION('ref_axis',(-1.,0.,-1.61012663758566E-47));
#478=DIRECTION('center_axis',(0.,-1.,0.));
#479=DIRECTION('ref_axis',(1.,0.,0.));
#480=DIRECTION('',(0.,0.,-1.));
#481=DIRECTION('',(1.,0.,0.));
#482=DIRECTION('center_axis',(0.,-1.,0.));
#483=DIRECTION('ref_axis',(-1.,0.,-1.61012663758566E-47));
#484=DIRECTION('center_axis',(0.,1.,5.9211894646675E-16));
#485=DIRECTION('ref_axis',(-1.,0.,-1.61012663758566E-47));
#486=DIRECTION('',(0.,1.,5.9211894646675E-16));
#487=DIRECTION('center_axis',(2.71926214689378E-32,1.,4.44089209850063E-16));
#488=DIRECTION('ref_axis',(-1.,2.71926214689378E-32,0.));
#489=DIRECTION('center_axis',(2.71926214689378E-32,1.,4.44089209850063E-16));
#490=DIRECTION('ref_axis',(-1.,2.71926214689378E-32,0.));
#491=DIRECTION('center_axis',(0.,1.,5.9211894646675E-16));
#492=DIRECTION('ref_axis',(-1.,0.,-1.61012663758566E-47));
#493=DIRECTION('',(0.,1.,5.9211894646675E-16));
#494=DIRECTION('center_axis',(2.71926214689378E-32,1.,4.44089209850063E-16));
#495=DIRECTION('ref_axis',(-1.,2.71926214689378E-32,0.));
#496=DIRECTION('center_axis',(2.71926214689378E-32,1.,4.44089209850063E-16));
#497=DIRECTION('ref_axis',(-1.,2.71926214689378E-32,0.));
#498=DIRECTION('center_axis',(0.,0.,1.));
#499=DIRECTION('ref_axis',(-1.,0.,0.));
#500=DIRECTION('center_axis',(0.,0.,1.));
#501=DIRECTION('ref_axis',(-1.,0.,0.));
#502=DIRECTION('',(0.,0.,1.));
#503=DIRECTION('center_axis',(0.,0.,1.));
#504=DIRECTION('ref_axis',(-1.,0.,0.));
#505=DIRECTION('center_axis',(0.,0.,-1.));
#506=DIRECTION('ref_axis',(-1.,0.,0.));
#507=DIRECTION('center_axis',(0.,0.,1.));
#508=DIRECTION('ref_axis',(-1.,0.,0.));
#509=DIRECTION('center_axis',(0.,0.,1.));
#510=DIRECTION('ref_axis',(-1.,0.,0.));
#511=DIRECTION('',(0.,0.,1.));
#512=DIRECTION('center_axis',(0.,0.,1.));
#513=DIRECTION('ref_axis',(-1.,0.,0.));
#514=DIRECTION('center_axis',(0.,0.,-1.));
#515=DIRECTION('ref_axis',(-1.,0.,0.));
#516=DIRECTION('center_axis',(0.,0.,1.));
#517=DIRECTION('ref_axis',(-1.,0.,0.));
#518=DIRECTION('center_axis',(0.,0.,1.));
#519=DIRECTION('ref_axis',(-1.,0.,0.));
#520=DIRECTION('',(0.,0.,1.));
#521=DIRECTION('center_axis',(0.,0.,1.));
#522=DIRECTION('ref_axis',(-1.,0.,0.));
#523=DIRECTION('center_axis',(0.,0.,-1.));
#524=DIRECTION('ref_axis',(-1.,0.,0.));
#525=DIRECTION('center_axis',(0.,0.,1.));
#526=DIRECTION('ref_axis',(-1.,0.,0.));
#527=DIRECTION('center_axis',(0.,0.,1.));
#528=DIRECTION('ref_axis',(-1.,0.,0.));
#529=DIRECTION('',(0.,0.,1.));
#530=DIRECTION('center_axis',(0.,0.,1.));
#531=DIRECTION('ref_axis',(-1.,0.,0.));
#532=DIRECTION('center_axis',(0.,0.,-1.));
#533=DIRECTION('ref_axis',(-1.,0.,0.));
#534=DIRECTION('center_axis',(1.,0.,0.));
#535=DIRECTION('ref_axis',(0.,1.,0.));
#536=DIRECTION('',(0.,-1.,0.));
#537=DIRECTION('',(0.,0.,1.));
#538=DIRECTION('center_axis',(-1.,0.,0.));
#539=DIRECTION('ref_axis',(0.,-1.,0.));
#540=DIRECTION('',(0.,1.,0.));
#541=DIRECTION('',(0.,0.,1.));
#542=DIRECTION('center_axis',(0.,1.,0.));
#543=DIRECTION('ref_axis',(-1.,0.,0.));
#544=DIRECTION('',(1.,0.,0.));
#545=DIRECTION('center_axis',(0.,0.,-1.));
#546=DIRECTION('ref_axis',(-1.,0.,0.));
#547=CARTESIAN_POINT('',(0.,0.,0.));
#548=CARTESIAN_POINT('Origin',(3.5443748653433,3.00000000000002,23.1056018290989));
#549=CARTESIAN_POINT('',(-4.0856532931454,3.00000000000002,25.6056018290989));
#550=CARTESIAN_POINT('',(-4.0856532931454,0.500000000000018,23.1056018290989));
#551=CARTESIAN_POINT('Origin',(-4.0856532931454,3.00000000000002,23.1056018290989));
#552=CARTESIAN_POINT('',(6.3516867842638,0.500000000000018,23.1056018290989));
#553=CARTESIAN_POINT('',(3.5443748653433,0.500000000000018,23.1056018290989));
#554=CARTESIAN_POINT('',(6.3516867842638,3.00000000000002,25.6056018290989));
#555=CARTESIAN_POINT('Origin',(6.3516867842638,3.00000000000002,23.1056018290989));
#556=CARTESIAN_POINT('',(3.5443748653433,3.00000000000002,25.6056018290989));
#557=CARTESIAN_POINT('Origin',(6.3516867842638,0.500000000000018,9.95280091454945));
#558=CARTESIAN_POINT('',(-4.0856532931454,0.500000000000018,22.1056018290989));
#559=CARTESIAN_POINT('',(-4.0856532931454,0.500000000000018,9.95280091454945));
#560=CARTESIAN_POINT('',(6.3516867842638,0.500000000000018,22.1056018290989));
#561=CARTESIAN_POINT('',(3.5443748653433,0.500000000000018,22.1056018290989));
#562=CARTESIAN_POINT('',(6.3516867842638,0.500000000000018,9.95280091454945));
#563=CARTESIAN_POINT('Origin',(3.5443748653433,3.00000000000002,22.1056018290989));
#564=CARTESIAN_POINT('',(6.3516867842638,3.00000000000002,19.6056018290989));
#565=CARTESIAN_POINT('Origin',(6.3516867842638,3.00000000000002,22.1056018290989));
#566=CARTESIAN_POINT('',(-4.0856532931454,3.00000000000002,19.6056018290989));
#567=CARTESIAN_POINT('Origin',(-4.0856532931454,3.00000000000002,22.1056018290989));
#568=CARTESIAN_POINT('',(3.5443748653433,3.00000000000002,19.6056018290989));
#569=CARTESIAN_POINT('Origin',(-4.0856532931454,0.500000000000018,9.95280091454945));
#570=CARTESIAN_POINT('',(-4.0856532931454,-0.449999999999975,19.6056018290989));
#571=CARTESIAN_POINT('',(-4.0856532931454,7.11234590844111,19.6056018290989));
#572=CARTESIAN_POINT('',(-4.0856532931454,-0.449999999999975,25.6056018290989));
#573=CARTESIAN_POINT('',(-4.0856532931454,7.11234590844111,25.6056018290989));
#574=CARTESIAN_POINT('',(-4.08565329314539,-0.449999999999975,14.7792013718242));
#575=CARTESIAN_POINT('Origin',(6.3516867842638,-1.49999999999998,9.95280091454945));
#576=CARTESIAN_POINT('',(6.3516867842638,-0.449999999999975,19.6056018290989));
#577=CARTESIAN_POINT('',(6.3516867842638,6.11234590844112,19.6056018290989));
#578=CARTESIAN_POINT('',(6.3516867842638,-0.449999999999975,25.6056018290989));
#579=CARTESIAN_POINT('',(6.3516867842638,-0.449999999999975,14.7792013718242));
#580=CARTESIAN_POINT('',(6.3516867842638,6.11234590844112,25.6056018290989));
#581=CARTESIAN_POINT('Origin',(0.7370629464228,13.7246918168822,25.6056018290989));
#582=CARTESIAN_POINT('',(16.2370629464228,-0.449999999999976,25.6056018290989));
#583=CARTESIAN_POINT('',(-7.0129370535772,-0.449999999999975,25.6056018290989));
#584=CARTESIAN_POINT('',(16.2370629464228,26.8993836337644,25.6056018290989));
#585=CARTESIAN_POINT('',(16.2370629464228,26.8993836337644,25.6056018290989));
#586=CARTESIAN_POINT('',(-14.7629370535772,26.8993836337644,25.6056018290989));
#587=CARTESIAN_POINT('',(-14.7629370535772,26.8993836337644,25.6056018290989));
#588=CARTESIAN_POINT('',(-14.7629370535772,-0.449999999999975,25.6056018290989));
#589=CARTESIAN_POINT('',(-14.7629370535772,0.500000000000025,25.6056018290989));
#590=CARTESIAN_POINT('',(-7.0129370535772,-0.449999999999975,25.6056018290989));
#591=CARTESIAN_POINT('Origin',(-14.7629370535772,-0.449999999999975,19.6056018290989));
#592=CARTESIAN_POINT('',(16.2370629464228,-0.449999999999976,19.6056018290989));
#593=CARTESIAN_POINT('',(-7.0129370535772,-0.449999999999975,19.6056018290989));
#594=CARTESIAN_POINT('',(16.2370629464228,-0.449999999999975,19.6056018290989));
#595=CARTESIAN_POINT('',(13.2374909554789,-0.449999999999977,22.6056018290989));
#596=CARTESIAN_POINT('Origin',(11.2374909554789,-0.449999999999977,22.6056018290989));
#597=CARTESIAN_POINT('Origin',(-14.7629370535772,-0.449999999999975,19.6056018290989));
#598=CARTESIAN_POINT('',(-14.7629370535772,-0.449999999999975,19.6056018290989));
#599=CARTESIAN_POINT('',(-14.7629370535772,-0.449999999999977,19.6056018290989));
#600=CARTESIAN_POINT('',(-7.0129370535772,-0.449999999999975,19.6056018290989));
#601=CARTESIAN_POINT('',(-7.76250904452106,-0.449999999999977,22.6056018290989));
#602=CARTESIAN_POINT('Origin',(-9.76250904452106,-0.449999999999977,22.6056018290989));
#603=CARTESIAN_POINT('Origin',(-9.76250904452106,-4.49999999999999,22.6056018290989));
#604=CARTESIAN_POINT('',(-7.76250904452106,3.00000000000001,22.6056018290989));
#605=CARTESIAN_POINT('',(-7.76250904452106,-4.49999999999999,22.6056018290989));
#606=CARTESIAN_POINT('Origin',(-9.76250904452106,3.00000000000001,22.6056018290989));
#607=CARTESIAN_POINT('Origin',(-9.76250904452106,3.00000000000001,22.6056018290989));
#608=CARTESIAN_POINT('Origin',(11.2374909554789,-4.49999999999999,22.6056018290989));
#609=CARTESIAN_POINT('',(13.2374909554789,3.00000000000001,22.6056018290989));
#610=CARTESIAN_POINT('',(13.2374909554789,-4.49999999999999,22.6056018290989));
#611=CARTESIAN_POINT('Origin',(11.2374909554789,3.00000000000001,22.6056018290989));
#612=CARTESIAN_POINT('Origin',(11.2374909554789,3.00000000000001,22.6056018290989));
#613=CARTESIAN_POINT('Origin',(11.4352621015535,24.3303859901524,19.6056018290989));
#614=CARTESIAN_POINT('',(13.4352621015535,24.3303859901524,19.6056018290989));
#615=CARTESIAN_POINT('Origin',(11.4352621015535,24.3303859901524,19.6056018290989));
#616=CARTESIAN_POINT('',(13.4352621015535,24.3303859901524,23.6056018290989));
#617=CARTESIAN_POINT('',(13.4352621015535,24.3303859901524,19.6056018290989));
#618=CARTESIAN_POINT('Origin',(11.4352621015535,24.3303859901524,23.6056018290989));
#619=CARTESIAN_POINT('Origin',(11.4352621015535,24.3303859901524,23.6056018290989));
#620=CARTESIAN_POINT('Origin',(-9.85570052775738,24.3303859901525,19.6056018290989));
#621=CARTESIAN_POINT('',(-7.85570052775738,24.3303859901525,19.6056018290989));
#622=CARTESIAN_POINT('Origin',(-9.85570052775738,24.3303859901525,19.6056018290989));
#623=CARTESIAN_POINT('',(-7.85570052775738,24.3303859901525,23.6056018290989));
#624=CARTESIAN_POINT('',(-7.85570052775738,24.3303859901525,19.6056018290989));
#625=CARTESIAN_POINT('Origin',(-9.85570052775738,24.3303859901525,23.6056018290989));
#626=CARTESIAN_POINT('Origin',(-9.85570052775738,24.3303859901525,23.6056018290989));
#627=CARTESIAN_POINT('Origin',(11.38235062263,6.67291333154066,19.6056018290989));
#628=CARTESIAN_POINT('',(13.38235062263,6.67291333154066,19.6056018290989));
#629=CARTESIAN_POINT('Origin',(11.38235062263,6.67291333154066,19.6056018290989));
#630=CARTESIAN_POINT('',(13.38235062263,6.67291333154066,23.6056018290989));
#631=CARTESIAN_POINT('',(13.38235062263,6.67291333154066,19.6056018290989));
#632=CARTESIAN_POINT('Origin',(11.38235062263,6.67291333154066,23.6056018290989));
#633=CARTESIAN_POINT('Origin',(11.38235062263,6.67291333154066,23.6056018290989));
#634=CARTESIAN_POINT('Origin',(-9.90861200668098,6.67291333154076,19.6056018290989));
#635=CARTESIAN_POINT('',(-7.90861200668098,6.67291333154076,19.6056018290989));
#636=CARTESIAN_POINT('Origin',(-9.90861200668098,6.67291333154076,19.6056018290989));
#637=CARTESIAN_POINT('',(-7.90861200668098,6.67291333154076,23.6056018290989));
#638=CARTESIAN_POINT('',(-7.90861200668098,6.67291333154076,19.6056018290989));
#639=CARTESIAN_POINT('Origin',(-9.90861200668098,6.67291333154076,23.6056018290989));
#640=CARTESIAN_POINT('Origin',(-9.90861200668098,6.67291333154076,23.6056018290989));
#641=CARTESIAN_POINT('Origin',(16.2370629464228,0.550000000000024,19.6056018290989));
#642=CARTESIAN_POINT('',(16.2370629464228,26.8993836337644,19.6056018290989));
#643=CARTESIAN_POINT('',(16.2370629464228,26.8993836337644,19.6056018290989));
#644=CARTESIAN_POINT('',(16.2370629464228,26.8993836337644,19.6056018290989));
#645=CARTESIAN_POINT('Origin',(-14.7629370535772,26.8993836337644,19.6056018290989));
#646=CARTESIAN_POINT('',(-14.7629370535772,26.8993836337644,19.6056018290989));
#647=CARTESIAN_POINT('',(-14.7629370535772,0.500000000000025,19.6056018290989));
#648=CARTESIAN_POINT('',(-14.7629370535772,26.8993836337644,19.6056018290989));
#649=CARTESIAN_POINT('Origin',(16.2370629464228,26.8993836337644,19.6056018290989));
#650=CARTESIAN_POINT('',(-14.7629370535772,26.8993836337644,19.6056018290989));
#651=CARTESIAN_POINT('Origin',(0.7370629464228,13.7246918168822,19.6056018290989));
#652=UNCERTAINTY_MEASURE_WITH_UNIT(LENGTH_MEASURE(0.01),#656,
'DISTANCE_ACCURACY_VALUE',
'Maximum model space distance between geometric entities at asserted c
onnectivities');
#653=UNCERTAINTY_MEASURE_WITH_UNIT(LENGTH_MEASURE(0.01),#656,
'DISTANCE_ACCURACY_VALUE',
'Maximum model space distance between geometric entities at asserted c
onnectivities');
#654=(
GEOMETRIC_REPRESENTATION_CONTEXT(3)
GLOBAL_UNCERTAINTY_ASSIGNED_CONTEXT((#652))
GLOBAL_UNIT_ASSIGNED_CONTEXT((#656,#658,#659))
REPRESENTATION_CONTEXT('','3D')
);
#655=(
GEOMETRIC_REPRESENTATION_CONTEXT(3)
GLOBAL_UNCERTAINTY_ASSIGNED_CONTEXT((#653))
GLOBAL_UNIT_ASSIGNED_CONTEXT((#656,#658,#659))
REPRESENTATION_CONTEXT('','3D')
);
#656=(
LENGTH_UNIT()
NAMED_UNIT(*)
SI_UNIT(.MILLI.,.METRE.)
);
#657=(
LENGTH_UNIT()
NAMED_UNIT(*)
SI_UNIT($,.METRE.)
);
#658=(
NAMED_UNIT(*)
PLANE_ANGLE_UNIT()
SI_UNIT($,.RADIAN.)
);
#659=(
NAMED_UNIT(*)
SI_UNIT($,.STERADIAN.)
SOLID_ANGLE_UNIT()
);
#660=SHAPE_DEFINITION_REPRESENTATION(#661,#662);
#661=PRODUCT_DEFINITION_SHAPE('',$,#664);
#662=SHAPE_REPRESENTATION('',(#392),#654);
#663=PRODUCT_DEFINITION_CONTEXT('part definition',#668,'design');
#664=PRODUCT_DEFINITION('TRMNL','TRMNL v19',#665,#663);
#665=PRODUCT_DEFINITION_FORMATION('',$,#670);
#666=PRODUCT_RELATED_PRODUCT_CATEGORY('TRMNL v19','TRMNL v19',(#670));
#667=APPLICATION_PROTOCOL_DEFINITION('international standard',
'automotive_design',2009,#668);
#668=APPLICATION_CONTEXT(
'Core Data for Automotive Mechanical Design Process');
#669=PRODUCT_CONTEXT('part definition',#668,'mechanical');
#670=PRODUCT('TRMNL','TRMNL v19',$,(#669));
#671=PRESENTATION_STYLE_ASSIGNMENT((#682));
#672=PRESENTATION_STYLE_ASSIGNMENT((#683));
#673=PRESENTATION_STYLE_ASSIGNMENT((#684));
#674=PRESENTATION_STYLE_ASSIGNMENT((#685));
#675=PRESENTATION_STYLE_ASSIGNMENT((#686));
#676=PRESENTATION_STYLE_ASSIGNMENT((#687));
#677=PRESENTATION_STYLE_ASSIGNMENT((#688));
#678=PRESENTATION_STYLE_ASSIGNMENT((#689));
#679=PRESENTATION_STYLE_ASSIGNMENT((#690));
#680=PRESENTATION_STYLE_ASSIGNMENT((#691));
#681=PRESENTATION_STYLE_ASSIGNMENT((#692));
#682=SURFACE_STYLE_USAGE(.BOTH.,#693);
#683=SURFACE_STYLE_USAGE(.BOTH.,#694);
#684=SURFACE_STYLE_USAGE(.BOTH.,#695);
#685=SURFACE_STYLE_USAGE(.BOTH.,#696);
#686=SURFACE_STYLE_USAGE(.BOTH.,#697);
#687=SURFACE_STYLE_USAGE(.BOTH.,#698);
#688=SURFACE_STYLE_USAGE(.BOTH.,#699);
#689=SURFACE_STYLE_USAGE(.BOTH.,#700);
#690=SURFACE_STYLE_USAGE(.BOTH.,#701);
#691=SURFACE_STYLE_USAGE(.BOTH.,#702);
#692=SURFACE_STYLE_USAGE(.BOTH.,#703);
#693=SURFACE_SIDE_STYLE('',(#704));
#694=SURFACE_SIDE_STYLE('',(#705));
#695=SURFACE_SIDE_STYLE('',(#706));
#696=SURFACE_SIDE_STYLE('',(#707));
#697=SURFACE_SIDE_STYLE('',(#708));
#698=SURFACE_SIDE_STYLE('',(#709));
#699=SURFACE_SIDE_STYLE('',(#710));
#700=SURFACE_SIDE_STYLE('',(#711));
#701=SURFACE_SIDE_STYLE('',(#712));
#702=SURFACE_SIDE_STYLE('',(#713));
#703=SURFACE_SIDE_STYLE('',(#714));
#704=SURFACE_STYLE_FILL_AREA(#715);
#705=SURFACE_STYLE_FILL_AREA(#716);
#706=SURFACE_STYLE_FILL_AREA(#717);
#707=SURFACE_STYLE_FILL_AREA(#718);
#708=SURFACE_STYLE_FILL_AREA(#719);
#709=SURFACE_STYLE_FILL_AREA(#720);
#710=SURFACE_STYLE_FILL_AREA(#721);
#711=SURFACE_STYLE_FILL_AREA(#722);
#712=SURFACE_STYLE_FILL_AREA(#723);
#713=SURFACE_STYLE_FILL_AREA(#724);
#714=SURFACE_STYLE_FILL_AREA(#725);
#715=FILL_AREA_STYLE('Steel - Satin',(#726));
#716=FILL_AREA_STYLE('ABS (White)',(#727));
#717=FILL_AREA_STYLE('Opaque(255,255,255)',(#728));
#718=FILL_AREA_STYLE('Opaque(255,215,0)',(#729));
#719=FILL_AREA_STYLE('Opaque(76,76,76)',(#730));
#720=FILL_AREA_STYLE('Opaque(229,235,237)',(#731));
#721=FILL_AREA_STYLE('Opaque(160,160,160)',(#732));
#722=FILL_AREA_STYLE('Opaque(53,54,54)',(#733));
#723=FILL_AREA_STYLE('Opaque(244,229,167)',(#734));
#724=FILL_AREA_STYLE('Opaque(236,236,236)',(#735));
#725=FILL_AREA_STYLE('Opaque(38,38,38)',(#736));
#726=FILL_AREA_STYLE_COLOUR('Steel - Satin',#737);
#727=FILL_AREA_STYLE_COLOUR('ABS (White)',#738);
#728=FILL_AREA_STYLE_COLOUR('Opaque(255,255,255)',#739);
#729=FILL_AREA_STYLE_COLOUR('Opaque(255,215,0)',#740);
#730=FILL_AREA_STYLE_COLOUR('Opaque(76,76,76)',#741);
#731=FILL_AREA_STYLE_COLOUR('Opaque(229,235,237)',#742);
#732=FILL_AREA_STYLE_COLOUR('Opaque(160,160,160)',#743);
#733=FILL_AREA_STYLE_COLOUR('Opaque(53,54,54)',#744);
#734=FILL_AREA_STYLE_COLOUR('Opaque(244,229,167)',#745);
#735=FILL_AREA_STYLE_COLOUR('Opaque(236,236,236)',#746);
#736=FILL_AREA_STYLE_COLOUR('Opaque(38,38,38)',#747);
#737=COLOUR_RGB('Steel - Satin',0.627450980392157,0.627450980392157,0.627450980392157);
#738=COLOUR_RGB('ABS (White)',0.964705882352941,0.964705882352941,0.952941176470588);
#739=COLOUR_RGB('Opaque(255,255,255)',1.,1.,1.);
#740=COLOUR_RGB('Opaque(255,215,0)',1.,0.843137254901961,0.);
#741=COLOUR_RGB('Opaque(76,76,76)',0.298039215686275,0.298039215686275,
0.298039215686275);
#742=COLOUR_RGB('Opaque(229,235,237)',0.898039215686275,0.92156862745098,
0.929411764705882);
#743=COLOUR_RGB('Opaque(160,160,160)',0.627450980392157,0.627450980392157,
0.627450980392157);
#744=COLOUR_RGB('Opaque(53,54,54)',0.207843137254902,0.211764705882353,
0.211764705882353);
#745=COLOUR_RGB('Opaque(244,229,167)',0.956862745098039,0.898039215686275,
0.654901960784314);
#746=COLOUR_RGB('Opaque(236,236,236)',0.925490196078431,0.925490196078431,
0.925490196078431);
#747=COLOUR_RGB('Opaque(38,38,38)',0.149019607843137,0.149019607843137,
0.149019607843137);
ENDSEC;
END-ISO-10303-21;
