# WaveFront *.obj file (generated by Autodesk ATF)

mtllib NordicTRMNLPCBHolder.mtl

g Body88

v -0.408565 0.300000 2.560560
v -0.408565 0.235295 2.552042
v -0.408565 0.175000 2.527067
v -0.408565 0.123223 2.487337
v -0.408565 0.083494 2.435560
v -0.408565 0.058519 2.375265
v -0.408565 0.050000 2.310560
v 0.635169 0.050000 2.310560
v 0.635169 0.058519 2.375265
v 0.635169 0.083494 2.435560
v 0.635169 0.123223 2.487337
v 0.635169 0.175000 2.527067
v 0.635169 0.235295 2.552042
v 0.635169 0.300000 2.560560
v -0.408565 0.050000 2.210560
v 0.635169 0.050000 2.210560
v 0.635169 0.300000 1.960560
v 0.635169 0.235295 1.969079
v 0.635169 0.175000 1.994054
v 0.635169 0.123223 2.033783
v 0.635169 0.083494 2.085560
v 0.635169 0.058519 2.145855
v -0.408565 0.058519 2.145855
v -0.408565 0.083494 2.085560
v -0.408565 0.123223 2.033783
v -0.408565 0.175000 1.994054
v -0.408565 0.235295 1.969079
v -0.408565 0.300000 1.960560
v -0.408565 -0.045000 1.960560
v -0.408565 -0.045000 2.560560
v 0.635169 -0.045000 1.960560
v 0.635169 -0.045000 2.560560
v 1.623706 -0.045000 2.560560
v 1.623706 2.689938 2.560560
v -1.476294 2.689938 2.560560
v -1.476294 -0.045000 2.560560
v 1.623706 -0.045000 1.960560
v 1.323749 -0.045000 2.260560
v 1.316934 -0.045000 2.208796
v 1.296954 -0.045000 2.160560
v 1.265170 -0.045000 2.119139
v 1.223749 -0.045000 2.087355
v 1.175513 -0.045000 2.067375
v 1.123749 -0.045000 2.060560
v 1.071985 -0.045000 2.067375
v 1.023749 -0.045000 2.087355
v 0.982328 -0.045000 2.119139
v 0.950544 -0.045000 2.160560
v 0.930564 -0.045000 2.208796
v 0.923749 -0.045000 2.260560
v 0.930564 -0.045000 2.312324
v 0.950544 -0.045000 2.360560
v 0.982328 -0.045000 2.401982
v 1.023749 -0.045000 2.433765
v 1.071985 -0.045000 2.453745
v 1.123749 -0.045000 2.460560
v 1.175513 -0.045000 2.453745
v 1.223749 -0.045000 2.433765
v 1.265170 -0.045000 2.401982
v 1.296954 -0.045000 2.360560
v 1.316934 -0.045000 2.312324
v -1.476294 -0.045000 1.960560
v -0.776251 -0.045000 2.260560
v -0.783066 -0.045000 2.208796
v -0.803046 -0.045000 2.160560
v -0.834830 -0.045000 2.119139
v -0.876251 -0.045000 2.087355
v -0.924487 -0.045000 2.067375
v -0.976251 -0.045000 2.060560
v -1.028015 -0.045000 2.067375
v -1.076251 -0.045000 2.087355
v -1.117672 -0.045000 2.119139
v -1.149456 -0.045000 2.160560
v -1.169436 -0.045000 2.208796
v -1.176251 -0.045000 2.260560
v -1.169436 -0.045000 2.312324
v -1.149456 -0.045000 2.360560
v -1.117672 -0.045000 2.401982
v -1.076251 -0.045000 2.433765
v -1.028015 -0.045000 2.453745
v -0.976251 -0.045000 2.460560
v -0.924487 -0.045000 2.453745
v -0.876251 -0.045000 2.433765
v -0.834830 -0.045000 2.401982
v -0.803046 -0.045000 2.360560
v -0.783066 -0.045000 2.312324
v -0.776251 0.300000 2.260560
v -0.783066 0.300000 2.208796
v -0.803046 0.300000 2.160560
v -0.834830 0.300000 2.119139
v -0.876251 0.300000 2.087355
v -0.924487 0.300000 2.067375
v -0.976251 0.300000 2.060560
v -1.028015 0.300000 2.067375
v -1.076251 0.300000 2.087355
v -1.117672 0.300000 2.119139
v -1.149456 0.300000 2.160560
v -1.169436 0.300000 2.208796
v -1.176251 0.300000 2.260560
v -1.169436 0.300000 2.312324
v -1.149456 0.300000 2.360560
v -1.117672 0.300000 2.401982
v -1.076251 0.300000 2.433765
v -1.028015 0.300000 2.453745
v -0.976251 0.300000 2.460560
v -0.924487 0.300000 2.453745
v -0.876251 0.300000 2.433765
v -0.834830 0.300000 2.401982
v -0.803046 0.300000 2.360560
v -0.783066 0.300000 2.312324
v 1.323749 0.300000 2.260560
v 1.316934 0.300000 2.208796
v 1.296954 0.300000 2.160560
v 1.265170 0.300000 2.119139
v 1.223749 0.300000 2.087355
v 1.175513 0.300000 2.067375
v 1.123749 0.300000 2.060560
v 1.071985 0.300000 2.067375
v 1.023749 0.300000 2.087355
v 0.982328 0.300000 2.119139
v 0.950544 0.300000 2.160560
v 0.930564 0.300000 2.208796
v 0.923749 0.300000 2.260560
v 0.930564 0.300000 2.312324
v 0.950544 0.300000 2.360560
v 0.982328 0.300000 2.401982
v 1.023749 0.300000 2.433765
v 1.071985 0.300000 2.453745
v 1.123749 0.300000 2.460560
v 1.175513 0.300000 2.453745
v 1.223749 0.300000 2.433765
v 1.265170 0.300000 2.401982
v 1.296954 0.300000 2.360560
v 1.316934 0.300000 2.312324
v 1.343526 2.433039 2.360560
v 1.336711 2.484802 2.360560
v 1.316731 2.533039 2.360560
v 1.284948 2.574460 2.360560
v 1.243526 2.606244 2.360560
v 1.195290 2.626224 2.360560
v 1.143526 2.633039 2.360560
v 1.091762 2.626224 2.360560
v 1.043526 2.606244 2.360560
v 1.002105 2.574460 2.360560
v 0.970321 2.533039 2.360560
v 0.950341 2.484802 2.360560
v 0.943526 2.433039 2.360560
v 0.950341 2.381275 2.360560
v 0.970321 2.333039 2.360560
v 1.002105 2.291617 2.360560
v 1.043526 2.259834 2.360560
v 1.091762 2.239853 2.360560
v 1.143526 2.233039 2.360560
v 1.195290 2.239853 2.360560
v 1.243526 2.259834 2.360560
v 1.284948 2.291617 2.360560
v 1.316731 2.333039 2.360560
v 1.336711 2.381275 2.360560
v 1.343526 2.433039 1.960560
v 1.336711 2.381275 1.960560
v 1.316731 2.333039 1.960560
v 1.284948 2.291617 1.960560
v 1.243526 2.259834 1.960560
v 1.195290 2.239853 1.960560
v 1.143526 2.233039 1.960560
v 1.091762 2.239853 1.960560
v 1.043526 2.259834 1.960560
v 1.002105 2.291617 1.960560
v 0.970321 2.333039 1.960560
v 0.950341 2.381275 1.960560
v 0.943526 2.433039 1.960560
v 0.950341 2.484802 1.960560
v 0.970321 2.533039 1.960560
v 1.002105 2.574460 1.960560
v 1.043526 2.606244 1.960560
v 1.091762 2.626224 1.960560
v 1.143526 2.633039 1.960560
v 1.195290 2.626224 1.960560
v 1.243526 2.606244 1.960560
v 1.284948 2.574460 1.960560
v 1.316731 2.533039 1.960560
v 1.336711 2.484802 1.960560
v -0.785570 2.433039 2.360560
v -0.792385 2.484802 2.360560
v -0.812365 2.533039 2.360560
v -0.844149 2.574460 2.360560
v -0.885570 2.606244 2.360560
v -0.933806 2.626224 2.360560
v -0.985570 2.633039 2.360560
v -1.037334 2.626224 2.360560
v -1.085570 2.606244 2.360560
v -1.126991 2.574460 2.360560
v -1.158775 2.533039 2.360560
v -1.178755 2.484802 2.360560
v -1.185570 2.433039 2.360560
v -1.178755 2.381275 2.360560
v -1.158775 2.333039 2.360560
v -1.126991 2.291617 2.360560
v -1.085570 2.259834 2.360560
v -1.037334 2.239853 2.360560
v -0.985570 2.233039 2.360560
v -0.933806 2.239853 2.360560
v -0.885570 2.259834 2.360560
v -0.844149 2.291617 2.360560
v -0.812365 2.333039 2.360560
v -0.792385 2.381275 2.360560
v -0.785570 2.433039 1.960560
v -0.792385 2.381275 1.960560
v -0.812365 2.333039 1.960560
v -0.844149 2.291617 1.960560
v -0.885570 2.259834 1.960560
v -0.933806 2.239853 1.960560
v -0.985570 2.233039 1.960560
v -1.037334 2.239853 1.960560
v -1.085570 2.259834 1.960560
v -1.126991 2.291617 1.960560
v -1.158775 2.333039 1.960560
v -1.178755 2.381275 1.960560
v -1.185570 2.433039 1.960560
v -1.178755 2.484802 1.960560
v -1.158775 2.533039 1.960560
v -1.126991 2.574460 1.960560
v -1.085570 2.606244 1.960560
v -1.037334 2.626224 1.960560
v -0.985570 2.633039 1.960560
v -0.933806 2.626224 1.960560
v -0.885570 2.606244 1.960560
v -0.844149 2.574460 1.960560
v -0.812365 2.533039 1.960560
v -0.792385 2.484802 1.960560
v 1.338235 0.667291 2.360560
v 1.331420 0.719055 2.360560
v 1.311440 0.767291 2.360560
v 1.279656 0.808713 2.360560
v 1.238235 0.840496 2.360560
v 1.189999 0.860476 2.360560
v 1.138235 0.867291 2.360560
v 1.086471 0.860476 2.360560
v 1.038235 0.840496 2.360560
v 0.996814 0.808713 2.360560
v 0.965030 0.767291 2.360560
v 0.945050 0.719055 2.360560
v 0.938235 0.667291 2.360560
v 0.945050 0.615528 2.360560
v 0.965030 0.567291 2.360560
v 0.996814 0.525870 2.360560
v 1.038235 0.494086 2.360560
v 1.086471 0.474106 2.360560
v 1.138235 0.467291 2.360560
v 1.189999 0.474106 2.360560
v 1.238235 0.494086 2.360560
v 1.279656 0.525870 2.360560
v 1.311440 0.567291 2.360560
v 1.331420 0.615528 2.360560
v 1.338235 0.667291 1.960560
v 1.331420 0.615528 1.960560
v 1.311440 0.567291 1.960560
v 1.279656 0.525870 1.960560
v 1.238235 0.494086 1.960560
v 1.189999 0.474106 1.960560
v 1.138235 0.467291 1.960560
v 1.086471 0.474106 1.960560
v 1.038235 0.494086 1.960560
v 0.996814 0.525870 1.960560
v 0.965030 0.567291 1.960560
v 0.945050 0.615528 1.960560
v 0.938235 0.667291 1.960560
v 0.945050 0.719055 1.960560
v 0.965030 0.767291 1.960560
v 0.996814 0.808713 1.960560
v 1.038235 0.840496 1.960560
v 1.086471 0.860476 1.960560
v 1.138235 0.867291 1.960560
v 1.189999 0.860476 1.960560
v 1.238235 0.840496 1.960560
v 1.279656 0.808713 1.960560
v 1.311440 0.767291 1.960560
v 1.331420 0.719055 1.960560
v -0.790861 0.667291 2.360560
v -0.797676 0.719055 2.360560
v -0.817656 0.767291 2.360560
v -0.849440 0.808713 2.360560
v -0.890861 0.840496 2.360560
v -0.939097 0.860476 2.360560
v -0.990861 0.867291 2.360560
v -1.042625 0.860476 2.360560
v -1.090861 0.840496 2.360560
v -1.132283 0.808713 2.360560
v -1.164066 0.767291 2.360560
v -1.184046 0.719055 2.360560
v -1.190861 0.667291 2.360560
v -1.184046 0.615528 2.360560
v -1.164066 0.567291 2.360560
v -1.132283 0.525870 2.360560
v -1.090861 0.494086 2.360560
v -1.042625 0.474106 2.360560
v -0.990861 0.467291 2.360560
v -0.939097 0.474106 2.360560
v -0.890861 0.494086 2.360560
v -0.849440 0.525870 2.360560
v -0.817656 0.567291 2.360560
v -0.797676 0.615528 2.360560
v -0.790861 0.667291 1.960560
v -0.797676 0.615528 1.960560
v -0.817656 0.567291 1.960560
v -0.849440 0.525870 1.960560
v -0.890861 0.494086 1.960560
v -0.939097 0.474106 1.960560
v -0.990861 0.467291 1.960560
v -1.042625 0.474106 1.960560
v -1.090861 0.494086 1.960560
v -1.132283 0.525870 1.960560
v -1.164066 0.567291 1.960560
v -1.184046 0.615528 1.960560
v -1.190861 0.667291 1.960560
v -1.184046 0.719055 1.960560
v -1.164066 0.767291 1.960560
v -1.132283 0.808713 1.960560
v -1.090861 0.840496 1.960560
v -1.042625 0.860476 1.960560
v -0.990861 0.867291 1.960560
v -0.939097 0.860476 1.960560
v -0.890861 0.840496 1.960560
v -0.849440 0.808713 1.960560
v -0.817656 0.767291 1.960560
v -0.797676 0.719055 1.960560
v 1.623706 2.689938 1.960560
v -1.476294 2.689938 1.960560
vt -0.280731 -0.196350 0.000000
vt 0.763003 -0.196350 0.000000
vt -0.280731 -0.130900 0.000000
vt 0.763003 -0.130900 0.000000
vt -0.280731 -0.065450 0.000000
vt 0.763003 -0.065450 0.000000
vt -0.280731 -0.000000 0.000000
vt 0.763003 -0.000000 0.000000
vt -0.280731 0.065450 0.000000
vt 0.763003 0.065450 0.000000
vt -0.280731 0.130900 0.000000
vt 0.763003 0.130900 0.000000
vt -0.280731 0.196350 0.000000
vt 0.763003 0.196350 0.000000
vt -0.000000 1.315280 0.000000
vt -1.043734 1.315280 0.000000
vt -0.000000 1.215280 0.000000
vt -1.043734 1.215280 0.000000
vt -0.763003 -0.196350 0.000000
vt 0.280731 -0.196350 0.000000
vt -0.763003 -0.130900 0.000000
vt 0.280731 -0.130900 0.000000
vt -0.763003 -0.065450 0.000000
vt 0.280731 -0.065450 0.000000
vt -0.763003 -0.000000 0.000000
vt 0.280731 -0.000000 0.000000
vt -0.763003 0.065450 0.000000
vt 0.280731 0.065450 0.000000
vt -0.763003 0.130900 0.000000
vt 0.280731 0.130900 0.000000
vt -0.763003 0.196350 0.000000
vt 0.280731 0.196350 0.000000
vt 0.250000 0.965280 0.000000
vt 0.185295 0.973799 0.000000
vt -0.095000 0.965280 0.000000
vt 0.125000 0.998774 0.000000
vt 0.073223 1.038503 0.000000
vt 0.033494 1.090280 0.000000
vt 0.008519 1.150575 0.000000
vt -0.000000 1.215280 0.000000
vt -0.000000 1.315280 0.000000
vt -0.095000 1.565280 0.000000
vt 0.008519 1.379985 0.000000
vt 0.033494 1.440280 0.000000
vt 0.073223 1.492057 0.000000
vt 0.125000 1.531786 0.000000
vt 0.185295 1.556762 0.000000
vt 0.250000 1.565280 0.000000
vt -0.450000 0.965280 0.000000
vt -0.105000 0.965280 0.000000
vt -0.385295 0.973799 0.000000
vt -0.325000 0.998774 0.000000
vt -0.273223 1.038503 0.000000
vt -0.233494 1.090280 0.000000
vt -0.208519 1.150575 0.000000
vt -0.200000 1.215280 0.000000
vt -0.200000 1.315280 0.000000
vt -0.105000 1.565280 0.000000
vt -0.208519 1.379985 0.000000
vt -0.233494 1.440280 0.000000
vt -0.273223 1.492057 0.000000
vt -0.325000 1.531786 0.000000
vt -0.385295 1.556762 0.000000
vt -0.450000 1.565280 0.000000
vt 0.561462 -1.417469 0.000000
vt 1.550000 -1.417469 0.000000
vt 0.561462 -1.072469 0.000000
vt 1.550000 1.317469 0.000000
vt -0.482272 -1.072469 0.000000
vt -1.550000 1.317469 0.000000
vt -1.550000 -1.417469 0.000000
vt -0.482272 -1.417469 0.000000
vt 2.111462 0.000000 0.000000
vt 2.400043 0.300000 0.000000
vt 2.111462 0.600000 0.000000
vt 2.406858 0.351764 0.000000
vt 2.426838 0.400000 0.000000
vt 3.100000 0.000000 0.000000
vt 2.600043 0.100000 0.000000
vt 2.548279 0.106815 0.000000
vt 2.500043 0.126795 0.000000
vt 3.100000 0.600000 0.000000
vt 2.800043 0.300000 0.000000
vt 2.793228 0.248236 0.000000
vt 2.773248 0.200000 0.000000
vt 2.600043 0.500000 0.000000
vt 2.651807 0.493185 0.000000
vt 2.700043 0.473205 0.000000
vt 2.741464 0.158579 0.000000
vt 2.700043 0.126795 0.000000
vt 2.651807 0.106815 0.000000
vt 2.458621 0.158579 0.000000
vt 2.426838 0.200000 0.000000
vt 2.406858 0.248236 0.000000
vt 2.458621 0.441421 0.000000
vt 2.500043 0.473205 0.000000
vt 2.548279 0.493185 0.000000
vt 2.741464 0.441421 0.000000
vt 2.773248 0.400000 0.000000
vt 2.793228 0.351764 0.000000
vt 1.067728 0.600000 0.000000
vt 0.700043 0.300000 0.000000
vt 1.067728 0.000000 0.000000
vt 0.693228 0.248236 0.000000
vt 0.673248 0.200000 0.000000
vt 0.000000 0.600000 0.000000
vt 0.500043 0.500000 0.000000
vt 0.551807 0.493185 0.000000
vt 0.600043 0.473205 0.000000
vt 0.000000 0.000000 0.000000
vt 0.300043 0.300000 0.000000
vt 0.306858 0.351764 0.000000
vt 0.326838 0.400000 0.000000
vt 0.500043 0.100000 0.000000
vt 0.448279 0.106815 0.000000
vt 0.400043 0.126795 0.000000
vt 0.641464 0.158579 0.000000
vt 0.600043 0.126795 0.000000
vt 0.551807 0.106815 0.000000
vt 0.358621 0.158579 0.000000
vt 0.326838 0.200000 0.000000
vt 0.306858 0.248236 0.000000
vt 0.358621 0.441421 0.000000
vt 0.400043 0.473205 0.000000
vt 0.448279 0.493185 0.000000
vt 0.641464 0.441421 0.000000
vt 0.673248 0.400000 0.000000
vt 0.693228 0.351764 0.000000
vt 0.405000 0.575959 0.000000
vt 0.750000 0.575959 0.000000
vt 0.405000 0.628319 0.000000
vt 0.750000 0.628319 0.000000
vt 0.405000 -0.628319 0.000000
vt 0.750000 -0.628319 0.000000
vt 0.405000 -0.575959 0.000000
vt 0.750000 -0.575959 0.000000
vt 0.405000 -0.523599 0.000000
vt 0.750000 -0.523599 0.000000
vt 0.405000 -0.471239 0.000000
vt 0.750000 -0.471239 0.000000
vt 0.405000 -0.418879 0.000000
vt 0.750000 -0.418879 0.000000
vt 0.405000 -0.366519 0.000000
vt 0.750000 -0.366519 0.000000
vt 0.405000 -0.314159 0.000000
vt 0.750000 -0.314159 0.000000
vt 0.405000 -0.261799 0.000000
vt 0.750000 -0.261799 0.000000
vt 0.405000 -0.209440 0.000000
vt 0.750000 -0.209440 0.000000
vt 0.405000 -0.157080 0.000000
vt 0.750000 -0.157080 0.000000
vt 0.405000 -0.104720 0.000000
vt 0.750000 -0.104720 0.000000
vt 0.405000 -0.052360 0.000000
vt 0.750000 -0.052360 0.000000
vt 0.405000 0.000000 0.000000
vt 0.750000 0.000000 0.000000
vt 0.405000 0.052360 0.000000
vt 0.750000 0.052360 0.000000
vt 0.405000 0.104720 0.000000
vt 0.750000 0.104720 0.000000
vt 0.405000 0.157080 0.000000
vt 0.750000 0.157080 0.000000
vt 0.405000 0.209440 0.000000
vt 0.750000 0.209440 0.000000
vt 0.405000 0.261799 0.000000
vt 0.750000 0.261799 0.000000
vt 0.405000 0.314159 0.000000
vt 0.750000 0.314159 0.000000
vt 0.405000 0.366519 0.000000
vt 0.750000 0.366519 0.000000
vt 0.405000 0.418879 0.000000
vt 0.750000 0.418879 0.000000
vt 0.405000 0.471239 0.000000
vt 0.750000 0.471239 0.000000
vt 0.405000 0.523599 0.000000
vt 0.750000 0.523599 0.000000
vt 0.193185 0.051764 0.000000
vt -0.193185 0.051764 0.000000
vt 0.200000 -0.000000 0.000000
vt -0.200000 0.000000 0.000000
vt 0.193185 -0.051764 0.000000
vt -0.193185 -0.051764 0.000000
vt 0.173205 -0.100000 0.000000
vt -0.173205 -0.100000 0.000000
vt 0.141421 -0.141421 0.000000
vt -0.141421 -0.141421 0.000000
vt 0.100000 -0.173205 0.000000
vt -0.100000 -0.173205 0.000000
vt 0.051764 -0.193185 0.000000
vt -0.051764 -0.193185 0.000000
vt -0.000000 -0.200000 0.000000
vt -0.173205 0.100000 0.000000
vt 0.173205 0.100000 0.000000
vt -0.141421 0.141421 0.000000
vt 0.141421 0.141421 0.000000
vt -0.100000 0.173205 0.000000
vt 0.100000 0.173205 0.000000
vt -0.051764 0.193185 0.000000
vt 0.051764 0.193185 0.000000
vt 0.000000 0.200000 0.000000
vt 0.405000 0.575959 0.000000
vt 0.750000 0.575959 0.000000
vt 0.405000 0.628319 0.000000
vt 0.750000 0.628319 0.000000
vt 0.405000 -0.628319 0.000000
vt 0.750000 -0.628319 0.000000
vt 0.405000 -0.575959 0.000000
vt 0.750000 -0.575959 0.000000
vt 0.405000 -0.523599 0.000000
vt 0.750000 -0.523599 0.000000
vt 0.405000 -0.471239 0.000000
vt 0.750000 -0.471239 0.000000
vt 0.405000 -0.418879 0.000000
vt 0.750000 -0.418879 0.000000
vt 0.405000 -0.366519 0.000000
vt 0.750000 -0.366519 0.000000
vt 0.405000 -0.314159 0.000000
vt 0.750000 -0.314159 0.000000
vt 0.405000 -0.261799 0.000000
vt 0.750000 -0.261799 0.000000
vt 0.405000 -0.209440 0.000000
vt 0.750000 -0.209440 0.000000
vt 0.405000 -0.157080 0.000000
vt 0.750000 -0.157080 0.000000
vt 0.405000 -0.104720 0.000000
vt 0.750000 -0.104720 0.000000
vt 0.405000 -0.052360 0.000000
vt 0.750000 -0.052360 0.000000
vt 0.405000 0.000000 0.000000
vt 0.750000 0.000000 0.000000
vt 0.405000 0.052360 0.000000
vt 0.750000 0.052360 0.000000
vt 0.405000 0.104720 0.000000
vt 0.750000 0.104720 0.000000
vt 0.405000 0.157080 0.000000
vt 0.750000 0.157080 0.000000
vt 0.405000 0.209440 0.000000
vt 0.750000 0.209440 0.000000
vt 0.405000 0.261799 0.000000
vt 0.750000 0.261799 0.000000
vt 0.405000 0.314159 0.000000
vt 0.750000 0.314159 0.000000
vt 0.405000 0.366519 0.000000
vt 0.750000 0.366519 0.000000
vt 0.405000 0.418879 0.000000
vt 0.750000 0.418879 0.000000
vt 0.405000 0.471239 0.000000
vt 0.750000 0.471239 0.000000
vt 0.405000 0.523599 0.000000
vt 0.750000 0.523599 0.000000
vt 0.193185 0.051764 0.000000
vt -0.193185 0.051764 0.000000
vt 0.200000 -0.000000 0.000000
vt -0.200000 0.000000 0.000000
vt 0.193185 -0.051764 0.000000
vt -0.193185 -0.051764 0.000000
vt 0.173205 -0.100000 0.000000
vt -0.173205 -0.100000 0.000000
vt 0.141421 -0.141421 0.000000
vt -0.141421 -0.141421 0.000000
vt 0.100000 -0.173205 0.000000
vt -0.100000 -0.173205 0.000000
vt 0.051764 -0.193185 0.000000
vt -0.051764 -0.193185 0.000000
vt -0.000000 -0.200000 0.000000
vt -0.173205 0.100000 0.000000
vt 0.173205 0.100000 0.000000
vt -0.141421 0.141421 0.000000
vt 0.141421 0.141421 0.000000
vt -0.100000 0.173205 0.000000
vt 0.100000 0.173205 0.000000
vt -0.051764 0.193185 0.000000
vt 0.051764 0.193185 0.000000
vt 0.000000 0.200000 0.000000
vt 0.400000 -0.575959 0.000000
vt 0.000000 -0.575959 0.000000
vt 0.400000 -0.628319 0.000000
vt 0.000000 -0.628319 0.000000
vt 0.400000 0.628319 0.000000
vt 0.000000 0.628319 0.000000
vt 0.400000 0.575959 0.000000
vt 0.000000 0.575959 0.000000
vt 0.400000 0.523599 0.000000
vt 0.000000 0.523599 0.000000
vt 0.400000 0.471239 0.000000
vt 0.000000 0.471239 0.000000
vt 0.400000 0.418879 0.000000
vt 0.000000 0.418879 0.000000
vt 0.400000 0.366519 0.000000
vt 0.000000 0.366519 0.000000
vt 0.400000 0.314159 0.000000
vt 0.000000 0.314159 0.000000
vt 0.400000 0.261799 0.000000
vt 0.000000 0.261799 0.000000
vt 0.400000 0.209440 0.000000
vt 0.000000 0.209440 0.000000
vt 0.400000 0.157080 0.000000
vt 0.000000 0.157080 0.000000
vt 0.400000 0.104720 0.000000
vt 0.000000 0.104720 0.000000
vt 0.400000 0.052360 0.000000
vt 0.000000 0.052360 0.000000
vt 0.400000 0.000000 0.000000
vt 0.000000 0.000000 0.000000
vt 0.400000 -0.052360 0.000000
vt 0.000000 -0.052360 0.000000
vt 0.400000 -0.104720 0.000000
vt 0.000000 -0.104720 0.000000
vt 0.400000 -0.157080 0.000000
vt 0.000000 -0.157080 0.000000
vt 0.400000 -0.209440 0.000000
vt 0.000000 -0.209440 0.000000
vt 0.400000 -0.261799 0.000000
vt 0.000000 -0.261799 0.000000
vt 0.400000 -0.314159 0.000000
vt 0.000000 -0.314159 0.000000
vt 0.400000 -0.366519 0.000000
vt 0.000000 -0.366519 0.000000
vt 0.400000 -0.418879 0.000000
vt 0.000000 -0.418879 0.000000
vt 0.400000 -0.471239 0.000000
vt 0.000000 -0.471239 0.000000
vt 0.400000 -0.523599 0.000000
vt 0.000000 -0.523599 0.000000
vt -0.193185 -0.051764 0.000000
vt 0.193185 -0.051764 0.000000
vt -0.200000 0.000000 0.000000
vt 0.200000 0.000000 0.000000
vt -0.193185 0.051764 0.000000
vt 0.193185 0.051764 0.000000
vt -0.173205 0.100000 0.000000
vt 0.173205 0.100000 0.000000
vt -0.141421 0.141421 0.000000
vt 0.141421 0.141421 0.000000
vt -0.100000 0.173205 0.000000
vt 0.100000 0.173205 0.000000
vt -0.051764 0.193185 0.000000
vt 0.051764 0.193185 0.000000
vt 0.000000 0.200000 0.000000
vt 0.173205 -0.100000 0.000000
vt -0.173205 -0.100000 0.000000
vt 0.141421 -0.141421 0.000000
vt -0.141421 -0.141421 0.000000
vt 0.100000 -0.173205 0.000000
vt -0.100000 -0.173205 0.000000
vt 0.051764 -0.193185 0.000000
vt -0.051764 -0.193185 0.000000
vt 0.000000 -0.200000 0.000000
vt 0.400000 -0.575959 0.000000
vt 0.000000 -0.575959 0.000000
vt 0.400000 -0.628319 0.000000
vt 0.000000 -0.628319 0.000000
vt 0.400000 0.628319 0.000000
vt 0.000000 0.628319 0.000000
vt 0.400000 0.575959 0.000000
vt 0.000000 0.575959 0.000000
vt 0.400000 0.523599 0.000000
vt 0.000000 0.523599 0.000000
vt 0.400000 0.471239 0.000000
vt 0.000000 0.471239 0.000000
vt 0.400000 0.418879 0.000000
vt 0.000000 0.418879 0.000000
vt 0.400000 0.366519 0.000000
vt 0.000000 0.366519 0.000000
vt 0.400000 0.314159 0.000000
vt 0.000000 0.314159 0.000000
vt 0.400000 0.261799 0.000000
vt 0.000000 0.261799 0.000000
vt 0.400000 0.209440 0.000000
vt 0.000000 0.209440 0.000000
vt 0.400000 0.157080 0.000000
vt 0.000000 0.157080 0.000000
vt 0.400000 0.104720 0.000000
vt 0.000000 0.104720 0.000000
vt 0.400000 0.052360 0.000000
vt 0.000000 0.052360 0.000000
vt 0.400000 0.000000 0.000000
vt 0.000000 0.000000 0.000000
vt 0.400000 -0.052360 0.000000
vt 0.000000 -0.052360 0.000000
vt 0.400000 -0.104720 0.000000
vt 0.000000 -0.104720 0.000000
vt 0.400000 -0.157080 0.000000
vt 0.000000 -0.157080 0.000000
vt 0.400000 -0.209440 0.000000
vt 0.000000 -0.209440 0.000000
vt 0.400000 -0.261799 0.000000
vt 0.000000 -0.261799 0.000000
vt 0.400000 -0.314159 0.000000
vt 0.000000 -0.314159 0.000000
vt 0.400000 -0.366519 0.000000
vt 0.000000 -0.366519 0.000000
vt 0.400000 -0.418879 0.000000
vt 0.000000 -0.418879 0.000000
vt 0.400000 -0.471239 0.000000
vt 0.000000 -0.471239 0.000000
vt 0.400000 -0.523599 0.000000
vt 0.000000 -0.523599 0.000000
vt -0.193185 -0.051764 0.000000
vt 0.193185 -0.051764 0.000000
vt -0.200000 0.000000 0.000000
vt 0.200000 0.000000 0.000000
vt -0.193185 0.051764 0.000000
vt 0.193185 0.051764 0.000000
vt -0.173205 0.100000 0.000000
vt 0.173205 0.100000 0.000000
vt -0.141421 0.141421 0.000000
vt 0.141421 0.141421 0.000000
vt -0.100000 0.173205 0.000000
vt 0.100000 0.173205 0.000000
vt -0.051764 0.193185 0.000000
vt 0.051764 0.193185 0.000000
vt 0.000000 0.200000 0.000000
vt 0.173205 -0.100000 0.000000
vt -0.173205 -0.100000 0.000000
vt 0.141421 -0.141421 0.000000
vt -0.141421 -0.141421 0.000000
vt 0.100000 -0.173205 0.000000
vt -0.100000 -0.173205 0.000000
vt 0.051764 -0.193185 0.000000
vt -0.051764 -0.193185 0.000000
vt 0.000000 -0.200000 0.000000
vt 0.400000 -0.575959 0.000000
vt 0.000000 -0.575959 0.000000
vt 0.400000 -0.628319 0.000000
vt 0.000000 -0.628319 0.000000
vt 0.400000 0.628319 0.000000
vt 0.000000 0.628319 0.000000
vt 0.400000 0.575959 0.000000
vt 0.000000 0.575959 0.000000
vt 0.400000 0.523599 0.000000
vt 0.000000 0.523599 0.000000
vt 0.400000 0.471239 0.000000
vt 0.000000 0.471239 0.000000
vt 0.400000 0.418879 0.000000
vt 0.000000 0.418879 0.000000
vt 0.400000 0.366519 0.000000
vt 0.000000 0.366519 0.000000
vt 0.400000 0.314159 0.000000
vt 0.000000 0.314159 0.000000
vt 0.400000 0.261799 0.000000
vt 0.000000 0.261799 0.000000
vt 0.400000 0.209440 0.000000
vt 0.000000 0.209440 0.000000
vt 0.400000 0.157080 0.000000
vt 0.000000 0.157080 0.000000
vt 0.400000 0.104720 0.000000
vt 0.000000 0.104720 0.000000
vt 0.400000 0.052360 0.000000
vt 0.000000 0.052360 0.000000
vt 0.400000 0.000000 0.000000
vt 0.000000 0.000000 0.000000
vt 0.400000 -0.052360 0.000000
vt 0.000000 -0.052360 0.000000
vt 0.400000 -0.104720 0.000000
vt 0.000000 -0.104720 0.000000
vt 0.400000 -0.157080 0.000000
vt 0.000000 -0.157080 0.000000
vt 0.400000 -0.209440 0.000000
vt 0.000000 -0.209440 0.000000
vt 0.400000 -0.261799 0.000000
vt 0.000000 -0.261799 0.000000
vt 0.400000 -0.314159 0.000000
vt 0.000000 -0.314159 0.000000
vt 0.400000 -0.366519 0.000000
vt 0.000000 -0.366519 0.000000
vt 0.400000 -0.418879 0.000000
vt 0.000000 -0.418879 0.000000
vt 0.400000 -0.471239 0.000000
vt 0.000000 -0.471239 0.000000
vt 0.400000 -0.523599 0.000000
vt 0.000000 -0.523599 0.000000
vt -0.193185 -0.051764 0.000000
vt 0.193185 -0.051764 0.000000
vt -0.200000 0.000000 0.000000
vt 0.200000 0.000000 0.000000
vt -0.193185 0.051764 0.000000
vt 0.193185 0.051764 0.000000
vt -0.173205 0.100000 0.000000
vt 0.173205 0.100000 0.000000
vt -0.141421 0.141421 0.000000
vt 0.141421 0.141421 0.000000
vt -0.100000 0.173205 0.000000
vt 0.100000 0.173205 0.000000
vt -0.051764 0.193185 0.000000
vt 0.051764 0.193185 0.000000
vt 0.000000 0.200000 0.000000
vt 0.173205 -0.100000 0.000000
vt -0.173205 -0.100000 0.000000
vt 0.141421 -0.141421 0.000000
vt -0.141421 -0.141421 0.000000
vt 0.100000 -0.173205 0.000000
vt -0.100000 -0.173205 0.000000
vt 0.051764 -0.193185 0.000000
vt -0.051764 -0.193185 0.000000
vt 0.000000 -0.200000 0.000000
vt 0.400000 -0.575959 0.000000
vt 0.000000 -0.575959 0.000000
vt 0.400000 -0.628319 0.000000
vt 0.000000 -0.628319 0.000000
vt 0.400000 0.628319 0.000000
vt 0.000000 0.628319 0.000000
vt 0.400000 0.575959 0.000000
vt 0.000000 0.575959 0.000000
vt 0.400000 0.523599 0.000000
vt 0.000000 0.523599 0.000000
vt 0.400000 0.471239 0.000000
vt 0.000000 0.471239 0.000000
vt 0.400000 0.418879 0.000000
vt 0.000000 0.418879 0.000000
vt 0.400000 0.366519 0.000000
vt 0.000000 0.366519 0.000000
vt 0.400000 0.314159 0.000000
vt 0.000000 0.314159 0.000000
vt 0.400000 0.261799 0.000000
vt 0.000000 0.261799 0.000000
vt 0.400000 0.209440 0.000000
vt 0.000000 0.209440 0.000000
vt 0.400000 0.157080 0.000000
vt 0.000000 0.157080 0.000000
vt 0.400000 0.104720 0.000000
vt 0.000000 0.104720 0.000000
vt 0.400000 0.052360 0.000000
vt 0.000000 0.052360 0.000000
vt 0.400000 0.000000 0.000000
vt 0.000000 0.000000 0.000000
vt 0.400000 -0.052360 0.000000
vt 0.000000 -0.052360 0.000000
vt 0.400000 -0.104720 0.000000
vt 0.000000 -0.104720 0.000000
vt 0.400000 -0.157080 0.000000
vt 0.000000 -0.157080 0.000000
vt 0.400000 -0.209440 0.000000
vt 0.000000 -0.209440 0.000000
vt 0.400000 -0.261799 0.000000
vt 0.000000 -0.261799 0.000000
vt 0.400000 -0.314159 0.000000
vt 0.000000 -0.314159 0.000000
vt 0.400000 -0.366519 0.000000
vt 0.000000 -0.366519 0.000000
vt 0.400000 -0.418879 0.000000
vt 0.000000 -0.418879 0.000000
vt 0.400000 -0.471239 0.000000
vt 0.000000 -0.471239 0.000000
vt 0.400000 -0.523599 0.000000
vt 0.000000 -0.523599 0.000000
vt -0.193185 -0.051764 0.000000
vt 0.193185 -0.051764 0.000000
vt -0.200000 0.000000 0.000000
vt 0.200000 0.000000 0.000000
vt -0.193185 0.051764 0.000000
vt 0.193185 0.051764 0.000000
vt -0.173205 0.100000 0.000000
vt 0.173205 0.100000 0.000000
vt -0.141421 0.141421 0.000000
vt 0.141421 0.141421 0.000000
vt -0.100000 0.173205 0.000000
vt 0.100000 0.173205 0.000000
vt -0.051764 0.193185 0.000000
vt 0.051764 0.193185 0.000000
vt 0.000000 0.200000 0.000000
vt 0.173205 -0.100000 0.000000
vt -0.173205 -0.100000 0.000000
vt 0.141421 -0.141421 0.000000
vt -0.141421 -0.141421 0.000000
vt 0.100000 -0.173205 0.000000
vt -0.100000 -0.173205 0.000000
vt 0.051764 -0.193185 0.000000
vt -0.051764 -0.193185 0.000000
vt 0.000000 -0.200000 0.000000
vt -0.100000 0.000000 0.000000
vt 2.634938 0.000000 0.000000
vt -0.100000 0.600000 0.000000
vt 2.634938 0.600000 0.000000
vt -0.000000 0.000000 0.000000
vt 2.734938 0.000000 0.000000
vt -0.000000 0.600000 0.000000
vt 2.734938 0.600000 0.000000
vt -0.000000 0.000000 0.000000
vt 3.100000 0.000000 0.000000
vt -0.000000 0.600000 0.000000
vt 3.100000 0.600000 0.000000
vt 0.482272 -1.417469 0.000000
vt 1.012804 -0.898363 0.000000
vt 0.482272 -1.072469 0.000000
vt 0.964567 -0.878383 0.000000
vt 0.923146 -0.846599 0.000000
vt 1.064567 -0.905178 0.000000
vt 1.550000 -1.417469 0.000000
vt 1.116331 -0.898363 0.000000
vt 1.164567 -0.878383 0.000000
vt 1.205989 -0.846599 0.000000
vt 1.237773 -0.805178 0.000000
vt 1.257753 -0.756942 0.000000
vt 1.264567 -0.705178 0.000000
vt 1.257753 -0.653414 0.000000
vt 1.550000 1.317469 0.000000
vt 1.237773 -0.605178 0.000000
vt 1.232481 0.960569 0.000000
vt 1.205989 -0.563756 0.000000
vt 1.200698 0.919148 0.000000
vt 1.164567 -0.531973 0.000000
vt 1.159276 0.887364 0.000000
vt 1.116331 -0.511993 0.000000
vt 1.111040 0.867384 0.000000
vt 1.064567 -0.505178 0.000000
vt 1.059276 0.860569 0.000000
vt 1.012804 -0.511993 0.000000
vt 1.007513 0.867384 0.000000
vt 0.964567 -0.531973 0.000000
vt 0.959276 0.887364 0.000000
vt 0.923146 -0.563756 0.000000
vt 0.917855 0.919148 0.000000
vt -0.923107 -0.563756 0.000000
vt -0.928399 0.919148 0.000000
vt -0.964529 -0.531973 0.000000
vt -0.969820 0.887364 0.000000
vt -1.012765 -0.511993 0.000000
vt -1.018056 0.867384 0.000000
vt -1.064529 -0.505178 0.000000
vt -1.069820 0.860569 0.000000
vt -1.116293 -0.511993 0.000000
vt -1.121584 0.867384 0.000000
vt -1.164529 -0.531973 0.000000
vt -1.169820 0.887364 0.000000
vt -1.205950 -0.563756 0.000000
vt -1.211241 0.919148 0.000000
vt -1.237734 -0.605178 0.000000
vt -1.243025 0.960569 0.000000
vt -1.550000 1.317469 0.000000
vt -1.263005 1.008806 0.000000
vt -1.269820 1.060569 0.000000
vt 1.059276 1.260569 0.000000
vt 1.111040 1.253755 0.000000
vt 1.159276 1.233774 0.000000
vt -1.257714 -0.653414 0.000000
vt -1.550000 -1.417469 0.000000
vt -1.264529 -0.705178 0.000000
vt -1.257714 -0.756942 0.000000
vt -1.237734 -0.805178 0.000000
vt -1.205950 -0.846599 0.000000
vt -1.164529 -0.878383 0.000000
vt -1.116293 -0.898363 0.000000
vt -1.064529 -0.905178 0.000000
vt -0.561462 -1.417469 0.000000
vt -1.012765 -0.898363 0.000000
vt -0.561462 -1.072469 0.000000
vt -0.964529 -0.878383 0.000000
vt -0.923107 -0.846599 0.000000
vt -0.891324 -0.805178 0.000000
vt -0.871344 -0.756942 0.000000
vt -0.864529 -0.705178 0.000000
vt -0.871344 -0.653414 0.000000
vt 0.871382 -0.653414 0.000000
vt 0.864567 -0.705178 0.000000
vt 0.871382 -0.756942 0.000000
vt 0.891362 -0.805178 0.000000
vt -1.263005 1.112333 0.000000
vt -1.243025 1.160569 0.000000
vt -1.211241 1.201991 0.000000
vt -1.169820 1.233774 0.000000
vt -1.121584 1.253755 0.000000
vt -1.069820 1.260569 0.000000
vt -1.018056 1.253755 0.000000
vt 1.007513 1.253755 0.000000
vt 0.959276 1.233774 0.000000
vt -0.969820 1.233774 0.000000
vt 0.917855 1.201991 0.000000
vt -0.928399 1.201991 0.000000
vt 0.886071 1.160569 0.000000
vt -0.896615 1.160569 0.000000
vt 0.866091 1.112333 0.000000
vt -0.876635 1.112333 0.000000
vt 0.859276 1.060569 0.000000
vt -0.869820 1.060569 0.000000
vt 0.866091 1.008806 0.000000
vt -0.876635 1.008806 0.000000
vt 0.886071 0.960569 0.000000
vt -0.896615 0.960569 0.000000
vt 1.200698 1.201991 0.000000
vt 1.232481 1.160569 0.000000
vt 1.252462 1.112333 0.000000
vt 1.259276 1.060569 0.000000
vt 1.252462 1.008806 0.000000
vt 0.891362 -0.605178 0.000000
vt -0.891324 -0.605178 0.000000
vn -0.000000 -0.000000 1.000000
vn -0.000000 -0.000000 1.000000
vn -0.000000 -0.258819 0.965926
vn -0.000000 -0.258819 0.965926
vn -0.000000 -0.500000 0.866025
vn -0.000000 -0.500000 0.866025
vn -0.000000 -0.707107 0.707107
vn -0.000000 -0.707107 0.707107
vn -0.000000 -0.866025 0.500000
vn -0.000000 -0.866025 0.500000
vn -0.000000 -0.965926 0.258819
vn -0.000000 -0.965926 0.258819
vn -0.000000 -1.000000 0.000000
vn -0.000000 -1.000000 0.000000
vn -0.000000 -1.000000 0.000000
vn -0.000000 -1.000000 0.000000
vn -0.000000 -0.000000 -1.000000
vn -0.000000 -0.000000 -1.000000
vn -0.000000 -0.258819 -0.965926
vn -0.000000 -0.258819 -0.965926
vn -0.000000 -0.500000 -0.866025
vn -0.000000 -0.500000 -0.866025
vn -0.000000 -0.707107 -0.707107
vn -0.000000 -0.707107 -0.707107
vn -0.000000 -0.866025 -0.500000
vn -0.000000 -0.866025 -0.500000
vn -0.000000 -0.965926 -0.258819
vn -0.000000 -0.965926 -0.258819
vn 1.000000 -0.000000 -0.000000
vn 1.000000 -0.000000 -0.000000
vn 1.000000 -0.000000 -0.000000
vn 1.000000 -0.000000 -0.000000
vn 1.000000 -0.000000 -0.000000
vn 1.000000 -0.000000 -0.000000
vn 1.000000 -0.000000 -0.000000
vn 1.000000 -0.000000 -0.000000
vn 1.000000 -0.000000 -0.000000
vn 1.000000 -0.000000 -0.000000
vn 1.000000 -0.000000 -0.000000
vn 1.000000 -0.000000 -0.000000
vn 1.000000 -0.000000 -0.000000
vn 1.000000 -0.000000 -0.000000
vn 1.000000 -0.000000 -0.000000
vn 1.000000 -0.000000 -0.000000
vn -1.000000 -0.000000 -0.000000
vn -1.000000 -0.000000 -0.000000
vn -1.000000 -0.000000 -0.000000
vn -1.000000 -0.000000 -0.000000
vn -1.000000 -0.000000 -0.000000
vn -1.000000 -0.000000 -0.000000
vn -1.000000 -0.000000 -0.000000
vn -1.000000 -0.000000 -0.000000
vn -1.000000 -0.000000 -0.000000
vn -1.000000 -0.000000 -0.000000
vn -1.000000 -0.000000 -0.000000
vn -1.000000 -0.000000 -0.000000
vn -1.000000 -0.000000 -0.000000
vn -1.000000 -0.000000 -0.000000
vn -1.000000 -0.000000 -0.000000
vn -1.000000 -0.000000 -0.000000
vn 0.000000 0.000000 1.000000
vn 0.000000 0.000000 1.000000
vn 0.000000 0.000000 1.000000
vn 0.000000 0.000000 1.000000
vn 0.000000 0.000000 1.000000
vn 0.000000 0.000000 1.000000
vn 0.000000 -1.000000 0.000000
vn 0.000000 -1.000000 0.000000
vn 0.000000 -1.000000 0.000000
vn 0.000000 -1.000000 0.000000
vn 0.000000 -1.000000 0.000000
vn 0.000000 -1.000000 0.000000
vn 0.000000 -1.000000 0.000000
vn 0.000000 -1.000000 0.000000
vn 0.000000 -1.000000 0.000000
vn 0.000000 -1.000000 0.000000
vn 0.000000 -1.000000 0.000000
vn 0.000000 -1.000000 0.000000
vn 0.000000 -1.000000 0.000000
vn 0.000000 -1.000000 0.000000
vn 0.000000 -1.000000 0.000000
vn 0.000000 -1.000000 0.000000
vn 0.000000 -1.000000 0.000000
vn 0.000000 -1.000000 0.000000
vn 0.000000 -1.000000 0.000000
vn 0.000000 -1.000000 0.000000
vn 0.000000 -1.000000 0.000000
vn 0.000000 -1.000000 0.000000
vn 0.000000 -1.000000 0.000000
vn 0.000000 -1.000000 0.000000
vn 0.000000 -1.000000 0.000000
vn 0.000000 -1.000000 0.000000
vn 0.000000 -1.000000 0.000000
vn 0.000000 -1.000000 0.000000
vn 0.000000 -1.000000 0.000000
vn 0.000000 -1.000000 0.000000
vn 0.000000 -1.000000 0.000000
vn 0.000000 -1.000000 0.000000
vn 0.000000 -1.000000 0.000000
vn 0.000000 -1.000000 0.000000
vn 0.000000 -1.000000 0.000000
vn 0.000000 -1.000000 0.000000
vn 0.000000 -1.000000 0.000000
vn 0.000000 -1.000000 0.000000
vn 0.000000 -1.000000 0.000000
vn 0.000000 -1.000000 0.000000
vn 0.000000 -1.000000 0.000000
vn 0.000000 -1.000000 0.000000
vn 0.000000 -1.000000 0.000000
vn 0.000000 -1.000000 0.000000
vn 0.000000 -1.000000 0.000000
vn 0.000000 -1.000000 0.000000
vn 0.000000 -1.000000 0.000000
vn 0.000000 -1.000000 0.000000
vn 0.000000 -1.000000 0.000000
vn 0.000000 -1.000000 0.000000
vn 0.000000 -1.000000 0.000000
vn 0.000000 -1.000000 0.000000
vn 0.000000 -1.000000 0.000000
vn 0.000000 -1.000000 0.000000
vn 0.000000 -1.000000 0.000000
vn 0.000000 -1.000000 0.000000
vn -0.965926 0.000000 -0.258819
vn -0.965926 0.000000 -0.258819
vn -1.000000 0.000000 -0.000000
vn -1.000000 0.000000 -0.000000
vn -0.965926 -0.000000 0.258819
vn -0.965926 -0.000000 0.258819
vn -0.866025 -0.000000 0.500000
vn -0.866025 -0.000000 0.500000
vn -0.707107 -0.000000 0.707107
vn -0.707107 -0.000000 0.707107
vn -0.500000 -0.000000 0.866025
vn -0.500000 -0.000000 0.866025
vn -0.258819 -0.000000 0.965926
vn -0.258819 -0.000000 0.965926
vn 0.000000 -0.000000 1.000000
vn 0.000000 -0.000000 1.000000
vn 0.258819 -0.000000 0.965926
vn 0.258819 -0.000000 0.965926
vn 0.500000 -0.000000 0.866025
vn 0.500000 -0.000000 0.866025
vn 0.707107 -0.000000 0.707107
vn 0.707107 -0.000000 0.707107
vn 0.866025 -0.000000 0.500000
vn 0.866025 -0.000000 0.500000
vn 0.965926 -0.000000 0.258819
vn 0.965926 -0.000000 0.258819
vn 1.000000 0.000000 -0.000000
vn 1.000000 -0.000000 0.000000
vn 0.965926 0.000000 -0.258819
vn 0.965926 0.000000 -0.258819
vn 0.866025 0.000000 -0.500000
vn 0.866025 0.000000 -0.500000
vn 0.707107 0.000000 -0.707107
vn 0.707107 0.000000 -0.707107
vn 0.500000 0.000000 -0.866025
vn 0.500000 0.000000 -0.866025
vn 0.258819 0.000000 -0.965926
vn 0.258819 0.000000 -0.965926
vn 0.000000 0.000000 -1.000000
vn 0.000000 0.000000 -1.000000
vn -0.258819 0.000000 -0.965926
vn -0.258819 0.000000 -0.965926
vn -0.500000 0.000000 -0.866025
vn -0.500000 0.000000 -0.866025
vn -0.707107 0.000000 -0.707107
vn -0.707107 0.000000 -0.707107
vn -0.866025 0.000000 -0.500000
vn -0.866025 0.000000 -0.500000
vn -0.000000 -1.000000 -0.000000
vn -0.000000 -1.000000 -0.000000
vn -0.000000 -1.000000 -0.000000
vn -0.000000 -1.000000 -0.000000
vn -0.000000 -1.000000 -0.000000
vn -0.000000 -1.000000 -0.000000
vn -0.000000 -1.000000 -0.000000
vn -0.000000 -1.000000 -0.000000
vn -0.000000 -1.000000 -0.000000
vn -0.000000 -1.000000 -0.000000
vn -0.000000 -1.000000 -0.000000
vn -0.000000 -1.000000 -0.000000
vn -0.000000 -1.000000 -0.000000
vn -0.000000 -1.000000 -0.000000
vn -0.000000 -1.000000 -0.000000
vn -0.000000 -1.000000 -0.000000
vn -0.000000 -1.000000 -0.000000
vn -0.000000 -1.000000 -0.000000
vn -0.000000 -1.000000 -0.000000
vn -0.000000 -1.000000 -0.000000
vn -0.000000 -1.000000 -0.000000
vn -0.000000 -1.000000 -0.000000
vn -0.000000 -1.000000 -0.000000
vn -0.000000 -1.000000 -0.000000
vn -0.965926 0.000000 -0.258819
vn -0.965926 0.000000 -0.258819
vn -1.000000 0.000000 -0.000000
vn -1.000000 0.000000 -0.000000
vn -0.965926 -0.000000 0.258819
vn -0.965926 -0.000000 0.258819
vn -0.866025 -0.000000 0.500000
vn -0.866025 -0.000000 0.500000
vn -0.707107 -0.000000 0.707107
vn -0.707107 -0.000000 0.707107
vn -0.500000 -0.000000 0.866025
vn -0.500000 -0.000000 0.866025
vn -0.258819 -0.000000 0.965926
vn -0.258819 -0.000000 0.965926
vn 0.000000 -0.000000 1.000000
vn 0.000000 -0.000000 1.000000
vn 0.258819 -0.000000 0.965926
vn 0.258819 -0.000000 0.965926
vn 0.500000 -0.000000 0.866025
vn 0.500000 -0.000000 0.866025
vn 0.707107 -0.000000 0.707107
vn 0.707107 -0.000000 0.707107
vn 0.866025 -0.000000 0.500000
vn 0.866025 -0.000000 0.500000
vn 0.965926 -0.000000 0.258819
vn 0.965926 -0.000000 0.258819
vn 1.000000 0.000000 -0.000000
vn 1.000000 -0.000000 0.000000
vn 0.965926 0.000000 -0.258819
vn 0.965926 0.000000 -0.258819
vn 0.866025 0.000000 -0.500000
vn 0.866025 0.000000 -0.500000
vn 0.707107 0.000000 -0.707107
vn 0.707107 0.000000 -0.707107
vn 0.500000 0.000000 -0.866025
vn 0.500000 0.000000 -0.866025
vn 0.258819 0.000000 -0.965926
vn 0.258819 0.000000 -0.965926
vn 0.000000 0.000000 -1.000000
vn 0.000000 0.000000 -1.000000
vn -0.258819 0.000000 -0.965926
vn -0.258819 0.000000 -0.965926
vn -0.500000 0.000000 -0.866025
vn -0.500000 0.000000 -0.866025
vn -0.707107 0.000000 -0.707107
vn -0.707107 0.000000 -0.707107
vn -0.866025 0.000000 -0.500000
vn -0.866025 0.000000 -0.500000
vn -0.000000 -1.000000 -0.000000
vn -0.000000 -1.000000 -0.000000
vn -0.000000 -1.000000 -0.000000
vn -0.000000 -1.000000 -0.000000
vn -0.000000 -1.000000 -0.000000
vn -0.000000 -1.000000 -0.000000
vn -0.000000 -1.000000 -0.000000
vn -0.000000 -1.000000 -0.000000
vn -0.000000 -1.000000 -0.000000
vn -0.000000 -1.000000 -0.000000
vn -0.000000 -1.000000 -0.000000
vn -0.000000 -1.000000 -0.000000
vn -0.000000 -1.000000 -0.000000
vn -0.000000 -1.000000 -0.000000
vn -0.000000 -1.000000 -0.000000
vn -0.000000 -1.000000 -0.000000
vn -0.000000 -1.000000 -0.000000
vn -0.000000 -1.000000 -0.000000
vn -0.000000 -1.000000 -0.000000
vn -0.000000 -1.000000 -0.000000
vn -0.000000 -1.000000 -0.000000
vn -0.000000 -1.000000 -0.000000
vn -0.000000 -1.000000 -0.000000
vn -0.000000 -1.000000 -0.000000
vn -0.965926 -0.258819 0.000000
vn -0.965926 -0.258819 0.000000
vn -1.000000 -0.000000 0.000000
vn -1.000000 -0.000000 0.000000
vn -0.965926 0.258819 0.000000
vn -0.965926 0.258819 0.000000
vn -0.866025 0.500000 0.000000
vn -0.866025 0.500000 0.000000
vn -0.707107 0.707107 0.000000
vn -0.707107 0.707107 0.000000
vn -0.500000 0.866025 0.000000
vn -0.500000 0.866025 0.000000
vn -0.258819 0.965926 0.000000
vn -0.258819 0.965926 0.000000
vn 0.000000 1.000000 -0.000000
vn 0.000000 1.000000 -0.000000
vn 0.258819 0.965926 -0.000000
vn 0.258819 0.965926 -0.000000
vn 0.500000 0.866025 -0.000000
vn 0.500000 0.866025 -0.000000
vn 0.707107 0.707107 -0.000000
vn 0.707107 0.707107 -0.000000
vn 0.866025 0.500000 -0.000000
vn 0.866025 0.500000 -0.000000
vn 0.965926 0.258819 -0.000000
vn 0.965926 0.258819 -0.000000
vn 1.000000 0.000000 -0.000000
vn 1.000000 0.000000 -0.000000
vn 0.965926 -0.258819 0.000000
vn 0.965926 -0.258819 0.000000
vn 0.866025 -0.500000 0.000000
vn 0.866025 -0.500000 0.000000
vn 0.707107 -0.707107 0.000000
vn 0.707107 -0.707107 0.000000
vn 0.500000 -0.866025 0.000000
vn 0.500000 -0.866025 0.000000
vn 0.258819 -0.965926 0.000000
vn 0.258819 -0.965926 0.000000
vn 0.000000 -1.000000 0.000000
vn 0.000000 -1.000000 0.000000
vn -0.258819 -0.965926 0.000000
vn -0.258819 -0.965926 0.000000
vn -0.500000 -0.866025 0.000000
vn -0.500000 -0.866025 0.000000
vn -0.707107 -0.707107 0.000000
vn -0.707107 -0.707107 0.000000
vn -0.866025 -0.500000 0.000000
vn -0.866025 -0.500000 0.000000
vn 0.000000 0.000000 -1.000000
vn 0.000000 0.000000 -1.000000
vn 0.000000 0.000000 -1.000000
vn 0.000000 0.000000 -1.000000
vn 0.000000 0.000000 -1.000000
vn 0.000000 0.000000 -1.000000
vn 0.000000 0.000000 -1.000000
vn 0.000000 0.000000 -1.000000
vn 0.000000 0.000000 -1.000000
vn 0.000000 0.000000 -1.000000
vn 0.000000 0.000000 -1.000000
vn 0.000000 0.000000 -1.000000
vn 0.000000 0.000000 -1.000000
vn 0.000000 0.000000 -1.000000
vn 0.000000 0.000000 -1.000000
vn 0.000000 0.000000 -1.000000
vn 0.000000 0.000000 -1.000000
vn 0.000000 0.000000 -1.000000
vn 0.000000 0.000000 -1.000000
vn 0.000000 0.000000 -1.000000
vn 0.000000 0.000000 -1.000000
vn 0.000000 0.000000 -1.000000
vn 0.000000 0.000000 -1.000000
vn 0.000000 0.000000 -1.000000
vn -0.965926 -0.258819 0.000000
vn -0.965926 -0.258819 0.000000
vn -1.000000 -0.000000 0.000000
vn -1.000000 -0.000000 0.000000
vn -0.965926 0.258819 0.000000
vn -0.965926 0.258819 0.000000
vn -0.866025 0.500000 0.000000
vn -0.866025 0.500000 0.000000
vn -0.707107 0.707107 0.000000
vn -0.707107 0.707107 0.000000
vn -0.500000 0.866025 0.000000
vn -0.500000 0.866025 0.000000
vn -0.258819 0.965926 0.000000
vn -0.258819 0.965926 0.000000
vn 0.000000 1.000000 -0.000000
vn 0.000000 1.000000 -0.000000
vn 0.258819 0.965926 -0.000000
vn 0.258819 0.965926 -0.000000
vn 0.500000 0.866025 -0.000000
vn 0.500000 0.866025 -0.000000
vn 0.707107 0.707107 -0.000000
vn 0.707107 0.707107 -0.000000
vn 0.866025 0.500000 -0.000000
vn 0.866025 0.500000 -0.000000
vn 0.965926 0.258819 -0.000000
vn 0.965926 0.258819 -0.000000
vn 1.000000 0.000000 -0.000000
vn 1.000000 0.000000 -0.000000
vn 0.965926 -0.258819 0.000000
vn 0.965926 -0.258819 0.000000
vn 0.866025 -0.500000 0.000000
vn 0.866025 -0.500000 0.000000
vn 0.707107 -0.707107 0.000000
vn 0.707107 -0.707107 0.000000
vn 0.500000 -0.866025 0.000000
vn 0.500000 -0.866025 0.000000
vn 0.258819 -0.965926 0.000000
vn 0.258819 -0.965926 0.000000
vn 0.000000 -1.000000 0.000000
vn 0.000000 -1.000000 0.000000
vn -0.258819 -0.965926 0.000000
vn -0.258819 -0.965926 0.000000
vn -0.500000 -0.866025 0.000000
vn -0.500000 -0.866025 0.000000
vn -0.707107 -0.707107 0.000000
vn -0.707107 -0.707107 0.000000
vn -0.866025 -0.500000 0.000000
vn -0.866025 -0.500000 0.000000
vn 0.000000 0.000000 -1.000000
vn 0.000000 0.000000 -1.000000
vn 0.000000 0.000000 -1.000000
vn 0.000000 0.000000 -1.000000
vn 0.000000 0.000000 -1.000000
vn 0.000000 0.000000 -1.000000
vn 0.000000 0.000000 -1.000000
vn 0.000000 0.000000 -1.000000
vn 0.000000 0.000000 -1.000000
vn 0.000000 0.000000 -1.000000
vn 0.000000 0.000000 -1.000000
vn 0.000000 0.000000 -1.000000
vn 0.000000 0.000000 -1.000000
vn 0.000000 0.000000 -1.000000
vn 0.000000 0.000000 -1.000000
vn 0.000000 0.000000 -1.000000
vn 0.000000 0.000000 -1.000000
vn 0.000000 0.000000 -1.000000
vn 0.000000 0.000000 -1.000000
vn 0.000000 0.000000 -1.000000
vn 0.000000 0.000000 -1.000000
vn 0.000000 0.000000 -1.000000
vn 0.000000 0.000000 -1.000000
vn 0.000000 0.000000 -1.000000
vn -0.965926 -0.258819 0.000000
vn -0.965926 -0.258819 0.000000
vn -1.000000 -0.000000 0.000000
vn -1.000000 -0.000000 0.000000
vn -0.965926 0.258819 0.000000
vn -0.965926 0.258819 0.000000
vn -0.866025 0.500000 0.000000
vn -0.866025 0.500000 0.000000
vn -0.707107 0.707107 0.000000
vn -0.707107 0.707107 0.000000
vn -0.500000 0.866025 0.000000
vn -0.500000 0.866025 0.000000
vn -0.258819 0.965926 0.000000
vn -0.258819 0.965926 0.000000
vn 0.000000 1.000000 -0.000000
vn 0.000000 1.000000 -0.000000
vn 0.258819 0.965926 -0.000000
vn 0.258819 0.965926 -0.000000
vn 0.500000 0.866025 -0.000000
vn 0.500000 0.866025 -0.000000
vn 0.707107 0.707107 -0.000000
vn 0.707107 0.707107 -0.000000
vn 0.866025 0.500000 -0.000000
vn 0.866025 0.500000 -0.000000
vn 0.965926 0.258819 -0.000000
vn 0.965926 0.258819 -0.000000
vn 1.000000 0.000000 -0.000000
vn 1.000000 0.000000 -0.000000
vn 0.965926 -0.258819 0.000000
vn 0.965926 -0.258819 0.000000
vn 0.866025 -0.500000 0.000000
vn 0.866025 -0.500000 0.000000
vn 0.707107 -0.707107 0.000000
vn 0.707107 -0.707107 0.000000
vn 0.500000 -0.866025 0.000000
vn 0.500000 -0.866025 0.000000
vn 0.258819 -0.965926 0.000000
vn 0.258819 -0.965926 0.000000
vn 0.000000 -1.000000 0.000000
vn 0.000000 -1.000000 0.000000
vn -0.258819 -0.965926 0.000000
vn -0.258819 -0.965926 0.000000
vn -0.500000 -0.866025 0.000000
vn -0.500000 -0.866025 0.000000
vn -0.707107 -0.707107 0.000000
vn -0.707107 -0.707107 0.000000
vn -0.866025 -0.500000 0.000000
vn -0.866025 -0.500000 0.000000
vn 0.000000 0.000000 -1.000000
vn 0.000000 0.000000 -1.000000
vn 0.000000 0.000000 -1.000000
vn 0.000000 0.000000 -1.000000
vn 0.000000 0.000000 -1.000000
vn 0.000000 0.000000 -1.000000
vn 0.000000 0.000000 -1.000000
vn 0.000000 0.000000 -1.000000
vn 0.000000 0.000000 -1.000000
vn 0.000000 0.000000 -1.000000
vn 0.000000 0.000000 -1.000000
vn 0.000000 0.000000 -1.000000
vn 0.000000 0.000000 -1.000000
vn 0.000000 0.000000 -1.000000
vn 0.000000 0.000000 -1.000000
vn 0.000000 0.000000 -1.000000
vn 0.000000 0.000000 -1.000000
vn 0.000000 0.000000 -1.000000
vn 0.000000 0.000000 -1.000000
vn 0.000000 0.000000 -1.000000
vn 0.000000 0.000000 -1.000000
vn 0.000000 0.000000 -1.000000
vn 0.000000 0.000000 -1.000000
vn 0.000000 0.000000 -1.000000
vn -0.965926 -0.258819 0.000000
vn -0.965926 -0.258819 0.000000
vn -1.000000 -0.000000 0.000000
vn -1.000000 -0.000000 0.000000
vn -0.965926 0.258819 0.000000
vn -0.965926 0.258819 0.000000
vn -0.866025 0.500000 0.000000
vn -0.866025 0.500000 0.000000
vn -0.707107 0.707107 0.000000
vn -0.707107 0.707107 0.000000
vn -0.500000 0.866025 0.000000
vn -0.500000 0.866025 0.000000
vn -0.258819 0.965926 0.000000
vn -0.258819 0.965926 0.000000
vn 0.000000 1.000000 -0.000000
vn 0.000000 1.000000 -0.000000
vn 0.258819 0.965926 -0.000000
vn 0.258819 0.965926 -0.000000
vn 0.500000 0.866025 -0.000000
vn 0.500000 0.866025 -0.000000
vn 0.707107 0.707107 -0.000000
vn 0.707107 0.707107 -0.000000
vn 0.866025 0.500000 -0.000000
vn 0.866025 0.500000 -0.000000
vn 0.965926 0.258819 -0.000000
vn 0.965926 0.258819 -0.000000
vn 1.000000 0.000000 -0.000000
vn 1.000000 0.000000 -0.000000
vn 0.965926 -0.258819 0.000000
vn 0.965926 -0.258819 0.000000
vn 0.866025 -0.500000 0.000000
vn 0.866025 -0.500000 0.000000
vn 0.707107 -0.707107 0.000000
vn 0.707107 -0.707107 0.000000
vn 0.500000 -0.866025 0.000000
vn 0.500000 -0.866025 0.000000
vn 0.258819 -0.965926 0.000000
vn 0.258819 -0.965926 0.000000
vn 0.000000 -1.000000 0.000000
vn 0.000000 -1.000000 0.000000
vn -0.258819 -0.965926 0.000000
vn -0.258819 -0.965926 0.000000
vn -0.500000 -0.866025 0.000000
vn -0.500000 -0.866025 0.000000
vn -0.707107 -0.707107 0.000000
vn -0.707107 -0.707107 0.000000
vn -0.866025 -0.500000 0.000000
vn -0.866025 -0.500000 0.000000
vn 0.000000 0.000000 -1.000000
vn 0.000000 0.000000 -1.000000
vn 0.000000 0.000000 -1.000000
vn 0.000000 0.000000 -1.000000
vn 0.000000 0.000000 -1.000000
vn 0.000000 0.000000 -1.000000
vn 0.000000 0.000000 -1.000000
vn 0.000000 0.000000 -1.000000
vn 0.000000 0.000000 -1.000000
vn 0.000000 0.000000 -1.000000
vn 0.000000 0.000000 -1.000000
vn 0.000000 0.000000 -1.000000
vn 0.000000 0.000000 -1.000000
vn 0.000000 0.000000 -1.000000
vn 0.000000 0.000000 -1.000000
vn 0.000000 0.000000 -1.000000
vn 0.000000 0.000000 -1.000000
vn 0.000000 0.000000 -1.000000
vn 0.000000 0.000000 -1.000000
vn 0.000000 0.000000 -1.000000
vn 0.000000 0.000000 -1.000000
vn 0.000000 0.000000 -1.000000
vn 0.000000 0.000000 -1.000000
vn 0.000000 0.000000 -1.000000
vn 1.000000 0.000000 -0.000000
vn 1.000000 0.000000 -0.000000
vn 1.000000 0.000000 -0.000000
vn 1.000000 0.000000 -0.000000
vn -1.000000 0.000000 0.000000
vn -1.000000 0.000000 0.000000
vn -1.000000 0.000000 0.000000
vn -1.000000 0.000000 0.000000
vn 0.000000 1.000000 0.000000
vn 0.000000 1.000000 0.000000
vn 0.000000 1.000000 0.000000
vn 0.000000 1.000000 0.000000
vn 0.000000 0.000000 -1.000000
vn 0.000000 0.000000 -1.000000
vn 0.000000 0.000000 -1.000000
vn 0.000000 0.000000 -1.000000
vn 0.000000 0.000000 -1.000000
vn 0.000000 0.000000 -1.000000
vn 0.000000 0.000000 -1.000000
vn 0.000000 0.000000 -1.000000
vn 0.000000 0.000000 -1.000000
vn 0.000000 0.000000 -1.000000
vn 0.000000 0.000000 -1.000000
vn 0.000000 0.000000 -1.000000
vn 0.000000 0.000000 -1.000000
vn 0.000000 0.000000 -1.000000
vn 0.000000 0.000000 -1.000000
vn 0.000000 0.000000 -1.000000
vn 0.000000 0.000000 -1.000000
vn 0.000000 0.000000 -1.000000
vn 0.000000 0.000000 -1.000000
vn 0.000000 0.000000 -1.000000
vn 0.000000 0.000000 -1.000000
vn 0.000000 0.000000 -1.000000
vn 0.000000 0.000000 -1.000000
vn 0.000000 0.000000 -1.000000
vn 0.000000 0.000000 -1.000000
vn 0.000000 0.000000 -1.000000
vn 0.000000 0.000000 -1.000000
vn 0.000000 0.000000 -1.000000
vn 0.000000 0.000000 -1.000000
vn 0.000000 0.000000 -1.000000
vn 0.000000 0.000000 -1.000000
vn 0.000000 0.000000 -1.000000
vn 0.000000 0.000000 -1.000000
vn 0.000000 0.000000 -1.000000
vn 0.000000 0.000000 -1.000000
vn 0.000000 0.000000 -1.000000
vn 0.000000 0.000000 -1.000000
vn 0.000000 0.000000 -1.000000
vn 0.000000 0.000000 -1.000000
vn 0.000000 0.000000 -1.000000
vn 0.000000 0.000000 -1.000000
vn 0.000000 0.000000 -1.000000
vn 0.000000 0.000000 -1.000000
vn 0.000000 0.000000 -1.000000
vn 0.000000 0.000000 -1.000000
vn 0.000000 0.000000 -1.000000
vn 0.000000 0.000000 -1.000000
vn 0.000000 0.000000 -1.000000
vn 0.000000 0.000000 -1.000000
vn 0.000000 0.000000 -1.000000
vn 0.000000 0.000000 -1.000000
vn 0.000000 0.000000 -1.000000
vn 0.000000 0.000000 -1.000000
vn 0.000000 0.000000 -1.000000
vn 0.000000 0.000000 -1.000000
vn 0.000000 0.000000 -1.000000
vn 0.000000 0.000000 -1.000000
vn 0.000000 0.000000 -1.000000
vn 0.000000 0.000000 -1.000000
vn 0.000000 0.000000 -1.000000
vn 0.000000 0.000000 -1.000000
vn 0.000000 0.000000 -1.000000
vn 0.000000 0.000000 -1.000000
vn 0.000000 0.000000 -1.000000
vn 0.000000 0.000000 -1.000000
vn 0.000000 0.000000 -1.000000
vn 0.000000 0.000000 -1.000000
vn 0.000000 0.000000 -1.000000
vn 0.000000 0.000000 -1.000000
vn 0.000000 0.000000 -1.000000
vn 0.000000 0.000000 -1.000000
vn 0.000000 0.000000 -1.000000
vn 0.000000 0.000000 -1.000000
vn 0.000000 0.000000 -1.000000
vn 0.000000 0.000000 -1.000000
vn 0.000000 0.000000 -1.000000
vn 0.000000 0.000000 -1.000000
vn 0.000000 0.000000 -1.000000
vn 0.000000 0.000000 -1.000000
vn 0.000000 0.000000 -1.000000
vn 0.000000 0.000000 -1.000000
vn 0.000000 0.000000 -1.000000
vn 0.000000 0.000000 -1.000000
vn 0.000000 0.000000 -1.000000
vn 0.000000 0.000000 -1.000000
vn 0.000000 0.000000 -1.000000
vn 0.000000 0.000000 -1.000000
vn 0.000000 0.000000 -1.000000
vn 0.000000 0.000000 -1.000000
vn 0.000000 0.000000 -1.000000
vn 0.000000 0.000000 -1.000000
vn 0.000000 0.000000 -1.000000
vn 0.000000 0.000000 -1.000000
vn 0.000000 0.000000 -1.000000
vn 0.000000 0.000000 -1.000000
vn 0.000000 0.000000 -1.000000
vn 0.000000 0.000000 -1.000000
vn 0.000000 0.000000 -1.000000
vn 0.000000 0.000000 -1.000000
vn 0.000000 0.000000 -1.000000
vn 0.000000 0.000000 -1.000000
vn 0.000000 0.000000 -1.000000
usemtl Steel_-_Satin
f 14/1/1 1/2/2 13/3/3
f 13/3/3 1/2/2 2/4/4
f 13/3/3 2/4/4 12/5/5
f 12/5/5 2/4/4 3/6/6
f 12/5/5 3/6/6 11/7/7
f 11/7/7 3/6/6 4/8/8
f 11/7/7 4/8/8 10/9/9
f 10/9/9 4/8/8 5/10/10
f 10/9/9 5/10/10 9/11/11
f 9/11/11 5/10/10 6/12/12
f 9/11/11 6/12/12 8/13/13
f 8/13/13 6/12/12 7/14/14
f 8/15/13 7/16/14 16/17/15
f 16/17/15 7/16/14 15/18/16
f 28/19/17 17/20/18 27/21/19
f 27/21/19 17/20/18 18/22/20
f 27/21/19 18/22/20 26/23/21
f 26/23/21 18/22/20 19/24/22
f 26/23/21 19/24/22 25/25/23
f 25/25/23 19/24/22 20/26/24
f 25/25/23 20/26/24 24/27/25
f 24/27/25 20/26/24 21/28/26
f 24/27/25 21/28/26 23/29/27
f 23/29/27 21/28/26 22/30/28
f 23/29/27 22/30/28 15/31/16
f 15/31/16 22/30/28 16/32/15
f 28/33/29 27/34/30 29/35/31
f 29/35/31 27/34/30 26/36/32
f 29/35/31 26/36/32 25/37/33
f 25/37/33 24/38/34 29/35/31
f 29/35/31 24/38/34 23/39/35
f 29/35/31 23/39/35 15/40/36
f 15/40/36 7/41/37 29/35/31
f 29/35/31 7/41/37 30/42/38
f 30/42/38 7/41/37 6/43/39
f 30/42/38 6/43/39 5/44/40
f 5/44/40 4/45/41 30/42/38
f 30/42/38 4/45/41 3/46/42
f 30/42/38 3/46/42 2/47/43
f 2/47/43 1/48/44 30/42/38
f 17/49/45 31/50/46 18/51/47
f 18/51/47 31/50/46 19/52/48
f 19/52/48 31/50/46 20/53/49
f 20/53/49 31/50/46 21/54/50
f 21/54/50 31/50/46 22/55/51
f 22/55/51 31/50/46 16/56/52
f 16/56/52 31/50/46 8/57/53
f 8/57/53 31/50/46 32/58/54
f 8/57/53 32/58/54 9/59/55
f 9/59/55 32/58/54 10/60/56
f 10/60/56 32/58/54 11/61/57
f 11/61/57 32/58/54 12/62/58
f 12/62/58 32/58/54 13/63/59
f 13/63/59 32/58/54 14/64/60
f 32/65/61 33/66/62 14/67/1
f 14/67/1 33/66/62 34/68/63
f 14/67/1 34/68/63 1/69/2
f 1/69/2 34/68/63 35/70/64
f 1/69/2 35/70/64 36/71/65
f 36/71/65 30/72/66 1/69/2
f 31/73/67 50/74/68 32/75/69
f 32/75/69 50/74/68 51/76/70
f 32/75/69 51/76/70 52/77/71
f 37/78/72 44/79/73 31/73/67
f 31/73/67 44/79/73 45/80/74
f 31/73/67 45/80/74 46/81/75
f 33/82/76 38/83/77 37/78/72
f 37/78/72 38/83/77 39/84/78
f 37/78/72 39/84/78 40/85/79
f 32/75/69 56/86/80 33/82/76
f 33/82/76 56/86/80 57/87/81
f 33/82/76 57/87/81 58/88/82
f 40/85/79 41/89/83 37/78/72
f 37/78/72 41/89/83 42/90/84
f 37/78/72 42/90/84 43/91/85
f 43/91/85 44/79/73 37/78/72
f 46/81/75 47/92/86 31/73/67
f 31/73/67 47/92/86 48/93/87
f 31/73/67 48/93/87 49/94/88
f 49/94/88 50/74/68 31/73/67
f 52/77/71 53/95/89 32/75/69
f 32/75/69 53/95/89 54/96/90
f 32/75/69 54/96/90 55/97/91
f 55/97/91 56/86/80 32/75/69
f 58/88/82 59/98/92 33/82/76
f 33/82/76 59/98/92 60/99/93
f 33/82/76 60/99/93 61/100/94
f 61/100/94 38/83/77 33/82/76
f 30/101/95 63/102/96 29/103/97
f 29/103/97 63/102/96 64/104/98
f 29/103/97 64/104/98 65/105/99
f 36/106/100 81/107/101 30/101/95
f 30/101/95 81/107/101 82/108/102
f 30/101/95 82/108/102 83/109/103
f 62/110/104 75/111/105 36/106/100
f 36/106/100 75/111/105 76/112/106
f 36/106/100 76/112/106 77/113/107
f 29/103/97 69/114/108 62/110/104
f 62/110/104 69/114/108 70/115/109
f 62/110/104 70/115/109 71/116/110
f 65/105/99 66/117/111 29/103/97
f 29/103/97 66/117/111 67/118/112
f 29/103/97 67/118/112 68/119/113
f 68/119/113 69/114/108 29/103/97
f 71/116/110 72/120/114 62/110/104
f 62/110/104 72/120/114 73/121/115
f 62/110/104 73/121/115 74/122/116
f 74/122/116 75/111/105 62/110/104
f 77/113/107 78/123/117 36/106/100
f 36/106/100 78/123/117 79/124/118
f 36/106/100 79/124/118 80/125/119
f 80/125/119 81/107/101 36/106/100
f 83/109/103 84/126/120 30/101/95
f 30/101/95 84/126/120 85/127/121
f 30/101/95 85/127/121 86/128/122
f 86/128/122 63/102/96 30/101/95
f 86/129/123 110/130/124 63/131/125
f 63/131/125 110/130/124 87/132/126
f 63/133/125 87/134/126 64/135/127
f 64/135/127 87/134/126 88/136/128
f 64/135/127 88/136/128 65/137/129
f 65/137/129 88/136/128 89/138/130
f 65/137/129 89/138/130 66/139/131
f 66/139/131 89/138/130 90/140/132
f 66/139/131 90/140/132 67/141/133
f 67/141/133 90/140/132 91/142/134
f 67/141/133 91/142/134 68/143/135
f 68/143/135 91/142/134 92/144/136
f 68/143/135 92/144/136 69/145/137
f 69/145/137 92/144/136 93/146/138
f 69/145/137 93/146/138 70/147/139
f 70/147/139 93/146/138 94/148/140
f 70/147/139 94/148/140 71/149/141
f 71/149/141 94/148/140 95/150/142
f 71/149/141 95/150/142 72/151/143
f 72/151/143 95/150/142 96/152/144
f 72/151/143 96/152/144 73/153/145
f 73/153/145 96/152/144 97/154/146
f 73/153/145 97/154/146 74/155/147
f 74/155/147 97/154/146 98/156/148
f 74/155/147 98/156/148 75/157/149
f 75/157/149 98/156/148 99/158/150
f 75/157/149 99/158/150 76/159/151
f 76/159/151 99/158/150 100/160/152
f 76/159/151 100/160/152 77/161/153
f 77/161/153 100/160/152 101/162/154
f 77/161/153 101/162/154 78/163/155
f 78/163/155 101/162/154 102/164/156
f 78/163/155 102/164/156 79/165/157
f 79/165/157 102/164/156 103/166/158
f 79/165/157 103/166/158 80/167/159
f 80/167/159 103/166/158 104/168/160
f 80/167/159 104/168/160 81/169/161
f 81/169/161 104/168/160 105/170/162
f 81/169/161 105/170/162 82/171/163
f 82/171/163 105/170/162 106/172/164
f 82/171/163 106/172/164 83/173/165
f 83/173/165 106/172/164 107/174/166
f 83/173/165 107/174/166 84/175/167
f 84/175/167 107/174/166 108/176/168
f 84/175/167 108/176/168 85/177/169
f 85/177/169 108/176/168 109/178/170
f 85/177/169 109/178/170 86/129/123
f 86/129/123 109/178/170 110/130/124
f 110/179/171 100/180/172 87/181/173
f 87/181/173 100/180/172 99/182/174
f 87/181/173 99/182/174 88/183/175
f 88/183/175 99/182/174 98/184/176
f 88/183/175 98/184/176 89/185/177
f 89/185/177 98/184/176 97/186/178
f 89/185/177 97/186/178 90/187/179
f 90/187/179 97/186/178 96/188/180
f 90/187/179 96/188/180 91/189/181
f 91/189/181 96/188/180 95/190/182
f 91/189/181 95/190/182 92/191/183
f 92/191/183 95/190/182 94/192/184
f 92/191/183 94/192/184 93/193/185
f 100/180/172 110/179/171 101/194/186
f 101/194/186 110/179/171 109/195/187
f 101/194/186 109/195/187 102/196/188
f 102/196/188 109/195/187 108/197/189
f 102/196/188 108/197/189 103/198/190
f 103/198/190 108/197/189 107/199/191
f 103/198/190 107/199/191 104/200/192
f 104/200/192 107/199/191 106/201/193
f 104/200/192 106/201/193 105/202/194
f 61/203/195 134/204/196 38/205/197
f 38/205/197 134/204/196 111/206/198
f 38/207/197 111/208/198 39/209/199
f 39/209/199 111/208/198 112/210/200
f 39/209/199 112/210/200 40/211/201
f 40/211/201 112/210/200 113/212/202
f 40/211/201 113/212/202 41/213/203
f 41/213/203 113/212/202 114/214/204
f 41/213/203 114/214/204 42/215/205
f 42/215/205 114/214/204 115/216/206
f 42/215/205 115/216/206 43/217/207
f 43/217/207 115/216/206 116/218/208
f 43/217/207 116/218/208 44/219/209
f 44/219/209 116/218/208 117/220/210
f 44/219/209 117/220/210 45/221/211
f 45/221/211 117/220/210 118/222/212
f 45/221/211 118/222/212 46/223/213
f 46/223/213 118/222/212 119/224/214
f 46/223/213 119/224/214 47/225/215
f 47/225/215 119/224/214 120/226/216
f 47/225/215 120/226/216 48/227/217
f 48/227/217 120/226/216 121/228/218
f 48/227/217 121/228/218 49/229/219
f 49/229/219 121/228/218 122/230/220
f 49/229/219 122/230/220 50/231/221
f 50/231/221 122/230/220 123/232/222
f 50/231/221 123/232/222 51/233/223
f 51/233/223 123/232/222 124/234/224
f 51/233/223 124/234/224 52/235/225
f 52/235/225 124/234/224 125/236/226
f 52/235/225 125/236/226 53/237/227
f 53/237/227 125/236/226 126/238/228
f 53/237/227 126/238/228 54/239/229
f 54/239/229 126/238/228 127/240/230
f 54/239/229 127/240/230 55/241/231
f 55/241/231 127/240/230 128/242/232
f 55/241/231 128/242/232 56/243/233
f 56/243/233 128/242/232 129/244/234
f 56/243/233 129/244/234 57/245/235
f 57/245/235 129/244/234 130/246/236
f 57/245/235 130/246/236 58/247/237
f 58/247/237 130/246/236 131/248/238
f 58/247/237 131/248/238 59/249/239
f 59/249/239 131/248/238 132/250/240
f 59/249/239 132/250/240 60/251/241
f 60/251/241 132/250/240 133/252/242
f 60/251/241 133/252/242 61/203/195
f 61/203/195 133/252/242 134/204/196
f 134/253/243 124/254/244 111/255/245
f 111/255/245 124/254/244 123/256/246
f 111/255/245 123/256/246 112/257/247
f 112/257/247 123/256/246 122/258/248
f 112/257/247 122/258/248 113/259/249
f 113/259/249 122/258/248 121/260/250
f 113/259/249 121/260/250 114/261/251
f 114/261/251 121/260/250 120/262/252
f 114/261/251 120/262/252 115/263/253
f 115/263/253 120/262/252 119/264/254
f 115/263/253 119/264/254 116/265/255
f 116/265/255 119/264/254 118/266/256
f 116/265/255 118/266/256 117/267/257
f 124/254/244 134/253/243 125/268/258
f 125/268/258 134/253/243 133/269/259
f 125/268/258 133/269/259 126/270/260
f 126/270/260 133/269/259 132/271/261
f 126/270/260 132/271/261 127/272/262
f 127/272/262 132/271/261 131/273/263
f 127/272/262 131/273/263 128/274/264
f 128/274/264 131/273/263 130/275/265
f 128/274/264 130/275/265 129/276/266
f 136/277/267 182/278/268 135/279/269
f 135/279/269 182/278/268 159/280/270
f 135/281/269 159/282/270 158/283/271
f 158/283/271 159/282/270 160/284/272
f 158/283/271 160/284/272 157/285/273
f 157/285/273 160/284/272 161/286/274
f 157/285/273 161/286/274 156/287/275
f 156/287/275 161/286/274 162/288/276
f 156/287/275 162/288/276 155/289/277
f 155/289/277 162/288/276 163/290/278
f 155/289/277 163/290/278 154/291/279
f 154/291/279 163/290/278 164/292/280
f 154/291/279 164/292/280 153/293/281
f 153/293/281 164/292/280 165/294/282
f 153/293/281 165/294/282 152/295/283
f 152/295/283 165/294/282 166/296/284
f 152/295/283 166/296/284 151/297/285
f 151/297/285 166/296/284 167/298/286
f 151/297/285 167/298/286 150/299/287
f 150/299/287 167/298/286 168/300/288
f 150/299/287 168/300/288 149/301/289
f 149/301/289 168/300/288 169/302/290
f 149/301/289 169/302/290 148/303/291
f 148/303/291 169/302/290 170/304/292
f 148/303/291 170/304/292 147/305/293
f 147/305/293 170/304/292 171/306/294
f 147/305/293 171/306/294 146/307/295
f 146/307/295 171/306/294 172/308/296
f 146/307/295 172/308/296 145/309/297
f 145/309/297 172/308/296 173/310/298
f 145/309/297 173/310/298 144/311/299
f 144/311/299 173/310/298 174/312/300
f 144/311/299 174/312/300 143/313/301
f 143/313/301 174/312/300 175/314/302
f 143/313/301 175/314/302 142/315/303
f 142/315/303 175/314/302 176/316/304
f 142/315/303 176/316/304 141/317/305
f 141/317/305 176/316/304 177/318/306
f 141/317/305 177/318/306 140/319/307
f 140/319/307 177/318/306 178/320/308
f 140/319/307 178/320/308 139/321/309
f 139/321/309 178/320/308 179/322/310
f 139/321/309 179/322/310 138/323/311
f 138/323/311 179/322/310 180/324/312
f 138/323/311 180/324/312 137/325/313
f 137/325/313 180/324/312 181/326/314
f 137/325/313 181/326/314 136/277/267
f 136/277/267 181/326/314 182/278/268
f 158/327/315 148/328/316 135/329/317
f 135/329/317 148/328/316 147/330/318
f 135/329/317 147/330/318 136/331/319
f 136/331/319 147/330/318 146/332/320
f 136/331/319 146/332/320 137/333/321
f 137/333/321 146/332/320 145/334/322
f 137/333/321 145/334/322 138/335/323
f 138/335/323 145/334/322 144/336/324
f 138/335/323 144/336/324 139/337/325
f 139/337/325 144/336/324 143/338/326
f 139/337/325 143/338/326 140/339/327
f 140/339/327 143/338/326 142/340/328
f 140/339/327 142/340/328 141/341/329
f 148/328/316 158/327/315 149/342/330
f 149/342/330 158/327/315 157/343/331
f 149/342/330 157/343/331 150/344/332
f 150/344/332 157/343/331 156/345/333
f 150/344/332 156/345/333 151/346/334
f 151/346/334 156/345/333 155/347/335
f 151/346/334 155/347/335 152/348/336
f 152/348/336 155/347/335 154/349/337
f 152/348/336 154/349/337 153/350/338
f 184/351/339 230/352/340 183/353/341
f 183/353/341 230/352/340 207/354/342
f 183/355/341 207/356/342 206/357/343
f 206/357/343 207/356/342 208/358/344
f 206/357/343 208/358/344 205/359/345
f 205/359/345 208/358/344 209/360/346
f 205/359/345 209/360/346 204/361/347
f 204/361/347 209/360/346 210/362/348
f 204/361/347 210/362/348 203/363/349
f 203/363/349 210/362/348 211/364/350
f 203/363/349 211/364/350 202/365/351
f 202/365/351 211/364/350 212/366/352
f 202/365/351 212/366/352 201/367/353
f 201/367/353 212/366/352 213/368/354
f 201/367/353 213/368/354 200/369/355
f 200/369/355 213/368/354 214/370/356
f 200/369/355 214/370/356 199/371/357
f 199/371/357 214/370/356 215/372/358
f 199/371/357 215/372/358 198/373/359
f 198/373/359 215/372/358 216/374/360
f 198/373/359 216/374/360 197/375/361
f 197/375/361 216/374/360 217/376/362
f 197/375/361 217/376/362 196/377/363
f 196/377/363 217/376/362 218/378/364
f 196/377/363 218/378/364 195/379/365
f 195/379/365 218/378/364 219/380/366
f 195/379/365 219/380/366 194/381/367
f 194/381/367 219/380/366 220/382/368
f 194/381/367 220/382/368 193/383/369
f 193/383/369 220/382/368 221/384/370
f 193/383/369 221/384/370 192/385/371
f 192/385/371 221/384/370 222/386/372
f 192/385/371 222/386/372 191/387/373
f 191/387/373 222/386/372 223/388/374
f 191/387/373 223/388/374 190/389/375
f 190/389/375 223/388/374 224/390/376
f 190/389/375 224/390/376 189/391/377
f 189/391/377 224/390/376 225/392/378
f 189/391/377 225/392/378 188/393/379
f 188/393/379 225/392/378 226/394/380
f 188/393/379 226/394/380 187/395/381
f 187/395/381 226/394/380 227/396/382
f 187/395/381 227/396/382 186/397/383
f 186/397/383 227/396/382 228/398/384
f 186/397/383 228/398/384 185/399/385
f 185/399/385 228/398/384 229/400/386
f 185/399/385 229/400/386 184/351/339
f 184/351/339 229/400/386 230/352/340
f 206/401/387 196/402/388 183/403/389
f 183/403/389 196/402/388 195/404/390
f 183/403/389 195/404/390 184/405/391
f 184/405/391 195/404/390 194/406/392
f 184/405/391 194/406/392 185/407/393
f 185/407/393 194/406/392 193/408/394
f 185/407/393 193/408/394 186/409/395
f 186/409/395 193/408/394 192/410/396
f 186/409/395 192/410/396 187/411/397
f 187/411/397 192/410/396 191/412/398
f 187/411/397 191/412/398 188/413/399
f 188/413/399 191/412/398 190/414/400
f 188/413/399 190/414/400 189/415/401
f 196/402/388 206/401/387 197/416/402
f 197/416/402 206/401/387 205/417/403
f 197/416/402 205/417/403 198/418/404
f 198/418/404 205/417/403 204/419/405
f 198/418/404 204/419/405 199/420/406
f 199/420/406 204/419/405 203/421/407
f 199/420/406 203/421/407 200/422/408
f 200/422/408 203/421/407 202/423/409
f 200/422/408 202/423/409 201/424/410
f 232/425/411 278/426/412 231/427/413
f 231/427/413 278/426/412 255/428/414
f 231/429/413 255/430/414 254/431/415
f 254/431/415 255/430/414 256/432/416
f 254/431/415 256/432/416 253/433/417
f 253/433/417 256/432/416 257/434/418
f 253/433/417 257/434/418 252/435/419
f 252/435/419 257/434/418 258/436/420
f 252/435/419 258/436/420 251/437/421
f 251/437/421 258/436/420 259/438/422
f 251/437/421 259/438/422 250/439/423
f 250/439/423 259/438/422 260/440/424
f 250/439/423 260/440/424 249/441/425
f 249/441/425 260/440/424 261/442/426
f 249/441/425 261/442/426 248/443/427
f 248/443/427 261/442/426 262/444/428
f 248/443/427 262/444/428 247/445/429
f 247/445/429 262/444/428 263/446/430
f 247/445/429 263/446/430 246/447/431
f 246/447/431 263/446/430 264/448/432
f 246/447/431 264/448/432 245/449/433
f 245/449/433 264/448/432 265/450/434
f 245/449/433 265/450/434 244/451/435
f 244/451/435 265/450/434 266/452/436
f 244/451/435 266/452/436 243/453/437
f 243/453/437 266/452/436 267/454/438
f 243/453/437 267/454/438 242/455/439
f 242/455/439 267/454/438 268/456/440
f 242/455/439 268/456/440 241/457/441
f 241/457/441 268/456/440 269/458/442
f 241/457/441 269/458/442 240/459/443
f 240/459/443 269/458/442 270/460/444
f 240/459/443 270/460/444 239/461/445
f 239/461/445 270/460/444 271/462/446
f 239/461/445 271/462/446 238/463/447
f 238/463/447 271/462/446 272/464/448
f 238/463/447 272/464/448 237/465/449
f 237/465/449 272/464/448 273/466/450
f 237/465/449 273/466/450 236/467/451
f 236/467/451 273/466/450 274/468/452
f 236/467/451 274/468/452 235/469/453
f 235/469/453 274/468/452 275/470/454
f 235/469/453 275/470/454 234/471/455
f 234/471/455 275/470/454 276/472/456
f 234/471/455 276/472/456 233/473/457
f 233/473/457 276/472/456 277/474/458
f 233/473/457 277/474/458 232/425/411
f 232/425/411 277/474/458 278/426/412
f 254/475/459 244/476/460 231/477/461
f 231/477/461 244/476/460 243/478/462
f 231/477/461 243/478/462 232/479/463
f 232/479/463 243/478/462 242/480/464
f 232/479/463 242/480/464 233/481/465
f 233/481/465 242/480/464 241/482/466
f 233/481/465 241/482/466 234/483/467
f 234/483/467 241/482/466 240/484/468
f 234/483/467 240/484/468 235/485/469
f 235/485/469 240/484/468 239/486/470
f 235/485/469 239/486/470 236/487/471
f 236/487/471 239/486/470 238/488/472
f 236/487/471 238/488/472 237/489/473
f 244/476/460 254/475/459 245/490/474
f 245/490/474 254/475/459 253/491/475
f 245/490/474 253/491/475 246/492/476
f 246/492/476 253/491/475 252/493/477
f 246/492/476 252/493/477 247/494/478
f 247/494/478 252/493/477 251/495/479
f 247/494/478 251/495/479 248/496/480
f 248/496/480 251/495/479 250/497/481
f 248/496/480 250/497/481 249/498/482
f 280/499/483 326/500/484 279/501/485
f 279/501/485 326/500/484 303/502/486
f 279/503/485 303/504/486 302/505/487
f 302/505/487 303/504/486 304/506/488
f 302/505/487 304/506/488 301/507/489
f 301/507/489 304/506/488 305/508/490
f 301/507/489 305/508/490 300/509/491
f 300/509/491 305/508/490 306/510/492
f 300/509/491 306/510/492 299/511/493
f 299/511/493 306/510/492 307/512/494
f 299/511/493 307/512/494 298/513/495
f 298/513/495 307/512/494 308/514/496
f 298/513/495 308/514/496 297/515/497
f 297/515/497 308/514/496 309/516/498
f 297/515/497 309/516/498 296/517/499
f 296/517/499 309/516/498 310/518/500
f 296/517/499 310/518/500 295/519/501
f 295/519/501 310/518/500 311/520/502
f 295/519/501 311/520/502 294/521/503
f 294/521/503 311/520/502 312/522/504
f 294/521/503 312/522/504 293/523/505
f 293/523/505 312/522/504 313/524/506
f 293/523/505 313/524/506 292/525/507
f 292/525/507 313/524/506 314/526/508
f 292/525/507 314/526/508 291/527/509
f 291/527/509 314/526/508 315/528/510
f 291/527/509 315/528/510 290/529/511
f 290/529/511 315/528/510 316/530/512
f 290/529/511 316/530/512 289/531/513
f 289/531/513 316/530/512 317/532/514
f 289/531/513 317/532/514 288/533/515
f 288/533/515 317/532/514 318/534/516
f 288/533/515 318/534/516 287/535/517
f 287/535/517 318/534/516 319/536/518
f 287/535/517 319/536/518 286/537/519
f 286/537/519 319/536/518 320/538/520
f 286/537/519 320/538/520 285/539/521
f 285/539/521 320/538/520 321/540/522
f 285/539/521 321/540/522 284/541/523
f 284/541/523 321/540/522 322/542/524
f 284/541/523 322/542/524 283/543/525
f 283/543/525 322/542/524 323/544/526
f 283/543/525 323/544/526 282/545/527
f 282/545/527 323/544/526 324/546/528
f 282/545/527 324/546/528 281/547/529
f 281/547/529 324/546/528 325/548/530
f 281/547/529 325/548/530 280/499/483
f 280/499/483 325/548/530 326/500/484
f 302/549/531 292/550/532 279/551/533
f 279/551/533 292/550/532 291/552/534
f 279/551/533 291/552/534 280/553/535
f 280/553/535 291/552/534 290/554/536
f 280/553/535 290/554/536 281/555/537
f 281/555/537 290/554/536 289/556/538
f 281/555/537 289/556/538 282/557/539
f 282/557/539 289/556/538 288/558/540
f 282/557/539 288/558/540 283/559/541
f 283/559/541 288/558/540 287/560/542
f 283/559/541 287/560/542 284/561/543
f 284/561/543 287/560/542 286/562/544
f 284/561/543 286/562/544 285/563/545
f 292/550/532 302/549/531 293/564/546
f 293/564/546 302/549/531 301/565/547
f 293/564/546 301/565/547 294/566/548
f 294/566/548 301/565/547 300/567/549
f 294/566/548 300/567/549 295/568/550
f 295/568/550 300/567/549 299/569/551
f 295/568/550 299/569/551 296/570/552
f 296/570/552 299/569/551 298/571/553
f 296/570/552 298/571/553 297/572/554
f 37/573/555 327/574/556 33/575/557
f 33/575/557 327/574/556 34/576/558
f 328/577/559 62/578/560 35/579/561
f 35/579/561 62/578/560 36/580/562
f 327/581/563 328/582/564 34/583/565
f 34/583/565 328/582/564 35/584/566
f 29/585/567 308/586/568 28/587/17
f 28/587/17 308/586/568 307/588/569
f 28/587/17 307/588/569 306/589/570
f 308/586/568 29/585/567 309/590/571
f 309/590/571 29/585/567 62/591/572
f 309/590/571 62/591/572 310/592/573
f 310/592/573 62/591/572 311/593/574
f 311/593/574 62/591/572 312/594/575
f 312/594/575 62/591/572 313/595/576
f 313/595/576 62/591/572 314/596/577
f 314/596/577 62/591/572 315/597/578
f 315/597/578 62/591/572 316/598/579
f 316/598/579 62/591/572 328/599/580
f 316/598/579 328/599/580 317/600/581
f 317/600/581 328/599/580 217/601/582
f 317/600/581 217/601/582 318/602/583
f 318/602/583 217/601/582 216/603/584
f 318/602/583 216/603/584 319/604/585
f 319/604/585 216/603/584 215/605/586
f 319/604/585 215/605/586 320/606/587
f 320/606/587 215/605/586 214/607/588
f 320/606/587 214/607/588 321/608/589
f 321/608/589 214/607/588 213/609/590
f 321/608/589 213/609/590 322/610/591
f 322/610/591 213/609/590 212/611/592
f 322/610/591 212/611/592 323/612/593
f 323/612/593 212/611/592 211/613/594
f 323/612/593 211/613/594 324/614/595
f 324/614/595 211/613/594 210/615/596
f 324/614/595 210/615/596 270/616/597
f 270/616/597 210/615/596 168/617/598
f 270/616/597 168/617/598 271/618/599
f 271/618/599 168/617/598 167/619/600
f 271/618/599 167/619/600 272/620/601
f 272/620/601 167/619/600 166/621/602
f 272/620/601 166/621/602 273/622/603
f 273/622/603 166/621/602 165/623/604
f 273/622/603 165/623/604 274/624/605
f 274/624/605 165/623/604 164/625/606
f 274/624/605 164/625/606 275/626/607
f 275/626/607 164/625/606 163/627/608
f 275/626/607 163/627/608 276/628/609
f 276/628/609 163/627/608 162/629/610
f 276/628/609 162/629/610 277/630/611
f 277/630/611 162/629/610 161/631/612
f 277/630/611 161/631/612 327/632/613
f 327/632/613 161/631/612 160/633/614
f 327/632/613 160/633/614 159/634/615
f 327/632/613 225/635/616 328/599/580
f 328/599/580 225/635/616 224/636/617
f 328/599/580 224/636/617 223/637/618
f 277/630/611 327/632/613 278/638/619
f 278/638/619 327/632/613 37/639/620
f 278/638/619 37/639/620 255/640/621
f 255/640/621 37/639/620 256/641/622
f 256/641/622 37/639/620 257/642/623
f 257/642/623 37/639/620 258/643/624
f 258/643/624 37/639/620 259/644/625
f 259/644/625 37/639/620 260/645/626
f 260/645/626 37/639/620 261/646/627
f 261/646/627 37/639/620 31/647/628
f 261/646/627 31/647/628 262/648/629
f 262/648/629 31/647/628 17/649/18
f 262/648/629 17/649/18 263/650/630
f 263/650/630 17/649/18 264/651/631
f 264/651/631 17/649/18 265/652/632
f 265/652/632 17/649/18 266/653/633
f 266/653/633 17/649/18 267/654/634
f 267/654/634 17/649/18 268/655/635
f 268/655/635 17/649/18 28/587/17
f 268/655/635 28/587/17 326/656/636
f 326/656/636 28/587/17 303/657/637
f 303/657/637 28/587/17 304/658/638
f 304/658/638 28/587/17 305/659/639
f 305/659/639 28/587/17 306/589/570
f 159/634/615 182/660/640 327/632/613
f 327/632/613 182/660/640 181/661/641
f 327/632/613 181/661/641 180/662/642
f 180/662/642 179/663/643 327/632/613
f 327/632/613 179/663/643 178/664/644
f 327/632/613 178/664/644 177/665/645
f 176/666/646 226/667/647 177/665/645
f 177/665/645 226/667/647 225/635/616
f 177/665/645 225/635/616 327/632/613
f 226/667/647 176/666/646 227/668/648
f 227/668/648 176/666/646 175/669/649
f 227/668/648 175/669/649 228/670/650
f 228/670/650 175/669/649 174/671/651
f 228/670/650 174/671/651 229/672/652
f 229/672/652 174/671/651 173/673/653
f 229/672/652 173/673/653 230/674/654
f 230/674/654 173/673/653 172/675/655
f 230/674/654 172/675/655 207/676/656
f 207/676/656 172/675/655 171/677/657
f 207/676/656 171/677/657 208/678/658
f 208/678/658 171/677/657 170/679/659
f 208/678/658 170/679/659 209/680/660
f 209/680/660 170/679/659 169/681/661
f 209/680/660 169/681/661 210/615/596
f 210/615/596 169/681/661 168/617/598
f 223/637/618 222/682/662 328/599/580
f 328/599/580 222/682/662 221/683/663
f 328/599/580 221/683/663 220/684/664
f 220/684/664 219/685/665 328/599/580
f 328/599/580 219/685/665 218/686/666
f 328/599/580 218/686/666 217/601/582
f 324/614/595 270/616/597 325/687/667
f 325/687/667 270/616/597 269/688/668
f 325/687/667 269/688/668 326/656/636
f 326/656/636 269/688/668 268/655/635
# 328 vertices
# 688 texture params
# 668 normals
# 652 facets

# 1 groups
