ISO-10303-21;
HEADER;
/* Generated by software containing ST-Developer
 * from STEP Tools, Inc. (www.steptools.com) 
 */

FILE_DESCRIPTION(
/* description */ (''),
/* implementation_level */ '2;1');

FILE_NAME(
/* name */ 'NordicTRMNLCase.step',
/* time_stamp */ '2026-04-07T19:11:25+03:00',
/* author */ (''),
/* organization */ (''),
/* preprocessor_version */ 'ST-DEVELOPER v20.1',
/* originating_system */ 'Autodesk Translation Framework v14.24.0.0',
/* authorisation */ '');

FILE_SCHEMA (('AUTOMOTIVE_DESIGN { 1 0 10303 214 3 1 1 }'));
ENDSEC;

DATA;
#10=MECHANICAL_DESIGN_GEOMETRIC_PRESENTATION_REPRESENTATION('',(#13,#14,
#15,#16,#17,#18),#1860);
#11=SHAPE_REPRESENTATION_RELATIONSHIP('SRR','None',#1867,#12);
#12=ADVANCED_BREP_SHAPE_REPRESENTATION('',(#19,#20,#21,#22,#23,#24),#1859);
#13=STYLED_ITEM('',(#1876),#19);
#14=STYLED_ITEM('',(#1876),#20);
#15=STYLED_ITEM('',(#1876),#21);
#16=STYLED_ITEM('',(#1876),#22);
#17=STYLED_ITEM('',(#1876),#23);
#18=STYLED_ITEM('',(#1876),#24);
#19=MANIFOLD_SOLID_BREP('Body2',#1115);
#20=MANIFOLD_SOLID_BREP('Body3',#1116);
#21=MANIFOLD_SOLID_BREP('Body4',#1117);
#22=MANIFOLD_SOLID_BREP('Body5',#1118);
#23=MANIFOLD_SOLID_BREP('Body6',#1119);
#24=MANIFOLD_SOLID_BREP('Body7',#1120);
#25=FACE_BOUND('',#170,.T.);
#26=FACE_BOUND('',#177,.T.);
#27=FACE_BOUND('',#178,.T.);
#28=FACE_BOUND('',#179,.T.);
#29=FACE_BOUND('',#180,.T.);
#30=PLANE('',#1137);
#31=PLANE('',#1139);
#32=PLANE('',#1145);
#33=PLANE('',#1148);
#34=PLANE('',#1151);
#35=PLANE('',#1152);
#36=PLANE('',#1153);
#37=PLANE('',#1154);
#38=PLANE('',#1155);
#39=PLANE('',#1156);
#40=PLANE('',#1157);
#41=PLANE('',#1158);
#42=PLANE('',#1161);
#43=PLANE('',#1162);
#44=PLANE('',#1163);
#45=PLANE('',#1164);
#46=PLANE('',#1165);
#47=PLANE('',#1166);
#48=PLANE('',#1167);
#49=PLANE('',#1168);
#50=PLANE('',#1172);
#51=PLANE('',#1176);
#52=PLANE('',#1177);
#53=PLANE('',#1178);
#54=PLANE('',#1183);
#55=PLANE('',#1186);
#56=PLANE('',#1189);
#57=PLANE('',#1192);
#58=PLANE('',#1195);
#59=PLANE('',#1196);
#60=PLANE('',#1197);
#61=PLANE('',#1198);
#62=PLANE('',#1199);
#63=PLANE('',#1200);
#64=PLANE('',#1204);
#65=PLANE('',#1205);
#66=PLANE('',#1206);
#67=PLANE('',#1207);
#68=PLANE('',#1211);
#69=PLANE('',#1212);
#70=PLANE('',#1213);
#71=PLANE('',#1214);
#72=PLANE('',#1218);
#73=PLANE('',#1219);
#74=PLANE('',#1220);
#75=PLANE('',#1221);
#76=PLANE('',#1225);
#77=PLANE('',#1226);
#78=PLANE('',#1227);
#79=PLANE('',#1228);
#80=FACE_OUTER_BOUND('',#145,.T.);
#81=FACE_OUTER_BOUND('',#146,.T.);
#82=FACE_OUTER_BOUND('',#147,.T.);
#83=FACE_OUTER_BOUND('',#148,.T.);
#84=FACE_OUTER_BOUND('',#149,.T.);
#85=FACE_OUTER_BOUND('',#150,.T.);
#86=FACE_OUTER_BOUND('',#151,.T.);
#87=FACE_OUTER_BOUND('',#152,.T.);
#88=FACE_OUTER_BOUND('',#153,.T.);
#89=FACE_OUTER_BOUND('',#154,.T.);
#90=FACE_OUTER_BOUND('',#155,.T.);
#91=FACE_OUTER_BOUND('',#156,.T.);
#92=FACE_OUTER_BOUND('',#157,.T.);
#93=FACE_OUTER_BOUND('',#158,.T.);
#94=FACE_OUTER_BOUND('',#159,.T.);
#95=FACE_OUTER_BOUND('',#160,.T.);
#96=FACE_OUTER_BOUND('',#161,.T.);
#97=FACE_OUTER_BOUND('',#162,.T.);
#98=FACE_OUTER_BOUND('',#163,.T.);
#99=FACE_OUTER_BOUND('',#164,.T.);
#100=FACE_OUTER_BOUND('',#165,.T.);
#101=FACE_OUTER_BOUND('',#166,.T.);
#102=FACE_OUTER_BOUND('',#167,.T.);
#103=FACE_OUTER_BOUND('',#168,.T.);
#104=FACE_OUTER_BOUND('',#169,.T.);
#105=FACE_OUTER_BOUND('',#171,.T.);
#106=FACE_OUTER_BOUND('',#172,.T.);
#107=FACE_OUTER_BOUND('',#173,.T.);
#108=FACE_OUTER_BOUND('',#174,.T.);
#109=FACE_OUTER_BOUND('',#175,.T.);
#110=FACE_OUTER_BOUND('',#176,.T.);
#111=FACE_OUTER_BOUND('',#181,.T.);
#112=FACE_OUTER_BOUND('',#182,.T.);
#113=FACE_OUTER_BOUND('',#183,.T.);
#114=FACE_OUTER_BOUND('',#184,.T.);
#115=FACE_OUTER_BOUND('',#185,.T.);
#116=FACE_OUTER_BOUND('',#186,.T.);
#117=FACE_OUTER_BOUND('',#187,.T.);
#118=FACE_OUTER_BOUND('',#188,.T.);
#119=FACE_OUTER_BOUND('',#189,.T.);
#120=FACE_OUTER_BOUND('',#190,.T.);
#121=FACE_OUTER_BOUND('',#191,.T.);
#122=FACE_OUTER_BOUND('',#192,.T.);
#123=FACE_OUTER_BOUND('',#193,.T.);
#124=FACE_OUTER_BOUND('',#194,.T.);
#125=FACE_OUTER_BOUND('',#195,.T.);
#126=FACE_OUTER_BOUND('',#196,.T.);
#127=FACE_OUTER_BOUND('',#197,.T.);
#128=FACE_OUTER_BOUND('',#198,.T.);
#129=FACE_OUTER_BOUND('',#199,.T.);
#130=FACE_OUTER_BOUND('',#200,.T.);
#131=FACE_OUTER_BOUND('',#201,.T.);
#132=FACE_OUTER_BOUND('',#202,.T.);
#133=FACE_OUTER_BOUND('',#203,.T.);
#134=FACE_OUTER_BOUND('',#204,.T.);
#135=FACE_OUTER_BOUND('',#205,.T.);
#136=FACE_OUTER_BOUND('',#206,.T.);
#137=FACE_OUTER_BOUND('',#207,.T.);
#138=FACE_OUTER_BOUND('',#208,.T.);
#139=FACE_OUTER_BOUND('',#209,.T.);
#140=FACE_OUTER_BOUND('',#210,.T.);
#141=FACE_OUTER_BOUND('',#211,.T.);
#142=FACE_OUTER_BOUND('',#212,.T.);
#143=FACE_OUTER_BOUND('',#213,.T.);
#144=FACE_OUTER_BOUND('',#214,.T.);
#145=EDGE_LOOP('',(#735,#736,#737,#738));
#146=EDGE_LOOP('',(#739,#740,#741,#742,#743,#744));
#147=EDGE_LOOP('',(#745,#746,#747,#748,#749,#750,#751,#752,#753,#754,#755,
#756,#757,#758,#759,#760,#761,#762,#763,#764));
#148=EDGE_LOOP('',(#765,#766,#767,#768));
#149=EDGE_LOOP('',(#769,#770,#771,#772));
#150=EDGE_LOOP('',(#773,#774,#775,#776));
#151=EDGE_LOOP('',(#777,#778,#779,#780));
#152=EDGE_LOOP('',(#781,#782,#783,#784));
#153=EDGE_LOOP('',(#785,#786,#787,#788));
#154=EDGE_LOOP('',(#789,#790,#791,#792));
#155=EDGE_LOOP('',(#793,#794,#795,#796));
#156=EDGE_LOOP('',(#797,#798,#799,#800));
#157=EDGE_LOOP('',(#801,#802,#803,#804));
#158=EDGE_LOOP('',(#805,#806,#807,#808,#809,#810,#811,#812));
#159=EDGE_LOOP('',(#813,#814,#815,#816,#817,#818,#819,#820));
#160=EDGE_LOOP('',(#821,#822,#823,#824,#825,#826));
#161=EDGE_LOOP('',(#827,#828,#829,#830));
#162=EDGE_LOOP('',(#831,#832,#833,#834));
#163=EDGE_LOOP('',(#835,#836,#837,#838));
#164=EDGE_LOOP('',(#839,#840,#841,#842));
#165=EDGE_LOOP('',(#843,#844,#845,#846,#847,#848));
#166=EDGE_LOOP('',(#849,#850,#851,#852,#853,#854));
#167=EDGE_LOOP('',(#855,#856,#857,#858,#859,#860,#861,#862));
#168=EDGE_LOOP('',(#863,#864,#865,#866));
#169=EDGE_LOOP('',(#867,#868,#869,#870,#871,#872,#873,#874));
#170=EDGE_LOOP('',(#875,#876,#877,#878));
#171=EDGE_LOOP('',(#879,#880,#881,#882));
#172=EDGE_LOOP('',(#883,#884,#885,#886));
#173=EDGE_LOOP('',(#887,#888,#889,#890));
#174=EDGE_LOOP('',(#891,#892,#893,#894,#895,#896));
#175=EDGE_LOOP('',(#897,#898,#899,#900,#901,#902));
#176=EDGE_LOOP('',(#903,#904,#905,#906,#907,#908,#909,#910));
#177=EDGE_LOOP('',(#911));
#178=EDGE_LOOP('',(#912));
#179=EDGE_LOOP('',(#913));
#180=EDGE_LOOP('',(#914));
#181=EDGE_LOOP('',(#915,#916,#917,#918));
#182=EDGE_LOOP('',(#919,#920,#921,#922));
#183=EDGE_LOOP('',(#923));
#184=EDGE_LOOP('',(#924,#925,#926,#927));
#185=EDGE_LOOP('',(#928));
#186=EDGE_LOOP('',(#929,#930,#931,#932));
#187=EDGE_LOOP('',(#933));
#188=EDGE_LOOP('',(#934,#935,#936,#937));
#189=EDGE_LOOP('',(#938));
#190=EDGE_LOOP('',(#939,#940,#941,#942,#943,#944,#945,#946));
#191=EDGE_LOOP('',(#947,#948,#949,#950));
#192=EDGE_LOOP('',(#951,#952,#953,#954));
#193=EDGE_LOOP('',(#955,#956,#957,#958));
#194=EDGE_LOOP('',(#959,#960,#961,#962));
#195=EDGE_LOOP('',(#963,#964,#965,#966));
#196=EDGE_LOOP('',(#967,#968,#969));
#197=EDGE_LOOP('',(#970,#971,#972,#973));
#198=EDGE_LOOP('',(#974,#975,#976,#977));
#199=EDGE_LOOP('',(#978,#979,#980));
#200=EDGE_LOOP('',(#981,#982,#983,#984));
#201=EDGE_LOOP('',(#985,#986,#987));
#202=EDGE_LOOP('',(#988,#989,#990,#991));
#203=EDGE_LOOP('',(#992,#993,#994,#995));
#204=EDGE_LOOP('',(#996,#997,#998));
#205=EDGE_LOOP('',(#999,#1000,#1001,#1002));
#206=EDGE_LOOP('',(#1003,#1004,#1005));
#207=EDGE_LOOP('',(#1006,#1007,#1008,#1009));
#208=EDGE_LOOP('',(#1010,#1011,#1012,#1013));
#209=EDGE_LOOP('',(#1014,#1015,#1016));
#210=EDGE_LOOP('',(#1017,#1018,#1019,#1020));
#211=EDGE_LOOP('',(#1021,#1022,#1023));
#212=EDGE_LOOP('',(#1024,#1025,#1026,#1027));
#213=EDGE_LOOP('',(#1028,#1029,#1030,#1031));
#214=EDGE_LOOP('',(#1032,#1033,#1034));
#215=LINE('',#1547,#335);
#216=LINE('',#1550,#336);
#217=LINE('',#1553,#337);
#218=LINE('',#1557,#338);
#219=LINE('',#1559,#339);
#220=LINE('',#1560,#340);
#221=LINE('',#1563,#341);
#222=LINE('',#1567,#342);
#223=LINE('',#1571,#343);
#224=LINE('',#1574,#344);
#225=LINE('',#1576,#345);
#226=LINE('',#1578,#346);
#227=LINE('',#1580,#347);
#228=LINE('',#1582,#348);
#229=LINE('',#1584,#349);
#230=LINE('',#1586,#350);
#231=LINE('',#1588,#351);
#232=LINE('',#1590,#352);
#233=LINE('',#1592,#353);
#234=LINE('',#1593,#354);
#235=LINE('',#1596,#355);
#236=LINE('',#1600,#356);
#237=LINE('',#1601,#357);
#238=LINE('',#1604,#358);
#239=LINE('',#1608,#359);
#240=LINE('',#1609,#360);
#241=LINE('',#1612,#361);
#242=LINE('',#1615,#362);
#243=LINE('',#1619,#363);
#244=LINE('',#1621,#364);
#245=LINE('',#1623,#365);
#246=LINE('',#1624,#366);
#247=LINE('',#1627,#367);
#248=LINE('',#1629,#368);
#249=LINE('',#1630,#369);
#250=LINE('',#1634,#370);
#251=LINE('',#1636,#371);
#252=LINE('',#1638,#372);
#253=LINE('',#1639,#373);
#254=LINE('',#1643,#374);
#255=LINE('',#1645,#375);
#256=LINE('',#1647,#376);
#257=LINE('',#1648,#377);
#258=LINE('',#1651,#378);
#259=LINE('',#1653,#379);
#260=LINE('',#1654,#380);
#261=LINE('',#1656,#381);
#262=LINE('',#1658,#382);
#263=LINE('',#1659,#383);
#264=LINE('',#1661,#384);
#265=LINE('',#1662,#385);
#266=LINE('',#1663,#386);
#267=LINE('',#1665,#387);
#268=LINE('',#1671,#388);
#269=LINE('',#1672,#389);
#270=LINE('',#1673,#390);
#271=LINE('',#1675,#391);
#272=LINE('',#1676,#392);
#273=LINE('',#1678,#393);
#274=LINE('',#1679,#394);
#275=LINE('',#1683,#395);
#276=LINE('',#1684,#396);
#277=LINE('',#1692,#397);
#278=LINE('',#1695,#398);
#279=LINE('',#1698,#399);
#280=LINE('',#1700,#400);
#281=LINE('',#1701,#401);
#282=LINE('',#1707,#402);
#283=LINE('',#1710,#403);
#284=LINE('',#1712,#404);
#285=LINE('',#1713,#405);
#286=LINE('',#1716,#406);
#287=LINE('',#1718,#407);
#288=LINE('',#1719,#408);
#289=LINE('',#1722,#409);
#290=LINE('',#1724,#410);
#291=LINE('',#1726,#411);
#292=LINE('',#1728,#412);
#293=LINE('',#1729,#413);
#294=LINE('',#1740,#414);
#295=LINE('',#1741,#415);
#296=LINE('',#1744,#416);
#297=LINE('',#1749,#417);
#298=LINE('',#1754,#418);
#299=LINE('',#1759,#419);
#300=LINE('',#1764,#420);
#301=LINE('',#1766,#421);
#302=LINE('',#1768,#422);
#303=LINE('',#1769,#423);
#304=LINE('',#1771,#424);
#305=LINE('',#1772,#425);
#306=LINE('',#1774,#426);
#307=LINE('',#1782,#427);
#308=LINE('',#1785,#428);
#309=LINE('',#1788,#429);
#310=LINE('',#1789,#430);
#311=LINE('',#1792,#431);
#312=LINE('',#1793,#432);
#313=LINE('',#1795,#433);
#314=LINE('',#1802,#434);
#315=LINE('',#1805,#435);
#316=LINE('',#1808,#436);
#317=LINE('',#1809,#437);
#318=LINE('',#1812,#438);
#319=LINE('',#1813,#439);
#320=LINE('',#1815,#440);
#321=LINE('',#1822,#441);
#322=LINE('',#1825,#442);
#323=LINE('',#1828,#443);
#324=LINE('',#1829,#444);
#325=LINE('',#1832,#445);
#326=LINE('',#1833,#446);
#327=LINE('',#1835,#447);
#328=LINE('',#1842,#448);
#329=LINE('',#1845,#449);
#330=LINE('',#1848,#450);
#331=LINE('',#1849,#451);
#332=LINE('',#1852,#452);
#333=LINE('',#1853,#453);
#334=LINE('',#1855,#454);
#335=VECTOR('',#1235,10.);
#336=VECTOR('',#1238,10.);
#337=VECTOR('',#1241,10.);
#338=VECTOR('',#1244,10.);
#339=VECTOR('',#1245,10.);
#340=VECTOR('',#1246,10.);
#341=VECTOR('',#1249,10.);
#342=VECTOR('',#1252,10.);
#343=VECTOR('',#1255,10.);
#344=VECTOR('',#1258,10.);
#345=VECTOR('',#1259,10.);
#346=VECTOR('',#1260,10.);
#347=VECTOR('',#1261,10.);
#348=VECTOR('',#1262,10.);
#349=VECTOR('',#1263,10.);
#350=VECTOR('',#1264,10.);
#351=VECTOR('',#1265,10.);
#352=VECTOR('',#1266,10.);
#353=VECTOR('',#1267,10.);
#354=VECTOR('',#1268,10.);
#355=VECTOR('',#1271,10.);
#356=VECTOR('',#1276,10.);
#357=VECTOR('',#1277,10.);
#358=VECTOR('',#1280,10.);
#359=VECTOR('',#1285,10.);
#360=VECTOR('',#1286,10.);
#361=VECTOR('',#1289,10.);
#362=VECTOR('',#1294,10.);
#363=VECTOR('',#1297,10.);
#364=VECTOR('',#1298,10.);
#365=VECTOR('',#1299,10.);
#366=VECTOR('',#1300,10.);
#367=VECTOR('',#1303,10.);
#368=VECTOR('',#1304,10.);
#369=VECTOR('',#1305,10.);
#370=VECTOR('',#1308,10.);
#371=VECTOR('',#1309,10.);
#372=VECTOR('',#1310,10.);
#373=VECTOR('',#1311,10.);
#374=VECTOR('',#1314,10.);
#375=VECTOR('',#1315,10.);
#376=VECTOR('',#1316,10.);
#377=VECTOR('',#1317,10.);
#378=VECTOR('',#1320,10.);
#379=VECTOR('',#1321,10.);
#380=VECTOR('',#1322,10.);
#381=VECTOR('',#1323,10.);
#382=VECTOR('',#1324,10.);
#383=VECTOR('',#1325,10.);
#384=VECTOR('',#1328,10.);
#385=VECTOR('',#1329,10.);
#386=VECTOR('',#1330,10.);
#387=VECTOR('',#1333,10.);
#388=VECTOR('',#1340,10.);
#389=VECTOR('',#1341,10.);
#390=VECTOR('',#1342,10.);
#391=VECTOR('',#1345,10.);
#392=VECTOR('',#1346,10.);
#393=VECTOR('',#1349,10.);
#394=VECTOR('',#1350,10.);
#395=VECTOR('',#1357,10.);
#396=VECTOR('',#1358,10.);
#397=VECTOR('',#1367,10.);
#398=VECTOR('',#1370,10.);
#399=VECTOR('',#1373,10.);
#400=VECTOR('',#1374,10.);
#401=VECTOR('',#1375,10.);
#402=VECTOR('',#1382,10.);
#403=VECTOR('',#1385,10.);
#404=VECTOR('',#1386,10.);
#405=VECTOR('',#1387,10.);
#406=VECTOR('',#1390,10.);
#407=VECTOR('',#1391,10.);
#408=VECTOR('',#1392,10.);
#409=VECTOR('',#1395,10.);
#410=VECTOR('',#1396,10.);
#411=VECTOR('',#1397,10.);
#412=VECTOR('',#1398,10.);
#413=VECTOR('',#1399,10.);
#414=VECTOR('',#1410,10.);
#415=VECTOR('',#1411,10.);
#416=VECTOR('',#1414,1.25);
#417=VECTOR('',#1421,1.25);
#418=VECTOR('',#1428,1.25);
#419=VECTOR('',#1435,1.25);
#420=VECTOR('',#1442,10.);
#421=VECTOR('',#1443,10.);
#422=VECTOR('',#1444,10.);
#423=VECTOR('',#1445,10.);
#424=VECTOR('',#1448,10.);
#425=VECTOR('',#1449,10.);
#426=VECTOR('',#1452,10.);
#427=VECTOR('',#1461,10.);
#428=VECTOR('',#1464,10.);
#429=VECTOR('',#1467,10.);
#430=VECTOR('',#1468,10.);
#431=VECTOR('',#1471,10.);
#432=VECTOR('',#1472,10.);
#433=VECTOR('',#1475,10.);
#434=VECTOR('',#1482,10.);
#435=VECTOR('',#1485,10.);
#436=VECTOR('',#1488,10.);
#437=VECTOR('',#1489,10.);
#438=VECTOR('',#1492,10.);
#439=VECTOR('',#1493,10.);
#440=VECTOR('',#1496,10.);
#441=VECTOR('',#1503,10.);
#442=VECTOR('',#1506,10.);
#443=VECTOR('',#1509,10.);
#444=VECTOR('',#1510,10.);
#445=VECTOR('',#1513,10.);
#446=VECTOR('',#1514,10.);
#447=VECTOR('',#1517,10.);
#448=VECTOR('',#1524,10.);
#449=VECTOR('',#1527,10.);
#450=VECTOR('',#1530,10.);
#451=VECTOR('',#1531,10.);
#452=VECTOR('',#1534,10.);
#453=VECTOR('',#1535,10.);
#454=VECTOR('',#1538,10.);
#455=CIRCLE('',#1135,6.);
#456=CIRCLE('',#1136,6.);
#457=CIRCLE('',#1138,4.);
#458=CIRCLE('',#1140,6.);
#459=CIRCLE('',#1141,6.);
#460=CIRCLE('',#1142,6.);
#461=CIRCLE('',#1144,6.);
#462=CIRCLE('',#1147,6.);
#463=CIRCLE('',#1150,6.);
#464=CIRCLE('',#1159,4.);
#465=CIRCLE('',#1170,1.7);
#466=CIRCLE('',#1171,1.7);
#467=CIRCLE('',#1174,1.7);
#468=CIRCLE('',#1175,1.7);
#469=CIRCLE('',#1179,1.03775);
#470=CIRCLE('',#1180,1.03775);
#471=CIRCLE('',#1181,1.03775);
#472=CIRCLE('',#1182,1.03775);
#473=CIRCLE('',#1185,1.03775);
#474=CIRCLE('',#1188,1.03775);
#475=CIRCLE('',#1191,1.03775);
#476=CIRCLE('',#1194,1.03775);
#477=CIRCLE('',#1202,20.);
#478=CIRCLE('',#1203,20.);
#479=CIRCLE('',#1209,20.);
#480=CIRCLE('',#1210,20.);
#481=CIRCLE('',#1216,20.);
#482=CIRCLE('',#1217,20.);
#483=CIRCLE('',#1223,20.);
#484=CIRCLE('',#1224,20.);
#485=VERTEX_POINT('',#1543);
#486=VERTEX_POINT('',#1544);
#487=VERTEX_POINT('',#1546);
#488=VERTEX_POINT('',#1548);
#489=VERTEX_POINT('',#1552);
#490=VERTEX_POINT('',#1554);
#491=VERTEX_POINT('',#1556);
#492=VERTEX_POINT('',#1558);
#493=VERTEX_POINT('',#1562);
#494=VERTEX_POINT('',#1564);
#495=VERTEX_POINT('',#1566);
#496=VERTEX_POINT('',#1568);
#497=VERTEX_POINT('',#1570);
#498=VERTEX_POINT('',#1573);
#499=VERTEX_POINT('',#1575);
#500=VERTEX_POINT('',#1577);
#501=VERTEX_POINT('',#1579);
#502=VERTEX_POINT('',#1581);
#503=VERTEX_POINT('',#1583);
#504=VERTEX_POINT('',#1585);
#505=VERTEX_POINT('',#1587);
#506=VERTEX_POINT('',#1589);
#507=VERTEX_POINT('',#1591);
#508=VERTEX_POINT('',#1595);
#509=VERTEX_POINT('',#1599);
#510=VERTEX_POINT('',#1603);
#511=VERTEX_POINT('',#1607);
#512=VERTEX_POINT('',#1611);
#513=VERTEX_POINT('',#1617);
#514=VERTEX_POINT('',#1618);
#515=VERTEX_POINT('',#1620);
#516=VERTEX_POINT('',#1622);
#517=VERTEX_POINT('',#1626);
#518=VERTEX_POINT('',#1628);
#519=VERTEX_POINT('',#1632);
#520=VERTEX_POINT('',#1633);
#521=VERTEX_POINT('',#1635);
#522=VERTEX_POINT('',#1637);
#523=VERTEX_POINT('',#1641);
#524=VERTEX_POINT('',#1642);
#525=VERTEX_POINT('',#1644);
#526=VERTEX_POINT('',#1646);
#527=VERTEX_POINT('',#1650);
#528=VERTEX_POINT('',#1652);
#529=VERTEX_POINT('',#1655);
#530=VERTEX_POINT('',#1657);
#531=VERTEX_POINT('',#1669);
#532=VERTEX_POINT('',#1670);
#533=VERTEX_POINT('',#1688);
#534=VERTEX_POINT('',#1689);
#535=VERTEX_POINT('',#1691);
#536=VERTEX_POINT('',#1693);
#537=VERTEX_POINT('',#1697);
#538=VERTEX_POINT('',#1699);
#539=VERTEX_POINT('',#1703);
#540=VERTEX_POINT('',#1705);
#541=VERTEX_POINT('',#1709);
#542=VERTEX_POINT('',#1711);
#543=VERTEX_POINT('',#1715);
#544=VERTEX_POINT('',#1717);
#545=VERTEX_POINT('',#1721);
#546=VERTEX_POINT('',#1723);
#547=VERTEX_POINT('',#1725);
#548=VERTEX_POINT('',#1727);
#549=VERTEX_POINT('',#1730);
#550=VERTEX_POINT('',#1732);
#551=VERTEX_POINT('',#1734);
#552=VERTEX_POINT('',#1736);
#553=VERTEX_POINT('',#1739);
#554=VERTEX_POINT('',#1743);
#555=VERTEX_POINT('',#1748);
#556=VERTEX_POINT('',#1753);
#557=VERTEX_POINT('',#1758);
#558=VERTEX_POINT('',#1763);
#559=VERTEX_POINT('',#1765);
#560=VERTEX_POINT('',#1767);
#561=VERTEX_POINT('',#1778);
#562=VERTEX_POINT('',#1779);
#563=VERTEX_POINT('',#1781);
#564=VERTEX_POINT('',#1783);
#565=VERTEX_POINT('',#1787);
#566=VERTEX_POINT('',#1791);
#567=VERTEX_POINT('',#1798);
#568=VERTEX_POINT('',#1799);
#569=VERTEX_POINT('',#1801);
#570=VERTEX_POINT('',#1803);
#571=VERTEX_POINT('',#1807);
#572=VERTEX_POINT('',#1811);
#573=VERTEX_POINT('',#1818);
#574=VERTEX_POINT('',#1819);
#575=VERTEX_POINT('',#1821);
#576=VERTEX_POINT('',#1823);
#577=VERTEX_POINT('',#1827);
#578=VERTEX_POINT('',#1831);
#579=VERTEX_POINT('',#1838);
#580=VERTEX_POINT('',#1839);
#581=VERTEX_POINT('',#1841);
#582=VERTEX_POINT('',#1843);
#583=VERTEX_POINT('',#1847);
#584=VERTEX_POINT('',#1851);
#585=EDGE_CURVE('',#485,#486,#455,.T.);
#586=EDGE_CURVE('',#486,#487,#215,.T.);
#587=EDGE_CURVE('',#487,#488,#456,.T.);
#588=EDGE_CURVE('',#488,#485,#216,.T.);
#589=EDGE_CURVE('',#489,#486,#217,.F.);
#590=EDGE_CURVE('',#489,#490,#457,.T.);
#591=EDGE_CURVE('',#491,#490,#218,.F.);
#592=EDGE_CURVE('',#492,#491,#219,.T.);
#593=EDGE_CURVE('',#492,#487,#220,.F.);
#594=EDGE_CURVE('',#485,#493,#221,.F.);
#595=EDGE_CURVE('',#494,#493,#458,.T.);
#596=EDGE_CURVE('',#494,#495,#222,.F.);
#597=EDGE_CURVE('',#496,#495,#459,.T.);
#598=EDGE_CURVE('',#496,#497,#223,.F.);
#599=EDGE_CURVE('',#491,#497,#460,.T.);
#600=EDGE_CURVE('',#490,#498,#224,.T.);
#601=EDGE_CURVE('',#498,#499,#225,.T.);
#602=EDGE_CURVE('',#499,#500,#226,.T.);
#603=EDGE_CURVE('',#500,#501,#227,.T.);
#604=EDGE_CURVE('',#501,#502,#228,.T.);
#605=EDGE_CURVE('',#502,#503,#229,.T.);
#606=EDGE_CURVE('',#503,#504,#230,.T.);
#607=EDGE_CURVE('',#504,#505,#231,.T.);
#608=EDGE_CURVE('',#505,#506,#232,.T.);
#609=EDGE_CURVE('',#506,#507,#233,.T.);
#610=EDGE_CURVE('',#507,#489,#234,.T.);
#611=EDGE_CURVE('',#497,#508,#235,.T.);
#612=EDGE_CURVE('',#508,#492,#461,.T.);
#613=EDGE_CURVE('',#509,#496,#236,.T.);
#614=EDGE_CURVE('',#509,#508,#237,.F.);
#615=EDGE_CURVE('',#495,#510,#238,.T.);
#616=EDGE_CURVE('',#510,#509,#462,.T.);
#617=EDGE_CURVE('',#511,#494,#239,.T.);
#618=EDGE_CURVE('',#511,#510,#240,.F.);
#619=EDGE_CURVE('',#493,#512,#241,.T.);
#620=EDGE_CURVE('',#512,#511,#463,.T.);
#621=EDGE_CURVE('',#488,#512,#242,.F.);
#622=EDGE_CURVE('',#513,#514,#243,.T.);
#623=EDGE_CURVE('',#515,#513,#244,.T.);
#624=EDGE_CURVE('',#516,#515,#245,.T.);
#625=EDGE_CURVE('',#514,#516,#246,.T.);
#626=EDGE_CURVE('',#517,#515,#247,.T.);
#627=EDGE_CURVE('',#517,#518,#248,.T.);
#628=EDGE_CURVE('',#516,#518,#249,.T.);
#629=EDGE_CURVE('',#519,#520,#250,.T.);
#630=EDGE_CURVE('',#521,#519,#251,.T.);
#631=EDGE_CURVE('',#522,#521,#252,.T.);
#632=EDGE_CURVE('',#520,#522,#253,.T.);
#633=EDGE_CURVE('',#523,#524,#254,.T.);
#634=EDGE_CURVE('',#523,#525,#255,.T.);
#635=EDGE_CURVE('',#526,#525,#256,.T.);
#636=EDGE_CURVE('',#524,#526,#257,.T.);
#637=EDGE_CURVE('',#527,#521,#258,.T.);
#638=EDGE_CURVE('',#527,#528,#259,.T.);
#639=EDGE_CURVE('',#526,#528,#260,.T.);
#640=EDGE_CURVE('',#525,#529,#261,.T.);
#641=EDGE_CURVE('',#529,#530,#262,.T.);
#642=EDGE_CURVE('',#530,#522,#263,.T.);
#643=EDGE_CURVE('',#527,#518,#264,.T.);
#644=EDGE_CURVE('',#519,#506,#265,.T.);
#645=EDGE_CURVE('',#514,#505,#266,.T.);
#646=EDGE_CURVE('',#520,#499,#267,.T.);
#647=EDGE_CURVE('',#498,#507,#464,.T.);
#648=EDGE_CURVE('',#531,#532,#268,.T.);
#649=EDGE_CURVE('',#530,#531,#269,.T.);
#650=EDGE_CURVE('',#532,#529,#270,.T.);
#651=EDGE_CURVE('',#524,#503,#271,.T.);
#652=EDGE_CURVE('',#502,#523,#272,.T.);
#653=EDGE_CURVE('',#500,#531,#273,.T.);
#654=EDGE_CURVE('',#532,#501,#274,.T.);
#655=EDGE_CURVE('',#513,#504,#275,.T.);
#656=EDGE_CURVE('',#517,#528,#276,.T.);
#657=EDGE_CURVE('',#533,#534,#465,.F.);
#658=EDGE_CURVE('',#534,#535,#277,.T.);
#659=EDGE_CURVE('',#535,#536,#466,.F.);
#660=EDGE_CURVE('',#536,#533,#278,.T.);
#661=EDGE_CURVE('',#537,#534,#279,.T.);
#662=EDGE_CURVE('',#538,#537,#280,.T.);
#663=EDGE_CURVE('',#538,#535,#281,.T.);
#664=EDGE_CURVE('',#539,#538,#467,.F.);
#665=EDGE_CURVE('',#537,#540,#468,.F.);
#666=EDGE_CURVE('',#540,#539,#282,.T.);
#667=EDGE_CURVE('',#540,#541,#283,.T.);
#668=EDGE_CURVE('',#542,#533,#284,.T.);
#669=EDGE_CURVE('',#541,#542,#285,.T.);
#670=EDGE_CURVE('',#543,#539,#286,.T.);
#671=EDGE_CURVE('',#544,#543,#287,.T.);
#672=EDGE_CURVE('',#536,#544,#288,.T.);
#673=EDGE_CURVE('',#541,#545,#289,.T.);
#674=EDGE_CURVE('',#545,#546,#290,.T.);
#675=EDGE_CURVE('',#546,#547,#291,.T.);
#676=EDGE_CURVE('',#547,#548,#292,.F.);
#677=EDGE_CURVE('',#548,#543,#293,.T.);
#678=EDGE_CURVE('',#549,#549,#469,.T.);
#679=EDGE_CURVE('',#550,#550,#470,.T.);
#680=EDGE_CURVE('',#551,#551,#471,.T.);
#681=EDGE_CURVE('',#552,#552,#472,.T.);
#682=EDGE_CURVE('',#553,#542,#294,.F.);
#683=EDGE_CURVE('',#545,#553,#295,.T.);
#684=EDGE_CURVE('',#552,#554,#296,.T.);
#685=EDGE_CURVE('',#554,#554,#473,.T.);
#686=EDGE_CURVE('',#551,#555,#297,.T.);
#687=EDGE_CURVE('',#555,#555,#474,.T.);
#688=EDGE_CURVE('',#550,#556,#298,.T.);
#689=EDGE_CURVE('',#556,#556,#475,.T.);
#690=EDGE_CURVE('',#549,#557,#299,.T.);
#691=EDGE_CURVE('',#557,#557,#476,.T.);
#692=EDGE_CURVE('',#544,#558,#300,.F.);
#693=EDGE_CURVE('',#558,#559,#301,.T.);
#694=EDGE_CURVE('',#559,#560,#302,.F.);
#695=EDGE_CURVE('',#560,#553,#303,.F.);
#696=EDGE_CURVE('',#547,#559,#304,.F.);
#697=EDGE_CURVE('',#548,#558,#305,.T.);
#698=EDGE_CURVE('',#546,#560,#306,.F.);
#699=EDGE_CURVE('',#561,#562,#477,.T.);
#700=EDGE_CURVE('',#562,#563,#307,.T.);
#701=EDGE_CURVE('',#563,#564,#478,.T.);
#702=EDGE_CURVE('',#561,#564,#308,.T.);
#703=EDGE_CURVE('',#563,#565,#309,.T.);
#704=EDGE_CURVE('',#565,#564,#310,.T.);
#705=EDGE_CURVE('',#566,#561,#311,.T.);
#706=EDGE_CURVE('',#566,#565,#312,.T.);
#707=EDGE_CURVE('',#562,#566,#313,.T.);
#708=EDGE_CURVE('',#567,#568,#479,.T.);
#709=EDGE_CURVE('',#568,#569,#314,.T.);
#710=EDGE_CURVE('',#569,#570,#480,.T.);
#711=EDGE_CURVE('',#567,#570,#315,.T.);
#712=EDGE_CURVE('',#569,#571,#316,.T.);
#713=EDGE_CURVE('',#571,#570,#317,.T.);
#714=EDGE_CURVE('',#572,#567,#318,.T.);
#715=EDGE_CURVE('',#572,#571,#319,.T.);
#716=EDGE_CURVE('',#568,#572,#320,.T.);
#717=EDGE_CURVE('',#573,#574,#481,.T.);
#718=EDGE_CURVE('',#574,#575,#321,.T.);
#719=EDGE_CURVE('',#575,#576,#482,.T.);
#720=EDGE_CURVE('',#573,#576,#322,.T.);
#721=EDGE_CURVE('',#577,#573,#323,.T.);
#722=EDGE_CURVE('',#574,#577,#324,.T.);
#723=EDGE_CURVE('',#578,#576,#325,.T.);
#724=EDGE_CURVE('',#577,#578,#326,.T.);
#725=EDGE_CURVE('',#575,#578,#327,.T.);
#726=EDGE_CURVE('',#579,#580,#483,.T.);
#727=EDGE_CURVE('',#580,#581,#328,.T.);
#728=EDGE_CURVE('',#581,#582,#484,.T.);
#729=EDGE_CURVE('',#579,#582,#329,.T.);
#730=EDGE_CURVE('',#583,#579,#330,.T.);
#731=EDGE_CURVE('',#580,#583,#331,.T.);
#732=EDGE_CURVE('',#584,#582,#332,.T.);
#733=EDGE_CURVE('',#583,#584,#333,.T.);
#734=EDGE_CURVE('',#581,#584,#334,.T.);
#735=ORIENTED_EDGE('',*,*,#585,.T.);
#736=ORIENTED_EDGE('',*,*,#586,.T.);
#737=ORIENTED_EDGE('',*,*,#587,.T.);
#738=ORIENTED_EDGE('',*,*,#588,.T.);
#739=ORIENTED_EDGE('',*,*,#586,.F.);
#740=ORIENTED_EDGE('',*,*,#589,.F.);
#741=ORIENTED_EDGE('',*,*,#590,.T.);
#742=ORIENTED_EDGE('',*,*,#591,.F.);
#743=ORIENTED_EDGE('',*,*,#592,.F.);
#744=ORIENTED_EDGE('',*,*,#593,.T.);
#745=ORIENTED_EDGE('',*,*,#585,.F.);
#746=ORIENTED_EDGE('',*,*,#594,.T.);
#747=ORIENTED_EDGE('',*,*,#595,.F.);
#748=ORIENTED_EDGE('',*,*,#596,.T.);
#749=ORIENTED_EDGE('',*,*,#597,.F.);
#750=ORIENTED_EDGE('',*,*,#598,.T.);
#751=ORIENTED_EDGE('',*,*,#599,.F.);
#752=ORIENTED_EDGE('',*,*,#591,.T.);
#753=ORIENTED_EDGE('',*,*,#600,.T.);
#754=ORIENTED_EDGE('',*,*,#601,.T.);
#755=ORIENTED_EDGE('',*,*,#602,.T.);
#756=ORIENTED_EDGE('',*,*,#603,.T.);
#757=ORIENTED_EDGE('',*,*,#604,.T.);
#758=ORIENTED_EDGE('',*,*,#605,.T.);
#759=ORIENTED_EDGE('',*,*,#606,.T.);
#760=ORIENTED_EDGE('',*,*,#607,.T.);
#761=ORIENTED_EDGE('',*,*,#608,.T.);
#762=ORIENTED_EDGE('',*,*,#609,.T.);
#763=ORIENTED_EDGE('',*,*,#610,.T.);
#764=ORIENTED_EDGE('',*,*,#589,.T.);
#765=ORIENTED_EDGE('',*,*,#599,.T.);
#766=ORIENTED_EDGE('',*,*,#611,.T.);
#767=ORIENTED_EDGE('',*,*,#612,.T.);
#768=ORIENTED_EDGE('',*,*,#592,.T.);
#769=ORIENTED_EDGE('',*,*,#611,.F.);
#770=ORIENTED_EDGE('',*,*,#598,.F.);
#771=ORIENTED_EDGE('',*,*,#613,.F.);
#772=ORIENTED_EDGE('',*,*,#614,.T.);
#773=ORIENTED_EDGE('',*,*,#597,.T.);
#774=ORIENTED_EDGE('',*,*,#615,.T.);
#775=ORIENTED_EDGE('',*,*,#616,.T.);
#776=ORIENTED_EDGE('',*,*,#613,.T.);
#777=ORIENTED_EDGE('',*,*,#615,.F.);
#778=ORIENTED_EDGE('',*,*,#596,.F.);
#779=ORIENTED_EDGE('',*,*,#617,.F.);
#780=ORIENTED_EDGE('',*,*,#618,.T.);
#781=ORIENTED_EDGE('',*,*,#595,.T.);
#782=ORIENTED_EDGE('',*,*,#619,.T.);
#783=ORIENTED_EDGE('',*,*,#620,.T.);
#784=ORIENTED_EDGE('',*,*,#617,.T.);
#785=ORIENTED_EDGE('',*,*,#588,.F.);
#786=ORIENTED_EDGE('',*,*,#621,.T.);
#787=ORIENTED_EDGE('',*,*,#619,.F.);
#788=ORIENTED_EDGE('',*,*,#594,.F.);
#789=ORIENTED_EDGE('',*,*,#622,.F.);
#790=ORIENTED_EDGE('',*,*,#623,.F.);
#791=ORIENTED_EDGE('',*,*,#624,.F.);
#792=ORIENTED_EDGE('',*,*,#625,.F.);
#793=ORIENTED_EDGE('',*,*,#624,.T.);
#794=ORIENTED_EDGE('',*,*,#626,.F.);
#795=ORIENTED_EDGE('',*,*,#627,.T.);
#796=ORIENTED_EDGE('',*,*,#628,.F.);
#797=ORIENTED_EDGE('',*,*,#629,.F.);
#798=ORIENTED_EDGE('',*,*,#630,.F.);
#799=ORIENTED_EDGE('',*,*,#631,.F.);
#800=ORIENTED_EDGE('',*,*,#632,.F.);
#801=ORIENTED_EDGE('',*,*,#633,.F.);
#802=ORIENTED_EDGE('',*,*,#634,.T.);
#803=ORIENTED_EDGE('',*,*,#635,.F.);
#804=ORIENTED_EDGE('',*,*,#636,.F.);
#805=ORIENTED_EDGE('',*,*,#637,.F.);
#806=ORIENTED_EDGE('',*,*,#638,.T.);
#807=ORIENTED_EDGE('',*,*,#639,.F.);
#808=ORIENTED_EDGE('',*,*,#635,.T.);
#809=ORIENTED_EDGE('',*,*,#640,.T.);
#810=ORIENTED_EDGE('',*,*,#641,.T.);
#811=ORIENTED_EDGE('',*,*,#642,.T.);
#812=ORIENTED_EDGE('',*,*,#631,.T.);
#813=ORIENTED_EDGE('',*,*,#628,.T.);
#814=ORIENTED_EDGE('',*,*,#643,.F.);
#815=ORIENTED_EDGE('',*,*,#637,.T.);
#816=ORIENTED_EDGE('',*,*,#630,.T.);
#817=ORIENTED_EDGE('',*,*,#644,.T.);
#818=ORIENTED_EDGE('',*,*,#608,.F.);
#819=ORIENTED_EDGE('',*,*,#645,.F.);
#820=ORIENTED_EDGE('',*,*,#625,.T.);
#821=ORIENTED_EDGE('',*,*,#629,.T.);
#822=ORIENTED_EDGE('',*,*,#646,.T.);
#823=ORIENTED_EDGE('',*,*,#601,.F.);
#824=ORIENTED_EDGE('',*,*,#647,.T.);
#825=ORIENTED_EDGE('',*,*,#609,.F.);
#826=ORIENTED_EDGE('',*,*,#644,.F.);
#827=ORIENTED_EDGE('',*,*,#590,.F.);
#828=ORIENTED_EDGE('',*,*,#610,.F.);
#829=ORIENTED_EDGE('',*,*,#647,.F.);
#830=ORIENTED_EDGE('',*,*,#600,.F.);
#831=ORIENTED_EDGE('',*,*,#648,.F.);
#832=ORIENTED_EDGE('',*,*,#649,.F.);
#833=ORIENTED_EDGE('',*,*,#641,.F.);
#834=ORIENTED_EDGE('',*,*,#650,.F.);
#835=ORIENTED_EDGE('',*,*,#633,.T.);
#836=ORIENTED_EDGE('',*,*,#651,.T.);
#837=ORIENTED_EDGE('',*,*,#605,.F.);
#838=ORIENTED_EDGE('',*,*,#652,.T.);
#839=ORIENTED_EDGE('',*,*,#603,.F.);
#840=ORIENTED_EDGE('',*,*,#653,.T.);
#841=ORIENTED_EDGE('',*,*,#648,.T.);
#842=ORIENTED_EDGE('',*,*,#654,.T.);
#843=ORIENTED_EDGE('',*,*,#604,.F.);
#844=ORIENTED_EDGE('',*,*,#654,.F.);
#845=ORIENTED_EDGE('',*,*,#650,.T.);
#846=ORIENTED_EDGE('',*,*,#640,.F.);
#847=ORIENTED_EDGE('',*,*,#634,.F.);
#848=ORIENTED_EDGE('',*,*,#652,.F.);
#849=ORIENTED_EDGE('',*,*,#602,.F.);
#850=ORIENTED_EDGE('',*,*,#646,.F.);
#851=ORIENTED_EDGE('',*,*,#632,.T.);
#852=ORIENTED_EDGE('',*,*,#642,.F.);
#853=ORIENTED_EDGE('',*,*,#649,.T.);
#854=ORIENTED_EDGE('',*,*,#653,.F.);
#855=ORIENTED_EDGE('',*,*,#623,.T.);
#856=ORIENTED_EDGE('',*,*,#655,.T.);
#857=ORIENTED_EDGE('',*,*,#606,.F.);
#858=ORIENTED_EDGE('',*,*,#651,.F.);
#859=ORIENTED_EDGE('',*,*,#636,.T.);
#860=ORIENTED_EDGE('',*,*,#639,.T.);
#861=ORIENTED_EDGE('',*,*,#656,.F.);
#862=ORIENTED_EDGE('',*,*,#626,.T.);
#863=ORIENTED_EDGE('',*,*,#622,.T.);
#864=ORIENTED_EDGE('',*,*,#645,.T.);
#865=ORIENTED_EDGE('',*,*,#607,.F.);
#866=ORIENTED_EDGE('',*,*,#655,.F.);
#867=ORIENTED_EDGE('',*,*,#587,.F.);
#868=ORIENTED_EDGE('',*,*,#593,.F.);
#869=ORIENTED_EDGE('',*,*,#612,.F.);
#870=ORIENTED_EDGE('',*,*,#614,.F.);
#871=ORIENTED_EDGE('',*,*,#616,.F.);
#872=ORIENTED_EDGE('',*,*,#618,.F.);
#873=ORIENTED_EDGE('',*,*,#620,.F.);
#874=ORIENTED_EDGE('',*,*,#621,.F.);
#875=ORIENTED_EDGE('',*,*,#656,.T.);
#876=ORIENTED_EDGE('',*,*,#638,.F.);
#877=ORIENTED_EDGE('',*,*,#643,.T.);
#878=ORIENTED_EDGE('',*,*,#627,.F.);
#879=ORIENTED_EDGE('',*,*,#657,.T.);
#880=ORIENTED_EDGE('',*,*,#658,.T.);
#881=ORIENTED_EDGE('',*,*,#659,.T.);
#882=ORIENTED_EDGE('',*,*,#660,.T.);
#883=ORIENTED_EDGE('',*,*,#658,.F.);
#884=ORIENTED_EDGE('',*,*,#661,.F.);
#885=ORIENTED_EDGE('',*,*,#662,.F.);
#886=ORIENTED_EDGE('',*,*,#663,.T.);
#887=ORIENTED_EDGE('',*,*,#664,.T.);
#888=ORIENTED_EDGE('',*,*,#662,.T.);
#889=ORIENTED_EDGE('',*,*,#665,.T.);
#890=ORIENTED_EDGE('',*,*,#666,.T.);
#891=ORIENTED_EDGE('',*,*,#667,.F.);
#892=ORIENTED_EDGE('',*,*,#665,.F.);
#893=ORIENTED_EDGE('',*,*,#661,.T.);
#894=ORIENTED_EDGE('',*,*,#657,.F.);
#895=ORIENTED_EDGE('',*,*,#668,.F.);
#896=ORIENTED_EDGE('',*,*,#669,.F.);
#897=ORIENTED_EDGE('',*,*,#670,.F.);
#898=ORIENTED_EDGE('',*,*,#671,.F.);
#899=ORIENTED_EDGE('',*,*,#672,.F.);
#900=ORIENTED_EDGE('',*,*,#659,.F.);
#901=ORIENTED_EDGE('',*,*,#663,.F.);
#902=ORIENTED_EDGE('',*,*,#664,.F.);
#903=ORIENTED_EDGE('',*,*,#667,.T.);
#904=ORIENTED_EDGE('',*,*,#673,.T.);
#905=ORIENTED_EDGE('',*,*,#674,.T.);
#906=ORIENTED_EDGE('',*,*,#675,.T.);
#907=ORIENTED_EDGE('',*,*,#676,.T.);
#908=ORIENTED_EDGE('',*,*,#677,.T.);
#909=ORIENTED_EDGE('',*,*,#670,.T.);
#910=ORIENTED_EDGE('',*,*,#666,.F.);
#911=ORIENTED_EDGE('',*,*,#678,.T.);
#912=ORIENTED_EDGE('',*,*,#679,.T.);
#913=ORIENTED_EDGE('',*,*,#680,.T.);
#914=ORIENTED_EDGE('',*,*,#681,.T.);
#915=ORIENTED_EDGE('',*,*,#669,.T.);
#916=ORIENTED_EDGE('',*,*,#682,.F.);
#917=ORIENTED_EDGE('',*,*,#683,.F.);
#918=ORIENTED_EDGE('',*,*,#673,.F.);
#919=ORIENTED_EDGE('',*,*,#681,.F.);
#920=ORIENTED_EDGE('',*,*,#684,.T.);
#921=ORIENTED_EDGE('',*,*,#685,.T.);
#922=ORIENTED_EDGE('',*,*,#684,.F.);
#923=ORIENTED_EDGE('',*,*,#685,.F.);
#924=ORIENTED_EDGE('',*,*,#680,.F.);
#925=ORIENTED_EDGE('',*,*,#686,.T.);
#926=ORIENTED_EDGE('',*,*,#687,.T.);
#927=ORIENTED_EDGE('',*,*,#686,.F.);
#928=ORIENTED_EDGE('',*,*,#687,.F.);
#929=ORIENTED_EDGE('',*,*,#679,.F.);
#930=ORIENTED_EDGE('',*,*,#688,.T.);
#931=ORIENTED_EDGE('',*,*,#689,.T.);
#932=ORIENTED_EDGE('',*,*,#688,.F.);
#933=ORIENTED_EDGE('',*,*,#689,.F.);
#934=ORIENTED_EDGE('',*,*,#678,.F.);
#935=ORIENTED_EDGE('',*,*,#690,.T.);
#936=ORIENTED_EDGE('',*,*,#691,.T.);
#937=ORIENTED_EDGE('',*,*,#690,.F.);
#938=ORIENTED_EDGE('',*,*,#691,.F.);
#939=ORIENTED_EDGE('',*,*,#672,.T.);
#940=ORIENTED_EDGE('',*,*,#692,.T.);
#941=ORIENTED_EDGE('',*,*,#693,.T.);
#942=ORIENTED_EDGE('',*,*,#694,.T.);
#943=ORIENTED_EDGE('',*,*,#695,.T.);
#944=ORIENTED_EDGE('',*,*,#682,.T.);
#945=ORIENTED_EDGE('',*,*,#668,.T.);
#946=ORIENTED_EDGE('',*,*,#660,.F.);
#947=ORIENTED_EDGE('',*,*,#696,.T.);
#948=ORIENTED_EDGE('',*,*,#693,.F.);
#949=ORIENTED_EDGE('',*,*,#697,.F.);
#950=ORIENTED_EDGE('',*,*,#676,.F.);
#951=ORIENTED_EDGE('',*,*,#698,.T.);
#952=ORIENTED_EDGE('',*,*,#694,.F.);
#953=ORIENTED_EDGE('',*,*,#696,.F.);
#954=ORIENTED_EDGE('',*,*,#675,.F.);
#955=ORIENTED_EDGE('',*,*,#683,.T.);
#956=ORIENTED_EDGE('',*,*,#695,.F.);
#957=ORIENTED_EDGE('',*,*,#698,.F.);
#958=ORIENTED_EDGE('',*,*,#674,.F.);
#959=ORIENTED_EDGE('',*,*,#671,.T.);
#960=ORIENTED_EDGE('',*,*,#677,.F.);
#961=ORIENTED_EDGE('',*,*,#697,.T.);
#962=ORIENTED_EDGE('',*,*,#692,.F.);
#963=ORIENTED_EDGE('',*,*,#699,.T.);
#964=ORIENTED_EDGE('',*,*,#700,.T.);
#965=ORIENTED_EDGE('',*,*,#701,.T.);
#966=ORIENTED_EDGE('',*,*,#702,.F.);
#967=ORIENTED_EDGE('',*,*,#701,.F.);
#968=ORIENTED_EDGE('',*,*,#703,.T.);
#969=ORIENTED_EDGE('',*,*,#704,.T.);
#970=ORIENTED_EDGE('',*,*,#705,.T.);
#971=ORIENTED_EDGE('',*,*,#702,.T.);
#972=ORIENTED_EDGE('',*,*,#704,.F.);
#973=ORIENTED_EDGE('',*,*,#706,.F.);
#974=ORIENTED_EDGE('',*,*,#707,.T.);
#975=ORIENTED_EDGE('',*,*,#706,.T.);
#976=ORIENTED_EDGE('',*,*,#703,.F.);
#977=ORIENTED_EDGE('',*,*,#700,.F.);
#978=ORIENTED_EDGE('',*,*,#699,.F.);
#979=ORIENTED_EDGE('',*,*,#705,.F.);
#980=ORIENTED_EDGE('',*,*,#707,.F.);
#981=ORIENTED_EDGE('',*,*,#708,.T.);
#982=ORIENTED_EDGE('',*,*,#709,.T.);
#983=ORIENTED_EDGE('',*,*,#710,.T.);
#984=ORIENTED_EDGE('',*,*,#711,.F.);
#985=ORIENTED_EDGE('',*,*,#710,.F.);
#986=ORIENTED_EDGE('',*,*,#712,.T.);
#987=ORIENTED_EDGE('',*,*,#713,.T.);
#988=ORIENTED_EDGE('',*,*,#714,.T.);
#989=ORIENTED_EDGE('',*,*,#711,.T.);
#990=ORIENTED_EDGE('',*,*,#713,.F.);
#991=ORIENTED_EDGE('',*,*,#715,.F.);
#992=ORIENTED_EDGE('',*,*,#716,.T.);
#993=ORIENTED_EDGE('',*,*,#715,.T.);
#994=ORIENTED_EDGE('',*,*,#712,.F.);
#995=ORIENTED_EDGE('',*,*,#709,.F.);
#996=ORIENTED_EDGE('',*,*,#708,.F.);
#997=ORIENTED_EDGE('',*,*,#714,.F.);
#998=ORIENTED_EDGE('',*,*,#716,.F.);
#999=ORIENTED_EDGE('',*,*,#717,.T.);
#1000=ORIENTED_EDGE('',*,*,#718,.T.);
#1001=ORIENTED_EDGE('',*,*,#719,.T.);
#1002=ORIENTED_EDGE('',*,*,#720,.F.);
#1003=ORIENTED_EDGE('',*,*,#717,.F.);
#1004=ORIENTED_EDGE('',*,*,#721,.F.);
#1005=ORIENTED_EDGE('',*,*,#722,.F.);
#1006=ORIENTED_EDGE('',*,*,#721,.T.);
#1007=ORIENTED_EDGE('',*,*,#720,.T.);
#1008=ORIENTED_EDGE('',*,*,#723,.F.);
#1009=ORIENTED_EDGE('',*,*,#724,.F.);
#1010=ORIENTED_EDGE('',*,*,#722,.T.);
#1011=ORIENTED_EDGE('',*,*,#724,.T.);
#1012=ORIENTED_EDGE('',*,*,#725,.F.);
#1013=ORIENTED_EDGE('',*,*,#718,.F.);
#1014=ORIENTED_EDGE('',*,*,#719,.F.);
#1015=ORIENTED_EDGE('',*,*,#725,.T.);
#1016=ORIENTED_EDGE('',*,*,#723,.T.);
#1017=ORIENTED_EDGE('',*,*,#726,.T.);
#1018=ORIENTED_EDGE('',*,*,#727,.T.);
#1019=ORIENTED_EDGE('',*,*,#728,.T.);
#1020=ORIENTED_EDGE('',*,*,#729,.F.);
#1021=ORIENTED_EDGE('',*,*,#726,.F.);
#1022=ORIENTED_EDGE('',*,*,#730,.F.);
#1023=ORIENTED_EDGE('',*,*,#731,.F.);
#1024=ORIENTED_EDGE('',*,*,#730,.T.);
#1025=ORIENTED_EDGE('',*,*,#729,.T.);
#1026=ORIENTED_EDGE('',*,*,#732,.F.);
#1027=ORIENTED_EDGE('',*,*,#733,.F.);
#1028=ORIENTED_EDGE('',*,*,#731,.T.);
#1029=ORIENTED_EDGE('',*,*,#733,.T.);
#1030=ORIENTED_EDGE('',*,*,#734,.F.);
#1031=ORIENTED_EDGE('',*,*,#727,.F.);
#1032=ORIENTED_EDGE('',*,*,#728,.F.);
#1033=ORIENTED_EDGE('',*,*,#734,.T.);
#1034=ORIENTED_EDGE('',*,*,#732,.T.);
#1035=CYLINDRICAL_SURFACE('',#1134,6.);
#1036=CYLINDRICAL_SURFACE('',#1143,6.);
#1037=CYLINDRICAL_SURFACE('',#1146,6.);
#1038=CYLINDRICAL_SURFACE('',#1149,6.);
#1039=CYLINDRICAL_SURFACE('',#1160,4.);
#1040=CYLINDRICAL_SURFACE('',#1169,1.7);
#1041=CYLINDRICAL_SURFACE('',#1173,1.7);
#1042=CYLINDRICAL_SURFACE('',#1184,1.03775);
#1043=CYLINDRICAL_SURFACE('',#1187,1.03775);
#1044=CYLINDRICAL_SURFACE('',#1190,1.03775);
#1045=CYLINDRICAL_SURFACE('',#1193,1.03775);
#1046=CYLINDRICAL_SURFACE('',#1201,20.);
#1047=CYLINDRICAL_SURFACE('',#1208,20.);
#1048=CYLINDRICAL_SURFACE('',#1215,20.);
#1049=CYLINDRICAL_SURFACE('',#1222,20.);
#1050=ADVANCED_FACE('',(#80),#1035,.T.);
#1051=ADVANCED_FACE('',(#81),#30,.T.);
#1052=ADVANCED_FACE('',(#82),#31,.T.);
#1053=ADVANCED_FACE('',(#83),#1036,.T.);
#1054=ADVANCED_FACE('',(#84),#32,.T.);
#1055=ADVANCED_FACE('',(#85),#1037,.T.);
#1056=ADVANCED_FACE('',(#86),#33,.T.);
#1057=ADVANCED_FACE('',(#87),#1038,.T.);
#1058=ADVANCED_FACE('',(#88),#34,.T.);
#1059=ADVANCED_FACE('',(#89),#35,.T.);
#1060=ADVANCED_FACE('',(#90),#36,.T.);
#1061=ADVANCED_FACE('',(#91),#37,.T.);
#1062=ADVANCED_FACE('',(#92),#38,.T.);
#1063=ADVANCED_FACE('',(#93),#39,.T.);
#1064=ADVANCED_FACE('',(#94),#40,.F.);
#1065=ADVANCED_FACE('',(#95),#41,.F.);
#1066=ADVANCED_FACE('',(#96),#1039,.F.);
#1067=ADVANCED_FACE('',(#97),#42,.F.);
#1068=ADVANCED_FACE('',(#98),#43,.F.);
#1069=ADVANCED_FACE('',(#99),#44,.F.);
#1070=ADVANCED_FACE('',(#100),#45,.F.);
#1071=ADVANCED_FACE('',(#101),#46,.F.);
#1072=ADVANCED_FACE('',(#102),#47,.F.);
#1073=ADVANCED_FACE('',(#103),#48,.F.);
#1074=ADVANCED_FACE('',(#104,#25),#49,.F.);
#1075=ADVANCED_FACE('',(#105),#1040,.T.);
#1076=ADVANCED_FACE('',(#106),#50,.F.);
#1077=ADVANCED_FACE('',(#107),#1041,.T.);
#1078=ADVANCED_FACE('',(#108),#51,.F.);
#1079=ADVANCED_FACE('',(#109),#52,.F.);
#1080=ADVANCED_FACE('',(#110,#26,#27,#28,#29),#53,.T.);
#1081=ADVANCED_FACE('',(#111),#54,.F.);
#1082=ADVANCED_FACE('',(#112),#1042,.F.);
#1083=ADVANCED_FACE('',(#113),#55,.T.);
#1084=ADVANCED_FACE('',(#114),#1043,.F.);
#1085=ADVANCED_FACE('',(#115),#56,.T.);
#1086=ADVANCED_FACE('',(#116),#1044,.F.);
#1087=ADVANCED_FACE('',(#117),#57,.T.);
#1088=ADVANCED_FACE('',(#118),#1045,.F.);
#1089=ADVANCED_FACE('',(#119),#58,.T.);
#1090=ADVANCED_FACE('',(#120),#59,.F.);
#1091=ADVANCED_FACE('',(#121),#60,.F.);
#1092=ADVANCED_FACE('',(#122),#61,.F.);
#1093=ADVANCED_FACE('',(#123),#62,.F.);
#1094=ADVANCED_FACE('',(#124),#63,.F.);
#1095=ADVANCED_FACE('',(#125),#1046,.T.);
#1096=ADVANCED_FACE('',(#126),#64,.T.);
#1097=ADVANCED_FACE('',(#127),#65,.T.);
#1098=ADVANCED_FACE('',(#128),#66,.T.);
#1099=ADVANCED_FACE('',(#129),#67,.T.);
#1100=ADVANCED_FACE('',(#130),#1047,.T.);
#1101=ADVANCED_FACE('',(#131),#68,.T.);
#1102=ADVANCED_FACE('',(#132),#69,.T.);
#1103=ADVANCED_FACE('',(#133),#70,.T.);
#1104=ADVANCED_FACE('',(#134),#71,.T.);
#1105=ADVANCED_FACE('',(#135),#1048,.T.);
#1106=ADVANCED_FACE('',(#136),#72,.T.);
#1107=ADVANCED_FACE('',(#137),#73,.T.);
#1108=ADVANCED_FACE('',(#138),#74,.T.);
#1109=ADVANCED_FACE('',(#139),#75,.T.);
#1110=ADVANCED_FACE('',(#140),#1049,.T.);
#1111=ADVANCED_FACE('',(#141),#76,.T.);
#1112=ADVANCED_FACE('',(#142),#77,.T.);
#1113=ADVANCED_FACE('',(#143),#78,.T.);
#1114=ADVANCED_FACE('',(#144),#79,.T.);
#1115=CLOSED_SHELL('',(#1050,#1051,#1052,#1053,#1054,#1055,#1056,#1057,
#1058,#1059,#1060,#1061,#1062,#1063,#1064,#1065,#1066,#1067,#1068,#1069,
#1070,#1071,#1072,#1073,#1074));
#1116=CLOSED_SHELL('',(#1075,#1076,#1077,#1078,#1079,#1080,#1081,#1082,
#1083,#1084,#1085,#1086,#1087,#1088,#1089,#1090,#1091,#1092,#1093,#1094));
#1117=CLOSED_SHELL('',(#1095,#1096,#1097,#1098,#1099));
#1118=CLOSED_SHELL('',(#1100,#1101,#1102,#1103,#1104));
#1119=CLOSED_SHELL('',(#1105,#1106,#1107,#1108,#1109));
#1120=CLOSED_SHELL('',(#1110,#1111,#1112,#1113,#1114));
#1121=DERIVED_UNIT_ELEMENT(#1123,1.);
#1122=DERIVED_UNIT_ELEMENT(#1862,-3.);
#1123=(
MASS_UNIT()
NAMED_UNIT(*)
SI_UNIT(.KILO.,.GRAM.)
);
#1124=DERIVED_UNIT((#1121,#1122));
#1125=MEASURE_REPRESENTATION_ITEM('density measure',
POSITIVE_RATIO_MEASURE(7850.),#1124);
#1126=PROPERTY_DEFINITION_REPRESENTATION(#1131,#1128);
#1127=PROPERTY_DEFINITION_REPRESENTATION(#1132,#1129);
#1128=REPRESENTATION('material name',(#1130),#1859);
#1129=REPRESENTATION('density',(#1125),#1859);
#1130=DESCRIPTIVE_REPRESENTATION_ITEM('Steel','Steel');
#1131=PROPERTY_DEFINITION('material property','material name',#1869);
#1132=PROPERTY_DEFINITION('material property','density of part',#1869);
#1133=AXIS2_PLACEMENT_3D('',#1541,#1229,#1230);
#1134=AXIS2_PLACEMENT_3D('',#1542,#1231,#1232);
#1135=AXIS2_PLACEMENT_3D('',#1545,#1233,#1234);
#1136=AXIS2_PLACEMENT_3D('',#1549,#1236,#1237);
#1137=AXIS2_PLACEMENT_3D('',#1551,#1239,#1240);
#1138=AXIS2_PLACEMENT_3D('',#1555,#1242,#1243);
#1139=AXIS2_PLACEMENT_3D('',#1561,#1247,#1248);
#1140=AXIS2_PLACEMENT_3D('',#1565,#1250,#1251);
#1141=AXIS2_PLACEMENT_3D('',#1569,#1253,#1254);
#1142=AXIS2_PLACEMENT_3D('',#1572,#1256,#1257);
#1143=AXIS2_PLACEMENT_3D('',#1594,#1269,#1270);
#1144=AXIS2_PLACEMENT_3D('',#1597,#1272,#1273);
#1145=AXIS2_PLACEMENT_3D('',#1598,#1274,#1275);
#1146=AXIS2_PLACEMENT_3D('',#1602,#1278,#1279);
#1147=AXIS2_PLACEMENT_3D('',#1605,#1281,#1282);
#1148=AXIS2_PLACEMENT_3D('',#1606,#1283,#1284);
#1149=AXIS2_PLACEMENT_3D('',#1610,#1287,#1288);
#1150=AXIS2_PLACEMENT_3D('',#1613,#1290,#1291);
#1151=AXIS2_PLACEMENT_3D('',#1614,#1292,#1293);
#1152=AXIS2_PLACEMENT_3D('',#1616,#1295,#1296);
#1153=AXIS2_PLACEMENT_3D('',#1625,#1301,#1302);
#1154=AXIS2_PLACEMENT_3D('',#1631,#1306,#1307);
#1155=AXIS2_PLACEMENT_3D('',#1640,#1312,#1313);
#1156=AXIS2_PLACEMENT_3D('',#1649,#1318,#1319);
#1157=AXIS2_PLACEMENT_3D('',#1660,#1326,#1327);
#1158=AXIS2_PLACEMENT_3D('',#1664,#1331,#1332);
#1159=AXIS2_PLACEMENT_3D('',#1666,#1334,#1335);
#1160=AXIS2_PLACEMENT_3D('',#1667,#1336,#1337);
#1161=AXIS2_PLACEMENT_3D('',#1668,#1338,#1339);
#1162=AXIS2_PLACEMENT_3D('',#1674,#1343,#1344);
#1163=AXIS2_PLACEMENT_3D('',#1677,#1347,#1348);
#1164=AXIS2_PLACEMENT_3D('',#1680,#1351,#1352);
#1165=AXIS2_PLACEMENT_3D('',#1681,#1353,#1354);
#1166=AXIS2_PLACEMENT_3D('',#1682,#1355,#1356);
#1167=AXIS2_PLACEMENT_3D('',#1685,#1359,#1360);
#1168=AXIS2_PLACEMENT_3D('',#1686,#1361,#1362);
#1169=AXIS2_PLACEMENT_3D('',#1687,#1363,#1364);
#1170=AXIS2_PLACEMENT_3D('',#1690,#1365,#1366);
#1171=AXIS2_PLACEMENT_3D('',#1694,#1368,#1369);
#1172=AXIS2_PLACEMENT_3D('',#1696,#1371,#1372);
#1173=AXIS2_PLACEMENT_3D('',#1702,#1376,#1377);
#1174=AXIS2_PLACEMENT_3D('',#1704,#1378,#1379);
#1175=AXIS2_PLACEMENT_3D('',#1706,#1380,#1381);
#1176=AXIS2_PLACEMENT_3D('',#1708,#1383,#1384);
#1177=AXIS2_PLACEMENT_3D('',#1714,#1388,#1389);
#1178=AXIS2_PLACEMENT_3D('',#1720,#1393,#1394);
#1179=AXIS2_PLACEMENT_3D('',#1731,#1400,#1401);
#1180=AXIS2_PLACEMENT_3D('',#1733,#1402,#1403);
#1181=AXIS2_PLACEMENT_3D('',#1735,#1404,#1405);
#1182=AXIS2_PLACEMENT_3D('',#1737,#1406,#1407);
#1183=AXIS2_PLACEMENT_3D('',#1738,#1408,#1409);
#1184=AXIS2_PLACEMENT_3D('',#1742,#1412,#1413);
#1185=AXIS2_PLACEMENT_3D('',#1745,#1415,#1416);
#1186=AXIS2_PLACEMENT_3D('',#1746,#1417,#1418);
#1187=AXIS2_PLACEMENT_3D('',#1747,#1419,#1420);
#1188=AXIS2_PLACEMENT_3D('',#1750,#1422,#1423);
#1189=AXIS2_PLACEMENT_3D('',#1751,#1424,#1425);
#1190=AXIS2_PLACEMENT_3D('',#1752,#1426,#1427);
#1191=AXIS2_PLACEMENT_3D('',#1755,#1429,#1430);
#1192=AXIS2_PLACEMENT_3D('',#1756,#1431,#1432);
#1193=AXIS2_PLACEMENT_3D('',#1757,#1433,#1434);
#1194=AXIS2_PLACEMENT_3D('',#1760,#1436,#1437);
#1195=AXIS2_PLACEMENT_3D('',#1761,#1438,#1439);
#1196=AXIS2_PLACEMENT_3D('',#1762,#1440,#1441);
#1197=AXIS2_PLACEMENT_3D('',#1770,#1446,#1447);
#1198=AXIS2_PLACEMENT_3D('',#1773,#1450,#1451);
#1199=AXIS2_PLACEMENT_3D('',#1775,#1453,#1454);
#1200=AXIS2_PLACEMENT_3D('',#1776,#1455,#1456);
#1201=AXIS2_PLACEMENT_3D('',#1777,#1457,#1458);
#1202=AXIS2_PLACEMENT_3D('',#1780,#1459,#1460);
#1203=AXIS2_PLACEMENT_3D('',#1784,#1462,#1463);
#1204=AXIS2_PLACEMENT_3D('',#1786,#1465,#1466);
#1205=AXIS2_PLACEMENT_3D('',#1790,#1469,#1470);
#1206=AXIS2_PLACEMENT_3D('',#1794,#1473,#1474);
#1207=AXIS2_PLACEMENT_3D('',#1796,#1476,#1477);
#1208=AXIS2_PLACEMENT_3D('',#1797,#1478,#1479);
#1209=AXIS2_PLACEMENT_3D('',#1800,#1480,#1481);
#1210=AXIS2_PLACEMENT_3D('',#1804,#1483,#1484);
#1211=AXIS2_PLACEMENT_3D('',#1806,#1486,#1487);
#1212=AXIS2_PLACEMENT_3D('',#1810,#1490,#1491);
#1213=AXIS2_PLACEMENT_3D('',#1814,#1494,#1495);
#1214=AXIS2_PLACEMENT_3D('',#1816,#1497,#1498);
#1215=AXIS2_PLACEMENT_3D('',#1817,#1499,#1500);
#1216=AXIS2_PLACEMENT_3D('',#1820,#1501,#1502);
#1217=AXIS2_PLACEMENT_3D('',#1824,#1504,#1505);
#1218=AXIS2_PLACEMENT_3D('',#1826,#1507,#1508);
#1219=AXIS2_PLACEMENT_3D('',#1830,#1511,#1512);
#1220=AXIS2_PLACEMENT_3D('',#1834,#1515,#1516);
#1221=AXIS2_PLACEMENT_3D('',#1836,#1518,#1519);
#1222=AXIS2_PLACEMENT_3D('',#1837,#1520,#1521);
#1223=AXIS2_PLACEMENT_3D('',#1840,#1522,#1523);
#1224=AXIS2_PLACEMENT_3D('',#1844,#1525,#1526);
#1225=AXIS2_PLACEMENT_3D('',#1846,#1528,#1529);
#1226=AXIS2_PLACEMENT_3D('',#1850,#1532,#1533);
#1227=AXIS2_PLACEMENT_3D('',#1854,#1536,#1537);
#1228=AXIS2_PLACEMENT_3D('',#1856,#1539,#1540);
#1229=DIRECTION('axis',(0.,0.,1.));
#1230=DIRECTION('refdir',(1.,0.,0.));
#1231=DIRECTION('center_axis',(-1.22464679914735E-16,2.22044604925031E-16,
-1.));
#1232=DIRECTION('ref_axis',(-0.707106781186548,-0.707106781186547,-2.27422886113205E-16));
#1233=DIRECTION('center_axis',(1.22464679914735E-16,-2.22044604925031E-16,
1.));
#1234=DIRECTION('ref_axis',(-0.707106781186548,-0.707106781186547,-2.27422886113205E-16));
#1235=DIRECTION('',(1.22464679914735E-16,-2.22044604925031E-16,1.));
#1236=DIRECTION('center_axis',(-1.22464679914735E-16,2.22044604925031E-16,
-1.));
#1237=DIRECTION('ref_axis',(-0.707106781186548,-0.707106781186547,-2.27422886113205E-16));
#1238=DIRECTION('',(-1.22464679914735E-16,2.22044604925031E-16,-1.));
#1239=DIRECTION('center_axis',(0.,-1.,-2.22044604925031E-16));
#1240=DIRECTION('ref_axis',(-1.,-2.71926214689378E-32,1.22464679914735E-16));
#1241=DIRECTION('',(1.,2.71926214689378E-32,-1.22464679914735E-16));
#1242=DIRECTION('center_axis',(0.,1.,2.22044604925031E-16));
#1243=DIRECTION('ref_axis',(1.,2.71926214689378E-32,-1.22464679914735E-16));
#1244=DIRECTION('',(1.,2.71926214689378E-32,-1.22464679914735E-16));
#1245=DIRECTION('',(-1.22464679914735E-16,2.22044604925031E-16,-1.));
#1246=DIRECTION('',(1.,2.71926214689378E-32,-1.22464679914735E-16));
#1247=DIRECTION('center_axis',(-1.22464679914735E-16,2.22044604925031E-16,
-1.));
#1248=DIRECTION('ref_axis',(-1.,-2.71926214689378E-32,1.22464679914735E-16));
#1249=DIRECTION('',(0.,-1.,-2.22044604925031E-16));
#1250=DIRECTION('center_axis',(1.22464679914735E-16,-2.22044604925031E-16,
1.));
#1251=DIRECTION('ref_axis',(-0.707106781186548,0.707106781186548,1.38932020913008E-16));
#1252=DIRECTION('',(-1.,-2.71926214689378E-32,1.22464679914735E-16));
#1253=DIRECTION('center_axis',(1.22464679914735E-16,-2.22044604925031E-16,
1.));
#1254=DIRECTION('ref_axis',(0.70710678118655,0.707106781186545,2.27422886113204E-16));
#1255=DIRECTION('',(0.,1.,2.22044604925031E-16));
#1256=DIRECTION('center_axis',(1.22464679914735E-16,-2.22044604925031E-16,
1.));
#1257=DIRECTION('ref_axis',(0.707106781186547,-0.707106781186548,-4.00614097360305E-16));
#1258=DIRECTION('',(2.71926214689378E-32,1.,4.44089209850063E-16));
#1259=DIRECTION('',(1.,2.71926214689378E-32,-1.22464679914735E-16));
#1260=DIRECTION('',(0.,-1.,-2.22044604925031E-16));
#1261=DIRECTION('',(1.,2.71926214689378E-32,-1.22464679914735E-16));
#1262=DIRECTION('',(0.,1.,2.22044604925031E-16));
#1263=DIRECTION('',(1.,2.71926214689378E-32,-1.22464679914735E-16));
#1264=DIRECTION('',(5.47382212626882E-48,1.,2.22044604925031E-16));
#1265=DIRECTION('',(-1.,-2.71926214689378E-32,1.22464679914735E-16));
#1266=DIRECTION('',(-5.47382212626882E-48,-1.,-2.22044604925031E-16));
#1267=DIRECTION('',(1.,2.71926214689378E-32,-1.22464679914735E-16));
#1268=DIRECTION('',(-2.71926214689378E-32,-1.,-4.44089209850063E-16));
#1269=DIRECTION('center_axis',(-1.22464679914735E-16,2.22044604925031E-16,
-1.));
#1270=DIRECTION('ref_axis',(0.707106781186547,-0.707106781186548,-4.00614097360305E-16));
#1271=DIRECTION('',(1.22464679914735E-16,-2.22044604925031E-16,1.));
#1272=DIRECTION('center_axis',(-1.22464679914735E-16,2.22044604925031E-16,
-1.));
#1273=DIRECTION('ref_axis',(0.707106781186547,-0.707106781186548,-4.00614097360305E-16));
#1274=DIRECTION('center_axis',(1.,2.71926214689378E-32,-1.22464679914735E-16));
#1275=DIRECTION('ref_axis',(-5.47382212626882E-48,-1.,-2.22044604925031E-16));
#1276=DIRECTION('',(-1.22464679914735E-16,2.22044604925031E-16,-1.));
#1277=DIRECTION('',(5.47382212626882E-48,1.,2.22044604925031E-16));
#1278=DIRECTION('center_axis',(-1.22464679914735E-16,2.22044604925031E-16,
-1.));
#1279=DIRECTION('ref_axis',(0.70710678118655,0.707106781186545,2.27422886113204E-16));
#1280=DIRECTION('',(1.22464679914735E-16,-2.22044604925031E-16,1.));
#1281=DIRECTION('center_axis',(-1.22464679914735E-16,2.22044604925031E-16,
-1.));
#1282=DIRECTION('ref_axis',(0.70710678118655,0.707106781186545,2.27422886113204E-16));
#1283=DIRECTION('center_axis',(0.,1.,2.22044604925031E-16));
#1284=DIRECTION('ref_axis',(1.,2.71926214689378E-32,-1.22464679914735E-16));
#1285=DIRECTION('',(-1.22464679914735E-16,2.22044604925031E-16,-1.));
#1286=DIRECTION('',(-1.,-2.71926214689378E-32,1.22464679914735E-16));
#1287=DIRECTION('center_axis',(-1.22464679914735E-16,2.22044604925031E-16,
-1.));
#1288=DIRECTION('ref_axis',(-0.707106781186548,0.707106781186548,1.38932020913008E-16));
#1289=DIRECTION('',(1.22464679914735E-16,-2.22044604925031E-16,1.));
#1290=DIRECTION('center_axis',(-1.22464679914735E-16,2.22044604925031E-16,
-1.));
#1291=DIRECTION('ref_axis',(-0.707106781186548,0.707106781186548,1.38932020913008E-16));
#1292=DIRECTION('center_axis',(-1.,-2.71926214689378E-32,1.22464679914735E-16));
#1293=DIRECTION('ref_axis',(5.47382212626882E-48,1.,2.22044604925031E-16));
#1294=DIRECTION('',(-5.47382212626882E-48,-1.,-2.22044604925031E-16));
#1295=DIRECTION('center_axis',(-1.22464679914735E-16,4.44089209850063E-16,
-1.));
#1296=DIRECTION('ref_axis',(1.,2.71926214689378E-32,-1.22464679914735E-16));
#1297=DIRECTION('',(-1.,-2.71926214689378E-32,1.22464679914735E-16));
#1298=DIRECTION('',(2.71926214689378E-32,1.,4.44089209850063E-16));
#1299=DIRECTION('',(1.,2.71926214689378E-32,-1.22464679914735E-16));
#1300=DIRECTION('',(-2.71926214689378E-32,-1.,-4.44089209850063E-16));
#1301=DIRECTION('center_axis',(-2.71926214689378E-32,-1.,-4.44089209850063E-16));
#1302=DIRECTION('ref_axis',(1.22464679914735E-16,-4.44089209850063E-16,
1.));
#1303=DIRECTION('',(-1.22464679914735E-16,4.44089209850063E-16,-1.));
#1304=DIRECTION('',(-1.,-2.71926214689378E-32,1.22464679914735E-16));
#1305=DIRECTION('',(1.22464679914735E-16,-4.44089209850063E-16,1.));
#1306=DIRECTION('center_axis',(-1.22464679914735E-16,4.44089209850063E-16,
-1.));
#1307=DIRECTION('ref_axis',(-1.,-2.71926214689378E-32,1.22464679914735E-16));
#1308=DIRECTION('',(1.,2.71926214689378E-32,-1.22464679914735E-16));
#1309=DIRECTION('',(-2.71926214689378E-32,-1.,-4.44089209850063E-16));
#1310=DIRECTION('',(-1.,-2.71926214689378E-32,1.22464679914735E-16));
#1311=DIRECTION('',(2.71926214689378E-32,1.,4.44089209850063E-16));
#1312=DIRECTION('center_axis',(-1.22464679914735E-16,4.44089209850063E-16,
-1.));
#1313=DIRECTION('ref_axis',(-1.,-2.71926214689378E-32,1.22464679914735E-16));
#1314=DIRECTION('',(1.,2.71926214689378E-32,-1.22464679914735E-16));
#1315=DIRECTION('',(2.71926214689378E-32,1.,4.44089209850063E-16));
#1316=DIRECTION('',(-1.,-2.71926214689378E-32,1.22464679914735E-16));
#1317=DIRECTION('',(2.71926214689378E-32,1.,4.44089209850063E-16));
#1318=DIRECTION('center_axis',(2.71926214689378E-32,1.,4.44089209850063E-16));
#1319=DIRECTION('ref_axis',(-1.22464679914735E-16,4.44089209850063E-16,
-1.));
#1320=DIRECTION('',(-1.22464679914735E-16,4.44089209850063E-16,-1.));
#1321=DIRECTION('',(1.,2.71926214689378E-32,-1.22464679914735E-16));
#1322=DIRECTION('',(1.22464679914735E-16,-4.44089209850063E-16,1.));
#1323=DIRECTION('',(-2.26296479653377E-16,-4.44089209850063E-16,1.));
#1324=DIRECTION('',(-1.,-2.71926214689378E-32,1.22464679914735E-16));
#1325=DIRECTION('',(-1.22464679914735E-16,4.44089209850063E-16,-1.));
#1326=DIRECTION('center_axis',(-1.,-2.71926214689378E-32,1.22464679914735E-16));
#1327=DIRECTION('ref_axis',(5.47382212626882E-48,1.,2.22044604925031E-16));
#1328=DIRECTION('',(5.47382212626882E-48,1.,2.22044604925031E-16));
#1329=DIRECTION('',(-1.22464679914735E-16,2.22044604925031E-16,-1.));
#1330=DIRECTION('',(-1.22464679914735E-16,2.22044604925031E-16,-1.));
#1331=DIRECTION('center_axis',(0.,-1.,-2.22044604925031E-16));
#1332=DIRECTION('ref_axis',(-1.,-2.71926214689378E-32,1.22464679914735E-16));
#1333=DIRECTION('',(-1.22464679914735E-16,2.22044604925031E-16,-1.));
#1334=DIRECTION('center_axis',(0.,-1.,-2.22044604925031E-16));
#1335=DIRECTION('ref_axis',(1.,2.71926214689378E-32,-1.22464679914735E-16));
#1336=DIRECTION('center_axis',(-2.71926214689378E-32,-1.,-4.44089209850063E-16));
#1337=DIRECTION('ref_axis',(1.,2.71926214689378E-32,-1.22464679914735E-16));
#1338=DIRECTION('center_axis',(1.22464679914735E-16,-4.44089209850063E-16,
1.));
#1339=DIRECTION('ref_axis',(1.,2.71926214689378E-32,-1.22464679914735E-16));
#1340=DIRECTION('',(1.,2.71926214689378E-32,-1.22464679914735E-16));
#1341=DIRECTION('',(-2.71926214689378E-32,-1.,-4.44089209850063E-16));
#1342=DIRECTION('',(2.71926214689378E-32,1.,4.44089209850063E-16));
#1343=DIRECTION('center_axis',(0.,-1.,-2.22044604925031E-16));
#1344=DIRECTION('ref_axis',(-1.,-2.71926214689378E-32,1.22464679914735E-16));
#1345=DIRECTION('',(-1.22464679914735E-16,2.22044604925031E-16,-1.));
#1346=DIRECTION('',(1.22464679914735E-16,-2.22044604925031E-16,1.));
#1347=DIRECTION('center_axis',(-2.71926214689378E-32,-1.,-4.44089209850063E-16));
#1348=DIRECTION('ref_axis',(-1.,-2.71926214689378E-32,1.22464679914735E-16));
#1349=DIRECTION('',(1.22464679914735E-16,-4.44089209850063E-16,1.));
#1350=DIRECTION('',(-1.22464679914735E-16,4.44089209850063E-16,-1.));
#1351=DIRECTION('center_axis',(1.,2.71926214689378E-32,-1.22464679914735E-16));
#1352=DIRECTION('ref_axis',(-2.71926214689378E-32,-1.,-4.44089209850063E-16));
#1353=DIRECTION('center_axis',(-1.,-2.71926214689378E-32,1.22464679914735E-16));
#1354=DIRECTION('ref_axis',(2.71926214689378E-32,1.,4.44089209850063E-16));
#1355=DIRECTION('center_axis',(1.,2.71926214689378E-32,-1.22464679914735E-16));
#1356=DIRECTION('ref_axis',(-5.47382212626882E-48,-1.,-2.22044604925031E-16));
#1357=DIRECTION('',(-1.22464679914735E-16,2.22044604925031E-16,-1.));
#1358=DIRECTION('',(-5.47382212626882E-48,-1.,-2.22044604925031E-16));
#1359=DIRECTION('center_axis',(0.,1.,2.22044604925031E-16));
#1360=DIRECTION('ref_axis',(1.,2.71926214689378E-32,-1.22464679914735E-16));
#1361=DIRECTION('center_axis',(-1.22464679914735E-16,2.22044604925031E-16,
-1.));
#1362=DIRECTION('ref_axis',(-5.47382212626882E-48,-1.,-2.22044604925031E-16));
#1363=DIRECTION('center_axis',(1.,0.,-1.22464679914735E-16));
#1364=DIRECTION('ref_axis',(0.,-0.70710678118655,0.707106781186545));
#1365=DIRECTION('center_axis',(-1.,0.,0.));
#1366=DIRECTION('ref_axis',(0.,-0.70710678118655,0.707106781186545));
#1367=DIRECTION('',(1.,0.,-1.22464679914735E-16));
#1368=DIRECTION('center_axis',(1.,0.,0.));
#1369=DIRECTION('ref_axis',(0.,-0.70710678118655,0.707106781186545));
#1370=DIRECTION('',(-1.,0.,1.22464679914735E-16));
#1371=DIRECTION('center_axis',(0.,1.,0.));
#1372=DIRECTION('ref_axis',(-1.,0.,0.));
#1373=DIRECTION('',(0.,0.,1.));
#1374=DIRECTION('',(-1.,0.,1.22464679914735E-16));
#1375=DIRECTION('',(0.,0.,1.));
#1376=DIRECTION('center_axis',(-1.,0.,1.22464679914735E-16));
#1377=DIRECTION('ref_axis',(0.,-0.707106781186547,-0.707106781186548));
#1378=DIRECTION('center_axis',(1.,0.,0.));
#1379=DIRECTION('ref_axis',(0.,-0.707106781186547,-0.707106781186548));
#1380=DIRECTION('center_axis',(-1.,0.,0.));
#1381=DIRECTION('ref_axis',(0.,-0.707106781186547,-0.707106781186548));
#1382=DIRECTION('',(1.,0.,-1.22464679914735E-16));
#1383=DIRECTION('center_axis',(-1.,0.,0.));
#1384=DIRECTION('ref_axis',(0.,-1.,0.));
#1385=DIRECTION('',(0.,-1.,-4.44089209850063E-16));
#1386=DIRECTION('',(0.,1.,4.44089209850063E-16));
#1387=DIRECTION('',(0.,-4.44089209850063E-16,1.));
#1388=DIRECTION('center_axis',(1.,0.,0.));
#1389=DIRECTION('ref_axis',(0.,1.,0.));
#1390=DIRECTION('',(0.,1.,4.44089209850063E-16));
#1391=DIRECTION('',(0.,4.44089209850063E-16,-1.));
#1392=DIRECTION('',(0.,-1.,-4.44089209850063E-16));
#1393=DIRECTION('center_axis',(-1.22464679914735E-16,4.44089209850063E-16,
-1.));
#1394=DIRECTION('ref_axis',(-2.71926214689378E-32,-1.,-4.44089209850063E-16));
#1395=DIRECTION('',(-1.,-2.71926214689378E-32,1.22464679914735E-16));
#1396=DIRECTION('',(2.71926214689378E-32,1.,4.44089209850063E-16));
#1397=DIRECTION('',(1.,2.71926214689378E-32,-1.22464679914735E-16));
#1398=DIRECTION('',(2.71926214689378E-32,1.,4.44089209850063E-16));
#1399=DIRECTION('',(-1.,-2.71926214689378E-32,1.22464679914735E-16));
#1400=DIRECTION('center_axis',(1.22464679914735E-16,-4.44089209850063E-16,
1.));
#1401=DIRECTION('ref_axis',(-1.,-7.29696337329435E-30,2.22044604925031E-16));
#1402=DIRECTION('center_axis',(1.22464679914735E-16,-4.44089209850063E-16,
1.));
#1403=DIRECTION('ref_axis',(1.,6.50068842157002E-30,-4.44089209850063E-16));
#1404=DIRECTION('center_axis',(1.22464679914735E-16,-4.44089209850063E-16,
1.));
#1405=DIRECTION('ref_axis',(-1.,-1.45939267465887E-29,4.44089209850063E-16));
#1406=DIRECTION('center_axis',(1.22464679914735E-16,-4.44089209850063E-16,
1.));
#1407=DIRECTION('ref_axis',(-1.,-1.44953191334361E-29,4.44089209850063E-16));
#1408=DIRECTION('center_axis',(2.71926214689378E-32,1.,4.44089209850063E-16));
#1409=DIRECTION('ref_axis',(-1.22464679914735E-16,4.44089209850063E-16,
-1.));
#1410=DIRECTION('',(-1.,-2.71926214689378E-32,1.22464679914735E-16));
#1411=DIRECTION('',(1.22464679914735E-16,-4.44089209850063E-16,1.));
#1412=DIRECTION('center_axis',(4.44089209850062E-16,-3.26405569239796E-14,
1.));
#1413=DIRECTION('ref_axis',(-1.,-1.44953191334361E-29,4.44089209850063E-16));
#1414=DIRECTION('',(4.44089209850062E-16,-3.26405569239796E-14,1.));
#1415=DIRECTION('center_axis',(2.44929359829395E-16,-3.27487021481788E-14,
1.));
#1416=DIRECTION('ref_axis',(-1.,-1.44953191334361E-29,4.44089209850063E-16));
#1417=DIRECTION('center_axis',(-2.44929359829395E-16,3.27487021481788E-14,
-1.));
#1418=DIRECTION('ref_axis',(-1.,0.,2.44929359829395E-16));
#1419=DIRECTION('center_axis',(4.44089209850062E-16,-3.28626015289046E-14,
1.));
#1420=DIRECTION('ref_axis',(-1.,-1.45939267465887E-29,4.44089209850063E-16));
#1421=DIRECTION('',(4.44089209850062E-16,-3.28626015289046E-14,1.));
#1422=DIRECTION('center_axis',(2.44929359829391E-16,-3.27487021481788E-14,
1.));
#1423=DIRECTION('ref_axis',(-1.,-1.45939267465887E-29,4.44089209850063E-16));
#1424=DIRECTION('center_axis',(-2.44929359829391E-16,3.27487021481788E-14,
-1.));
#1425=DIRECTION('ref_axis',(-1.,0.,2.44929359829391E-16));
#1426=DIRECTION('center_axis',(4.44089209850062E-16,-3.26405569239796E-14,
1.));
#1427=DIRECTION('ref_axis',(1.,6.50068842157002E-30,-4.44089209850063E-16));
#1428=DIRECTION('',(4.44089209850062E-16,-3.26405569239796E-14,1.));
#1429=DIRECTION('center_axis',(2.44929359829395E-16,-3.27487021481788E-14,
1.));
#1430=DIRECTION('ref_axis',(1.,6.50068842157002E-30,-4.44089209850063E-16));
#1431=DIRECTION('center_axis',(-2.44929359829395E-16,3.27487021481788E-14,
-1.));
#1432=DIRECTION('ref_axis',(-1.,0.,2.44929359829395E-16));
#1433=DIRECTION('center_axis',(2.22044604925031E-16,-3.28626015289046E-14,
1.));
#1434=DIRECTION('ref_axis',(-1.,-7.29696337329435E-30,2.22044604925031E-16));
#1435=DIRECTION('',(2.22044604925031E-16,-3.28626015289046E-14,1.));
#1436=DIRECTION('center_axis',(2.44929359829391E-16,-3.27487021481788E-14,
1.));
#1437=DIRECTION('ref_axis',(-1.,-7.29696337329435E-30,2.22044604925031E-16));
#1438=DIRECTION('center_axis',(-2.44929359829391E-16,3.27487021481788E-14,
-1.));
#1439=DIRECTION('ref_axis',(-1.,0.,2.44929359829391E-16));
#1440=DIRECTION('center_axis',(-1.22464679914735E-16,4.44089209850063E-16,
-1.));
#1441=DIRECTION('ref_axis',(-2.71926214689378E-32,-1.,-4.44089209850063E-16));
#1442=DIRECTION('',(-1.,-2.71926214689378E-32,1.22464679914735E-16));
#1443=DIRECTION('',(2.71926214689378E-32,1.,4.44089209850063E-16));
#1444=DIRECTION('',(1.,2.71926214689378E-32,-1.22464679914735E-16));
#1445=DIRECTION('',(2.71926214689378E-32,1.,4.44089209850063E-16));
#1446=DIRECTION('center_axis',(-1.,-2.71926214689378E-32,1.22464679914735E-16));
#1447=DIRECTION('ref_axis',(-1.22464679914735E-16,4.44089209850063E-16,
-1.));
#1448=DIRECTION('',(-1.22464679914735E-16,4.44089209850063E-16,-1.));
#1449=DIRECTION('',(1.22464679914735E-16,-4.44089209850063E-16,1.));
#1450=DIRECTION('center_axis',(-2.71926214689378E-32,-1.,-4.44089209850063E-16));
#1451=DIRECTION('ref_axis',(1.22464679914735E-16,-4.44089209850063E-16,
1.));
#1452=DIRECTION('',(-1.22464679914735E-16,4.44089209850063E-16,-1.));
#1453=DIRECTION('center_axis',(1.,2.71926214689378E-32,-1.22464679914735E-16));
#1454=DIRECTION('ref_axis',(1.22464679914735E-16,-4.44089209850063E-16,
1.));
#1455=DIRECTION('center_axis',(2.71926214689378E-32,1.,4.44089209850063E-16));
#1456=DIRECTION('ref_axis',(-1.22464679914735E-16,4.44089209850063E-16,
-1.));
#1457=DIRECTION('center_axis',(1.22464679914735E-16,-4.44089209850063E-16,
1.));
#1458=DIRECTION('ref_axis',(0.140132727772866,-0.990132727772866,-4.56868570375622E-16));
#1459=DIRECTION('center_axis',(1.22464679914735E-16,-4.44089209850063E-16,
1.));
#1460=DIRECTION('ref_axis',(0.140132727772866,-0.990132727772866,-4.56868570375622E-16));
#1461=DIRECTION('',(1.22464679914735E-16,-4.44089209850063E-16,1.));
#1462=DIRECTION('center_axis',(-1.22464679914735E-16,4.44089209850063E-16,
-1.));
#1463=DIRECTION('ref_axis',(0.140132727772866,-0.990132727772866,-4.56868570375622E-16));
#1464=DIRECTION('',(1.22464679914735E-16,-4.44089209850063E-16,1.));
#1465=DIRECTION('center_axis',(1.22464679914735E-16,-4.44089209850063E-16,
1.));
#1466=DIRECTION('ref_axis',(1.,2.71926214689378E-32,-1.22464679914735E-16));
#1467=DIRECTION('',(-1.,-1.04368791974163E-16,1.22464679914735E-16));
#1468=DIRECTION('',(-2.71926214689378E-32,-1.,-4.44089209850063E-16));
#1469=DIRECTION('center_axis',(-1.,-2.71926214689378E-32,1.22464679914735E-16));
#1470=DIRECTION('ref_axis',(-2.71926214689378E-32,-1.,-4.44089209850063E-16));
#1471=DIRECTION('',(-2.71926214689378E-32,-1.,-4.44089209850063E-16));
#1472=DIRECTION('',(1.22464679914735E-16,-4.44089209850063E-16,1.));
#1473=DIRECTION('center_axis',(-1.04368791974163E-16,1.,4.44089209850063E-16));
#1474=DIRECTION('ref_axis',(-1.,-1.04368791974163E-16,1.22464679914735E-16));
#1475=DIRECTION('',(-1.,-1.04368791974163E-16,1.22464679914735E-16));
#1476=DIRECTION('center_axis',(-1.22464679914735E-16,4.44089209850063E-16,
-1.));
#1477=DIRECTION('ref_axis',(-1.,-2.71926214689378E-32,1.22464679914735E-16));
#1478=DIRECTION('center_axis',(1.22464679914735E-16,-4.44089209850063E-16,
1.));
#1479=DIRECTION('ref_axis',(-0.120085489314731,0.992763554556694,4.55581813522355E-16));
#1480=DIRECTION('center_axis',(1.22464679914735E-16,-4.44089209850063E-16,
1.));
#1481=DIRECTION('ref_axis',(-0.120085489314731,0.992763554556694,4.55581813522355E-16));
#1482=DIRECTION('',(1.22464679914735E-16,-4.44089209850063E-16,1.));
#1483=DIRECTION('center_axis',(-1.22464679914735E-16,4.44089209850063E-16,
-1.));
#1484=DIRECTION('ref_axis',(-0.120085489314731,0.992763554556694,4.55581813522355E-16));
#1485=DIRECTION('',(1.22464679914735E-16,-4.44089209850063E-16,1.));
#1486=DIRECTION('center_axis',(1.22464679914735E-16,-4.44089209850063E-16,
1.));
#1487=DIRECTION('ref_axis',(1.,2.71926214689378E-32,-1.22464679914735E-16));
#1488=DIRECTION('',(1.,2.71926214689378E-32,-1.22464679914735E-16));
#1489=DIRECTION('',(2.71926214689378E-32,1.,4.44089209850063E-16));
#1490=DIRECTION('center_axis',(1.,2.71926214689378E-32,-1.22464679914735E-16));
#1491=DIRECTION('ref_axis',(2.71926214689378E-32,1.,4.44089209850063E-16));
#1492=DIRECTION('',(2.71926214689378E-32,1.,4.44089209850063E-16));
#1493=DIRECTION('',(1.22464679914735E-16,-4.44089209850063E-16,1.));
#1494=DIRECTION('center_axis',(-2.71926214689378E-32,-1.,-4.44089209850063E-16));
#1495=DIRECTION('ref_axis',(1.,2.71926214689378E-32,-1.22464679914735E-16));
#1496=DIRECTION('',(1.,2.71926214689378E-32,-1.22464679914735E-16));
#1497=DIRECTION('center_axis',(-1.22464679914735E-16,4.44089209850063E-16,
-1.));
#1498=DIRECTION('ref_axis',(-1.,-2.71926214689378E-32,1.22464679914735E-16));
#1499=DIRECTION('center_axis',(1.22464679914735E-16,-4.44089209850063E-16,
1.));
#1500=DIRECTION('ref_axis',(-0.990132727772866,-0.140132727772865,5.9024855229022E-17));
#1501=DIRECTION('center_axis',(1.22464679914735E-16,-4.44089209850063E-16,
1.));
#1502=DIRECTION('ref_axis',(-0.990132727772866,-0.140132727772865,5.9024855229022E-17));
#1503=DIRECTION('',(1.22464679914735E-16,-4.44089209850063E-16,1.));
#1504=DIRECTION('center_axis',(-1.22464679914735E-16,4.44089209850063E-16,
-1.));
#1505=DIRECTION('ref_axis',(-0.990132727772866,-0.140132727772865,5.9024855229022E-17));
#1506=DIRECTION('',(1.22464679914735E-16,-4.44089209850063E-16,1.));
#1507=DIRECTION('center_axis',(-1.22464679914735E-16,4.44089209850063E-16,
-1.));
#1508=DIRECTION('ref_axis',(-1.,-2.71926214689378E-32,1.22464679914735E-16));
#1509=DIRECTION('',(-1.,-1.04368791974163E-16,1.22464679914735E-16));
#1510=DIRECTION('',(2.71926214689378E-32,1.,4.44089209850063E-16));
#1511=DIRECTION('center_axis',(-1.04368791974163E-16,1.,4.44089209850063E-16));
#1512=DIRECTION('ref_axis',(-1.,-1.04368791974163E-16,1.22464679914735E-16));
#1513=DIRECTION('',(-1.,-1.04368791974163E-16,1.22464679914735E-16));
#1514=DIRECTION('',(1.22464679914735E-16,-4.44089209850063E-16,1.));
#1515=DIRECTION('center_axis',(1.,2.71926214689378E-32,-1.22464679914735E-16));
#1516=DIRECTION('ref_axis',(2.71926214689378E-32,1.,4.44089209850063E-16));
#1517=DIRECTION('',(2.71926214689378E-32,1.,4.44089209850063E-16));
#1518=DIRECTION('center_axis',(1.22464679914735E-16,-4.44089209850063E-16,
1.));
#1519=DIRECTION('ref_axis',(1.,2.71926214689378E-32,-1.22464679914735E-16));
#1520=DIRECTION('center_axis',(1.22464679914735E-16,-4.44089209850063E-16,
1.));
#1521=DIRECTION('ref_axis',(0.97008548931473,0.242763554556693,-1.09925338153833E-17));
#1522=DIRECTION('center_axis',(1.22464679914735E-16,-4.44089209850063E-16,
1.));
#1523=DIRECTION('ref_axis',(0.97008548931473,0.242763554556693,-1.09925338153833E-17));
#1524=DIRECTION('',(1.22464679914735E-16,-4.44089209850063E-16,1.));
#1525=DIRECTION('center_axis',(-1.22464679914735E-16,4.44089209850063E-16,
-1.));
#1526=DIRECTION('ref_axis',(0.97008548931473,0.242763554556693,-1.09925338153833E-17));
#1527=DIRECTION('',(1.22464679914735E-16,-4.44089209850063E-16,1.));
#1528=DIRECTION('center_axis',(-1.22464679914735E-16,4.44089209850063E-16,
-1.));
#1529=DIRECTION('ref_axis',(-1.,-2.71926214689378E-32,1.22464679914735E-16));
#1530=DIRECTION('',(1.,2.51174316480619E-16,-1.22464679914735E-16));
#1531=DIRECTION('',(-2.71926214689378E-32,-1.,-4.44089209850063E-16));
#1532=DIRECTION('center_axis',(2.51174316480619E-16,-1.,-4.44089209850063E-16));
#1533=DIRECTION('ref_axis',(1.,2.51174316480619E-16,-1.22464679914735E-16));
#1534=DIRECTION('',(1.,2.51174316480619E-16,-1.22464679914735E-16));
#1535=DIRECTION('',(1.22464679914735E-16,-4.44089209850063E-16,1.));
#1536=DIRECTION('center_axis',(-1.,-2.71926214689378E-32,1.22464679914735E-16));
#1537=DIRECTION('ref_axis',(-2.71926214689378E-32,-1.,-4.44089209850063E-16));
#1538=DIRECTION('',(-2.71926214689378E-32,-1.,-4.44089209850063E-16));
#1539=DIRECTION('center_axis',(1.22464679914735E-16,-4.44089209850063E-16,
1.));
#1540=DIRECTION('ref_axis',(1.,2.71926214689378E-32,-1.22464679914735E-16));
#1541=CARTESIAN_POINT('',(0.,0.,0.));
#1542=CARTESIAN_POINT('Origin',(-80.9856532931454,1.50000000000001,29.9528009145495));
#1543=CARTESIAN_POINT('',(-86.9856532931454,1.50000000000002,9.95280091454946));
#1544=CARTESIAN_POINT('',(-80.9856532931454,-4.49999999999999,9.95280091454946));
#1545=CARTESIAN_POINT('Origin',(-80.9856532931454,1.50000000000002,9.95280091454946));
#1546=CARTESIAN_POINT('',(-80.9856532931454,-4.49999999999999,29.9528009145495));
#1547=CARTESIAN_POINT('',(-80.9856532931454,-4.49999999999999,29.9528009145495));
#1548=CARTESIAN_POINT('',(-86.9856532931454,1.50000000000001,29.9528009145495));
#1549=CARTESIAN_POINT('Origin',(-80.9856532931454,1.50000000000001,29.9528009145495));
#1550=CARTESIAN_POINT('',(-86.9856532931454,1.50000000000001,29.9528009145495));
#1551=CARTESIAN_POINT('Origin',(86.2143467068546,-4.49999999999999,29.9528009145494));
#1552=CARTESIAN_POINT('',(-32.0491307930348,-4.49999999999999,9.95280091454945));
#1553=CARTESIAN_POINT('',(43.6643467068546,-4.49999999999999,9.95280091454944));
#1554=CARTESIAN_POINT('',(-24.0491307930348,-4.49999999999999,9.95280091454945));
#1555=CARTESIAN_POINT('Origin',(-28.0491307930348,-4.49999999999998,9.95280091454945));
#1556=CARTESIAN_POINT('',(83.2143467068546,-4.49999999999999,9.95280091454944));
#1557=CARTESIAN_POINT('',(43.6643467068546,-4.49999999999999,9.95280091454944));
#1558=CARTESIAN_POINT('',(83.2143467068546,-4.49999999999999,29.9528009145494));
#1559=CARTESIAN_POINT('',(83.2143467068546,-4.49999999999999,29.9528009145494));
#1560=CARTESIAN_POINT('',(43.6643467068546,-4.49999999999999,29.9528009145494));
#1561=CARTESIAN_POINT('Origin',(1.1143467068546,56.1,9.95280091454947));
#1562=CARTESIAN_POINT('',(-86.9856532931454,108.7,9.95280091454948));
#1563=CARTESIAN_POINT('',(-86.9856532931454,28.3,9.95280091454947));
#1564=CARTESIAN_POINT('',(-80.9856532931454,114.7,9.95280091454949));
#1565=CARTESIAN_POINT('Origin',(-80.9856532931454,108.7,9.95280091454949));
#1566=CARTESIAN_POINT('',(83.2143467068546,114.7,9.95280091454947));
#1567=CARTESIAN_POINT('',(-41.4356532931454,114.7,9.95280091454948));
#1568=CARTESIAN_POINT('',(89.2143467068546,108.7,9.95280091454947));
#1569=CARTESIAN_POINT('Origin',(83.2143467068546,108.7,9.95280091454947));
#1570=CARTESIAN_POINT('',(89.2143467068546,1.50000000000003,9.95280091454944));
#1571=CARTESIAN_POINT('',(89.2143467068546,83.9,9.95280091454946));
#1572=CARTESIAN_POINT('Origin',(83.2143467068546,1.50000000000001,9.95280091454944));
#1573=CARTESIAN_POINT('',(-24.0491307930348,0.500000000000018,9.95280091454946));
#1574=CARTESIAN_POINT('',(-24.0491307930348,0.50000000000002,9.95280091454946));
#1575=CARTESIAN_POINT('',(-4.08565329314539,0.500000000000022,9.95280091454945));
#1576=CARTESIAN_POINT('',(-83.9856532931454,0.500000000000016,9.95280091454946));
#1577=CARTESIAN_POINT('',(-4.08565329314539,-1.49999999999998,9.95280091454945));
#1578=CARTESIAN_POINT('',(-4.08565329314539,27.3,9.95280091454946));
#1579=CARTESIAN_POINT('',(6.35168678426378,-1.49999999999998,9.95280091454945));
#1580=CARTESIAN_POINT('',(3.7330167455592,-1.49999999999998,9.95280091454945));
#1581=CARTESIAN_POINT('',(6.3516867842638,0.500000000000016,9.95280091454945));
#1582=CARTESIAN_POINT('',(6.35168678426378,28.3,9.95280091454946));
#1583=CARTESIAN_POINT('',(86.2143467068546,0.500000000000016,9.95280091454944));
#1584=CARTESIAN_POINT('',(-83.9856532931454,0.500000000000016,9.95280091454946));
#1585=CARTESIAN_POINT('',(86.2143467068546,111.7,9.95280091454947));
#1586=CARTESIAN_POINT('',(86.2143467068546,0.500000000000016,9.95280091454944));
#1587=CARTESIAN_POINT('',(-83.9856532931454,111.7,9.95280091454949));
#1588=CARTESIAN_POINT('',(86.2143467068546,111.7,9.95280091454947));
#1589=CARTESIAN_POINT('',(-83.9856532931454,0.500000000000016,9.95280091454946));
#1590=CARTESIAN_POINT('',(-83.9856532931454,111.7,9.95280091454949));
#1591=CARTESIAN_POINT('',(-32.0491307930348,0.500000000000018,9.95280091454946));
#1592=CARTESIAN_POINT('',(-83.9856532931454,0.500000000000016,9.95280091454946));
#1593=CARTESIAN_POINT('',(-32.0491307930348,0.50000000000002,9.95280091454946));
#1594=CARTESIAN_POINT('Origin',(83.2143467068546,1.50000000000001,29.9528009145494));
#1595=CARTESIAN_POINT('',(89.2143467068546,1.5,29.9528009145494));
#1596=CARTESIAN_POINT('',(89.2143467068546,1.50000000000001,29.9528009145494));
#1597=CARTESIAN_POINT('Origin',(83.2143467068546,1.50000000000001,29.9528009145494));
#1598=CARTESIAN_POINT('Origin',(89.2143467068546,111.7,29.9528009145495));
#1599=CARTESIAN_POINT('',(89.2143467068546,108.7,29.9528009145495));
#1600=CARTESIAN_POINT('',(89.2143467068546,108.7,29.9528009145495));
#1601=CARTESIAN_POINT('',(89.2143467068546,83.9,29.9528009145495));
#1602=CARTESIAN_POINT('Origin',(83.2143467068546,108.7,29.9528009145495));
#1603=CARTESIAN_POINT('',(83.2143467068546,114.7,29.9528009145495));
#1604=CARTESIAN_POINT('',(83.2143467068546,114.7,29.9528009145495));
#1605=CARTESIAN_POINT('Origin',(83.2143467068546,108.7,29.9528009145495));
#1606=CARTESIAN_POINT('Origin',(-83.9856532931454,114.7,29.9528009145495));
#1607=CARTESIAN_POINT('',(-80.9856532931454,114.7,29.9528009145495));
#1608=CARTESIAN_POINT('',(-80.9856532931454,114.7,29.9528009145495));
#1609=CARTESIAN_POINT('',(-41.4356532931454,114.7,29.9528009145495));
#1610=CARTESIAN_POINT('Origin',(-80.9856532931454,108.7,29.9528009145495));
#1611=CARTESIAN_POINT('',(-86.9856532931454,108.7,29.9528009145495));
#1612=CARTESIAN_POINT('',(-86.9856532931454,108.7,29.9528009145495));
#1613=CARTESIAN_POINT('Origin',(-80.9856532931454,108.7,29.9528009145495));
#1614=CARTESIAN_POINT('Origin',(-86.9856532931454,0.500000000000002,29.9528009145495));
#1615=CARTESIAN_POINT('',(-86.9856532931454,28.3,29.9528009145495));
#1616=CARTESIAN_POINT('Origin',(-83.9856532931454,111.7,28.6528009145495));
#1617=CARTESIAN_POINT('',(86.2143467068546,111.7,28.6528009145495));
#1618=CARTESIAN_POINT('',(-83.9856532931454,111.7,28.6528009145495));
#1619=CARTESIAN_POINT('',(-83.9856532931454,111.7,28.6528009145495));
#1620=CARTESIAN_POINT('',(86.2143467068546,109.7,28.6528009145495));
#1621=CARTESIAN_POINT('',(86.2143467068546,111.7,28.6528009145495));
#1622=CARTESIAN_POINT('',(-83.9856532931454,109.7,28.6528009145495));
#1623=CARTESIAN_POINT('',(86.2143467068546,109.7,28.6528009145495));
#1624=CARTESIAN_POINT('',(-83.9856532931454,56.1,28.6528009145495));
#1625=CARTESIAN_POINT('Origin',(1.1143467068546,109.7,29.3028009145495));
#1626=CARTESIAN_POINT('',(86.2143467068546,109.7,29.9528009145495));
#1627=CARTESIAN_POINT('',(86.2143467068546,109.7,29.6278009145495));
#1628=CARTESIAN_POINT('',(-83.9856532931454,109.7,29.9528009145495));
#1629=CARTESIAN_POINT('',(-83.9856532931454,109.7,29.9528009145495));
#1630=CARTESIAN_POINT('',(-83.9856532931454,109.7,29.6278009145495));
#1631=CARTESIAN_POINT('Origin',(-4.08565329314538,0.50000000000001,28.6528009145495));
#1632=CARTESIAN_POINT('',(-83.9856532931454,0.50000000000001,28.6528009145495));
#1633=CARTESIAN_POINT('',(-4.08565329314538,0.50000000000001,28.6528009145495));
#1634=CARTESIAN_POINT('',(41.0643467068546,0.500000000000012,28.6528009145495));
#1635=CARTESIAN_POINT('',(-83.9856532931454,3.50000000000001,28.6528009145495));
#1636=CARTESIAN_POINT('',(-83.9856532931454,0.500000000000006,28.6528009145495));
#1637=CARTESIAN_POINT('',(-4.08565329314538,3.50000000000001,28.6528009145495));
#1638=CARTESIAN_POINT('',(86.2143467068546,3.50000000000001,28.6528009145494));
#1639=CARTESIAN_POINT('',(-4.08565329314538,0.50000000000001,28.6528009145495));
#1640=CARTESIAN_POINT('Origin',(86.2143467068546,0.50000000000001,28.6528009145494));
#1641=CARTESIAN_POINT('',(6.35168678426378,0.50000000000001,28.6528009145495));
#1642=CARTESIAN_POINT('',(86.2143467068546,0.50000000000001,28.6528009145494));
#1643=CARTESIAN_POINT('',(86.2143467068546,0.500000000000012,28.6528009145494));
#1644=CARTESIAN_POINT('',(6.35168678426378,3.50000000000001,28.6528009145495));
#1645=CARTESIAN_POINT('',(6.35168678426378,0.50000000000001,28.6528009145495));
#1646=CARTESIAN_POINT('',(86.2143467068546,3.50000000000001,28.6528009145494));
#1647=CARTESIAN_POINT('',(86.2143467068546,3.50000000000001,28.6528009145494));
#1648=CARTESIAN_POINT('',(86.2143467068546,56.1,28.6528009145495));
#1649=CARTESIAN_POINT('Origin',(1.1143467068546,3.50000000000001,29.3028009145495));
#1650=CARTESIAN_POINT('',(-83.9856532931454,3.50000000000001,29.9528009145495));
#1651=CARTESIAN_POINT('',(-83.9856532931454,3.50000000000001,29.6278009145495));
#1652=CARTESIAN_POINT('',(86.2143467068546,3.50000000000001,29.9528009145494));
#1653=CARTESIAN_POINT('',(-83.9856532931454,3.50000000000001,29.9528009145495));
#1654=CARTESIAN_POINT('',(86.2143467068546,3.50000000000001,29.6278009145494));
#1655=CARTESIAN_POINT('',(6.3516867842638,3.50000000000001,29.0528009145494));
#1656=CARTESIAN_POINT('',(6.3516867842638,3.50000000000002,9.95280091454945));
#1657=CARTESIAN_POINT('',(-4.08565329314539,3.50000000000001,29.0528009145494));
#1658=CARTESIAN_POINT('',(6.3516867842638,3.50000000000001,29.0528009145494));
#1659=CARTESIAN_POINT('',(-4.08565329314539,3.50000000000001,29.0528009145494));
#1660=CARTESIAN_POINT('Origin',(-83.9856532931454,0.500000000000002,29.9528009145495));
#1661=CARTESIAN_POINT('',(-83.9856532931454,111.7,29.9528009145495));
#1662=CARTESIAN_POINT('',(-83.9856532931454,0.500000000000011,29.9528009145495));
#1663=CARTESIAN_POINT('',(-83.9856532931454,111.7,29.9528009145495));
#1664=CARTESIAN_POINT('Origin',(86.2143467068546,0.500000000000011,29.9528009145494));
#1665=CARTESIAN_POINT('',(-4.08565329314538,0.500000000000011,29.2528009145494));
#1666=CARTESIAN_POINT('Origin',(-28.0491307930348,0.50000000000002,9.95280091454946));
#1667=CARTESIAN_POINT('Origin',(-28.0491307930348,0.500000000000018,9.95280091454946));
#1668=CARTESIAN_POINT('Origin',(1.1330167455592,-0.499999999999986,29.0528009145494));
#1669=CARTESIAN_POINT('',(-4.08565329314539,-1.49999999999999,29.0528009145494));
#1670=CARTESIAN_POINT('',(6.3516867842638,-1.49999999999999,29.0528009145494));
#1671=CARTESIAN_POINT('',(6.3516867842638,-1.49999999999999,29.0528009145494));
#1672=CARTESIAN_POINT('',(-4.08565329314539,-1.49999999999999,29.0528009145494));
#1673=CARTESIAN_POINT('',(6.3516867842638,0.500000000000009,29.0528009145494));
#1674=CARTESIAN_POINT('Origin',(86.2143467068546,0.500000000000011,29.9528009145494));
#1675=CARTESIAN_POINT('',(86.2143467068546,0.500000000000011,29.9528009145494));
#1676=CARTESIAN_POINT('',(6.3516867842638,0.500000000000011,29.2528009145494));
#1677=CARTESIAN_POINT('Origin',(6.3516867842638,-1.49999999999999,28.5528009145494));
#1678=CARTESIAN_POINT('',(-4.08565329314539,-1.49999999999999,28.5528009145494));
#1679=CARTESIAN_POINT('',(6.3516867842638,-1.49999999999999,28.5528009145494));
#1680=CARTESIAN_POINT('Origin',(6.3516867842638,0.500000000000014,28.5528009145494));
#1681=CARTESIAN_POINT('Origin',(-4.08565329314539,-1.49999999999999,28.5528009145494));
#1682=CARTESIAN_POINT('Origin',(86.2143467068546,111.7,29.9528009145495));
#1683=CARTESIAN_POINT('',(86.2143467068546,111.7,29.9528009145495));
#1684=CARTESIAN_POINT('',(86.2143467068546,0.500000000000011,29.9528009145494));
#1685=CARTESIAN_POINT('Origin',(-83.9856532931454,111.7,29.9528009145495));
#1686=CARTESIAN_POINT('Origin',(1.1143467068546,56.1,29.9528009145495));
#1687=CARTESIAN_POINT('Origin',(3.2943748653433,2.20000000000002,23.9056018290989));
#1688=CARTESIAN_POINT('',(-4.0856532931454,2.20000000000002,25.6056018290989));
#1689=CARTESIAN_POINT('',(-4.0856532931454,0.500000000000018,23.9056018290989));
#1690=CARTESIAN_POINT('Origin',(-4.08565329314539,2.20000000000002,23.9056018290989));
#1691=CARTESIAN_POINT('',(6.3516867842638,0.500000000000018,23.9056018290989));
#1692=CARTESIAN_POINT('',(3.2943748653433,0.500000000000018,23.9056018290989));
#1693=CARTESIAN_POINT('',(6.3516867842638,2.20000000000002,25.6056018290989));
#1694=CARTESIAN_POINT('Origin',(6.3516867842638,2.20000000000002,23.9056018290989));
#1695=CARTESIAN_POINT('',(3.2943748653433,2.20000000000002,25.6056018290989));
#1696=CARTESIAN_POINT('Origin',(6.3516867842638,0.500000000000018,9.95280091454945));
#1697=CARTESIAN_POINT('',(-4.0856532931454,0.500000000000018,23.3056018290989));
#1698=CARTESIAN_POINT('',(-4.0856532931454,0.500000000000018,9.95280091454945));
#1699=CARTESIAN_POINT('',(6.3516867842638,0.500000000000018,23.3056018290989));
#1700=CARTESIAN_POINT('',(3.2943748653433,0.500000000000018,23.3056018290989));
#1701=CARTESIAN_POINT('',(6.3516867842638,0.500000000000018,9.95280091454945));
#1702=CARTESIAN_POINT('Origin',(3.2943748653433,2.20000000000002,23.3056018290989));
#1703=CARTESIAN_POINT('',(6.3516867842638,2.20000000000002,21.6056018290989));
#1704=CARTESIAN_POINT('Origin',(6.3516867842638,2.20000000000002,23.3056018290989));
#1705=CARTESIAN_POINT('',(-4.0856532931454,2.20000000000002,21.6056018290989));
#1706=CARTESIAN_POINT('Origin',(-4.08565329314539,2.20000000000002,23.3056018290989));
#1707=CARTESIAN_POINT('',(3.2943748653433,2.20000000000002,21.6056018290989));
#1708=CARTESIAN_POINT('Origin',(-4.0856532931454,0.500000000000018,9.95280091454945));
#1709=CARTESIAN_POINT('',(-4.0856532931454,-0.100616366235623,21.6056018290989));
#1710=CARTESIAN_POINT('',(-4.0856532931454,13.4496918168822,21.6056018290989));
#1711=CARTESIAN_POINT('',(-4.0856532931454,-0.100616366235626,25.6056018290989));
#1712=CARTESIAN_POINT('',(-4.0856532931454,13.4496918168822,25.6056018290989));
#1713=CARTESIAN_POINT('',(-4.0856532931454,-0.100616366235622,18.7792013718242));
#1714=CARTESIAN_POINT('Origin',(6.3516867842638,-1.49999999999998,9.95280091454945));
#1715=CARTESIAN_POINT('',(6.3516867842638,-0.100616366235623,21.6056018290989));
#1716=CARTESIAN_POINT('',(6.3516867842638,12.4496918168822,21.6056018290989));
#1717=CARTESIAN_POINT('',(6.3516867842638,-0.100616366235626,25.6056018290989));
#1718=CARTESIAN_POINT('',(6.3516867842638,-0.100616366235622,18.7792013718242));
#1719=CARTESIAN_POINT('',(6.3516867842638,12.4496918168822,25.6056018290989));
#1720=CARTESIAN_POINT('Origin',(0.237062946422796,26.3993836337644,21.6056018290989));
#1721=CARTESIAN_POINT('',(-11.7629370535772,-0.100616366235622,21.6056018290989));
#1722=CARTESIAN_POINT('',(0.237062946422796,-0.100616366235623,21.6056018290989));
#1723=CARTESIAN_POINT('',(-11.7629370535772,26.8993836337644,21.6056018290989));
#1724=CARTESIAN_POINT('',(-11.7629370535772,26.3993836337644,21.6056018290989));
#1725=CARTESIAN_POINT('',(13.2370629464228,26.8993836337644,21.6056018290989));
#1726=CARTESIAN_POINT('',(0.237062946422796,26.8993836337644,21.6056018290989));
#1727=CARTESIAN_POINT('',(13.2370629464228,-0.100616366235623,21.6056018290989));
#1728=CARTESIAN_POINT('',(13.2370629464228,26.3993836337644,21.6056018290989));
#1729=CARTESIAN_POINT('',(0.237062946422796,-0.100616366235623,21.6056018290989));
#1730=CARTESIAN_POINT('',(-8.81795052775738,24.3303859901524,21.6056018290989));
#1731=CARTESIAN_POINT('Origin',(-9.85570052775737,24.3303859901524,21.6056018290989));
#1732=CARTESIAN_POINT('',(-10.946362006681,6.67291333154069,21.6056018290983));
#1733=CARTESIAN_POINT('Origin',(-9.90861200668097,6.67291333154069,21.6056018290983));
#1734=CARTESIAN_POINT('',(12.4730121015535,24.3303859901523,21.6056018290988));
#1735=CARTESIAN_POINT('Origin',(11.4352621015535,24.3303859901523,21.6056018290988));
#1736=CARTESIAN_POINT('',(12.42010062263,6.67291333154059,21.6056018290983));
#1737=CARTESIAN_POINT('Origin',(11.38235062263,6.67291333154059,21.6056018290983));
#1738=CARTESIAN_POINT('Origin',(0.237062946422796,-0.100616366235626,27.6056018290989));
#1739=CARTESIAN_POINT('',(-11.7629370535772,-0.100616366235626,25.6056018290989));
#1740=CARTESIAN_POINT('',(0.237062946422796,-0.100616366235626,25.6056018290989));
#1741=CARTESIAN_POINT('',(-11.7629370535772,-0.100616366235626,27.6056018290989));
#1742=CARTESIAN_POINT('Origin',(11.38235062263,6.67291333154065,19.8392945665159));
#1743=CARTESIAN_POINT('',(12.42010062263,6.67291333154049,24.8392945665159));
#1744=CARTESIAN_POINT('',(12.42010062263,6.67291333154065,19.8392945665159));
#1745=CARTESIAN_POINT('Origin',(11.38235062263,6.67291333154049,24.8392945665159));
#1746=CARTESIAN_POINT('Origin',(11.38235062263,6.67291333154049,24.8392945665159));
#1747=CARTESIAN_POINT('Origin',(11.4352621015535,24.3303859901524,19.8392945665164));
#1748=CARTESIAN_POINT('',(12.4730121015535,24.3303859901522,24.8392945665164));
#1749=CARTESIAN_POINT('',(12.4730121015535,24.3303859901524,19.8392945665164));
#1750=CARTESIAN_POINT('Origin',(11.4352621015535,24.3303859901522,24.8392945665164));
#1751=CARTESIAN_POINT('Origin',(11.4352621015535,24.3303859901522,24.8392945665164));
#1752=CARTESIAN_POINT('Origin',(-9.90861200668097,6.67291333154075,19.8392945665159));
#1753=CARTESIAN_POINT('',(-10.946362006681,6.67291333154058,24.8392945665159));
#1754=CARTESIAN_POINT('',(-10.946362006681,6.67291333154075,19.8392945665159));
#1755=CARTESIAN_POINT('Origin',(-9.90861200668097,6.67291333154058,24.8392945665159));
#1756=CARTESIAN_POINT('Origin',(-9.90861200668097,6.67291333154058,24.8392945665159));
#1757=CARTESIAN_POINT('Origin',(-9.85570052775737,24.3303859901525,19.8392945665164));
#1758=CARTESIAN_POINT('',(-8.81795052775738,24.3303859901523,24.8392945665164));
#1759=CARTESIAN_POINT('',(-8.81795052775738,24.3303859901525,19.8392945665164));
#1760=CARTESIAN_POINT('Origin',(-9.85570052775737,24.3303859901523,24.8392945665164));
#1761=CARTESIAN_POINT('Origin',(-9.85570052775737,24.3303859901523,24.8392945665164));
#1762=CARTESIAN_POINT('Origin',(0.237062946422795,26.3993836337644,25.6056018290989));
#1763=CARTESIAN_POINT('',(13.2370629464228,-0.100616366235626,25.6056018290989));
#1764=CARTESIAN_POINT('',(0.237062946422796,-0.100616366235626,25.6056018290989));
#1765=CARTESIAN_POINT('',(13.2370629464228,26.8993836337644,25.6056018290989));
#1766=CARTESIAN_POINT('',(13.2370629464228,26.3993836337644,25.6056018290989));
#1767=CARTESIAN_POINT('',(-11.7629370535772,26.8993836337644,25.6056018290989));
#1768=CARTESIAN_POINT('',(0.237062946422796,26.8993836337644,25.6056018290989));
#1769=CARTESIAN_POINT('',(-11.7629370535772,26.3993836337644,25.6056018290989));
#1770=CARTESIAN_POINT('Origin',(13.2370629464228,26.3993836337644,27.6056018290989));
#1771=CARTESIAN_POINT('',(13.2370629464228,26.8993836337644,27.6056018290989));
#1772=CARTESIAN_POINT('',(13.2370629464228,-0.100616366235626,27.6056018290989));
#1773=CARTESIAN_POINT('Origin',(0.237062946422796,26.8993836337644,27.6056018290989));
#1774=CARTESIAN_POINT('',(-11.7629370535772,26.8993836337644,27.6056018290989));
#1775=CARTESIAN_POINT('Origin',(-11.7629370535772,26.3993836337644,27.6056018290989));
#1776=CARTESIAN_POINT('Origin',(0.237062946422796,-0.100616366235626,27.6056018290989));
#1777=CARTESIAN_POINT('Origin',(-86.7883078486027,114.502654555457,9.95280091454951));
#1778=CARTESIAN_POINT('',(-83.9856532931454,94.7000000000001,9.9528009145495));
#1779=CARTESIAN_POINT('',(-66.9856532931454,111.7,9.95280091454951));
#1780=CARTESIAN_POINT('Origin',(-86.7883078486027,114.502654555457,9.95280091454951));
#1781=CARTESIAN_POINT('',(-66.9856532931454,111.7,27.4428009145495));
#1782=CARTESIAN_POINT('',(-66.9856532931454,111.7,9.95280091454951));
#1783=CARTESIAN_POINT('',(-83.9856532931454,94.7,27.4428009145495));
#1784=CARTESIAN_POINT('Origin',(-86.7883078486027,114.502654555457,27.4428009145495));
#1785=CARTESIAN_POINT('',(-83.9856532931454,94.7000000000001,9.9528009145495));
#1786=CARTESIAN_POINT('Origin',(-75.4856532931454,103.2,27.4428009145495));
#1787=CARTESIAN_POINT('',(-83.9856532931454,111.7,27.4428009145495));
#1788=CARTESIAN_POINT('',(86.2143467068546,111.7,27.4428009145495));
#1789=CARTESIAN_POINT('',(-83.9856532931454,111.7,27.4428009145495));
#1790=CARTESIAN_POINT('Origin',(-83.9856532931454,111.7,9.95280091454951));
#1791=CARTESIAN_POINT('',(-83.9856532931454,111.7,9.95280091454951));
#1792=CARTESIAN_POINT('',(-83.9856532931454,111.7,9.95280091454951));
#1793=CARTESIAN_POINT('',(-83.9856532931454,111.7,9.95280091454951));
#1794=CARTESIAN_POINT('Origin',(-66.9856532931454,111.7,9.95280091454951));
#1795=CARTESIAN_POINT('',(86.2143467068546,111.7,9.95280091454949));
#1796=CARTESIAN_POINT('Origin',(-75.4856532931454,103.2,9.9528009145495));
#1797=CARTESIAN_POINT('Origin',(88.6160564931492,-4.35527109113387,9.95280091454944));
#1798=CARTESIAN_POINT('',(86.2143467068546,15.5,9.95280091454944));
#1799=CARTESIAN_POINT('',(69.2143467068546,0.500000000000022,9.95280091454944));
#1800=CARTESIAN_POINT('Origin',(88.6160564931492,-4.35527109113387,9.95280091454944));
#1801=CARTESIAN_POINT('',(69.2143467068546,0.500000000000015,27.4428009145494));
#1802=CARTESIAN_POINT('',(69.2143467068546,0.500000000000022,9.95280091454944));
#1803=CARTESIAN_POINT('',(86.2143467068546,15.5,27.4428009145494));
#1804=CARTESIAN_POINT('Origin',(88.6160564931492,-4.35527109113388,27.4428009145494));
#1805=CARTESIAN_POINT('',(86.2143467068546,15.5,9.95280091454944));
#1806=CARTESIAN_POINT('Origin',(77.7143467068546,8.00000000000001,27.4428009145494));
#1807=CARTESIAN_POINT('',(86.2143467068546,0.500000000000014,27.4428009145494));
#1808=CARTESIAN_POINT('',(6.3516867842638,0.500000000000014,27.4428009145494));
#1809=CARTESIAN_POINT('',(86.2143467068546,0.500000000000014,27.4428009145494));
#1810=CARTESIAN_POINT('Origin',(86.2143467068546,0.500000000000022,9.95280091454944));
#1811=CARTESIAN_POINT('',(86.2143467068546,0.500000000000022,9.95280091454944));
#1812=CARTESIAN_POINT('',(86.2143467068546,0.500000000000022,9.95280091454944));
#1813=CARTESIAN_POINT('',(86.2143467068546,0.500000000000022,9.95280091454944));
#1814=CARTESIAN_POINT('Origin',(69.2143467068546,0.500000000000022,9.95280091454944));
#1815=CARTESIAN_POINT('',(6.3516867842638,0.500000000000022,9.95280091454945));
#1816=CARTESIAN_POINT('Origin',(77.7143467068546,8.00000000000002,9.95280091454944));
#1817=CARTESIAN_POINT('Origin',(89.0170012623119,114.502654555457,9.95280091454949));
#1818=CARTESIAN_POINT('',(69.2143467068546,111.7,9.95280091454949));
#1819=CARTESIAN_POINT('',(86.2143467068546,94.7,9.95280091454948));
#1820=CARTESIAN_POINT('Origin',(89.0170012623119,114.502654555457,9.95280091454949));
#1821=CARTESIAN_POINT('',(86.2143467068546,94.7,27.4428009145495));
#1822=CARTESIAN_POINT('',(86.2143467068546,94.7,9.95280091454948));
#1823=CARTESIAN_POINT('',(69.2143467068546,111.7,27.4428009145495));
#1824=CARTESIAN_POINT('Origin',(89.0170012623119,114.502654555457,27.4428009145495));
#1825=CARTESIAN_POINT('',(69.2143467068546,111.7,9.95280091454949));
#1826=CARTESIAN_POINT('Origin',(77.7143467068546,103.2,9.95280091454948));
#1827=CARTESIAN_POINT('',(86.2143467068546,111.7,9.95280091454949));
#1828=CARTESIAN_POINT('',(86.2143467068546,111.7,9.95280091454949));
#1829=CARTESIAN_POINT('',(86.2143467068546,0.500000000000022,9.95280091454944));
#1830=CARTESIAN_POINT('Origin',(86.2143467068546,111.7,9.95280091454949));
#1831=CARTESIAN_POINT('',(86.2143467068546,111.7,27.4428009145495));
#1832=CARTESIAN_POINT('',(86.2143467068546,111.7,27.4428009145495));
#1833=CARTESIAN_POINT('',(86.2143467068546,111.7,9.95280091454949));
#1834=CARTESIAN_POINT('Origin',(86.2143467068546,94.7,9.95280091454948));
#1835=CARTESIAN_POINT('',(86.2143467068546,0.500000000000014,27.4428009145494));
#1836=CARTESIAN_POINT('Origin',(77.7143467068546,103.2,27.4428009145495));
#1837=CARTESIAN_POINT('Origin',(-86.38736307944,-4.35527109113385,9.95280091454946));
#1838=CARTESIAN_POINT('',(-66.9856532931454,0.500000000000016,9.95280091454946));
#1839=CARTESIAN_POINT('',(-83.9856532931454,15.5,9.95280091454947));
#1840=CARTESIAN_POINT('Origin',(-86.38736307944,-4.35527109113385,9.95280091454946));
#1841=CARTESIAN_POINT('',(-83.9856532931454,15.5,27.4428009145495));
#1842=CARTESIAN_POINT('',(-83.9856532931454,15.5,9.95280091454947));
#1843=CARTESIAN_POINT('',(-66.9856532931454,0.500000000000008,27.4428009145495));
#1844=CARTESIAN_POINT('Origin',(-86.38736307944,-4.35527109113386,27.4428009145495));
#1845=CARTESIAN_POINT('',(-66.9856532931454,0.500000000000016,9.95280091454946));
#1846=CARTESIAN_POINT('Origin',(-75.4856532931454,8.00000000000002,9.95280091454946));
#1847=CARTESIAN_POINT('',(-83.9856532931454,0.500000000000011,9.95280091454946));
#1848=CARTESIAN_POINT('',(-83.9856532931454,0.500000000000011,9.95280091454946));
#1849=CARTESIAN_POINT('',(-83.9856532931454,111.7,9.95280091454951));
#1850=CARTESIAN_POINT('Origin',(-83.9856532931454,0.500000000000011,9.95280091454946));
#1851=CARTESIAN_POINT('',(-83.9856532931454,0.500000000000003,27.4428009145495));
#1852=CARTESIAN_POINT('',(-83.9856532931454,0.500000000000003,27.4428009145495));
#1853=CARTESIAN_POINT('',(-83.9856532931454,0.500000000000011,9.95280091454946));
#1854=CARTESIAN_POINT('Origin',(-83.9856532931454,15.5,9.95280091454947));
#1855=CARTESIAN_POINT('',(-83.9856532931454,111.7,27.4428009145495));
#1856=CARTESIAN_POINT('Origin',(-75.4856532931454,8.00000000000001,27.4428009145495));
#1857=UNCERTAINTY_MEASURE_WITH_UNIT(LENGTH_MEASURE(0.01),#1861,
'DISTANCE_ACCURACY_VALUE',
'Maximum model space distance between geometric entities at asserted c
onnectivities');
#1858=UNCERTAINTY_MEASURE_WITH_UNIT(LENGTH_MEASURE(0.01),#1861,
'DISTANCE_ACCURACY_VALUE',
'Maximum model space distance between geometric entities at asserted c
onnectivities');
#1859=(
GEOMETRIC_REPRESENTATION_CONTEXT(3)
GLOBAL_UNCERTAINTY_ASSIGNED_CONTEXT((#1857))
GLOBAL_UNIT_ASSIGNED_CONTEXT((#1861,#1863,#1864))
REPRESENTATION_CONTEXT('','3D')
);
#1860=(
GEOMETRIC_REPRESENTATION_CONTEXT(3)
GLOBAL_UNCERTAINTY_ASSIGNED_CONTEXT((#1858))
GLOBAL_UNIT_ASSIGNED_CONTEXT((#1861,#1863,#1864))
REPRESENTATION_CONTEXT('','3D')
);
#1861=(
LENGTH_UNIT()
NAMED_UNIT(*)
SI_UNIT(.MILLI.,.METRE.)
);
#1862=(
LENGTH_UNIT()
NAMED_UNIT(*)
SI_UNIT($,.METRE.)
);
#1863=(
NAMED_UNIT(*)
PLANE_ANGLE_UNIT()
SI_UNIT($,.RADIAN.)
);
#1864=(
NAMED_UNIT(*)
SI_UNIT($,.STERADIAN.)
SOLID_ANGLE_UNIT()
);
#1865=SHAPE_DEFINITION_REPRESENTATION(#1866,#1867);
#1866=PRODUCT_DEFINITION_SHAPE('',$,#1869);
#1867=SHAPE_REPRESENTATION('',(#1133),#1859);
#1868=PRODUCT_DEFINITION_CONTEXT('part definition',#1873,'design');
#1869=PRODUCT_DEFINITION('TRMNL','TRMNL v6',#1870,#1868);
#1870=PRODUCT_DEFINITION_FORMATION('',$,#1875);
#1871=PRODUCT_RELATED_PRODUCT_CATEGORY('TRMNL v6','TRMNL v6',(#1875));
#1872=APPLICATION_PROTOCOL_DEFINITION('international standard',
'automotive_design',2009,#1873);
#1873=APPLICATION_CONTEXT(
'Core Data for Automotive Mechanical Design Process');
#1874=PRODUCT_CONTEXT('part definition',#1873,'mechanical');
#1875=PRODUCT('TRMNL','TRMNL v6',$,(#1874));
#1876=PRESENTATION_STYLE_ASSIGNMENT((#1887));
#1877=PRESENTATION_STYLE_ASSIGNMENT((#1888));
#1878=PRESENTATION_STYLE_ASSIGNMENT((#1889));
#1879=PRESENTATION_STYLE_ASSIGNMENT((#1890));
#1880=PRESENTATION_STYLE_ASSIGNMENT((#1891));
#1881=PRESENTATION_STYLE_ASSIGNMENT((#1892));
#1882=PRESENTATION_STYLE_ASSIGNMENT((#1893));
#1883=PRESENTATION_STYLE_ASSIGNMENT((#1894));
#1884=PRESENTATION_STYLE_ASSIGNMENT((#1895));
#1885=PRESENTATION_STYLE_ASSIGNMENT((#1896));
#1886=PRESENTATION_STYLE_ASSIGNMENT((#1897));
#1887=SURFACE_STYLE_USAGE(.BOTH.,#1898);
#1888=SURFACE_STYLE_USAGE(.BOTH.,#1899);
#1889=SURFACE_STYLE_USAGE(.BOTH.,#1900);
#1890=SURFACE_STYLE_USAGE(.BOTH.,#1901);
#1891=SURFACE_STYLE_USAGE(.BOTH.,#1902);
#1892=SURFACE_STYLE_USAGE(.BOTH.,#1903);
#1893=SURFACE_STYLE_USAGE(.BOTH.,#1904);
#1894=SURFACE_STYLE_USAGE(.BOTH.,#1905);
#1895=SURFACE_STYLE_USAGE(.BOTH.,#1906);
#1896=SURFACE_STYLE_USAGE(.BOTH.,#1907);
#1897=SURFACE_STYLE_USAGE(.BOTH.,#1908);
#1898=SURFACE_SIDE_STYLE('',(#1909));
#1899=SURFACE_SIDE_STYLE('',(#1910));
#1900=SURFACE_SIDE_STYLE('',(#1911));
#1901=SURFACE_SIDE_STYLE('',(#1912));
#1902=SURFACE_SIDE_STYLE('',(#1913));
#1903=SURFACE_SIDE_STYLE('',(#1914));
#1904=SURFACE_SIDE_STYLE('',(#1915));
#1905=SURFACE_SIDE_STYLE('',(#1916));
#1906=SURFACE_SIDE_STYLE('',(#1917));
#1907=SURFACE_SIDE_STYLE('',(#1918));
#1908=SURFACE_SIDE_STYLE('',(#1919));
#1909=SURFACE_STYLE_FILL_AREA(#1920);
#1910=SURFACE_STYLE_FILL_AREA(#1921);
#1911=SURFACE_STYLE_FILL_AREA(#1922);
#1912=SURFACE_STYLE_FILL_AREA(#1923);
#1913=SURFACE_STYLE_FILL_AREA(#1924);
#1914=SURFACE_STYLE_FILL_AREA(#1925);
#1915=SURFACE_STYLE_FILL_AREA(#1926);
#1916=SURFACE_STYLE_FILL_AREA(#1927);
#1917=SURFACE_STYLE_FILL_AREA(#1928);
#1918=SURFACE_STYLE_FILL_AREA(#1929);
#1919=SURFACE_STYLE_FILL_AREA(#1930);
#1920=FILL_AREA_STYLE('Steel - Satin',(#1931));
#1921=FILL_AREA_STYLE('ABS (White)',(#1932));
#1922=FILL_AREA_STYLE('Opaque(255,255,255)',(#1933));
#1923=FILL_AREA_STYLE('Opaque(255,215,0)',(#1934));
#1924=FILL_AREA_STYLE('Opaque(76,76,76)',(#1935));
#1925=FILL_AREA_STYLE('Opaque(229,235,237)',(#1936));
#1926=FILL_AREA_STYLE('Opaque(160,160,160)',(#1937));
#1927=FILL_AREA_STYLE('Opaque(53,54,54)',(#1938));
#1928=FILL_AREA_STYLE('Opaque(244,229,167)',(#1939));
#1929=FILL_AREA_STYLE('Opaque(236,236,236)',(#1940));
#1930=FILL_AREA_STYLE('Opaque(38,38,38)',(#1941));
#1931=FILL_AREA_STYLE_COLOUR('Steel - Satin',#1942);
#1932=FILL_AREA_STYLE_COLOUR('ABS (White)',#1943);
#1933=FILL_AREA_STYLE_COLOUR('Opaque(255,255,255)',#1944);
#1934=FILL_AREA_STYLE_COLOUR('Opaque(255,215,0)',#1945);
#1935=FILL_AREA_STYLE_COLOUR('Opaque(76,76,76)',#1946);
#1936=FILL_AREA_STYLE_COLOUR('Opaque(229,235,237)',#1947);
#1937=FILL_AREA_STYLE_COLOUR('Opaque(160,160,160)',#1948);
#1938=FILL_AREA_STYLE_COLOUR('Opaque(53,54,54)',#1949);
#1939=FILL_AREA_STYLE_COLOUR('Opaque(244,229,167)',#1950);
#1940=FILL_AREA_STYLE_COLOUR('Opaque(236,236,236)',#1951);
#1941=FILL_AREA_STYLE_COLOUR('Opaque(38,38,38)',#1952);
#1942=COLOUR_RGB('Steel - Satin',0.627450980392157,0.627450980392157,0.627450980392157);
#1943=COLOUR_RGB('ABS (White)',0.964705882352941,0.964705882352941,0.952941176470588);
#1944=COLOUR_RGB('Opaque(255,255,255)',1.,1.,1.);
#1945=COLOUR_RGB('Opaque(255,215,0)',1.,0.843137254901961,0.);
#1946=COLOUR_RGB('Opaque(76,76,76)',0.298039215686275,0.298039215686275,
0.298039215686275);
#1947=COLOUR_RGB('Opaque(229,235,237)',0.898039215686275,0.92156862745098,
0.929411764705882);
#1948=COLOUR_RGB('Opaque(160,160,160)',0.627450980392157,0.627450980392157,
0.627450980392157);
#1949=COLOUR_RGB('Opaque(53,54,54)',0.207843137254902,0.211764705882353,
0.211764705882353);
#1950=COLOUR_RGB('Opaque(244,229,167)',0.956862745098039,0.898039215686275,
0.654901960784314);
#1951=COLOUR_RGB('Opaque(236,236,236)',0.925490196078431,0.925490196078431,
0.925490196078431);
#1952=COLOUR_RGB('Opaque(38,38,38)',0.149019607843137,0.149019607843137,
0.149019607843137);
ENDSEC;
END-ISO-10303-21;
