ISO-10303-21;
HEADER;
/* Generated by software containing ST-Developer
 * from STEP Tools, Inc. (www.steptools.com) 
 */

FILE_DESCRIPTION(
/* description */ (''),
/* implementation_level */ '2;1');

FILE_NAME(
/* name */ 'NordicTRMNLCase.step',
/* time_stamp */ '2026-04-20T22:11:44+03:00',
/* author */ (''),
/* organization */ (''),
/* preprocessor_version */ 'ST-DEVELOPER v20.1',
/* originating_system */ 'Autodesk Translation Framework v15.8.0.0',
/* authorisation */ '');

FILE_SCHEMA (('AUTOMOTIVE_DESIGN { 1 0 10303 214 3 1 1 }'));
ENDSEC;

DATA;
#10=MECHANICAL_DESIGN_GEOMETRIC_PRESENTATION_REPRESENTATION('',(#13),#1551);
#11=SHAPE_REPRESENTATION_RELATIONSHIP('SRR','None',#1558,#12);
#12=ADVANCED_BREP_SHAPE_REPRESENTATION('',(#14),#1550);
#13=STYLED_ITEM('',(#1567),#14);
#14=MANIFOLD_SOLID_BREP('Body2',#939);
#15=CYLINDRICAL_SURFACE('',#980,2.5);
#16=CYLINDRICAL_SURFACE('',#985,2.5);
#17=CYLINDRICAL_SURFACE('',#990,2.);
#18=CYLINDRICAL_SURFACE('',#991,2.);
#19=CYLINDRICAL_SURFACE('',#992,6.);
#20=CYLINDRICAL_SURFACE('',#996,6.);
#21=CYLINDRICAL_SURFACE('',#999,6.);
#22=CYLINDRICAL_SURFACE('',#1002,6.);
#23=CYLINDRICAL_SURFACE('',#1010,4.);
#24=CYLINDRICAL_SURFACE('',#1016,20.);
#25=CYLINDRICAL_SURFACE('',#1019,20.);
#26=CYLINDRICAL_SURFACE('',#1022,20.);
#27=CYLINDRICAL_SURFACE('',#1025,20.);
#28=FACE_BOUND('',#119,.T.);
#29=FACE_BOUND('',#123,.T.);
#30=FACE_BOUND('',#128,.T.);
#31=FACE_BOUND('',#131,.T.);
#32=FACE_BOUND('',#136,.T.);
#33=FACE_BOUND('',#137,.T.);
#34=FACE_BOUND('',#153,.T.);
#35=CIRCLE('',#955,20.);
#36=CIRCLE('',#956,20.);
#37=CIRCLE('',#957,6.);
#38=CIRCLE('',#958,6.);
#39=CIRCLE('',#959,6.);
#40=CIRCLE('',#960,6.);
#41=CIRCLE('',#961,20.);
#42=CIRCLE('',#962,20.);
#43=CIRCLE('',#972,4.);
#44=CIRCLE('',#973,2.);
#45=CIRCLE('',#977,2.);
#46=CIRCLE('',#981,2.5);
#47=CIRCLE('',#982,2.5);
#48=CIRCLE('',#984,2.);
#49=CIRCLE('',#986,2.5);
#50=CIRCLE('',#987,2.5);
#51=CIRCLE('',#989,2.);
#52=CIRCLE('',#993,6.);
#53=CIRCLE('',#995,4.);
#54=CIRCLE('',#997,6.);
#55=CIRCLE('',#1000,6.);
#56=CIRCLE('',#1003,6.);
#57=CIRCLE('',#1015,20.);
#58=CIRCLE('',#1018,20.);
#59=CIRCLE('',#1021,20.);
#60=CIRCLE('',#1024,20.);
#61=FACE_OUTER_BOUND('',#108,.T.);
#62=FACE_OUTER_BOUND('',#109,.T.);
#63=FACE_OUTER_BOUND('',#110,.T.);
#64=FACE_OUTER_BOUND('',#111,.T.);
#65=FACE_OUTER_BOUND('',#112,.T.);
#66=FACE_OUTER_BOUND('',#113,.T.);
#67=FACE_OUTER_BOUND('',#114,.T.);
#68=FACE_OUTER_BOUND('',#115,.T.);
#69=FACE_OUTER_BOUND('',#116,.T.);
#70=FACE_OUTER_BOUND('',#117,.T.);
#71=FACE_OUTER_BOUND('',#118,.T.);
#72=FACE_OUTER_BOUND('',#120,.T.);
#73=FACE_OUTER_BOUND('',#121,.T.);
#74=FACE_OUTER_BOUND('',#122,.T.);
#75=FACE_OUTER_BOUND('',#124,.T.);
#76=FACE_OUTER_BOUND('',#125,.T.);
#77=FACE_OUTER_BOUND('',#126,.T.);
#78=FACE_OUTER_BOUND('',#127,.T.);
#79=FACE_OUTER_BOUND('',#129,.T.);
#80=FACE_OUTER_BOUND('',#130,.T.);
#81=FACE_OUTER_BOUND('',#132,.T.);
#82=FACE_OUTER_BOUND('',#133,.T.);
#83=FACE_OUTER_BOUND('',#134,.T.);
#84=FACE_OUTER_BOUND('',#135,.T.);
#85=FACE_OUTER_BOUND('',#138,.T.);
#86=FACE_OUTER_BOUND('',#139,.T.);
#87=FACE_OUTER_BOUND('',#140,.T.);
#88=FACE_OUTER_BOUND('',#141,.T.);
#89=FACE_OUTER_BOUND('',#142,.T.);
#90=FACE_OUTER_BOUND('',#143,.T.);
#91=FACE_OUTER_BOUND('',#144,.T.);
#92=FACE_OUTER_BOUND('',#145,.T.);
#93=FACE_OUTER_BOUND('',#146,.T.);
#94=FACE_OUTER_BOUND('',#147,.T.);
#95=FACE_OUTER_BOUND('',#148,.T.);
#96=FACE_OUTER_BOUND('',#149,.T.);
#97=FACE_OUTER_BOUND('',#150,.T.);
#98=FACE_OUTER_BOUND('',#151,.T.);
#99=FACE_OUTER_BOUND('',#152,.T.);
#100=FACE_OUTER_BOUND('',#154,.T.);
#101=FACE_OUTER_BOUND('',#155,.T.);
#102=FACE_OUTER_BOUND('',#156,.T.);
#103=FACE_OUTER_BOUND('',#157,.T.);
#104=FACE_OUTER_BOUND('',#158,.T.);
#105=FACE_OUTER_BOUND('',#159,.T.);
#106=FACE_OUTER_BOUND('',#160,.T.);
#107=FACE_OUTER_BOUND('',#161,.T.);
#108=EDGE_LOOP('',(#594,#595,#596,#597));
#109=EDGE_LOOP('',(#598,#599,#600,#601,#602,#603,#604,#605,#606,#607,#608,
#609,#610,#611,#612,#613,#614,#615,#616,#617,#618,#619,#620,#621,#622,#623,
#624,#625,#626,#627,#628,#629));
#110=EDGE_LOOP('',(#630,#631,#632,#633));
#111=EDGE_LOOP('',(#634,#635,#636,#637));
#112=EDGE_LOOP('',(#638,#639,#640,#641,#642,#643,#644,#645,#646,#647,#648,
#649));
#113=EDGE_LOOP('',(#650,#651,#652,#653));
#114=EDGE_LOOP('',(#654,#655,#656,#657,#658,#659,#660,#661,#662,#663,#664,
#665));
#115=EDGE_LOOP('',(#666,#667,#668,#669,#670,#671,#672,#673));
#116=EDGE_LOOP('',(#674,#675,#676,#677));
#117=EDGE_LOOP('',(#678,#679,#680,#681));
#118=EDGE_LOOP('',(#682,#683,#684,#685,#686,#687,#688,#689));
#119=EDGE_LOOP('',(#690));
#120=EDGE_LOOP('',(#691,#692,#693,#694));
#121=EDGE_LOOP('',(#695,#696,#697,#698));
#122=EDGE_LOOP('',(#699,#700,#701,#702,#703,#704));
#123=EDGE_LOOP('',(#705));
#124=EDGE_LOOP('',(#706,#707,#708,#709,#710,#711));
#125=EDGE_LOOP('',(#712,#713,#714,#715,#716,#717));
#126=EDGE_LOOP('',(#718,#719,#720,#721));
#127=EDGE_LOOP('',(#722));
#128=EDGE_LOOP('',(#723));
#129=EDGE_LOOP('',(#724,#725,#726,#727));
#130=EDGE_LOOP('',(#728));
#131=EDGE_LOOP('',(#729));
#132=EDGE_LOOP('',(#730,#731,#732,#733));
#133=EDGE_LOOP('',(#734,#735,#736,#737));
#134=EDGE_LOOP('',(#738,#739,#740,#741));
#135=EDGE_LOOP('',(#742,#743,#744,#745,#746,#747));
#136=EDGE_LOOP('',(#748));
#137=EDGE_LOOP('',(#749));
#138=EDGE_LOOP('',(#750,#751,#752,#753));
#139=EDGE_LOOP('',(#754,#755,#756,#757));
#140=EDGE_LOOP('',(#758,#759,#760,#761));
#141=EDGE_LOOP('',(#762,#763,#764,#765));
#142=EDGE_LOOP('',(#766,#767,#768,#769));
#143=EDGE_LOOP('',(#770,#771,#772,#773));
#144=EDGE_LOOP('',(#774,#775,#776,#777));
#145=EDGE_LOOP('',(#778,#779,#780,#781));
#146=EDGE_LOOP('',(#782,#783,#784,#785));
#147=EDGE_LOOP('',(#786,#787,#788,#789));
#148=EDGE_LOOP('',(#790,#791,#792,#793,#794,#795,#796,#797));
#149=EDGE_LOOP('',(#798,#799,#800,#801));
#150=EDGE_LOOP('',(#802,#803,#804,#805));
#151=EDGE_LOOP('',(#806,#807,#808,#809));
#152=EDGE_LOOP('',(#810,#811,#812,#813,#814,#815,#816,#817));
#153=EDGE_LOOP('',(#818,#819,#820,#821));
#154=EDGE_LOOP('',(#822,#823,#824,#825,#826));
#155=EDGE_LOOP('',(#827,#828,#829,#830));
#156=EDGE_LOOP('',(#831,#832,#833,#834,#835));
#157=EDGE_LOOP('',(#836,#837,#838,#839));
#158=EDGE_LOOP('',(#840,#841,#842,#843,#844));
#159=EDGE_LOOP('',(#845,#846,#847,#848));
#160=EDGE_LOOP('',(#849,#850,#851,#852,#853));
#161=EDGE_LOOP('',(#854,#855,#856,#857));
#162=LINE('',#1284,#268);
#163=LINE('',#1286,#269);
#164=LINE('',#1288,#270);
#165=LINE('',#1289,#271);
#166=LINE('',#1292,#272);
#167=LINE('',#1294,#273);
#168=LINE('',#1298,#274);
#169=LINE('',#1300,#275);
#170=LINE('',#1302,#276);
#171=LINE('',#1306,#277);
#172=LINE('',#1308,#278);
#173=LINE('',#1310,#279);
#174=LINE('',#1312,#280);
#175=LINE('',#1316,#281);
#176=LINE('',#1320,#282);
#177=LINE('',#1324,#283);
#178=LINE('',#1328,#284);
#179=LINE('',#1330,#285);
#180=LINE('',#1332,#286);
#181=LINE('',#1334,#287);
#182=LINE('',#1336,#288);
#183=LINE('',#1338,#289);
#184=LINE('',#1340,#290);
#185=LINE('',#1342,#291);
#186=LINE('',#1346,#292);
#187=LINE('',#1348,#293);
#188=LINE('',#1350,#294);
#189=LINE('',#1354,#295);
#190=LINE('',#1356,#296);
#191=LINE('',#1357,#297);
#192=LINE('',#1360,#298);
#193=LINE('',#1362,#299);
#194=LINE('',#1363,#300);
#195=LINE('',#1366,#301);
#196=LINE('',#1368,#302);
#197=LINE('',#1370,#303);
#198=LINE('',#1372,#304);
#199=LINE('',#1374,#305);
#200=LINE('',#1376,#306);
#201=LINE('',#1378,#307);
#202=LINE('',#1380,#308);
#203=LINE('',#1381,#309);
#204=LINE('',#1384,#310);
#205=LINE('',#1386,#311);
#206=LINE('',#1387,#312);
#207=LINE('',#1391,#313);
#208=LINE('',#1393,#314);
#209=LINE('',#1395,#315);
#210=LINE('',#1397,#316);
#211=LINE('',#1399,#317);
#212=LINE('',#1401,#318);
#213=LINE('',#1403,#319);
#214=LINE('',#1405,#320);
#215=LINE('',#1407,#321);
#216=LINE('',#1408,#322);
#217=LINE('',#1409,#323);
#218=LINE('',#1411,#324);
#219=LINE('',#1412,#325);
#220=LINE('',#1413,#326);
#221=LINE('',#1416,#327);
#222=LINE('',#1417,#328);
#223=LINE('',#1420,#329);
#224=LINE('',#1421,#330);
#225=LINE('',#1424,#331);
#226=LINE('',#1426,#332);
#227=LINE('',#1427,#333);
#228=LINE('',#1429,#334);
#229=LINE('',#1434,#335);
#230=LINE('',#1435,#336);
#231=LINE('',#1438,#337);
#232=LINE('',#1440,#338);
#233=LINE('',#1441,#339);
#234=LINE('',#1443,#340);
#235=LINE('',#1445,#341);
#236=LINE('',#1446,#342);
#237=LINE('',#1451,#343);
#238=LINE('',#1453,#344);
#239=LINE('',#1455,#345);
#240=LINE('',#1456,#346);
#241=LINE('',#1459,#347);
#242=LINE('',#1461,#348);
#243=LINE('',#1463,#349);
#244=LINE('',#1464,#350);
#245=LINE('',#1469,#351);
#246=LINE('',#1478,#352);
#247=LINE('',#1484,#353);
#248=LINE('',#1486,#354);
#249=LINE('',#1489,#355);
#250=LINE('',#1492,#356);
#251=LINE('',#1496,#357);
#252=LINE('',#1497,#358);
#253=LINE('',#1500,#359);
#254=LINE('',#1504,#360);
#255=LINE('',#1505,#361);
#256=LINE('',#1508,#362);
#257=LINE('',#1512,#363);
#258=LINE('',#1513,#364);
#259=LINE('',#1516,#365);
#260=LINE('',#1519,#366);
#261=LINE('',#1521,#367);
#262=LINE('',#1523,#368);
#263=LINE('',#1525,#369);
#264=LINE('',#1527,#370);
#265=LINE('',#1529,#371);
#266=LINE('',#1530,#372);
#267=LINE('',#1533,#373);
#268=VECTOR('',#1030,10.);
#269=VECTOR('',#1031,10.);
#270=VECTOR('',#1032,10.);
#271=VECTOR('',#1033,10.);
#272=VECTOR('',#1036,10.);
#273=VECTOR('',#1037,10.);
#274=VECTOR('',#1040,10.);
#275=VECTOR('',#1041,10.);
#276=VECTOR('',#1042,10.);
#277=VECTOR('',#1045,10.);
#278=VECTOR('',#1046,10.);
#279=VECTOR('',#1047,10.);
#280=VECTOR('',#1048,10.);
#281=VECTOR('',#1051,10.);
#282=VECTOR('',#1054,10.);
#283=VECTOR('',#1057,10.);
#284=VECTOR('',#1060,10.);
#285=VECTOR('',#1061,10.);
#286=VECTOR('',#1062,10.);
#287=VECTOR('',#1063,10.);
#288=VECTOR('',#1064,10.);
#289=VECTOR('',#1065,10.);
#290=VECTOR('',#1066,10.);
#291=VECTOR('',#1067,10.);
#292=VECTOR('',#1070,10.);
#293=VECTOR('',#1071,10.);
#294=VECTOR('',#1072,10.);
#295=VECTOR('',#1077,10.);
#296=VECTOR('',#1078,10.);
#297=VECTOR('',#1079,10.);
#298=VECTOR('',#1082,10.);
#299=VECTOR('',#1083,10.);
#300=VECTOR('',#1084,10.);
#301=VECTOR('',#1087,10.);
#302=VECTOR('',#1088,10.);
#303=VECTOR('',#1089,10.);
#304=VECTOR('',#1090,10.);
#305=VECTOR('',#1091,10.);
#306=VECTOR('',#1092,10.);
#307=VECTOR('',#1093,10.);
#308=VECTOR('',#1094,10.);
#309=VECTOR('',#1095,10.);
#310=VECTOR('',#1098,10.);
#311=VECTOR('',#1099,10.);
#312=VECTOR('',#1100,10.);
#313=VECTOR('',#1103,10.);
#314=VECTOR('',#1104,10.);
#315=VECTOR('',#1105,10.);
#316=VECTOR('',#1106,10.);
#317=VECTOR('',#1107,10.);
#318=VECTOR('',#1108,10.);
#319=VECTOR('',#1109,10.);
#320=VECTOR('',#1110,10.);
#321=VECTOR('',#1111,10.);
#322=VECTOR('',#1112,10.);
#323=VECTOR('',#1113,10.);
#324=VECTOR('',#1116,10.);
#325=VECTOR('',#1117,10.);
#326=VECTOR('',#1118,10.);
#327=VECTOR('',#1121,10.);
#328=VECTOR('',#1122,10.);
#329=VECTOR('',#1125,10.);
#330=VECTOR('',#1126,10.);
#331=VECTOR('',#1129,10.);
#332=VECTOR('',#1130,10.);
#333=VECTOR('',#1131,10.);
#334=VECTOR('',#1134,10.);
#335=VECTOR('',#1139,10.);
#336=VECTOR('',#1140,10.);
#337=VECTOR('',#1143,10.);
#338=VECTOR('',#1144,10.);
#339=VECTOR('',#1145,10.);
#340=VECTOR('',#1148,10.);
#341=VECTOR('',#1149,10.);
#342=VECTOR('',#1150,10.);
#343=VECTOR('',#1155,10.);
#344=VECTOR('',#1156,10.);
#345=VECTOR('',#1157,10.);
#346=VECTOR('',#1158,10.);
#347=VECTOR('',#1161,10.);
#348=VECTOR('',#1162,10.);
#349=VECTOR('',#1163,10.);
#350=VECTOR('',#1164,10.);
#351=VECTOR('',#1169,2.5);
#352=VECTOR('',#1180,2.5);
#353=VECTOR('',#1189,2.);
#354=VECTOR('',#1192,2.);
#355=VECTOR('',#1195,10.);
#356=VECTOR('',#1198,10.);
#357=VECTOR('',#1203,10.);
#358=VECTOR('',#1204,10.);
#359=VECTOR('',#1207,10.);
#360=VECTOR('',#1212,10.);
#361=VECTOR('',#1213,10.);
#362=VECTOR('',#1216,10.);
#363=VECTOR('',#1221,10.);
#364=VECTOR('',#1222,10.);
#365=VECTOR('',#1225,10.);
#366=VECTOR('',#1230,10.);
#367=VECTOR('',#1233,10.);
#368=VECTOR('',#1236,10.);
#369=VECTOR('',#1239,10.);
#370=VECTOR('',#1242,10.);
#371=VECTOR('',#1245,10.);
#372=VECTOR('',#1246,10.);
#373=VECTOR('',#1251,10.);
#374=VERTEX_POINT('',#1282);
#375=VERTEX_POINT('',#1283);
#376=VERTEX_POINT('',#1285);
#377=VERTEX_POINT('',#1287);
#378=VERTEX_POINT('',#1291);
#379=VERTEX_POINT('',#1293);
#380=VERTEX_POINT('',#1295);
#381=VERTEX_POINT('',#1297);
#382=VERTEX_POINT('',#1299);
#383=VERTEX_POINT('',#1301);
#384=VERTEX_POINT('',#1303);
#385=VERTEX_POINT('',#1305);
#386=VERTEX_POINT('',#1307);
#387=VERTEX_POINT('',#1309);
#388=VERTEX_POINT('',#1311);
#389=VERTEX_POINT('',#1313);
#390=VERTEX_POINT('',#1315);
#391=VERTEX_POINT('',#1317);
#392=VERTEX_POINT('',#1319);
#393=VERTEX_POINT('',#1321);
#394=VERTEX_POINT('',#1323);
#395=VERTEX_POINT('',#1325);
#396=VERTEX_POINT('',#1327);
#397=VERTEX_POINT('',#1329);
#398=VERTEX_POINT('',#1331);
#399=VERTEX_POINT('',#1333);
#400=VERTEX_POINT('',#1335);
#401=VERTEX_POINT('',#1337);
#402=VERTEX_POINT('',#1339);
#403=VERTEX_POINT('',#1341);
#404=VERTEX_POINT('',#1343);
#405=VERTEX_POINT('',#1345);
#406=VERTEX_POINT('',#1347);
#407=VERTEX_POINT('',#1349);
#408=VERTEX_POINT('',#1353);
#409=VERTEX_POINT('',#1355);
#410=VERTEX_POINT('',#1359);
#411=VERTEX_POINT('',#1361);
#412=VERTEX_POINT('',#1365);
#413=VERTEX_POINT('',#1367);
#414=VERTEX_POINT('',#1369);
#415=VERTEX_POINT('',#1371);
#416=VERTEX_POINT('',#1373);
#417=VERTEX_POINT('',#1375);
#418=VERTEX_POINT('',#1377);
#419=VERTEX_POINT('',#1379);
#420=VERTEX_POINT('',#1383);
#421=VERTEX_POINT('',#1385);
#422=VERTEX_POINT('',#1389);
#423=VERTEX_POINT('',#1390);
#424=VERTEX_POINT('',#1392);
#425=VERTEX_POINT('',#1394);
#426=VERTEX_POINT('',#1396);
#427=VERTEX_POINT('',#1398);
#428=VERTEX_POINT('',#1400);
#429=VERTEX_POINT('',#1402);
#430=VERTEX_POINT('',#1404);
#431=VERTEX_POINT('',#1406);
#432=VERTEX_POINT('',#1415);
#433=VERTEX_POINT('',#1419);
#434=VERTEX_POINT('',#1423);
#435=VERTEX_POINT('',#1425);
#436=VERTEX_POINT('',#1430);
#437=VERTEX_POINT('',#1433);
#438=VERTEX_POINT('',#1437);
#439=VERTEX_POINT('',#1439);
#440=VERTEX_POINT('',#1444);
#441=VERTEX_POINT('',#1447);
#442=VERTEX_POINT('',#1450);
#443=VERTEX_POINT('',#1452);
#444=VERTEX_POINT('',#1454);
#445=VERTEX_POINT('',#1458);
#446=VERTEX_POINT('',#1460);
#447=VERTEX_POINT('',#1462);
#448=VERTEX_POINT('',#1466);
#449=VERTEX_POINT('',#1468);
#450=VERTEX_POINT('',#1472);
#451=VERTEX_POINT('',#1475);
#452=VERTEX_POINT('',#1477);
#453=VERTEX_POINT('',#1481);
#454=VERTEX_POINT('',#1488);
#455=VERTEX_POINT('',#1490);
#456=VERTEX_POINT('',#1495);
#457=VERTEX_POINT('',#1499);
#458=VERTEX_POINT('',#1503);
#459=VERTEX_POINT('',#1507);
#460=VERTEX_POINT('',#1511);
#461=VERTEX_POINT('',#1515);
#462=EDGE_CURVE('',#374,#375,#162,.T.);
#463=EDGE_CURVE('',#376,#374,#163,.T.);
#464=EDGE_CURVE('',#376,#377,#164,.T.);
#465=EDGE_CURVE('',#377,#375,#165,.T.);
#466=EDGE_CURVE('',#374,#378,#166,.T.);
#467=EDGE_CURVE('',#379,#378,#167,.T.);
#468=EDGE_CURVE('',#380,#379,#35,.T.);
#469=EDGE_CURVE('',#380,#381,#168,.T.);
#470=EDGE_CURVE('',#381,#382,#169,.T.);
#471=EDGE_CURVE('',#383,#382,#170,.T.);
#472=EDGE_CURVE('',#384,#383,#36,.T.);
#473=EDGE_CURVE('',#384,#385,#171,.T.);
#474=EDGE_CURVE('',#385,#386,#172,.T.);
#475=EDGE_CURVE('',#386,#387,#173,.T.);
#476=EDGE_CURVE('',#387,#388,#174,.F.);
#477=EDGE_CURVE('',#389,#388,#37,.T.);
#478=EDGE_CURVE('',#389,#390,#175,.F.);
#479=EDGE_CURVE('',#391,#390,#38,.T.);
#480=EDGE_CURVE('',#391,#392,#176,.F.);
#481=EDGE_CURVE('',#393,#392,#39,.T.);
#482=EDGE_CURVE('',#393,#394,#177,.F.);
#483=EDGE_CURVE('',#395,#394,#40,.T.);
#484=EDGE_CURVE('',#395,#396,#178,.F.);
#485=EDGE_CURVE('',#396,#397,#179,.T.);
#486=EDGE_CURVE('',#397,#398,#180,.T.);
#487=EDGE_CURVE('',#398,#399,#181,.T.);
#488=EDGE_CURVE('',#399,#400,#182,.T.);
#489=EDGE_CURVE('',#400,#401,#183,.T.);
#490=EDGE_CURVE('',#401,#402,#184,.T.);
#491=EDGE_CURVE('',#403,#402,#185,.T.);
#492=EDGE_CURVE('',#404,#403,#41,.T.);
#493=EDGE_CURVE('',#404,#405,#186,.T.);
#494=EDGE_CURVE('',#405,#406,#187,.T.);
#495=EDGE_CURVE('',#407,#406,#188,.T.);
#496=EDGE_CURVE('',#376,#407,#42,.T.);
#497=EDGE_CURVE('',#408,#406,#189,.T.);
#498=EDGE_CURVE('',#409,#408,#190,.T.);
#499=EDGE_CURVE('',#407,#409,#191,.T.);
#500=EDGE_CURVE('',#405,#410,#192,.T.);
#501=EDGE_CURVE('',#404,#411,#193,.T.);
#502=EDGE_CURVE('',#411,#410,#194,.T.);
#503=EDGE_CURVE('',#412,#408,#195,.T.);
#504=EDGE_CURVE('',#410,#413,#196,.T.);
#505=EDGE_CURVE('',#414,#413,#197,.T.);
#506=EDGE_CURVE('',#415,#414,#198,.T.);
#507=EDGE_CURVE('',#416,#415,#199,.T.);
#508=EDGE_CURVE('',#417,#416,#200,.T.);
#509=EDGE_CURVE('',#418,#417,#201,.T.);
#510=EDGE_CURVE('',#419,#418,#202,.T.);
#511=EDGE_CURVE('',#419,#412,#203,.T.);
#512=EDGE_CURVE('',#420,#378,#204,.T.);
#513=EDGE_CURVE('',#421,#420,#205,.T.);
#514=EDGE_CURVE('',#379,#421,#206,.T.);
#515=EDGE_CURVE('',#422,#423,#207,.T.);
#516=EDGE_CURVE('',#423,#424,#208,.T.);
#517=EDGE_CURVE('',#425,#424,#209,.T.);
#518=EDGE_CURVE('',#426,#425,#210,.T.);
#519=EDGE_CURVE('',#427,#426,#211,.T.);
#520=EDGE_CURVE('',#428,#427,#212,.T.);
#521=EDGE_CURVE('',#429,#428,#213,.T.);
#522=EDGE_CURVE('',#429,#430,#214,.T.);
#523=EDGE_CURVE('',#430,#431,#215,.T.);
#524=EDGE_CURVE('',#431,#382,#216,.T.);
#525=EDGE_CURVE('',#381,#422,#217,.T.);
#526=EDGE_CURVE('',#375,#412,#218,.T.);
#527=EDGE_CURVE('',#424,#419,#219,.T.);
#528=EDGE_CURVE('',#423,#420,#220,.T.);
#529=EDGE_CURVE('',#380,#432,#221,.T.);
#530=EDGE_CURVE('',#432,#422,#222,.T.);
#531=EDGE_CURVE('',#433,#431,#223,.T.);
#532=EDGE_CURVE('',#383,#433,#224,.T.);
#533=EDGE_CURVE('',#434,#430,#225,.T.);
#534=EDGE_CURVE('',#435,#429,#226,.T.);
#535=EDGE_CURVE('',#398,#435,#227,.T.);
#536=EDGE_CURVE('',#386,#397,#43,.T.);
#537=EDGE_CURVE('',#385,#434,#228,.T.);
#538=EDGE_CURVE('',#436,#436,#44,.T.);
#539=EDGE_CURVE('',#384,#437,#229,.T.);
#540=EDGE_CURVE('',#437,#434,#230,.T.);
#541=EDGE_CURVE('',#438,#402,#231,.T.);
#542=EDGE_CURVE('',#439,#438,#232,.T.);
#543=EDGE_CURVE('',#403,#439,#233,.T.);
#544=EDGE_CURVE('',#413,#438,#234,.T.);
#545=EDGE_CURVE('',#440,#401,#235,.T.);
#546=EDGE_CURVE('',#414,#440,#236,.T.);
#547=EDGE_CURVE('',#441,#441,#45,.T.);
#548=EDGE_CURVE('',#442,#440,#237,.T.);
#549=EDGE_CURVE('',#443,#400,#238,.T.);
#550=EDGE_CURVE('',#443,#444,#239,.T.);
#551=EDGE_CURVE('',#442,#444,#240,.T.);
#552=EDGE_CURVE('',#435,#445,#241,.T.);
#553=EDGE_CURVE('',#446,#445,#242,.T.);
#554=EDGE_CURVE('',#446,#447,#243,.T.);
#555=EDGE_CURVE('',#399,#447,#244,.T.);
#556=EDGE_CURVE('',#448,#448,#46,.T.);
#557=EDGE_CURVE('',#448,#449,#245,.T.);
#558=EDGE_CURVE('',#449,#449,#47,.T.);
#559=EDGE_CURVE('',#450,#450,#48,.T.);
#560=EDGE_CURVE('',#451,#451,#49,.T.);
#561=EDGE_CURVE('',#451,#452,#246,.T.);
#562=EDGE_CURVE('',#452,#452,#50,.T.);
#563=EDGE_CURVE('',#453,#453,#51,.T.);
#564=EDGE_CURVE('',#453,#441,#247,.T.);
#565=EDGE_CURVE('',#450,#436,#248,.T.);
#566=EDGE_CURVE('',#388,#454,#249,.T.);
#567=EDGE_CURVE('',#454,#455,#52,.T.);
#568=EDGE_CURVE('',#455,#389,#250,.T.);
#569=EDGE_CURVE('',#387,#396,#53,.T.);
#570=EDGE_CURVE('',#456,#395,#251,.T.);
#571=EDGE_CURVE('',#456,#454,#252,.F.);
#572=EDGE_CURVE('',#394,#457,#253,.T.);
#573=EDGE_CURVE('',#457,#456,#54,.T.);
#574=EDGE_CURVE('',#458,#393,#254,.T.);
#575=EDGE_CURVE('',#458,#457,#255,.F.);
#576=EDGE_CURVE('',#392,#459,#256,.T.);
#577=EDGE_CURVE('',#459,#458,#55,.T.);
#578=EDGE_CURVE('',#460,#391,#257,.T.);
#579=EDGE_CURVE('',#460,#459,#258,.F.);
#580=EDGE_CURVE('',#390,#461,#259,.T.);
#581=EDGE_CURVE('',#461,#460,#56,.T.);
#582=EDGE_CURVE('',#455,#461,#260,.F.);
#583=EDGE_CURVE('',#418,#425,#261,.T.);
#584=EDGE_CURVE('',#426,#417,#262,.T.);
#585=EDGE_CURVE('',#445,#428,#263,.T.);
#586=EDGE_CURVE('',#442,#415,#264,.T.);
#587=EDGE_CURVE('',#416,#427,#265,.T.);
#588=EDGE_CURVE('',#444,#446,#266,.T.);
#589=EDGE_CURVE('',#447,#443,#267,.T.);
#590=EDGE_CURVE('',#439,#411,#57,.F.);
#591=EDGE_CURVE('',#433,#437,#58,.F.);
#592=EDGE_CURVE('',#421,#432,#59,.F.);
#593=EDGE_CURVE('',#409,#377,#60,.F.);
#594=ORIENTED_EDGE('',*,*,#462,.F.);
#595=ORIENTED_EDGE('',*,*,#463,.F.);
#596=ORIENTED_EDGE('',*,*,#464,.T.);
#597=ORIENTED_EDGE('',*,*,#465,.T.);
#598=ORIENTED_EDGE('',*,*,#466,.T.);
#599=ORIENTED_EDGE('',*,*,#467,.F.);
#600=ORIENTED_EDGE('',*,*,#468,.F.);
#601=ORIENTED_EDGE('',*,*,#469,.T.);
#602=ORIENTED_EDGE('',*,*,#470,.T.);
#603=ORIENTED_EDGE('',*,*,#471,.F.);
#604=ORIENTED_EDGE('',*,*,#472,.F.);
#605=ORIENTED_EDGE('',*,*,#473,.T.);
#606=ORIENTED_EDGE('',*,*,#474,.T.);
#607=ORIENTED_EDGE('',*,*,#475,.T.);
#608=ORIENTED_EDGE('',*,*,#476,.T.);
#609=ORIENTED_EDGE('',*,*,#477,.F.);
#610=ORIENTED_EDGE('',*,*,#478,.T.);
#611=ORIENTED_EDGE('',*,*,#479,.F.);
#612=ORIENTED_EDGE('',*,*,#480,.T.);
#613=ORIENTED_EDGE('',*,*,#481,.F.);
#614=ORIENTED_EDGE('',*,*,#482,.T.);
#615=ORIENTED_EDGE('',*,*,#483,.F.);
#616=ORIENTED_EDGE('',*,*,#484,.T.);
#617=ORIENTED_EDGE('',*,*,#485,.T.);
#618=ORIENTED_EDGE('',*,*,#486,.T.);
#619=ORIENTED_EDGE('',*,*,#487,.T.);
#620=ORIENTED_EDGE('',*,*,#488,.T.);
#621=ORIENTED_EDGE('',*,*,#489,.T.);
#622=ORIENTED_EDGE('',*,*,#490,.T.);
#623=ORIENTED_EDGE('',*,*,#491,.F.);
#624=ORIENTED_EDGE('',*,*,#492,.F.);
#625=ORIENTED_EDGE('',*,*,#493,.T.);
#626=ORIENTED_EDGE('',*,*,#494,.T.);
#627=ORIENTED_EDGE('',*,*,#495,.F.);
#628=ORIENTED_EDGE('',*,*,#496,.F.);
#629=ORIENTED_EDGE('',*,*,#463,.T.);
#630=ORIENTED_EDGE('',*,*,#497,.F.);
#631=ORIENTED_EDGE('',*,*,#498,.F.);
#632=ORIENTED_EDGE('',*,*,#499,.F.);
#633=ORIENTED_EDGE('',*,*,#495,.T.);
#634=ORIENTED_EDGE('',*,*,#500,.F.);
#635=ORIENTED_EDGE('',*,*,#493,.F.);
#636=ORIENTED_EDGE('',*,*,#501,.T.);
#637=ORIENTED_EDGE('',*,*,#502,.T.);
#638=ORIENTED_EDGE('',*,*,#503,.T.);
#639=ORIENTED_EDGE('',*,*,#497,.T.);
#640=ORIENTED_EDGE('',*,*,#494,.F.);
#641=ORIENTED_EDGE('',*,*,#500,.T.);
#642=ORIENTED_EDGE('',*,*,#504,.T.);
#643=ORIENTED_EDGE('',*,*,#505,.F.);
#644=ORIENTED_EDGE('',*,*,#506,.F.);
#645=ORIENTED_EDGE('',*,*,#507,.F.);
#646=ORIENTED_EDGE('',*,*,#508,.F.);
#647=ORIENTED_EDGE('',*,*,#509,.F.);
#648=ORIENTED_EDGE('',*,*,#510,.F.);
#649=ORIENTED_EDGE('',*,*,#511,.T.);
#650=ORIENTED_EDGE('',*,*,#512,.F.);
#651=ORIENTED_EDGE('',*,*,#513,.F.);
#652=ORIENTED_EDGE('',*,*,#514,.F.);
#653=ORIENTED_EDGE('',*,*,#467,.T.);
#654=ORIENTED_EDGE('',*,*,#515,.T.);
#655=ORIENTED_EDGE('',*,*,#516,.T.);
#656=ORIENTED_EDGE('',*,*,#517,.F.);
#657=ORIENTED_EDGE('',*,*,#518,.F.);
#658=ORIENTED_EDGE('',*,*,#519,.F.);
#659=ORIENTED_EDGE('',*,*,#520,.F.);
#660=ORIENTED_EDGE('',*,*,#521,.F.);
#661=ORIENTED_EDGE('',*,*,#522,.T.);
#662=ORIENTED_EDGE('',*,*,#523,.T.);
#663=ORIENTED_EDGE('',*,*,#524,.T.);
#664=ORIENTED_EDGE('',*,*,#470,.F.);
#665=ORIENTED_EDGE('',*,*,#525,.T.);
#666=ORIENTED_EDGE('',*,*,#526,.T.);
#667=ORIENTED_EDGE('',*,*,#511,.F.);
#668=ORIENTED_EDGE('',*,*,#527,.F.);
#669=ORIENTED_EDGE('',*,*,#516,.F.);
#670=ORIENTED_EDGE('',*,*,#528,.T.);
#671=ORIENTED_EDGE('',*,*,#512,.T.);
#672=ORIENTED_EDGE('',*,*,#466,.F.);
#673=ORIENTED_EDGE('',*,*,#462,.T.);
#674=ORIENTED_EDGE('',*,*,#525,.F.);
#675=ORIENTED_EDGE('',*,*,#469,.F.);
#676=ORIENTED_EDGE('',*,*,#529,.T.);
#677=ORIENTED_EDGE('',*,*,#530,.T.);
#678=ORIENTED_EDGE('',*,*,#524,.F.);
#679=ORIENTED_EDGE('',*,*,#531,.F.);
#680=ORIENTED_EDGE('',*,*,#532,.F.);
#681=ORIENTED_EDGE('',*,*,#471,.T.);
#682=ORIENTED_EDGE('',*,*,#533,.T.);
#683=ORIENTED_EDGE('',*,*,#522,.F.);
#684=ORIENTED_EDGE('',*,*,#534,.F.);
#685=ORIENTED_EDGE('',*,*,#535,.F.);
#686=ORIENTED_EDGE('',*,*,#486,.F.);
#687=ORIENTED_EDGE('',*,*,#536,.F.);
#688=ORIENTED_EDGE('',*,*,#474,.F.);
#689=ORIENTED_EDGE('',*,*,#537,.T.);
#690=ORIENTED_EDGE('',*,*,#538,.F.);
#691=ORIENTED_EDGE('',*,*,#537,.F.);
#692=ORIENTED_EDGE('',*,*,#473,.F.);
#693=ORIENTED_EDGE('',*,*,#539,.T.);
#694=ORIENTED_EDGE('',*,*,#540,.T.);
#695=ORIENTED_EDGE('',*,*,#541,.F.);
#696=ORIENTED_EDGE('',*,*,#542,.F.);
#697=ORIENTED_EDGE('',*,*,#543,.F.);
#698=ORIENTED_EDGE('',*,*,#491,.T.);
#699=ORIENTED_EDGE('',*,*,#544,.T.);
#700=ORIENTED_EDGE('',*,*,#541,.T.);
#701=ORIENTED_EDGE('',*,*,#490,.F.);
#702=ORIENTED_EDGE('',*,*,#545,.F.);
#703=ORIENTED_EDGE('',*,*,#546,.F.);
#704=ORIENTED_EDGE('',*,*,#505,.T.);
#705=ORIENTED_EDGE('',*,*,#547,.F.);
#706=ORIENTED_EDGE('',*,*,#548,.T.);
#707=ORIENTED_EDGE('',*,*,#545,.T.);
#708=ORIENTED_EDGE('',*,*,#489,.F.);
#709=ORIENTED_EDGE('',*,*,#549,.F.);
#710=ORIENTED_EDGE('',*,*,#550,.T.);
#711=ORIENTED_EDGE('',*,*,#551,.F.);
#712=ORIENTED_EDGE('',*,*,#552,.T.);
#713=ORIENTED_EDGE('',*,*,#553,.F.);
#714=ORIENTED_EDGE('',*,*,#554,.T.);
#715=ORIENTED_EDGE('',*,*,#555,.F.);
#716=ORIENTED_EDGE('',*,*,#487,.F.);
#717=ORIENTED_EDGE('',*,*,#535,.T.);
#718=ORIENTED_EDGE('',*,*,#556,.F.);
#719=ORIENTED_EDGE('',*,*,#557,.T.);
#720=ORIENTED_EDGE('',*,*,#558,.T.);
#721=ORIENTED_EDGE('',*,*,#557,.F.);
#722=ORIENTED_EDGE('',*,*,#558,.F.);
#723=ORIENTED_EDGE('',*,*,#559,.F.);
#724=ORIENTED_EDGE('',*,*,#560,.F.);
#725=ORIENTED_EDGE('',*,*,#561,.T.);
#726=ORIENTED_EDGE('',*,*,#562,.T.);
#727=ORIENTED_EDGE('',*,*,#561,.F.);
#728=ORIENTED_EDGE('',*,*,#562,.F.);
#729=ORIENTED_EDGE('',*,*,#563,.F.);
#730=ORIENTED_EDGE('',*,*,#563,.T.);
#731=ORIENTED_EDGE('',*,*,#564,.T.);
#732=ORIENTED_EDGE('',*,*,#547,.T.);
#733=ORIENTED_EDGE('',*,*,#564,.F.);
#734=ORIENTED_EDGE('',*,*,#559,.T.);
#735=ORIENTED_EDGE('',*,*,#565,.T.);
#736=ORIENTED_EDGE('',*,*,#538,.T.);
#737=ORIENTED_EDGE('',*,*,#565,.F.);
#738=ORIENTED_EDGE('',*,*,#477,.T.);
#739=ORIENTED_EDGE('',*,*,#566,.T.);
#740=ORIENTED_EDGE('',*,*,#567,.T.);
#741=ORIENTED_EDGE('',*,*,#568,.T.);
#742=ORIENTED_EDGE('',*,*,#566,.F.);
#743=ORIENTED_EDGE('',*,*,#476,.F.);
#744=ORIENTED_EDGE('',*,*,#569,.T.);
#745=ORIENTED_EDGE('',*,*,#484,.F.);
#746=ORIENTED_EDGE('',*,*,#570,.F.);
#747=ORIENTED_EDGE('',*,*,#571,.T.);
#748=ORIENTED_EDGE('',*,*,#556,.T.);
#749=ORIENTED_EDGE('',*,*,#560,.T.);
#750=ORIENTED_EDGE('',*,*,#483,.T.);
#751=ORIENTED_EDGE('',*,*,#572,.T.);
#752=ORIENTED_EDGE('',*,*,#573,.T.);
#753=ORIENTED_EDGE('',*,*,#570,.T.);
#754=ORIENTED_EDGE('',*,*,#572,.F.);
#755=ORIENTED_EDGE('',*,*,#482,.F.);
#756=ORIENTED_EDGE('',*,*,#574,.F.);
#757=ORIENTED_EDGE('',*,*,#575,.T.);
#758=ORIENTED_EDGE('',*,*,#481,.T.);
#759=ORIENTED_EDGE('',*,*,#576,.T.);
#760=ORIENTED_EDGE('',*,*,#577,.T.);
#761=ORIENTED_EDGE('',*,*,#574,.T.);
#762=ORIENTED_EDGE('',*,*,#576,.F.);
#763=ORIENTED_EDGE('',*,*,#480,.F.);
#764=ORIENTED_EDGE('',*,*,#578,.F.);
#765=ORIENTED_EDGE('',*,*,#579,.T.);
#766=ORIENTED_EDGE('',*,*,#479,.T.);
#767=ORIENTED_EDGE('',*,*,#580,.T.);
#768=ORIENTED_EDGE('',*,*,#581,.T.);
#769=ORIENTED_EDGE('',*,*,#578,.T.);
#770=ORIENTED_EDGE('',*,*,#568,.F.);
#771=ORIENTED_EDGE('',*,*,#582,.T.);
#772=ORIENTED_EDGE('',*,*,#580,.F.);
#773=ORIENTED_EDGE('',*,*,#478,.F.);
#774=ORIENTED_EDGE('',*,*,#510,.T.);
#775=ORIENTED_EDGE('',*,*,#583,.T.);
#776=ORIENTED_EDGE('',*,*,#517,.T.);
#777=ORIENTED_EDGE('',*,*,#527,.T.);
#778=ORIENTED_EDGE('',*,*,#583,.F.);
#779=ORIENTED_EDGE('',*,*,#509,.T.);
#780=ORIENTED_EDGE('',*,*,#584,.F.);
#781=ORIENTED_EDGE('',*,*,#518,.T.);
#782=ORIENTED_EDGE('',*,*,#521,.T.);
#783=ORIENTED_EDGE('',*,*,#585,.F.);
#784=ORIENTED_EDGE('',*,*,#552,.F.);
#785=ORIENTED_EDGE('',*,*,#534,.T.);
#786=ORIENTED_EDGE('',*,*,#548,.F.);
#787=ORIENTED_EDGE('',*,*,#586,.T.);
#788=ORIENTED_EDGE('',*,*,#506,.T.);
#789=ORIENTED_EDGE('',*,*,#546,.T.);
#790=ORIENTED_EDGE('',*,*,#587,.F.);
#791=ORIENTED_EDGE('',*,*,#507,.T.);
#792=ORIENTED_EDGE('',*,*,#586,.F.);
#793=ORIENTED_EDGE('',*,*,#551,.T.);
#794=ORIENTED_EDGE('',*,*,#588,.T.);
#795=ORIENTED_EDGE('',*,*,#553,.T.);
#796=ORIENTED_EDGE('',*,*,#585,.T.);
#797=ORIENTED_EDGE('',*,*,#520,.T.);
#798=ORIENTED_EDGE('',*,*,#536,.T.);
#799=ORIENTED_EDGE('',*,*,#485,.F.);
#800=ORIENTED_EDGE('',*,*,#569,.F.);
#801=ORIENTED_EDGE('',*,*,#475,.F.);
#802=ORIENTED_EDGE('',*,*,#589,.F.);
#803=ORIENTED_EDGE('',*,*,#554,.F.);
#804=ORIENTED_EDGE('',*,*,#588,.F.);
#805=ORIENTED_EDGE('',*,*,#550,.F.);
#806=ORIENTED_EDGE('',*,*,#488,.F.);
#807=ORIENTED_EDGE('',*,*,#555,.T.);
#808=ORIENTED_EDGE('',*,*,#589,.T.);
#809=ORIENTED_EDGE('',*,*,#549,.T.);
#810=ORIENTED_EDGE('',*,*,#567,.F.);
#811=ORIENTED_EDGE('',*,*,#571,.F.);
#812=ORIENTED_EDGE('',*,*,#573,.F.);
#813=ORIENTED_EDGE('',*,*,#575,.F.);
#814=ORIENTED_EDGE('',*,*,#577,.F.);
#815=ORIENTED_EDGE('',*,*,#579,.F.);
#816=ORIENTED_EDGE('',*,*,#581,.F.);
#817=ORIENTED_EDGE('',*,*,#582,.F.);
#818=ORIENTED_EDGE('',*,*,#587,.T.);
#819=ORIENTED_EDGE('',*,*,#519,.T.);
#820=ORIENTED_EDGE('',*,*,#584,.T.);
#821=ORIENTED_EDGE('',*,*,#508,.T.);
#822=ORIENTED_EDGE('',*,*,#590,.F.);
#823=ORIENTED_EDGE('',*,*,#542,.T.);
#824=ORIENTED_EDGE('',*,*,#544,.F.);
#825=ORIENTED_EDGE('',*,*,#504,.F.);
#826=ORIENTED_EDGE('',*,*,#502,.F.);
#827=ORIENTED_EDGE('',*,*,#492,.T.);
#828=ORIENTED_EDGE('',*,*,#543,.T.);
#829=ORIENTED_EDGE('',*,*,#590,.T.);
#830=ORIENTED_EDGE('',*,*,#501,.F.);
#831=ORIENTED_EDGE('',*,*,#533,.F.);
#832=ORIENTED_EDGE('',*,*,#540,.F.);
#833=ORIENTED_EDGE('',*,*,#591,.F.);
#834=ORIENTED_EDGE('',*,*,#531,.T.);
#835=ORIENTED_EDGE('',*,*,#523,.F.);
#836=ORIENTED_EDGE('',*,*,#472,.T.);
#837=ORIENTED_EDGE('',*,*,#532,.T.);
#838=ORIENTED_EDGE('',*,*,#591,.T.);
#839=ORIENTED_EDGE('',*,*,#539,.F.);
#840=ORIENTED_EDGE('',*,*,#592,.F.);
#841=ORIENTED_EDGE('',*,*,#513,.T.);
#842=ORIENTED_EDGE('',*,*,#528,.F.);
#843=ORIENTED_EDGE('',*,*,#515,.F.);
#844=ORIENTED_EDGE('',*,*,#530,.F.);
#845=ORIENTED_EDGE('',*,*,#468,.T.);
#846=ORIENTED_EDGE('',*,*,#514,.T.);
#847=ORIENTED_EDGE('',*,*,#592,.T.);
#848=ORIENTED_EDGE('',*,*,#529,.F.);
#849=ORIENTED_EDGE('',*,*,#593,.F.);
#850=ORIENTED_EDGE('',*,*,#498,.T.);
#851=ORIENTED_EDGE('',*,*,#503,.F.);
#852=ORIENTED_EDGE('',*,*,#526,.F.);
#853=ORIENTED_EDGE('',*,*,#465,.F.);
#854=ORIENTED_EDGE('',*,*,#496,.T.);
#855=ORIENTED_EDGE('',*,*,#499,.T.);
#856=ORIENTED_EDGE('',*,*,#593,.T.);
#857=ORIENTED_EDGE('',*,*,#464,.F.);
#858=PLANE('',#953);
#859=PLANE('',#954);
#860=PLANE('',#963);
#861=PLANE('',#964);
#862=PLANE('',#965);
#863=PLANE('',#966);
#864=PLANE('',#967);
#865=PLANE('',#968);
#866=PLANE('',#969);
#867=PLANE('',#970);
#868=PLANE('',#971);
#869=PLANE('',#974);
#870=PLANE('',#975);
#871=PLANE('',#976);
#872=PLANE('',#978);
#873=PLANE('',#979);
#874=PLANE('',#983);
#875=PLANE('',#988);
#876=PLANE('',#994);
#877=PLANE('',#998);
#878=PLANE('',#1001);
#879=PLANE('',#1004);
#880=PLANE('',#1005);
#881=PLANE('',#1006);
#882=PLANE('',#1007);
#883=PLANE('',#1008);
#884=PLANE('',#1009);
#885=PLANE('',#1011);
#886=PLANE('',#1012);
#887=PLANE('',#1013);
#888=PLANE('',#1014);
#889=PLANE('',#1017);
#890=PLANE('',#1020);
#891=PLANE('',#1023);
#892=ADVANCED_FACE('',(#61),#858,.T.);
#893=ADVANCED_FACE('',(#62),#859,.T.);
#894=ADVANCED_FACE('',(#63),#860,.T.);
#895=ADVANCED_FACE('',(#64),#861,.T.);
#896=ADVANCED_FACE('',(#65),#862,.F.);
#897=ADVANCED_FACE('',(#66),#863,.T.);
#898=ADVANCED_FACE('',(#67),#864,.F.);
#899=ADVANCED_FACE('',(#68),#865,.F.);
#900=ADVANCED_FACE('',(#69),#866,.T.);
#901=ADVANCED_FACE('',(#70),#867,.T.);
#902=ADVANCED_FACE('',(#71,#28),#868,.F.);
#903=ADVANCED_FACE('',(#72),#869,.T.);
#904=ADVANCED_FACE('',(#73),#870,.T.);
#905=ADVANCED_FACE('',(#74,#29),#871,.F.);
#906=ADVANCED_FACE('',(#75),#872,.F.);
#907=ADVANCED_FACE('',(#76),#873,.F.);
#908=ADVANCED_FACE('',(#77),#15,.F.);
#909=ADVANCED_FACE('',(#78,#30),#874,.F.);
#910=ADVANCED_FACE('',(#79),#16,.F.);
#911=ADVANCED_FACE('',(#80,#31),#875,.F.);
#912=ADVANCED_FACE('',(#81),#17,.F.);
#913=ADVANCED_FACE('',(#82),#18,.F.);
#914=ADVANCED_FACE('',(#83),#19,.T.);
#915=ADVANCED_FACE('',(#84,#32,#33),#876,.T.);
#916=ADVANCED_FACE('',(#85),#20,.T.);
#917=ADVANCED_FACE('',(#86),#877,.T.);
#918=ADVANCED_FACE('',(#87),#21,.T.);
#919=ADVANCED_FACE('',(#88),#878,.T.);
#920=ADVANCED_FACE('',(#89),#22,.T.);
#921=ADVANCED_FACE('',(#90),#879,.T.);
#922=ADVANCED_FACE('',(#91),#880,.T.);
#923=ADVANCED_FACE('',(#92),#881,.T.);
#924=ADVANCED_FACE('',(#93),#882,.T.);
#925=ADVANCED_FACE('',(#94),#883,.T.);
#926=ADVANCED_FACE('',(#95),#884,.T.);
#927=ADVANCED_FACE('',(#96),#23,.F.);
#928=ADVANCED_FACE('',(#97),#885,.F.);
#929=ADVANCED_FACE('',(#98),#886,.F.);
#930=ADVANCED_FACE('',(#99,#34),#887,.F.);
#931=ADVANCED_FACE('',(#100),#888,.T.);
#932=ADVANCED_FACE('',(#101),#24,.T.);
#933=ADVANCED_FACE('',(#102),#889,.T.);
#934=ADVANCED_FACE('',(#103),#25,.T.);
#935=ADVANCED_FACE('',(#104),#890,.T.);
#936=ADVANCED_FACE('',(#105),#26,.T.);
#937=ADVANCED_FACE('',(#106),#891,.T.);
#938=ADVANCED_FACE('',(#107),#27,.T.);
#939=CLOSED_SHELL('',(#892,#893,#894,#895,#896,#897,#898,#899,#900,#901,
#902,#903,#904,#905,#906,#907,#908,#909,#910,#911,#912,#913,#914,#915,#916,
#917,#918,#919,#920,#921,#922,#923,#924,#925,#926,#927,#928,#929,#930,#931,
#932,#933,#934,#935,#936,#937,#938));
#940=DERIVED_UNIT_ELEMENT(#942,1.);
#941=DERIVED_UNIT_ELEMENT(#1553,-3.);
#942=(
MASS_UNIT()
NAMED_UNIT(*)
SI_UNIT(.KILO.,.GRAM.)
);
#943=DERIVED_UNIT((#940,#941));
#944=MEASURE_REPRESENTATION_ITEM('density measure',
POSITIVE_RATIO_MEASURE(7850.),#943);
#945=PROPERTY_DEFINITION_REPRESENTATION(#950,#947);
#946=PROPERTY_DEFINITION_REPRESENTATION(#951,#948);
#947=REPRESENTATION('material name',(#949),#1550);
#948=REPRESENTATION('density',(#944),#1550);
#949=DESCRIPTIVE_REPRESENTATION_ITEM('Steel','Steel');
#950=PROPERTY_DEFINITION('material property','material name',#1560);
#951=PROPERTY_DEFINITION('material property','density of part',#1560);
#952=AXIS2_PLACEMENT_3D('',#1280,#1026,#1027);
#953=AXIS2_PLACEMENT_3D('',#1281,#1028,#1029);
#954=AXIS2_PLACEMENT_3D('',#1290,#1034,#1035);
#955=AXIS2_PLACEMENT_3D('',#1296,#1038,#1039);
#956=AXIS2_PLACEMENT_3D('',#1304,#1043,#1044);
#957=AXIS2_PLACEMENT_3D('',#1314,#1049,#1050);
#958=AXIS2_PLACEMENT_3D('',#1318,#1052,#1053);
#959=AXIS2_PLACEMENT_3D('',#1322,#1055,#1056);
#960=AXIS2_PLACEMENT_3D('',#1326,#1058,#1059);
#961=AXIS2_PLACEMENT_3D('',#1344,#1068,#1069);
#962=AXIS2_PLACEMENT_3D('',#1351,#1073,#1074);
#963=AXIS2_PLACEMENT_3D('',#1352,#1075,#1076);
#964=AXIS2_PLACEMENT_3D('',#1358,#1080,#1081);
#965=AXIS2_PLACEMENT_3D('',#1364,#1085,#1086);
#966=AXIS2_PLACEMENT_3D('',#1382,#1096,#1097);
#967=AXIS2_PLACEMENT_3D('',#1388,#1101,#1102);
#968=AXIS2_PLACEMENT_3D('',#1410,#1114,#1115);
#969=AXIS2_PLACEMENT_3D('',#1414,#1119,#1120);
#970=AXIS2_PLACEMENT_3D('',#1418,#1123,#1124);
#971=AXIS2_PLACEMENT_3D('',#1422,#1127,#1128);
#972=AXIS2_PLACEMENT_3D('',#1428,#1132,#1133);
#973=AXIS2_PLACEMENT_3D('',#1431,#1135,#1136);
#974=AXIS2_PLACEMENT_3D('',#1432,#1137,#1138);
#975=AXIS2_PLACEMENT_3D('',#1436,#1141,#1142);
#976=AXIS2_PLACEMENT_3D('',#1442,#1146,#1147);
#977=AXIS2_PLACEMENT_3D('',#1448,#1151,#1152);
#978=AXIS2_PLACEMENT_3D('',#1449,#1153,#1154);
#979=AXIS2_PLACEMENT_3D('',#1457,#1159,#1160);
#980=AXIS2_PLACEMENT_3D('',#1465,#1165,#1166);
#981=AXIS2_PLACEMENT_3D('',#1467,#1167,#1168);
#982=AXIS2_PLACEMENT_3D('',#1470,#1170,#1171);
#983=AXIS2_PLACEMENT_3D('',#1471,#1172,#1173);
#984=AXIS2_PLACEMENT_3D('',#1473,#1174,#1175);
#985=AXIS2_PLACEMENT_3D('',#1474,#1176,#1177);
#986=AXIS2_PLACEMENT_3D('',#1476,#1178,#1179);
#987=AXIS2_PLACEMENT_3D('',#1479,#1181,#1182);
#988=AXIS2_PLACEMENT_3D('',#1480,#1183,#1184);
#989=AXIS2_PLACEMENT_3D('',#1482,#1185,#1186);
#990=AXIS2_PLACEMENT_3D('',#1483,#1187,#1188);
#991=AXIS2_PLACEMENT_3D('',#1485,#1190,#1191);
#992=AXIS2_PLACEMENT_3D('',#1487,#1193,#1194);
#993=AXIS2_PLACEMENT_3D('',#1491,#1196,#1197);
#994=AXIS2_PLACEMENT_3D('',#1493,#1199,#1200);
#995=AXIS2_PLACEMENT_3D('',#1494,#1201,#1202);
#996=AXIS2_PLACEMENT_3D('',#1498,#1205,#1206);
#997=AXIS2_PLACEMENT_3D('',#1501,#1208,#1209);
#998=AXIS2_PLACEMENT_3D('',#1502,#1210,#1211);
#999=AXIS2_PLACEMENT_3D('',#1506,#1214,#1215);
#1000=AXIS2_PLACEMENT_3D('',#1509,#1217,#1218);
#1001=AXIS2_PLACEMENT_3D('',#1510,#1219,#1220);
#1002=AXIS2_PLACEMENT_3D('',#1514,#1223,#1224);
#1003=AXIS2_PLACEMENT_3D('',#1517,#1226,#1227);
#1004=AXIS2_PLACEMENT_3D('',#1518,#1228,#1229);
#1005=AXIS2_PLACEMENT_3D('',#1520,#1231,#1232);
#1006=AXIS2_PLACEMENT_3D('',#1522,#1234,#1235);
#1007=AXIS2_PLACEMENT_3D('',#1524,#1237,#1238);
#1008=AXIS2_PLACEMENT_3D('',#1526,#1240,#1241);
#1009=AXIS2_PLACEMENT_3D('',#1528,#1243,#1244);
#1010=AXIS2_PLACEMENT_3D('',#1531,#1247,#1248);
#1011=AXIS2_PLACEMENT_3D('',#1532,#1249,#1250);
#1012=AXIS2_PLACEMENT_3D('',#1534,#1252,#1253);
#1013=AXIS2_PLACEMENT_3D('',#1535,#1254,#1255);
#1014=AXIS2_PLACEMENT_3D('',#1536,#1256,#1257);
#1015=AXIS2_PLACEMENT_3D('',#1537,#1258,#1259);
#1016=AXIS2_PLACEMENT_3D('',#1538,#1260,#1261);
#1017=AXIS2_PLACEMENT_3D('',#1539,#1262,#1263);
#1018=AXIS2_PLACEMENT_3D('',#1540,#1264,#1265);
#1019=AXIS2_PLACEMENT_3D('',#1541,#1266,#1267);
#1020=AXIS2_PLACEMENT_3D('',#1542,#1268,#1269);
#1021=AXIS2_PLACEMENT_3D('',#1543,#1270,#1271);
#1022=AXIS2_PLACEMENT_3D('',#1544,#1272,#1273);
#1023=AXIS2_PLACEMENT_3D('',#1545,#1274,#1275);
#1024=AXIS2_PLACEMENT_3D('',#1546,#1276,#1277);
#1025=AXIS2_PLACEMENT_3D('',#1547,#1278,#1279);
#1026=DIRECTION('axis',(0.,0.,1.));
#1027=DIRECTION('refdir',(1.,0.,0.));
#1028=DIRECTION('center_axis',(-1.,0.,1.22464679914735E-16));
#1029=DIRECTION('ref_axis',(1.22464679914735E-16,-4.44089209850063E-16,
1.));
#1030=DIRECTION('',(1.22464679914735E-16,0.,1.));
#1031=DIRECTION('',(0.,1.,0.));
#1032=DIRECTION('',(1.22464679914735E-16,-4.44089209850063E-16,1.));
#1033=DIRECTION('',(0.,1.,0.));
#1034=DIRECTION('center_axis',(-1.22464679914735E-16,2.22044604925031E-16,
-1.));
#1035=DIRECTION('ref_axis',(-1.,-2.71926214689378E-32,1.22464679914735E-16));
#1036=DIRECTION('',(-1.,0.,1.22464679914735E-16));
#1037=DIRECTION('',(0.,1.,0.));
#1038=DIRECTION('center_axis',(1.22464679914735E-16,-4.44089209850063E-16,
1.));
#1039=DIRECTION('ref_axis',(0.140132727772866,-0.990132727772866,-4.56868570375622E-16));
#1040=DIRECTION('',(-1.,0.,0.));
#1041=DIRECTION('',(-2.71926214689378E-32,-1.,-2.22044604925031E-16));
#1042=DIRECTION('',(-1.,0.,0.));
#1043=DIRECTION('center_axis',(1.22464679914735E-16,-4.44089209850063E-16,
1.));
#1044=DIRECTION('ref_axis',(0.97008548931473,0.242763554556693,-1.09925338153833E-17));
#1045=DIRECTION('',(0.,-1.,0.));
#1046=DIRECTION('',(1.,2.71926214689378E-32,-1.22464679914735E-16));
#1047=DIRECTION('',(-2.71926214689378E-32,-1.,-4.44089209850063E-16));
#1048=DIRECTION('',(1.,2.71926214689378E-32,-1.22464679914735E-16));
#1049=DIRECTION('center_axis',(1.22464679914735E-16,-2.22044604925031E-16,
1.));
#1050=DIRECTION('ref_axis',(-0.707106781186548,-0.707106781186547,-2.27422886113205E-16));
#1051=DIRECTION('',(0.,-1.,-2.22044604925031E-16));
#1052=DIRECTION('center_axis',(1.22464679914735E-16,-2.22044604925031E-16,
1.));
#1053=DIRECTION('ref_axis',(-0.707106781186548,0.707106781186548,1.38932020913008E-16));
#1054=DIRECTION('',(-1.,-2.71926214689378E-32,1.22464679914735E-16));
#1055=DIRECTION('center_axis',(1.22464679914735E-16,-2.22044604925031E-16,
1.));
#1056=DIRECTION('ref_axis',(0.70710678118655,0.707106781186545,2.27422886113204E-16));
#1057=DIRECTION('',(0.,1.,2.22044604925031E-16));
#1058=DIRECTION('center_axis',(1.22464679914735E-16,-2.22044604925031E-16,
1.));
#1059=DIRECTION('ref_axis',(0.707106781186547,-0.707106781186548,-4.00614097360305E-16));
#1060=DIRECTION('',(1.,2.71926214689378E-32,-1.22464679914735E-16));
#1061=DIRECTION('',(2.71926214689378E-32,1.,4.44089209850063E-16));
#1062=DIRECTION('',(1.,2.71926214689378E-32,-1.22464679914735E-16));
#1063=DIRECTION('',(0.,-1.,-2.22044604925031E-16));
#1064=DIRECTION('',(1.,2.71926214689378E-32,-1.22464679914735E-16));
#1065=DIRECTION('',(0.,1.,2.22044604925031E-16));
#1066=DIRECTION('',(1.,2.71926214689378E-32,-1.22464679914735E-16));
#1067=DIRECTION('',(0.,-1.,0.));
#1068=DIRECTION('center_axis',(1.22464679914735E-16,-4.44089209850063E-16,
1.));
#1069=DIRECTION('ref_axis',(-0.120085489314731,0.992763554556694,4.55581813522355E-16));
#1070=DIRECTION('',(1.,0.,0.));
#1071=DIRECTION('',(2.71926214689378E-32,1.,2.22044604925031E-16));
#1072=DIRECTION('',(1.,0.,0.));
#1073=DIRECTION('center_axis',(1.22464679914735E-16,-4.44089209850063E-16,
1.));
#1074=DIRECTION('ref_axis',(-0.990132727772866,-0.140132727772865,5.9024855229022E-17));
#1075=DIRECTION('center_axis',(0.,-1.,-4.44089209850063E-16));
#1076=DIRECTION('ref_axis',(-1.22464679914735E-16,4.44089209850063E-16,
-1.));
#1077=DIRECTION('',(0.,4.44089209850063E-16,-1.));
#1078=DIRECTION('',(1.,0.,0.));
#1079=DIRECTION('',(1.22464679914735E-16,-4.44089209850063E-16,1.));
#1080=DIRECTION('center_axis',(0.,1.,4.44089209850063E-16));
#1081=DIRECTION('ref_axis',(1.22464679914735E-16,-4.44089209850063E-16,
1.));
#1082=DIRECTION('',(0.,-4.44089209850063E-16,1.));
#1083=DIRECTION('',(1.22464679914735E-16,-4.44089209850063E-16,1.));
#1084=DIRECTION('',(1.,0.,0.));
#1085=DIRECTION('center_axis',(1.,0.,0.));
#1086=DIRECTION('ref_axis',(0.,0.,-1.));
#1087=DIRECTION('',(0.,-1.,0.));
#1088=DIRECTION('',(0.,-1.,0.));
#1089=DIRECTION('',(-1.22464679914735E-16,2.22044604925031E-16,-1.));
#1090=DIRECTION('',(-2.71926214689378E-32,-1.,-4.44089209850063E-16));
#1091=DIRECTION('',(-1.22464679914735E-16,4.44089209850063E-16,-1.));
#1092=DIRECTION('',(0.,-1.,-2.22044604925031E-16));
#1093=DIRECTION('',(1.22464679914735E-16,-4.44089209850063E-16,1.));
#1094=DIRECTION('',(-2.71926214689378E-32,-1.,-4.44089209850063E-16));
#1095=DIRECTION('',(-1.22464679914735E-16,2.22044604925031E-16,-1.));
#1096=DIRECTION('center_axis',(1.,0.,-1.22464679914735E-16));
#1097=DIRECTION('ref_axis',(-1.22464679914735E-16,4.44089209850063E-16,
-1.));
#1098=DIRECTION('',(-1.22464679914735E-16,0.,-1.));
#1099=DIRECTION('',(0.,1.,0.));
#1100=DIRECTION('',(1.22464679914735E-16,-4.44089209850063E-16,1.));
#1101=DIRECTION('center_axis',(-1.,0.,0.));
#1102=DIRECTION('ref_axis',(0.,0.,1.));
#1103=DIRECTION('',(0.,1.,0.));
#1104=DIRECTION('',(1.22464679914735E-16,-2.22044604925031E-16,1.));
#1105=DIRECTION('',(0.,1.,0.));
#1106=DIRECTION('',(-1.22464679914735E-16,4.44089209850063E-16,-1.));
#1107=DIRECTION('',(0.,1.,2.22044604925031E-16));
#1108=DIRECTION('',(1.22464679914735E-16,-4.44089209850063E-16,1.));
#1109=DIRECTION('',(2.71926214689378E-32,1.,4.44089209850063E-16));
#1110=DIRECTION('',(-1.22464679914735E-16,2.22044604925031E-16,-1.));
#1111=DIRECTION('',(0.,1.,4.44089209850063E-16));
#1112=DIRECTION('',(0.,4.44089209850063E-16,-1.));
#1113=DIRECTION('',(0.,-4.44089209850063E-16,1.));
#1114=DIRECTION('center_axis',(0.,1.,0.));
#1115=DIRECTION('ref_axis',(0.,0.,1.));
#1116=DIRECTION('',(1.,0.,0.));
#1117=DIRECTION('',(1.,0.,0.));
#1118=DIRECTION('',(1.,0.,-1.22464679914735E-16));
#1119=DIRECTION('center_axis',(0.,-1.,-4.44089209850063E-16));
#1120=DIRECTION('ref_axis',(1.22464679914735E-16,-4.44089209850063E-16,
1.));
#1121=DIRECTION('',(1.22464679914735E-16,-4.44089209850063E-16,1.));
#1122=DIRECTION('',(-1.,0.,0.));
#1123=DIRECTION('center_axis',(0.,1.,4.44089209850063E-16));
#1124=DIRECTION('ref_axis',(-1.22464679914735E-16,4.44089209850063E-16,
-1.));
#1125=DIRECTION('',(-1.,0.,0.));
#1126=DIRECTION('',(1.22464679914735E-16,-4.44089209850063E-16,1.));
#1127=DIRECTION('center_axis',(0.,-1.,-2.22044604925031E-16));
#1128=DIRECTION('ref_axis',(-1.,-2.71926214689378E-32,1.22464679914735E-16));
#1129=DIRECTION('',(-1.,0.,0.));
#1130=DIRECTION('',(-1.,-2.71926214689378E-32,1.22464679914735E-16));
#1131=DIRECTION('',(1.22464679914735E-16,-2.22044604925031E-16,1.));
#1132=DIRECTION('center_axis',(0.,1.,2.22044604925031E-16));
#1133=DIRECTION('ref_axis',(1.,2.71926214689378E-32,-1.22464679914735E-16));
#1134=DIRECTION('',(1.22464679914735E-16,-2.22044604925031E-16,1.));
#1135=DIRECTION('center_axis',(0.,1.,2.22044604925031E-16));
#1136=DIRECTION('ref_axis',(-1.,0.,-1.61012663758566E-47));
#1137=DIRECTION('center_axis',(1.,0.,-1.22464679914735E-16));
#1138=DIRECTION('ref_axis',(1.22464679914735E-16,-4.44089209850063E-16,
1.));
#1139=DIRECTION('',(1.22464679914735E-16,-4.44089209850063E-16,1.));
#1140=DIRECTION('',(0.,-1.,0.));
#1141=DIRECTION('center_axis',(-1.,0.,1.22464679914735E-16));
#1142=DIRECTION('ref_axis',(-1.22464679914735E-16,4.44089209850063E-16,
-1.));
#1143=DIRECTION('',(-1.22464679914735E-16,2.22044604925031E-16,-1.));
#1144=DIRECTION('',(0.,-1.,0.));
#1145=DIRECTION('',(1.22464679914735E-16,-4.44089209850063E-16,1.));
#1146=DIRECTION('center_axis',(0.,-1.,-2.22044604925031E-16));
#1147=DIRECTION('ref_axis',(-1.,-2.71926214689378E-32,1.22464679914735E-16));
#1148=DIRECTION('',(-1.,-2.71926214689378E-32,1.22464679914735E-16));
#1149=DIRECTION('',(-1.22464679914735E-16,2.22044604925031E-16,-1.));
#1150=DIRECTION('',(-1.,-2.71926214689378E-32,1.22464679914735E-16));
#1151=DIRECTION('center_axis',(0.,1.,2.22044604925031E-16));
#1152=DIRECTION('ref_axis',(-1.,0.,-1.61012663758566E-47));
#1153=DIRECTION('center_axis',(1.,2.71926214689378E-32,-1.22464679914735E-16));
#1154=DIRECTION('ref_axis',(-2.71926214689378E-32,-1.,-4.44089209850063E-16));
#1155=DIRECTION('',(2.71926214689378E-32,-1.,-3.33013568423603E-48));
#1156=DIRECTION('',(-1.22464679914735E-16,4.44089209850063E-16,-1.));
#1157=DIRECTION('',(2.71926214689378E-32,1.,4.44089209850063E-16));
#1158=DIRECTION('',(-2.26296479653377E-16,-4.44089209850063E-16,1.));
#1159=DIRECTION('center_axis',(-1.,-2.71926214689378E-32,1.22464679914735E-16));
#1160=DIRECTION('ref_axis',(2.71926214689378E-32,1.,4.44089209850063E-16));
#1161=DIRECTION('',(-2.71926214689378E-32,1.,3.33013568423603E-48));
#1162=DIRECTION('',(-1.22464679914735E-16,4.44089209850063E-16,-1.));
#1163=DIRECTION('',(-2.71926214689378E-32,-1.,-4.44089209850063E-16));
#1164=DIRECTION('',(1.22464679914735E-16,-4.44089209850063E-16,1.));
#1165=DIRECTION('center_axis',(0.,1.,0.));
#1166=DIRECTION('ref_axis',(-1.,0.,0.));
#1167=DIRECTION('center_axis',(0.,1.,2.22044604925031E-16));
#1168=DIRECTION('ref_axis',(-1.,0.,0.));
#1169=DIRECTION('',(0.,1.,0.));
#1170=DIRECTION('center_axis',(2.71926214689378E-32,1.,4.44089209850063E-16));
#1171=DIRECTION('ref_axis',(-1.,2.71926214689378E-32,0.));
#1172=DIRECTION('center_axis',(2.71926214689378E-32,1.,4.44089209850063E-16));
#1173=DIRECTION('ref_axis',(-1.,2.71926214689378E-32,0.));
#1174=DIRECTION('center_axis',(-2.71926214689378E-32,-1.,-4.44089209850063E-16));
#1175=DIRECTION('ref_axis',(-1.,0.,-1.61012663758566E-47));
#1176=DIRECTION('center_axis',(0.,1.,0.));
#1177=DIRECTION('ref_axis',(-1.,0.,0.));
#1178=DIRECTION('center_axis',(0.,1.,2.22044604925031E-16));
#1179=DIRECTION('ref_axis',(-1.,0.,0.));
#1180=DIRECTION('',(0.,1.,0.));
#1181=DIRECTION('center_axis',(2.71926214689378E-32,1.,4.44089209850063E-16));
#1182=DIRECTION('ref_axis',(-1.,2.71926214689378E-32,0.));
#1183=DIRECTION('center_axis',(2.71926214689378E-32,1.,4.44089209850063E-16));
#1184=DIRECTION('ref_axis',(-1.,2.71926214689378E-32,0.));
#1185=DIRECTION('center_axis',(-2.71926214689378E-32,-1.,-4.44089209850063E-16));
#1186=DIRECTION('ref_axis',(-1.,0.,-1.61012663758566E-47));
#1187=DIRECTION('center_axis',(0.,1.,5.9211894646675E-16));
#1188=DIRECTION('ref_axis',(-1.,0.,-1.61012663758566E-47));
#1189=DIRECTION('',(0.,1.,5.9211894646675E-16));
#1190=DIRECTION('center_axis',(0.,1.,5.9211894646675E-16));
#1191=DIRECTION('ref_axis',(-1.,0.,-1.61012663758566E-47));
#1192=DIRECTION('',(0.,1.,5.9211894646675E-16));
#1193=DIRECTION('center_axis',(-1.22464679914735E-16,2.22044604925031E-16,
-1.));
#1194=DIRECTION('ref_axis',(-0.707106781186548,-0.707106781186547,-2.27422886113205E-16));
#1195=DIRECTION('',(1.22464679914735E-16,-2.22044604925031E-16,1.));
#1196=DIRECTION('center_axis',(-1.22464679914735E-16,2.22044604925031E-16,
-1.));
#1197=DIRECTION('ref_axis',(-0.707106781186548,-0.707106781186547,-2.27422886113205E-16));
#1198=DIRECTION('',(-1.22464679914735E-16,2.22044604925031E-16,-1.));
#1199=DIRECTION('center_axis',(0.,-1.,-2.22044604925031E-16));
#1200=DIRECTION('ref_axis',(-1.,-2.71926214689378E-32,1.22464679914735E-16));
#1201=DIRECTION('center_axis',(0.,1.,2.22044604925031E-16));
#1202=DIRECTION('ref_axis',(1.,2.71926214689378E-32,-1.22464679914735E-16));
#1203=DIRECTION('',(-1.22464679914735E-16,2.22044604925031E-16,-1.));
#1204=DIRECTION('',(1.,2.71926214689378E-32,-1.22464679914735E-16));
#1205=DIRECTION('center_axis',(-1.22464679914735E-16,2.22044604925031E-16,
-1.));
#1206=DIRECTION('ref_axis',(0.707106781186547,-0.707106781186548,-4.00614097360305E-16));
#1207=DIRECTION('',(1.22464679914735E-16,-2.22044604925031E-16,1.));
#1208=DIRECTION('center_axis',(-1.22464679914735E-16,2.22044604925031E-16,
-1.));
#1209=DIRECTION('ref_axis',(0.707106781186547,-0.707106781186548,-4.00614097360305E-16));
#1210=DIRECTION('center_axis',(1.,2.71926214689378E-32,-1.22464679914735E-16));
#1211=DIRECTION('ref_axis',(-5.47382212626882E-48,-1.,-2.22044604925031E-16));
#1212=DIRECTION('',(-1.22464679914735E-16,2.22044604925031E-16,-1.));
#1213=DIRECTION('',(5.47382212626882E-48,1.,2.22044604925031E-16));
#1214=DIRECTION('center_axis',(-1.22464679914735E-16,2.22044604925031E-16,
-1.));
#1215=DIRECTION('ref_axis',(0.70710678118655,0.707106781186545,2.27422886113204E-16));
#1216=DIRECTION('',(1.22464679914735E-16,-2.22044604925031E-16,1.));
#1217=DIRECTION('center_axis',(-1.22464679914735E-16,2.22044604925031E-16,
-1.));
#1218=DIRECTION('ref_axis',(0.70710678118655,0.707106781186545,2.27422886113204E-16));
#1219=DIRECTION('center_axis',(0.,1.,2.22044604925031E-16));
#1220=DIRECTION('ref_axis',(1.,2.71926214689378E-32,-1.22464679914735E-16));
#1221=DIRECTION('',(-1.22464679914735E-16,2.22044604925031E-16,-1.));
#1222=DIRECTION('',(-1.,-2.71926214689378E-32,1.22464679914735E-16));
#1223=DIRECTION('center_axis',(-1.22464679914735E-16,2.22044604925031E-16,
-1.));
#1224=DIRECTION('ref_axis',(-0.707106781186548,0.707106781186548,1.38932020913008E-16));
#1225=DIRECTION('',(1.22464679914735E-16,-2.22044604925031E-16,1.));
#1226=DIRECTION('center_axis',(-1.22464679914735E-16,2.22044604925031E-16,
-1.));
#1227=DIRECTION('ref_axis',(-0.707106781186548,0.707106781186548,1.38932020913008E-16));
#1228=DIRECTION('center_axis',(-1.,-2.71926214689378E-32,1.22464679914735E-16));
#1229=DIRECTION('ref_axis',(5.47382212626882E-48,1.,2.22044604925031E-16));
#1230=DIRECTION('',(-5.47382212626882E-48,-1.,-2.22044604925031E-16));
#1231=DIRECTION('center_axis',(-1.22464679914735E-16,4.44089209850063E-16,
-1.));
#1232=DIRECTION('ref_axis',(1.,2.71926214689378E-32,-1.22464679914735E-16));
#1233=DIRECTION('',(-1.,0.,0.));
#1234=DIRECTION('center_axis',(-2.71926214689378E-32,-1.,-4.44089209850063E-16));
#1235=DIRECTION('ref_axis',(1.22464679914735E-16,-4.44089209850063E-16,
1.));
#1236=DIRECTION('',(1.,5.43852429378756E-32,-1.22464679914735E-16));
#1237=DIRECTION('center_axis',(-1.22464679914735E-16,4.44089209850063E-16,
-1.));
#1238=DIRECTION('ref_axis',(-1.,-2.71926214689378E-32,1.22464679914735E-16));
#1239=DIRECTION('',(-1.,-2.71926214689378E-32,1.22464679914735E-16));
#1240=DIRECTION('center_axis',(-1.22464679914735E-16,4.44089209850063E-16,
-1.));
#1241=DIRECTION('ref_axis',(-1.,-2.71926214689378E-32,1.22464679914735E-16));
#1242=DIRECTION('',(1.,0.,0.));
#1243=DIRECTION('center_axis',(2.71926214689378E-32,1.,4.44089209850063E-16));
#1244=DIRECTION('ref_axis',(-1.22464679914735E-16,4.44089209850063E-16,
-1.));
#1245=DIRECTION('',(-1.,-5.43852429378756E-32,1.22464679914735E-16));
#1246=DIRECTION('',(-1.,-2.71926214689378E-32,1.22464679914735E-16));
#1247=DIRECTION('center_axis',(-2.71926214689378E-32,-1.,-4.44089209850063E-16));
#1248=DIRECTION('ref_axis',(1.,2.71926214689378E-32,-1.22464679914735E-16));
#1249=DIRECTION('center_axis',(1.22464679914735E-16,-4.44089209850063E-16,
1.));
#1250=DIRECTION('ref_axis',(1.,2.71926214689378E-32,-1.22464679914735E-16));
#1251=DIRECTION('',(1.,2.71926214689378E-32,-1.22464679914735E-16));
#1252=DIRECTION('center_axis',(-2.71926214689378E-32,-1.,-4.44089209850063E-16));
#1253=DIRECTION('ref_axis',(-1.,-2.71926214689378E-32,1.22464679914735E-16));
#1254=DIRECTION('center_axis',(-1.22464679914735E-16,2.22044604925031E-16,
-1.));
#1255=DIRECTION('ref_axis',(-5.47382212626882E-48,-1.,-2.22044604925031E-16));
#1256=DIRECTION('center_axis',(1.22464679914735E-16,-4.44089209850063E-16,
1.));
#1257=DIRECTION('ref_axis',(1.,2.71926214689378E-32,-1.22464679914735E-16));
#1258=DIRECTION('center_axis',(1.22464679914735E-16,-4.44089209850063E-16,
1.));
#1259=DIRECTION('ref_axis',(-0.120085489314731,0.992763554556694,4.55581813522355E-16));
#1260=DIRECTION('center_axis',(1.22464679914735E-16,-4.44089209850063E-16,
1.));
#1261=DIRECTION('ref_axis',(-0.120085489314731,0.992763554556694,4.55581813522355E-16));
#1262=DIRECTION('center_axis',(1.22464679914735E-16,-4.44089209850063E-16,
1.));
#1263=DIRECTION('ref_axis',(1.,2.71926214689378E-32,-1.22464679914735E-16));
#1264=DIRECTION('center_axis',(1.22464679914735E-16,-4.44089209850063E-16,
1.));
#1265=DIRECTION('ref_axis',(0.97008548931473,0.242763554556693,-1.09925338153833E-17));
#1266=DIRECTION('center_axis',(1.22464679914735E-16,-4.44089209850063E-16,
1.));
#1267=DIRECTION('ref_axis',(0.97008548931473,0.242763554556693,-1.09925338153833E-17));
#1268=DIRECTION('center_axis',(1.22464679914735E-16,-4.44089209850063E-16,
1.));
#1269=DIRECTION('ref_axis',(1.,2.71926214689378E-32,-1.22464679914735E-16));
#1270=DIRECTION('center_axis',(1.22464679914735E-16,-4.44089209850063E-16,
1.));
#1271=DIRECTION('ref_axis',(0.140132727772866,-0.990132727772866,-4.56868570375622E-16));
#1272=DIRECTION('center_axis',(1.22464679914735E-16,-4.44089209850063E-16,
1.));
#1273=DIRECTION('ref_axis',(0.140132727772866,-0.990132727772866,-4.56868570375622E-16));
#1274=DIRECTION('center_axis',(1.22464679914735E-16,-4.44089209850063E-16,
1.));
#1275=DIRECTION('ref_axis',(1.,2.71926214689378E-32,-1.22464679914735E-16));
#1276=DIRECTION('center_axis',(1.22464679914735E-16,-4.44089209850063E-16,
1.));
#1277=DIRECTION('ref_axis',(-0.990132727772866,-0.140132727772865,5.9024855229022E-17));
#1278=DIRECTION('center_axis',(1.22464679914735E-16,-4.44089209850063E-16,
1.));
#1279=DIRECTION('ref_axis',(-0.990132727772866,-0.140132727772865,5.9024855229022E-17));
#1280=CARTESIAN_POINT('',(0.,0.,0.));
#1281=CARTESIAN_POINT('Origin',(69.2143467068546,111.7,9.95280091454949));
#1282=CARTESIAN_POINT('',(69.2143467068546,111.9,9.95280091454947));
#1283=CARTESIAN_POINT('',(69.2143467068546,111.9,13.4428009145495));
#1284=CARTESIAN_POINT('',(69.2143467068546,111.9,19.9528009145495));
#1285=CARTESIAN_POINT('',(69.2143467068546,111.7,9.95280091454949));
#1286=CARTESIAN_POINT('',(69.2143467068546,111.7,9.95280091454949));
#1287=CARTESIAN_POINT('',(69.2143467068546,111.7,13.4428009145495));
#1288=CARTESIAN_POINT('',(69.2143467068546,111.7,9.95280091454949));
#1289=CARTESIAN_POINT('',(69.2143467068546,111.7,13.4428009145495));
#1290=CARTESIAN_POINT('Origin',(1.1143467068546,56.1,9.95280091454947));
#1291=CARTESIAN_POINT('',(-66.9856532931454,111.9,9.95280091454951));
#1292=CARTESIAN_POINT('',(-41.4356532931454,111.9,9.95280091454948));
#1293=CARTESIAN_POINT('',(-66.9856532931454,111.7,9.95280091454951));
#1294=CARTESIAN_POINT('',(-66.9856532931454,111.7,9.95280091454951));
#1295=CARTESIAN_POINT('',(-83.9856532931454,94.7000000000001,9.9528009145495));
#1296=CARTESIAN_POINT('Origin',(-86.7883078486027,114.502654555457,9.95280091454951));
#1297=CARTESIAN_POINT('',(-84.1856532931454,94.7000000000001,9.9528009145495));
#1298=CARTESIAN_POINT('',(-83.9856532931454,94.7000000000001,9.9528009145495));
#1299=CARTESIAN_POINT('',(-84.1856532931454,15.5,9.95280091454947));
#1300=CARTESIAN_POINT('',(-84.1856532931454,83.9,9.95280091454948));
#1301=CARTESIAN_POINT('',(-83.9856532931454,15.5,9.95280091454947));
#1302=CARTESIAN_POINT('',(-83.9856532931454,15.5,9.95280091454947));
#1303=CARTESIAN_POINT('',(-66.9856532931454,0.500000000000016,9.95280091454946));
#1304=CARTESIAN_POINT('Origin',(-86.38736307944,-4.35527109113385,9.95280091454946));
#1305=CARTESIAN_POINT('',(-66.9856532931454,0.300000000000014,9.95280091454946));
#1306=CARTESIAN_POINT('',(-66.9856532931454,0.500000000000016,9.95280091454946));
#1307=CARTESIAN_POINT('',(-32.0491307930348,0.300000000000018,9.95280091454946));
#1308=CARTESIAN_POINT('',(43.6643467068546,0.300000000000014,9.95280091454945));
#1309=CARTESIAN_POINT('',(-32.0491307930348,-4.49999999999999,9.95280091454945));
#1310=CARTESIAN_POINT('',(-32.0491307930348,0.50000000000002,9.95280091454946));
#1311=CARTESIAN_POINT('',(-80.9856532931454,-4.49999999999999,9.95280091454946));
#1312=CARTESIAN_POINT('',(43.6643467068546,-4.49999999999999,9.95280091454944));
#1313=CARTESIAN_POINT('',(-86.9856532931454,1.50000000000002,9.95280091454946));
#1314=CARTESIAN_POINT('Origin',(-80.9856532931454,1.50000000000002,9.95280091454946));
#1315=CARTESIAN_POINT('',(-86.9856532931454,108.7,9.95280091454948));
#1316=CARTESIAN_POINT('',(-86.9856532931454,28.3,9.95280091454947));
#1317=CARTESIAN_POINT('',(-80.9856532931454,114.7,9.95280091454949));
#1318=CARTESIAN_POINT('Origin',(-80.9856532931454,108.7,9.95280091454949));
#1319=CARTESIAN_POINT('',(83.2143467068546,114.7,9.95280091454947));
#1320=CARTESIAN_POINT('',(-41.4356532931454,114.7,9.95280091454948));
#1321=CARTESIAN_POINT('',(89.2143467068546,108.7,9.95280091454947));
#1322=CARTESIAN_POINT('Origin',(83.2143467068546,108.7,9.95280091454947));
#1323=CARTESIAN_POINT('',(89.2143467068546,1.50000000000003,9.95280091454944));
#1324=CARTESIAN_POINT('',(89.2143467068546,83.9,9.95280091454946));
#1325=CARTESIAN_POINT('',(83.2143467068546,-4.49999999999999,9.95280091454944));
#1326=CARTESIAN_POINT('Origin',(83.2143467068546,1.50000000000001,9.95280091454944));
#1327=CARTESIAN_POINT('',(-24.0491307930348,-4.49999999999999,9.95280091454945));
#1328=CARTESIAN_POINT('',(43.6643467068546,-4.49999999999999,9.95280091454944));
#1329=CARTESIAN_POINT('',(-24.0491307930348,0.300000000000018,9.95280091454946));
#1330=CARTESIAN_POINT('',(-24.0491307930348,0.50000000000002,9.95280091454946));
#1331=CARTESIAN_POINT('',(-4.08565329314539,0.300000000000022,9.95280091454945));
#1332=CARTESIAN_POINT('',(43.6643467068546,0.300000000000014,9.95280091454945));
#1333=CARTESIAN_POINT('',(-4.08565329314539,-1.49999999999998,9.95280091454945));
#1334=CARTESIAN_POINT('',(-4.08565329314539,27.3,9.95280091454946));
#1335=CARTESIAN_POINT('',(6.35168678426378,-1.49999999999998,9.95280091454945));
#1336=CARTESIAN_POINT('',(3.7330167455592,-1.49999999999998,9.95280091454945));
#1337=CARTESIAN_POINT('',(6.3516867842638,0.300000000000016,9.95280091454945));
#1338=CARTESIAN_POINT('',(6.35168678426378,28.3,9.95280091454946));
#1339=CARTESIAN_POINT('',(69.2143467068546,0.300000000000016,9.95280091454944));
#1340=CARTESIAN_POINT('',(43.6643467068546,0.300000000000013,9.95280091454945));
#1341=CARTESIAN_POINT('',(69.2143467068546,0.500000000000022,9.95280091454944));
#1342=CARTESIAN_POINT('',(69.2143467068546,0.500000000000022,9.95280091454944));
#1343=CARTESIAN_POINT('',(86.2143467068546,15.5,9.95280091454944));
#1344=CARTESIAN_POINT('Origin',(88.6160564931492,-4.35527109113387,9.95280091454944));
#1345=CARTESIAN_POINT('',(86.4143467068546,15.5,9.95280091454944));
#1346=CARTESIAN_POINT('',(86.2143467068546,15.5,9.95280091454944));
#1347=CARTESIAN_POINT('',(86.4143467068546,94.7,9.95280091454948));
#1348=CARTESIAN_POINT('',(86.4143467068546,83.9,9.95280091454946));
#1349=CARTESIAN_POINT('',(86.2143467068546,94.7,9.95280091454948));
#1350=CARTESIAN_POINT('',(86.2143467068546,94.7,9.95280091454948));
#1351=CARTESIAN_POINT('Origin',(89.0170012623119,114.502654555457,9.95280091454949));
#1352=CARTESIAN_POINT('Origin',(86.2143467068546,94.7,13.4428009145495));
#1353=CARTESIAN_POINT('',(86.4143467068546,94.7,13.4428009145495));
#1354=CARTESIAN_POINT('',(86.4143467068546,94.7,21.6978009145495));
#1355=CARTESIAN_POINT('',(86.2143467068546,94.7,13.4428009145495));
#1356=CARTESIAN_POINT('',(86.2143467068546,94.7,13.4428009145495));
#1357=CARTESIAN_POINT('',(86.2143467068546,94.7,9.95280091454948));
#1358=CARTESIAN_POINT('Origin',(86.2143467068546,15.5,9.95280091454944));
#1359=CARTESIAN_POINT('',(86.4143467068546,15.5,13.4428009145494));
#1360=CARTESIAN_POINT('',(86.4143467068546,15.5,19.9528009145494));
#1361=CARTESIAN_POINT('',(86.2143467068546,15.5,13.4428009145494));
#1362=CARTESIAN_POINT('',(86.2143467068546,15.5,9.95280091454944));
#1363=CARTESIAN_POINT('',(86.2143467068546,15.5,13.4428009145494));
#1364=CARTESIAN_POINT('Origin',(86.4143467068546,111.7,29.9528009145495));
#1365=CARTESIAN_POINT('',(86.4143467068546,111.9,13.4428009145495));
#1366=CARTESIAN_POINT('',(86.4143467068546,111.7,13.4428009145495));
#1367=CARTESIAN_POINT('',(86.4143467068546,0.300000000000015,13.4428009145494));
#1368=CARTESIAN_POINT('',(86.4143467068546,63.6,13.4428009145494));
#1369=CARTESIAN_POINT('',(86.4143467068546,0.300000000000011,28.6528009145494));
#1370=CARTESIAN_POINT('',(86.4143467068546,0.300000000000011,29.9528009145494));
#1371=CARTESIAN_POINT('',(86.4143467068546,3.50000000000001,28.6528009145494));
#1372=CARTESIAN_POINT('',(86.4143467068546,56.1,28.6528009145495));
#1373=CARTESIAN_POINT('',(86.4143467068546,3.50000000000001,29.9528009145494));
#1374=CARTESIAN_POINT('',(86.4143467068546,3.50000000000001,29.6278009145494));
#1375=CARTESIAN_POINT('',(86.4143467068546,109.7,29.9528009145495));
#1376=CARTESIAN_POINT('',(86.4143467068546,83.9,29.9528009145495));
#1377=CARTESIAN_POINT('',(86.4143467068546,109.7,28.6528009145495));
#1378=CARTESIAN_POINT('',(86.4143467068546,109.7,29.6278009145495));
#1379=CARTESIAN_POINT('',(86.4143467068546,111.9,28.6528009145495));
#1380=CARTESIAN_POINT('',(86.4143467068546,111.7,28.6528009145495));
#1381=CARTESIAN_POINT('',(86.4143467068546,111.9,29.9528009145495));
#1382=CARTESIAN_POINT('Origin',(-66.9856532931454,111.7,13.4428009145495));
#1383=CARTESIAN_POINT('',(-66.9856532931454,111.9,13.4428009145495));
#1384=CARTESIAN_POINT('',(-66.9856532931454,111.9,21.6978009145495));
#1385=CARTESIAN_POINT('',(-66.9856532931454,111.7,13.4428009145495));
#1386=CARTESIAN_POINT('',(-66.9856532931454,111.7,13.4428009145495));
#1387=CARTESIAN_POINT('',(-66.9856532931454,111.7,9.95280091454951));
#1388=CARTESIAN_POINT('Origin',(-84.1856532931454,0.500000000000007,29.9528009145495));
#1389=CARTESIAN_POINT('',(-84.1856532931454,94.7000000000001,13.4428009145495));
#1390=CARTESIAN_POINT('',(-84.1856532931454,111.9,13.4428009145495));
#1391=CARTESIAN_POINT('',(-84.1856532931454,56.1,13.4428009145495));
#1392=CARTESIAN_POINT('',(-84.1856532931454,111.9,28.6528009145495));
#1393=CARTESIAN_POINT('',(-84.1856532931454,111.9,29.9528009145495));
#1394=CARTESIAN_POINT('',(-84.1856532931454,109.7,28.6528009145495));
#1395=CARTESIAN_POINT('',(-84.1856532931454,111.7,28.6528009145495));
#1396=CARTESIAN_POINT('',(-84.1856532931454,109.7,29.9528009145495));
#1397=CARTESIAN_POINT('',(-84.1856532931454,109.7,29.6278009145495));
#1398=CARTESIAN_POINT('',(-84.1856532931454,3.50000000000001,29.9528009145495));
#1399=CARTESIAN_POINT('',(-84.1856532931454,28.3,29.9528009145495));
#1400=CARTESIAN_POINT('',(-84.1856532931454,3.50000000000001,28.6528009145495));
#1401=CARTESIAN_POINT('',(-84.1856532931454,3.50000000000001,29.6278009145495));
#1402=CARTESIAN_POINT('',(-84.1856532931454,0.300000000000007,28.6528009145495));
#1403=CARTESIAN_POINT('',(-84.1856532931454,0.500000000000006,28.6528009145495));
#1404=CARTESIAN_POINT('',(-84.1856532931454,0.300000000000015,13.4428009145495));
#1405=CARTESIAN_POINT('',(-84.1856532931454,0.300000000000011,29.9528009145495));
#1406=CARTESIAN_POINT('',(-84.1856532931454,15.5,13.4428009145495));
#1407=CARTESIAN_POINT('',(-84.1856532931454,0.400000000000015,13.4428009145495));
#1408=CARTESIAN_POINT('',(-84.1856532931454,15.5,21.6978009145495));
#1409=CARTESIAN_POINT('',(-84.1856532931454,94.7000000000001,19.9528009145495));
#1410=CARTESIAN_POINT('Origin',(-83.9856532931454,111.9,29.9528009145495));
#1411=CARTESIAN_POINT('',(-7.3856532931454,111.9,13.4428009145495));
#1412=CARTESIAN_POINT('',(-83.9856532931454,111.9,28.6528009145495));
#1413=CARTESIAN_POINT('',(-84.0856532931454,111.9,13.4428009145495));
#1414=CARTESIAN_POINT('Origin',(-83.9856532931454,94.7000000000001,9.9528009145495));
#1415=CARTESIAN_POINT('',(-83.9856532931454,94.7000000000001,13.4428009145495));
#1416=CARTESIAN_POINT('',(-83.9856532931454,94.7000000000001,9.9528009145495));
#1417=CARTESIAN_POINT('',(-83.9856532931454,94.7000000000001,13.4428009145495));
#1418=CARTESIAN_POINT('Origin',(-83.9856532931454,15.5,13.4428009145495));
#1419=CARTESIAN_POINT('',(-83.9856532931454,15.5,13.4428009145495));
#1420=CARTESIAN_POINT('',(-83.9856532931454,15.5,13.4428009145495));
#1421=CARTESIAN_POINT('',(-83.9856532931454,15.5,9.95280091454947));
#1422=CARTESIAN_POINT('Origin',(86.2143467068546,0.300000000000011,29.9528009145494));
#1423=CARTESIAN_POINT('',(-66.9856532931454,0.300000000000015,13.4428009145495));
#1424=CARTESIAN_POINT('',(9.6143467068546,0.300000000000015,13.4428009145495));
#1425=CARTESIAN_POINT('',(-4.08565329314538,0.30000000000001,28.6528009145495));
#1426=CARTESIAN_POINT('',(41.0643467068546,0.300000000000011,28.6528009145495));
#1427=CARTESIAN_POINT('',(-4.08565329314539,0.300000000000011,29.2528009145494));
#1428=CARTESIAN_POINT('Origin',(-28.0491307930348,0.30000000000002,9.95280091454946));
#1429=CARTESIAN_POINT('',(-66.9856532931454,0.300000000000013,19.9528009145495));
#1430=CARTESIAN_POINT('',(-7.76250904452106,0.300000000000023,22.6056018290989));
#1431=CARTESIAN_POINT('Origin',(-9.76250904452106,0.300000000000016,22.6056018290989));
#1432=CARTESIAN_POINT('Origin',(-66.9856532931454,0.500000000000016,9.95280091454946));
#1433=CARTESIAN_POINT('',(-66.9856532931454,0.500000000000014,13.4428009145495));
#1434=CARTESIAN_POINT('',(-66.9856532931454,0.500000000000016,9.95280091454946));
#1435=CARTESIAN_POINT('',(-66.9856532931454,0.500000000000014,13.4428009145495));
#1436=CARTESIAN_POINT('Origin',(69.2143467068546,0.500000000000021,13.4428009145494));
#1437=CARTESIAN_POINT('',(69.2143467068546,0.300000000000015,13.4428009145494));
#1438=CARTESIAN_POINT('',(69.2143467068546,0.300000000000013,21.6978009145494));
#1439=CARTESIAN_POINT('',(69.2143467068546,0.500000000000021,13.4428009145494));
#1440=CARTESIAN_POINT('',(69.2143467068546,0.500000000000021,13.4428009145494));
#1441=CARTESIAN_POINT('',(69.2143467068546,0.500000000000022,9.95280091454944));
#1442=CARTESIAN_POINT('Origin',(86.2143467068546,0.300000000000011,29.9528009145494));
#1443=CARTESIAN_POINT('',(86.2143467068546,0.300000000000015,13.4428009145494));
#1444=CARTESIAN_POINT('',(6.35168678426378,0.30000000000001,28.6528009145495));
#1445=CARTESIAN_POINT('',(6.3516867842638,0.300000000000011,29.2528009145494));
#1446=CARTESIAN_POINT('',(86.2143467068546,0.300000000000011,28.6528009145494));
#1447=CARTESIAN_POINT('',(13.2374909554789,0.300000000000023,22.6056018290989));
#1448=CARTESIAN_POINT('Origin',(11.2374909554789,0.300000000000016,22.6056018290989));
#1449=CARTESIAN_POINT('Origin',(6.3516867842638,0.500000000000014,28.5528009145494));
#1450=CARTESIAN_POINT('',(6.35168678426378,3.50000000000001,28.6528009145495));
#1451=CARTESIAN_POINT('',(6.3516867842638,0.500000000000013,28.6528009145495));
#1452=CARTESIAN_POINT('',(6.3516867842638,-1.49999999999999,29.0528009145494));
#1453=CARTESIAN_POINT('',(6.3516867842638,-1.49999999999999,28.5528009145494));
#1454=CARTESIAN_POINT('',(6.3516867842638,3.50000000000001,29.0528009145494));
#1455=CARTESIAN_POINT('',(6.3516867842638,0.500000000000009,29.0528009145494));
#1456=CARTESIAN_POINT('',(6.3516867842638,3.50000000000002,9.95280091454945));
#1457=CARTESIAN_POINT('Origin',(-4.08565329314539,-1.49999999999999,28.5528009145494));
#1458=CARTESIAN_POINT('',(-4.08565329314538,3.50000000000001,28.6528009145495));
#1459=CARTESIAN_POINT('',(-4.08565329314539,-0.499999999999987,28.6528009145495));
#1460=CARTESIAN_POINT('',(-4.08565329314539,3.50000000000001,29.0528009145494));
#1461=CARTESIAN_POINT('',(-4.08565329314539,3.50000000000001,29.0528009145494));
#1462=CARTESIAN_POINT('',(-4.08565329314539,-1.49999999999999,29.0528009145494));
#1463=CARTESIAN_POINT('',(-4.08565329314539,-1.49999999999999,29.0528009145494));
#1464=CARTESIAN_POINT('',(-4.08565329314539,-1.49999999999999,28.5528009145494));
#1465=CARTESIAN_POINT('Origin',(-9.76250904452106,-4.49999999999999,22.6056018290989));
#1466=CARTESIAN_POINT('',(-7.26250904452106,-4.49999999999999,22.6056018290989));
#1467=CARTESIAN_POINT('Origin',(-9.76250904452106,-4.49999999999999,22.6056018290989));
#1468=CARTESIAN_POINT('',(-7.26250904452106,-1.99999999999999,22.6056018290989));
#1469=CARTESIAN_POINT('',(-7.26250904452106,-4.49999999999999,22.6056018290989));
#1470=CARTESIAN_POINT('Origin',(-9.76250904452106,-1.99999999999999,22.6056018290989));
#1471=CARTESIAN_POINT('Origin',(-9.76250904452106,-1.99999999999999,22.6056018290989));
#1472=CARTESIAN_POINT('',(-7.76250904452106,-1.99999999999999,22.6056018290989));
#1473=CARTESIAN_POINT('Origin',(-9.76250904452106,-1.99999999999999,22.6056018290989));
#1474=CARTESIAN_POINT('Origin',(11.2374909554789,-4.49999999999999,22.6056018290989));
#1475=CARTESIAN_POINT('',(13.7374909554789,-4.49999999999999,22.6056018290989));
#1476=CARTESIAN_POINT('Origin',(11.2374909554789,-4.49999999999999,22.6056018290989));
#1477=CARTESIAN_POINT('',(13.7374909554789,-1.99999999999999,22.6056018290989));
#1478=CARTESIAN_POINT('',(13.7374909554789,-4.49999999999999,22.6056018290989));
#1479=CARTESIAN_POINT('Origin',(11.2374909554789,-1.99999999999999,22.6056018290989));
#1480=CARTESIAN_POINT('Origin',(11.2374909554789,-1.99999999999999,22.6056018290989));
#1481=CARTESIAN_POINT('',(13.2374909554789,-1.99999999999999,22.6056018290989));
#1482=CARTESIAN_POINT('Origin',(11.2374909554789,-1.99999999999999,22.6056018290989));
#1483=CARTESIAN_POINT('Origin',(11.2374909554789,-4.49999999999999,22.6056018290989));
#1484=CARTESIAN_POINT('',(13.2374909554789,-4.49999999999999,22.6056018290989));
#1485=CARTESIAN_POINT('Origin',(-9.76250904452106,-4.49999999999999,22.6056018290989));
#1486=CARTESIAN_POINT('',(-7.76250904452106,-4.49999999999999,22.6056018290989));
#1487=CARTESIAN_POINT('Origin',(-80.9856532931454,1.50000000000001,29.9528009145495));
#1488=CARTESIAN_POINT('',(-80.9856532931454,-4.49999999999999,29.9528009145495));
#1489=CARTESIAN_POINT('',(-80.9856532931454,-4.49999999999999,29.9528009145495));
#1490=CARTESIAN_POINT('',(-86.9856532931454,1.50000000000001,29.9528009145495));
#1491=CARTESIAN_POINT('Origin',(-80.9856532931454,1.50000000000001,29.9528009145495));
#1492=CARTESIAN_POINT('',(-86.9856532931454,1.50000000000001,29.9528009145495));
#1493=CARTESIAN_POINT('Origin',(86.2143467068546,-4.49999999999999,29.9528009145494));
#1494=CARTESIAN_POINT('Origin',(-28.0491307930348,-4.49999999999998,9.95280091454945));
#1495=CARTESIAN_POINT('',(83.2143467068546,-4.49999999999999,29.9528009145494));
#1496=CARTESIAN_POINT('',(83.2143467068546,-4.49999999999999,29.9528009145494));
#1497=CARTESIAN_POINT('',(43.6643467068546,-4.49999999999999,29.9528009145494));
#1498=CARTESIAN_POINT('Origin',(83.2143467068546,1.50000000000001,29.9528009145494));
#1499=CARTESIAN_POINT('',(89.2143467068546,1.5,29.9528009145494));
#1500=CARTESIAN_POINT('',(89.2143467068546,1.50000000000001,29.9528009145494));
#1501=CARTESIAN_POINT('Origin',(83.2143467068546,1.50000000000001,29.9528009145494));
#1502=CARTESIAN_POINT('Origin',(89.2143467068546,111.7,29.9528009145495));
#1503=CARTESIAN_POINT('',(89.2143467068546,108.7,29.9528009145495));
#1504=CARTESIAN_POINT('',(89.2143467068546,108.7,29.9528009145495));
#1505=CARTESIAN_POINT('',(89.2143467068546,83.9,29.9528009145495));
#1506=CARTESIAN_POINT('Origin',(83.2143467068546,108.7,29.9528009145495));
#1507=CARTESIAN_POINT('',(83.2143467068546,114.7,29.9528009145495));
#1508=CARTESIAN_POINT('',(83.2143467068546,114.7,29.9528009145495));
#1509=CARTESIAN_POINT('Origin',(83.2143467068546,108.7,29.9528009145495));
#1510=CARTESIAN_POINT('Origin',(-83.9856532931454,114.7,29.9528009145495));
#1511=CARTESIAN_POINT('',(-80.9856532931454,114.7,29.9528009145495));
#1512=CARTESIAN_POINT('',(-80.9856532931454,114.7,29.9528009145495));
#1513=CARTESIAN_POINT('',(-41.4356532931454,114.7,29.9528009145495));
#1514=CARTESIAN_POINT('Origin',(-80.9856532931454,108.7,29.9528009145495));
#1515=CARTESIAN_POINT('',(-86.9856532931454,108.7,29.9528009145495));
#1516=CARTESIAN_POINT('',(-86.9856532931454,108.7,29.9528009145495));
#1517=CARTESIAN_POINT('Origin',(-80.9856532931454,108.7,29.9528009145495));
#1518=CARTESIAN_POINT('Origin',(-86.9856532931454,0.500000000000002,29.9528009145495));
#1519=CARTESIAN_POINT('',(-86.9856532931454,28.3,29.9528009145495));
#1520=CARTESIAN_POINT('Origin',(-83.9856532931454,111.7,28.6528009145495));
#1521=CARTESIAN_POINT('',(-83.9856532931454,109.7,28.6528009145495));
#1522=CARTESIAN_POINT('Origin',(1.1143467068546,109.7,29.3028009145495));
#1523=CARTESIAN_POINT('',(43.6643467068546,109.7,29.9528009145495));
#1524=CARTESIAN_POINT('Origin',(-4.08565329314538,0.50000000000001,28.6528009145495));
#1525=CARTESIAN_POINT('',(86.2143467068546,3.50000000000001,28.6528009145494));
#1526=CARTESIAN_POINT('Origin',(86.2143467068546,0.50000000000001,28.6528009145494));
#1527=CARTESIAN_POINT('',(86.2143467068546,3.50000000000001,28.6528009145494));
#1528=CARTESIAN_POINT('Origin',(1.1143467068546,3.50000000000001,29.3028009145495));
#1529=CARTESIAN_POINT('',(-41.4356532931454,3.50000000000001,29.9528009145495));
#1530=CARTESIAN_POINT('',(6.3516867842638,3.50000000000001,29.0528009145494));
#1531=CARTESIAN_POINT('Origin',(-28.0491307930348,0.500000000000018,9.95280091454946));
#1532=CARTESIAN_POINT('Origin',(1.1330167455592,-0.499999999999986,29.0528009145494));
#1533=CARTESIAN_POINT('',(6.3516867842638,-1.49999999999999,29.0528009145494));
#1534=CARTESIAN_POINT('Origin',(6.3516867842638,-1.49999999999999,28.5528009145494));
#1535=CARTESIAN_POINT('Origin',(1.1143467068546,56.1,29.9528009145495));
#1536=CARTESIAN_POINT('Origin',(77.7143467068546,8.00000000000001,13.4428009145494));
#1537=CARTESIAN_POINT('Origin',(88.6160564931492,-4.35527109113387,13.4428009145494));
#1538=CARTESIAN_POINT('Origin',(88.6160564931492,-4.35527109113387,9.95280091454944));
#1539=CARTESIAN_POINT('Origin',(-75.4856532931454,8.00000000000002,13.4428009145495));
#1540=CARTESIAN_POINT('Origin',(-86.38736307944,-4.35527109113386,13.4428009145495));
#1541=CARTESIAN_POINT('Origin',(-86.38736307944,-4.35527109113385,9.95280091454946));
#1542=CARTESIAN_POINT('Origin',(-75.4856532931454,103.2,13.4428009145495));
#1543=CARTESIAN_POINT('Origin',(-86.7883078486027,114.502654555457,13.4428009145495));
#1544=CARTESIAN_POINT('Origin',(-86.7883078486027,114.502654555457,9.95280091454951));
#1545=CARTESIAN_POINT('Origin',(77.7143467068546,103.2,13.4428009145495));
#1546=CARTESIAN_POINT('Origin',(89.0170012623119,114.502654555457,13.4428009145495));
#1547=CARTESIAN_POINT('Origin',(89.0170012623119,114.502654555457,9.95280091454949));
#1548=UNCERTAINTY_MEASURE_WITH_UNIT(LENGTH_MEASURE(0.01),#1552,
'DISTANCE_ACCURACY_VALUE',
'Maximum model space distance between geometric entities at asserted c
onnectivities');
#1549=UNCERTAINTY_MEASURE_WITH_UNIT(LENGTH_MEASURE(0.01),#1552,
'DISTANCE_ACCURACY_VALUE',
'Maximum model space distance between geometric entities at asserted c
onnectivities');
#1550=(
GEOMETRIC_REPRESENTATION_CONTEXT(3)
GLOBAL_UNCERTAINTY_ASSIGNED_CONTEXT((#1548))
GLOBAL_UNIT_ASSIGNED_CONTEXT((#1552,#1554,#1555))
REPRESENTATION_CONTEXT('','3D')
);
#1551=(
GEOMETRIC_REPRESENTATION_CONTEXT(3)
GLOBAL_UNCERTAINTY_ASSIGNED_CONTEXT((#1549))
GLOBAL_UNIT_ASSIGNED_CONTEXT((#1552,#1554,#1555))
REPRESENTATION_CONTEXT('','3D')
);
#1552=(
LENGTH_UNIT()
NAMED_UNIT(*)
SI_UNIT(.MILLI.,.METRE.)
);
#1553=(
LENGTH_UNIT()
NAMED_UNIT(*)
SI_UNIT($,.METRE.)
);
#1554=(
NAMED_UNIT(*)
PLANE_ANGLE_UNIT()
SI_UNIT($,.RADIAN.)
);
#1555=(
NAMED_UNIT(*)
SI_UNIT($,.STERADIAN.)
SOLID_ANGLE_UNIT()
);
#1556=SHAPE_DEFINITION_REPRESENTATION(#1557,#1558);
#1557=PRODUCT_DEFINITION_SHAPE('',$,#1560);
#1558=SHAPE_REPRESENTATION('',(#952),#1550);
#1559=PRODUCT_DEFINITION_CONTEXT('part definition',#1564,'design');
#1560=PRODUCT_DEFINITION('TRMNL','TRMNL v25',#1561,#1559);
#1561=PRODUCT_DEFINITION_FORMATION('',$,#1566);
#1562=PRODUCT_RELATED_PRODUCT_CATEGORY('TRMNL v25','TRMNL v25',(#1566));
#1563=APPLICATION_PROTOCOL_DEFINITION('international standard',
'automotive_design',2009,#1564);
#1564=APPLICATION_CONTEXT(
'Core Data for Automotive Mechanical Design Process');
#1565=PRODUCT_CONTEXT('part definition',#1564,'mechanical');
#1566=PRODUCT('TRMNL','TRMNL v25',$,(#1565));
#1567=PRESENTATION_STYLE_ASSIGNMENT((#1578));
#1568=PRESENTATION_STYLE_ASSIGNMENT((#1579));
#1569=PRESENTATION_STYLE_ASSIGNMENT((#1580));
#1570=PRESENTATION_STYLE_ASSIGNMENT((#1581));
#1571=PRESENTATION_STYLE_ASSIGNMENT((#1582));
#1572=PRESENTATION_STYLE_ASSIGNMENT((#1583));
#1573=PRESENTATION_STYLE_ASSIGNMENT((#1584));
#1574=PRESENTATION_STYLE_ASSIGNMENT((#1585));
#1575=PRESENTATION_STYLE_ASSIGNMENT((#1586));
#1576=PRESENTATION_STYLE_ASSIGNMENT((#1587));
#1577=PRESENTATION_STYLE_ASSIGNMENT((#1588));
#1578=SURFACE_STYLE_USAGE(.BOTH.,#1589);
#1579=SURFACE_STYLE_USAGE(.BOTH.,#1590);
#1580=SURFACE_STYLE_USAGE(.BOTH.,#1591);
#1581=SURFACE_STYLE_USAGE(.BOTH.,#1592);
#1582=SURFACE_STYLE_USAGE(.BOTH.,#1593);
#1583=SURFACE_STYLE_USAGE(.BOTH.,#1594);
#1584=SURFACE_STYLE_USAGE(.BOTH.,#1595);
#1585=SURFACE_STYLE_USAGE(.BOTH.,#1596);
#1586=SURFACE_STYLE_USAGE(.BOTH.,#1597);
#1587=SURFACE_STYLE_USAGE(.BOTH.,#1598);
#1588=SURFACE_STYLE_USAGE(.BOTH.,#1599);
#1589=SURFACE_SIDE_STYLE('',(#1600));
#1590=SURFACE_SIDE_STYLE('',(#1601));
#1591=SURFACE_SIDE_STYLE('',(#1602));
#1592=SURFACE_SIDE_STYLE('',(#1603));
#1593=SURFACE_SIDE_STYLE('',(#1604));
#1594=SURFACE_SIDE_STYLE('',(#1605));
#1595=SURFACE_SIDE_STYLE('',(#1606));
#1596=SURFACE_SIDE_STYLE('',(#1607));
#1597=SURFACE_SIDE_STYLE('',(#1608));
#1598=SURFACE_SIDE_STYLE('',(#1609));
#1599=SURFACE_SIDE_STYLE('',(#1610));
#1600=SURFACE_STYLE_FILL_AREA(#1611);
#1601=SURFACE_STYLE_FILL_AREA(#1612);
#1602=SURFACE_STYLE_FILL_AREA(#1613);
#1603=SURFACE_STYLE_FILL_AREA(#1614);
#1604=SURFACE_STYLE_FILL_AREA(#1615);
#1605=SURFACE_STYLE_FILL_AREA(#1616);
#1606=SURFACE_STYLE_FILL_AREA(#1617);
#1607=SURFACE_STYLE_FILL_AREA(#1618);
#1608=SURFACE_STYLE_FILL_AREA(#1619);
#1609=SURFACE_STYLE_FILL_AREA(#1620);
#1610=SURFACE_STYLE_FILL_AREA(#1621);
#1611=FILL_AREA_STYLE('Steel - Satin',(#1622));
#1612=FILL_AREA_STYLE('ABS (White)',(#1623));
#1613=FILL_AREA_STYLE('Opaque(255,255,255)',(#1624));
#1614=FILL_AREA_STYLE('Opaque(255,215,0)',(#1625));
#1615=FILL_AREA_STYLE('Opaque(76,76,76)',(#1626));
#1616=FILL_AREA_STYLE('Opaque(229,235,237)',(#1627));
#1617=FILL_AREA_STYLE('Opaque(160,160,160)',(#1628));
#1618=FILL_AREA_STYLE('Opaque(53,54,54)',(#1629));
#1619=FILL_AREA_STYLE('Opaque(244,229,167)',(#1630));
#1620=FILL_AREA_STYLE('Opaque(236,236,236)',(#1631));
#1621=FILL_AREA_STYLE('Opaque(38,38,38)',(#1632));
#1622=FILL_AREA_STYLE_COLOUR('Steel - Satin',#1633);
#1623=FILL_AREA_STYLE_COLOUR('ABS (White)',#1634);
#1624=FILL_AREA_STYLE_COLOUR('Opaque(255,255,255)',#1635);
#1625=FILL_AREA_STYLE_COLOUR('Opaque(255,215,0)',#1636);
#1626=FILL_AREA_STYLE_COLOUR('Opaque(76,76,76)',#1637);
#1627=FILL_AREA_STYLE_COLOUR('Opaque(229,235,237)',#1638);
#1628=FILL_AREA_STYLE_COLOUR('Opaque(160,160,160)',#1639);
#1629=FILL_AREA_STYLE_COLOUR('Opaque(53,54,54)',#1640);
#1630=FILL_AREA_STYLE_COLOUR('Opaque(244,229,167)',#1641);
#1631=FILL_AREA_STYLE_COLOUR('Opaque(236,236,236)',#1642);
#1632=FILL_AREA_STYLE_COLOUR('Opaque(38,38,38)',#1643);
#1633=COLOUR_RGB('Steel - Satin',0.627450980392157,0.627450980392157,0.627450980392157);
#1634=COLOUR_RGB('ABS (White)',0.964705882352941,0.964705882352941,0.952941176470588);
#1635=COLOUR_RGB('Opaque(255,255,255)',1.,1.,1.);
#1636=COLOUR_RGB('Opaque(255,215,0)',1.,0.843137254901961,0.);
#1637=COLOUR_RGB('Opaque(76,76,76)',0.298039215686275,0.298039215686275,
0.298039215686275);
#1638=COLOUR_RGB('Opaque(229,235,237)',0.898039215686275,0.92156862745098,
0.929411764705882);
#1639=COLOUR_RGB('Opaque(160,160,160)',0.627450980392157,0.627450980392157,
0.627450980392157);
#1640=COLOUR_RGB('Opaque(53,54,54)',0.207843137254902,0.211764705882353,
0.211764705882353);
#1641=COLOUR_RGB('Opaque(244,229,167)',0.956862745098039,0.898039215686275,
0.654901960784314);
#1642=COLOUR_RGB('Opaque(236,236,236)',0.925490196078431,0.925490196078431,
0.925490196078431);
#1643=COLOUR_RGB('Opaque(38,38,38)',0.149019607843137,0.149019607843137,
0.149019607843137);
ENDSEC;
END-ISO-10303-21;
