# WaveFront *.obj file (generated by Autodesk ATF)

mtllib NordicTRMNLCase.mtl

g Body2

v 8.621435 1.550000 0.995280
v 8.154405 1.435266 0.995280
v 7.728266 1.212363 0.995280
v 7.367656 0.894178 0.995280
v 7.093427 0.499109 0.995280
v 6.921435 0.050000 0.995280
v 6.921435 0.050000 1.344280
v 7.093427 0.499109 1.344280
v 7.367656 0.894178 1.344280
v 7.728266 1.212363 1.344280
v 8.154405 1.435266 1.344280
v 8.621435 1.550000 1.344280
v 8.621435 0.050000 1.344280
v 8.621435 0.050000 2.865280
v 8.621435 0.350000 2.865280
v 8.621435 0.350000 2.995280
v 8.621435 10.970000 2.995280
v 8.621435 10.970000 2.865280
v 8.621435 11.170000 2.865280
v 8.621435 11.170000 1.344280
v 8.621435 9.470000 1.344280
v 8.621435 9.470000 0.995280
v 0.635169 0.050000 0.995280
v 0.635169 0.050000 2.865280
v 1.323749 0.050000 2.260560
v 1.316934 0.050000 2.312324
v 1.296954 0.050000 2.360560
v 1.265170 0.050000 2.401982
v 1.223749 0.050000 2.433765
v 1.175513 0.050000 2.453745
v 1.123749 0.050000 2.460560
v 1.071985 0.050000 2.453745
v 1.023749 0.050000 2.433765
v 0.982328 0.050000 2.401982
v 0.950544 0.050000 2.360560
v 0.930564 0.050000 2.312324
v 0.923749 0.050000 2.260560
v 0.930564 0.050000 2.208796
v 0.950544 0.050000 2.160560
v 0.982328 0.050000 2.119139
v 1.023749 0.050000 2.087355
v 1.071985 0.050000 2.067375
v 1.123749 0.050000 2.060560
v 1.175513 0.050000 2.067375
v 1.223749 0.050000 2.087355
v 1.265170 0.050000 2.119139
v 1.296954 0.050000 2.160560
v 1.316934 0.050000 2.208796
v 6.921435 11.170000 1.344280
v 7.058425 10.674162 1.344280
v 7.317357 10.229668 1.344280
v 7.681103 9.865923 1.344280
v 8.125597 9.606990 1.344280
v 6.921435 11.170000 0.995280
v 7.058425 10.674162 0.995280
v 7.317357 10.229668 0.995280
v 7.681103 9.865923 0.995280
v 8.125597 9.606990 0.995280
v 0.111435 11.170000 0.995280
v -6.698565 11.170000 0.995280
v -6.835555 10.674162 0.995280
v -7.094488 10.229668 0.995280
v -7.458233 9.865923 0.995280
v -7.902728 9.606990 0.995280
v -8.398565 9.470000 0.995280
v -8.398565 1.550000 0.995280
v -7.931536 1.435266 0.995280
v -7.505396 1.212363 0.995280
v -7.144787 0.894178 0.995280
v -6.870558 0.499109 0.995280
v -6.698565 0.050000 0.995280
v -3.204913 0.050000 0.995280
v -3.204913 -0.450000 0.995280
v -8.098565 -0.450000 0.995280
v -8.253857 -0.429555 0.995280
v -8.398565 -0.369615 0.995280
v -8.522829 -0.274264 0.995280
v -8.618181 -0.150000 0.995280
v -8.678121 -0.005291 0.995280
v -8.698565 0.150000 0.995280
v -8.698565 10.870000 0.995280
v -8.678121 11.025291 0.995280
v -8.618181 11.170000 0.995280
v -8.522829 11.294264 0.995280
v -8.398565 11.389615 0.995280
v -8.253857 11.449555 0.995280
v -8.098565 11.470000 0.995280
v 0.111435 11.470000 0.995280
v 8.321435 11.470000 0.995280
v 8.476726 11.449555 0.995280
v 8.621435 11.389615 0.995280
v 8.745699 11.294264 0.995280
v 8.841050 11.170000 0.995280
v 8.900990 11.025291 0.995280
v 8.921435 10.870000 0.995280
v 8.921435 0.150000 0.995280
v 8.900990 -0.005291 0.995280
v 8.841050 -0.150000 0.995280
v 8.745699 -0.274264 0.995280
v 8.621435 -0.369615 0.995280
v 8.476726 -0.429555 0.995280
v 8.321435 -0.450000 0.995280
v -2.404913 -0.450000 0.995280
v -2.404913 0.050000 0.995280
v -0.408565 0.050000 0.995280
v -0.408565 -0.150000 0.995280
v 0.635169 -0.150000 0.995280
v -6.698565 11.170000 1.344280
v -6.835555 10.674162 1.344280
v -7.094488 10.229668 1.344280
v -7.458233 9.865923 1.344280
v -7.902728 9.606990 1.344280
v -8.398565 9.470000 1.344280
v -8.398565 11.170000 1.344280
v -8.398565 11.170000 2.865280
v -8.398565 10.970000 2.865280
v -8.398565 10.970000 2.995280
v -8.398565 0.350000 2.995280
v -8.398565 0.350000 2.865280
v -8.398565 0.050000 2.865280
v -8.398565 0.050000 1.344280
v -8.398565 1.550000 1.344280
v 0.111435 11.170000 2.865280
v -6.698565 0.050000 1.344280
v -6.870558 0.499109 1.344280
v -7.144787 0.894178 1.344280
v -7.505396 1.212363 1.344280
v -7.931536 1.435266 1.344280
v 0.635169 -0.150000 2.905280
v 0.635169 0.350000 2.905280
v 0.635169 0.350000 2.865280
v -0.408565 0.050000 2.865280
v -2.418543 0.050000 1.098808
v -2.458503 0.050000 1.195280
v -2.522070 0.050000 1.278123
v -2.604913 0.050000 1.341690
v -2.701385 0.050000 1.381650
v -2.804913 0.050000 1.395280
v -2.908441 0.050000 1.381650
v -3.004913 0.050000 1.341690
v -3.087756 0.050000 1.278123
v -3.151323 0.050000 1.195280
v -3.191283 0.050000 1.098808
v -0.776251 0.050000 2.260560
v -0.783066 0.050000 2.312324
v -0.803046 0.050000 2.360560
v -0.834830 0.050000 2.401982
v -0.876251 0.050000 2.433765
v -0.924487 0.050000 2.453745
v -0.976251 0.050000 2.460560
v -1.028015 0.050000 2.453745
v -1.076251 0.050000 2.433765
v -1.117672 0.050000 2.401982
v -1.149456 0.050000 2.360560
v -1.169436 0.050000 2.312324
v -1.176251 0.050000 2.260560
v -1.169436 0.050000 2.208796
v -1.149456 0.050000 2.160560
v -1.117672 0.050000 2.119139
v -1.076251 0.050000 2.087355
v -1.028015 0.050000 2.067375
v -0.976251 0.050000 2.060560
v -0.924487 0.050000 2.067375
v -0.876251 0.050000 2.087355
v -0.834830 0.050000 2.119139
v -0.803046 0.050000 2.160560
v -0.783066 0.050000 2.208796
v -0.408565 0.350000 2.865280
v -0.408565 0.350000 2.905280
v -0.408565 -0.150000 2.905280
v -0.726251 -0.200000 2.260560
v -0.734769 -0.200000 2.195855
v -0.759745 -0.200000 2.135560
v -0.799474 -0.200000 2.083783
v -0.851251 -0.200000 2.044054
v -0.911546 -0.200000 2.019079
v -0.976251 -0.200000 2.010560
v -1.040956 -0.200000 2.019079
v -1.101251 -0.200000 2.044054
v -1.153028 -0.200000 2.083783
v -1.192757 -0.200000 2.135560
v -1.217732 -0.200000 2.195855
v -1.226251 -0.200000 2.260560
v -1.217732 -0.200000 2.325265
v -1.192757 -0.200000 2.385560
v -1.153028 -0.200000 2.437337
v -1.101251 -0.200000 2.477067
v -1.040956 -0.200000 2.502042
v -0.976251 -0.200000 2.510560
v -0.911546 -0.200000 2.502042
v -0.851251 -0.200000 2.477067
v -0.799474 -0.200000 2.437337
v -0.759745 -0.200000 2.385560
v -0.734769 -0.200000 2.325265
v -0.726251 -0.450000 2.260560
v -0.734769 -0.450000 2.325265
v -0.759745 -0.450000 2.385560
v -0.799474 -0.450000 2.437337
v -0.851251 -0.450000 2.477067
v -0.911546 -0.450000 2.502042
v -0.976251 -0.450000 2.510560
v -1.040956 -0.450000 2.502042
v -1.101251 -0.450000 2.477067
v -1.153028 -0.450000 2.437337
v -1.192757 -0.450000 2.385560
v -1.217732 -0.450000 2.325265
v -1.226251 -0.450000 2.260560
v -1.217732 -0.450000 2.195855
v -1.192757 -0.450000 2.135560
v -1.153028 -0.450000 2.083783
v -1.101251 -0.450000 2.044054
v -1.040956 -0.450000 2.019079
v -0.976251 -0.450000 2.010560
v -0.911546 -0.450000 2.019079
v -0.851251 -0.450000 2.044054
v -0.799474 -0.450000 2.083783
v -0.759745 -0.450000 2.135560
v -0.734769 -0.450000 2.195855
v -0.776251 -0.200000 2.260560
v -0.783066 -0.200000 2.208796
v -0.803046 -0.200000 2.160560
v -0.834830 -0.200000 2.119139
v -0.876251 -0.200000 2.087355
v -0.924487 -0.200000 2.067375
v -0.976251 -0.200000 2.060560
v -1.028015 -0.200000 2.067375
v -1.076251 -0.200000 2.087355
v -1.117672 -0.200000 2.119139
v -1.149456 -0.200000 2.160560
v -1.169436 -0.200000 2.208796
v -1.176251 -0.200000 2.260560
v -1.169436 -0.200000 2.312324
v -1.149456 -0.200000 2.360560
v -1.117672 -0.200000 2.401982
v -1.076251 -0.200000 2.433765
v -1.028015 -0.200000 2.453745
v -0.976251 -0.200000 2.460560
v -0.924487 -0.200000 2.453745
v -0.876251 -0.200000 2.433765
v -0.834830 -0.200000 2.401982
v -0.803046 -0.200000 2.360560
v -0.783066 -0.200000 2.312324
v 1.373749 -0.200000 2.260560
v 1.365231 -0.200000 2.195855
v 1.340255 -0.200000 2.135560
v 1.300526 -0.200000 2.083783
v 1.248749 -0.200000 2.044054
v 1.188454 -0.200000 2.019079
v 1.123749 -0.200000 2.010560
v 1.059044 -0.200000 2.019079
v 0.998749 -0.200000 2.044054
v 0.946972 -0.200000 2.083783
v 0.907243 -0.200000 2.135560
v 0.882268 -0.200000 2.195855
v 0.873749 -0.200000 2.260560
v 0.882268 -0.200000 2.325265
v 0.907243 -0.200000 2.385560
v 0.946972 -0.200000 2.437337
v 0.998749 -0.200000 2.477067
v 1.059044 -0.200000 2.502042
v 1.123749 -0.200000 2.510560
v 1.188454 -0.200000 2.502042
v 1.248749 -0.200000 2.477067
v 1.300526 -0.200000 2.437337
v 1.340255 -0.200000 2.385560
v 1.365231 -0.200000 2.325265
v 1.373749 -0.450000 2.260560
v 1.365231 -0.450000 2.325265
v 1.340255 -0.450000 2.385560
v 1.300526 -0.450000 2.437337
v 1.248749 -0.450000 2.477067
v 1.188454 -0.450000 2.502042
v 1.123749 -0.450000 2.510560
v 1.059044 -0.450000 2.502042
v 0.998749 -0.450000 2.477067
v 0.946972 -0.450000 2.437337
v 0.907243 -0.450000 2.385560
v 0.882268 -0.450000 2.325265
v 0.873749 -0.450000 2.260560
v 0.882268 -0.450000 2.195855
v 0.907243 -0.450000 2.135560
v 0.946972 -0.450000 2.083783
v 0.998749 -0.450000 2.044054
v 1.059044 -0.450000 2.019079
v 1.123749 -0.450000 2.010560
v 1.188454 -0.450000 2.019079
v 1.248749 -0.450000 2.044054
v 1.300526 -0.450000 2.083783
v 1.340255 -0.450000 2.135560
v 1.365231 -0.450000 2.195855
v 1.323749 -0.200000 2.260560
v 1.316934 -0.200000 2.208796
v 1.296954 -0.200000 2.160560
v 1.265170 -0.200000 2.119139
v 1.223749 -0.200000 2.087355
v 1.175513 -0.200000 2.067375
v 1.123749 -0.200000 2.060560
v 1.071985 -0.200000 2.067375
v 1.023749 -0.200000 2.087355
v 0.982328 -0.200000 2.119139
v 0.950544 -0.200000 2.160560
v 0.930564 -0.200000 2.208796
v 0.923749 -0.200000 2.260560
v 0.930564 -0.200000 2.312324
v 0.950544 -0.200000 2.360560
v 0.982328 -0.200000 2.401982
v 1.023749 -0.200000 2.433765
v 1.071985 -0.200000 2.453745
v 1.123749 -0.200000 2.460560
v 1.175513 -0.200000 2.453745
v 1.223749 -0.200000 2.433765
v 1.265170 -0.200000 2.401982
v 1.296954 -0.200000 2.360560
v 1.316934 -0.200000 2.312324
v -8.098565 -0.450000 2.995280
v -8.253857 -0.429555 2.995280
v -8.398565 -0.369615 2.995280
v -8.522829 -0.274264 2.995280
v -8.618181 -0.150000 2.995280
v -8.678121 -0.005291 2.995280
v -8.698565 0.150000 2.995280
v -3.191283 -0.450000 1.098808
v -3.151323 -0.450000 1.195280
v -3.087756 -0.450000 1.278123
v -3.004913 -0.450000 1.341690
v -2.908441 -0.450000 1.381650
v -2.804913 -0.450000 1.395280
v -2.701385 -0.450000 1.381650
v -2.604913 -0.450000 1.341690
v -2.522070 -0.450000 1.278123
v -2.458503 -0.450000 1.195280
v -2.418543 -0.450000 1.098808
v 8.321435 -0.450000 2.995280
v 0.111435 -0.450000 2.995280
v 0.111435 -0.450000 2.510560
v 8.921435 0.150000 2.995280
v 8.900990 -0.005291 2.995280
v 8.841050 -0.150000 2.995280
v 8.745699 -0.274264 2.995280
v 8.621435 -0.369615 2.995280
v 8.476726 -0.429555 2.995280
v 8.921435 10.870000 2.995280
v 8.321435 11.470000 2.995280
v 8.476726 11.449555 2.995280
v 8.621435 11.389615 2.995280
v 8.745699 11.294264 2.995280
v 8.841050 11.170000 2.995280
v 8.900990 11.025291 2.995280
v -8.098565 11.470000 2.995280
v 0.111435 11.470000 2.995280
v -8.698565 10.870000 2.995280
v -8.678121 11.025291 2.995280
v -8.618181 11.170000 2.995280
v -8.522829 11.294264 2.995280
v -8.398565 11.389615 2.995280
v -8.253857 11.449555 2.995280
v 0.111435 10.970000 2.865280
v 0.111435 10.970000 2.995280
v 0.111435 0.350000 2.995280
vt -0.349000 0.000000 0.000000
vt 0.000000 0.000000 0.000000
vt -0.349000 0.482083 0.000000
vt 0.000000 0.482083 0.000000
vt -0.349000 0.964165 0.000000
vt -0.000000 0.964165 0.000000
vt -0.349000 1.446248 0.000000
vt -0.000000 1.446248 0.000000
vt -0.349000 1.928331 0.000000
vt -0.000000 1.928331 0.000000
vt -0.349000 2.410413 0.000000
vt 0.000000 2.410413 0.000000
vt 0.850000 0.750000 0.000000
vt 0.382970 0.635266 0.000000
vt 0.850000 -0.750000 0.000000
vt -0.043169 0.412363 0.000000
vt -0.403778 0.094178 0.000000
vt -0.678007 -0.300891 0.000000
vt -0.850000 -0.750000 0.000000
vt -1.700000 2.000000 0.000000
vt -9.620000 2.000000 0.000000
vt -1.700000 1.651000 0.000000
vt -9.620000 1.651000 0.000000
vt -10.820000 0.130000 0.000000
vt -11.120000 1.651000 0.000000
vt -11.120000 0.130000 0.000000
vt -10.820000 0.000000 0.000000
vt -0.200000 -0.000000 0.000000
vt -0.200000 0.130000 0.000000
vt 0.000000 1.651000 0.000000
vt -0.000000 0.130000 0.000000
vt 0.000000 1.651000 0.000000
vt -1.700000 1.651000 0.000000
vt 0.000000 0.130000 0.000000
vt -7.297686 0.734720 0.000000
vt -7.304500 0.682956 0.000000
vt -1.700000 2.000000 0.000000
vt -7.986266 2.000000 0.000000
vt -7.445922 0.927905 0.000000
vt -7.397686 0.907925 0.000000
vt -7.986266 0.130000 0.000000
vt -7.690871 0.786484 0.000000
vt -7.670891 0.834720 0.000000
vt -7.639107 0.876141 0.000000
vt -7.445922 0.541535 0.000000
vt -7.497686 0.534720 0.000000
vt -7.549449 0.541535 0.000000
vt -7.324480 0.634720 0.000000
vt -7.356264 0.593299 0.000000
vt -7.397686 0.561515 0.000000
vt -7.597686 0.561515 0.000000
vt -7.639107 0.593299 0.000000
vt -7.670891 0.634720 0.000000
vt -7.690871 0.682956 0.000000
vt -7.697686 0.734720 0.000000
vt -7.597686 0.907925 0.000000
vt -7.549449 0.927905 0.000000
vt -7.497686 0.934720 0.000000
vt -7.356264 0.876141 0.000000
vt -7.324480 0.834720 0.000000
vt -7.304500 0.786484 0.000000
vt 0.850000 -0.850000 0.000000
vt 0.850000 0.850000 0.000000
vt 0.354162 -0.713010 0.000000
vt -0.090332 -0.454077 0.000000
vt -0.454077 -0.090332 0.000000
vt -0.713010 0.354162 0.000000
vt -0.850000 0.850000 0.000000
vt -0.349000 0.000000 0.000000
vt 0.000000 0.000000 0.000000
vt -0.349000 0.515842 0.000000
vt -0.000000 0.515842 0.000000
vt -0.349000 1.031684 0.000000
vt -0.000000 1.031684 0.000000
vt -0.349000 1.547526 0.000000
vt 0.000000 1.547526 0.000000
vt -0.349000 2.063369 0.000000
vt -0.000000 2.063369 0.000000
vt -0.349000 2.579211 0.000000
vt 0.000000 2.579211 0.000000
vt -8.042970 -4.174734 0.000000
vt -8.510000 -4.060000 0.000000
vt -8.810000 -5.460000 0.000000
vt -8.510000 3.860000 0.000000
vt -8.810000 5.260000 0.000000
vt -8.014162 3.996990 0.000000
vt -8.210000 5.860000 0.000000
vt -7.569668 4.255923 0.000000
vt -7.205923 4.619668 0.000000
vt -6.946990 5.064162 0.000000
vt -6.810000 5.560000 0.000000
vt 0.000000 5.860000 0.000000
vt -0.000000 5.560000 0.000000
vt 6.810000 5.560000 0.000000
vt 8.210000 5.860000 0.000000
vt 6.946990 5.064162 0.000000
vt 7.205923 4.619668 0.000000
vt 7.569668 4.255923 0.000000
vt 8.014162 3.996990 0.000000
vt 8.810000 5.260000 0.000000
vt 8.510000 3.860000 0.000000
vt 8.810000 -5.460000 0.000000
vt 8.510000 -4.060000 0.000000
vt 8.042970 -4.174734 0.000000
vt 8.210000 -6.060000 0.000000
vt 7.616831 -4.397637 0.000000
vt 7.256222 -4.715822 0.000000
vt 6.981993 -5.110891 0.000000
vt 6.810000 -5.560000 0.000000
vt 3.316348 -6.060000 0.000000
vt 3.316348 -5.560000 0.000000
vt 8.365291 -6.039555 0.000000
vt 8.510000 -5.979615 0.000000
vt 8.634264 -5.884264 0.000000
vt 8.729615 -5.760000 0.000000
vt 8.789555 -5.615291 0.000000
vt 8.789555 5.415291 0.000000
vt 8.729615 5.560000 0.000000
vt 8.634264 5.684264 0.000000
vt 8.510000 5.779615 0.000000
vt 8.365291 5.839555 0.000000
vt -8.365291 5.839555 0.000000
vt -8.510000 5.779615 0.000000
vt -8.634264 5.684264 0.000000
vt -8.729615 5.560000 0.000000
vt -8.789555 5.415291 0.000000
vt -8.789555 -5.615291 0.000000
vt -8.729615 -5.760000 0.000000
vt -8.634264 -5.884264 0.000000
vt -8.510000 -5.979615 0.000000
vt -8.365291 -6.039555 0.000000
vt -8.210000 -6.060000 0.000000
vt -7.616831 -4.397637 0.000000
vt -7.256222 -4.715822 0.000000
vt -6.981993 -5.110891 0.000000
vt -6.810000 -5.560000 0.000000
vt -0.523734 -5.760000 0.000000
vt -0.523734 -5.560000 0.000000
vt 2.516348 -6.060000 0.000000
vt 0.520000 -5.760000 0.000000
vt 2.516348 -5.560000 0.000000
vt 0.520000 -5.560000 0.000000
vt -0.349000 -0.000000 0.000000
vt -0.000000 0.000000 0.000000
vt -0.349000 0.515842 0.000000
vt -0.000000 0.515842 0.000000
vt -0.349000 1.031684 0.000000
vt 0.000000 1.031684 0.000000
vt -0.349000 1.547526 0.000000
vt 0.000000 1.547526 0.000000
vt -0.349000 2.063369 0.000000
vt -0.000000 2.063369 0.000000
vt -0.349000 2.579211 0.000000
vt 0.000000 2.579211 0.000000
vt -0.850000 -0.850000 0.000000
vt -0.354162 -0.713010 0.000000
vt -0.850000 0.850000 0.000000
vt 0.090332 -0.454077 0.000000
vt 0.454077 -0.090332 0.000000
vt 0.713010 0.354162 0.000000
vt 0.850000 0.850000 0.000000
vt -1.500000 2.000000 0.000000
vt -9.420000 2.000000 0.000000
vt -1.500000 1.651000 0.000000
vt -9.420000 1.651000 0.000000
vt -0.300000 0.130000 0.000000
vt -10.920000 0.130000 0.000000
vt -0.300000 -0.000000 0.000000
vt -10.920000 -0.000000 0.000000
vt -11.120000 1.651000 0.000000
vt -11.120000 0.130000 0.000000
vt -0.000000 0.130000 0.000000
vt -0.000000 1.651000 0.000000
vt -17.020000 1.651000 0.000000
vt -17.020000 0.130000 0.000000
vt -15.320000 1.651000 0.000000
vt -8.510000 0.130000 0.000000
vt -8.510000 2.000000 0.000000
vt -1.700000 1.651000 0.000000
vt -1.700000 2.000000 0.000000
vt -0.000000 0.130000 0.000000
vt -0.000000 1.651000 0.000000
vt -15.320000 2.000000 0.000000
vt -0.850000 0.750000 0.000000
vt -0.850000 -0.750000 0.000000
vt -0.382970 0.635266 0.000000
vt 0.043169 0.412363 0.000000
vt 0.403778 0.094178 0.000000
vt 0.678007 -0.300891 0.000000
vt 0.850000 -0.750000 0.000000
vt -0.349000 -0.000000 0.000000
vt -0.000000 -0.000000 0.000000
vt -0.349000 0.482083 0.000000
vt -0.000000 0.482083 0.000000
vt -0.349000 0.964165 0.000000
vt -0.000000 0.964165 0.000000
vt -0.349000 1.446248 0.000000
vt 0.000000 1.446248 0.000000
vt -0.349000 1.928331 0.000000
vt -0.000000 1.928331 0.000000
vt -0.349000 2.410413 0.000000
vt -0.000000 2.410413 0.000000
vt -0.000000 1.860000 0.000000
vt -0.200000 1.860000 0.000000
vt -0.000000 -0.010000 0.000000
vt -0.200000 -0.050000 0.000000
vt 0.300000 -0.050000 0.000000
vt 0.300000 -0.010000 0.000000
vt -17.020000 1.651000 0.000000
vt -17.020000 0.130000 0.000000
vt -15.320000 1.651000 0.000000
vt -11.529875 1.613630 0.000000
vt -11.626348 1.653590 0.000000
vt -9.030000 0.130000 0.000000
vt -9.649449 0.541535 0.000000
vt -9.697686 0.561515 0.000000
vt -9.739107 0.593299 0.000000
vt -9.030000 2.000000 0.000000
vt -9.404500 0.786484 0.000000
vt -9.397686 0.734720 0.000000
vt -9.404500 0.682956 0.000000
vt -11.026348 2.000000 0.000000
vt -11.039977 1.896472 0.000000
vt -11.079938 1.800000 0.000000
vt -11.143505 1.717157 0.000000
vt -11.226348 1.653590 0.000000
vt -9.597686 0.934720 0.000000
vt -9.545922 0.927905 0.000000
vt -11.322820 1.613630 0.000000
vt -9.649449 0.927905 0.000000
vt -11.426348 1.600000 0.000000
vt -9.697686 0.907925 0.000000
vt -9.739107 0.876141 0.000000
vt -9.770891 0.834720 0.000000
vt -9.790871 0.786484 0.000000
vt -9.797686 0.734720 0.000000
vt -9.790871 0.682956 0.000000
vt -9.770891 0.634720 0.000000
vt -11.709190 1.717157 0.000000
vt -11.772758 1.800000 0.000000
vt -11.812718 1.896472 0.000000
vt -11.826348 2.000000 0.000000
vt -15.320000 2.000000 0.000000
vt -9.424480 0.634720 0.000000
vt -9.456264 0.593299 0.000000
vt -9.497686 0.561515 0.000000
vt -9.545922 0.541535 0.000000
vt -9.597686 0.534720 0.000000
vt -9.497686 0.907925 0.000000
vt -9.456264 0.876141 0.000000
vt -9.424480 0.834720 0.000000
vt -0.200000 1.860000 0.000000
vt -0.200000 -0.010000 0.000000
vt -0.000000 1.860000 0.000000
vt 0.000000 -0.050000 0.000000
vt -0.500000 -0.050000 0.000000
vt -0.500000 -0.010000 0.000000
vt 0.250000 -0.719948 0.000000
vt 0.000000 -0.719948 0.000000
vt 0.250000 -0.785398 0.000000
vt 0.000000 -0.785398 0.000000
vt 0.250000 0.785398 0.000000
vt 0.000000 0.785398 0.000000
vt 0.250000 0.719948 0.000000
vt 0.000000 0.719948 0.000000
vt 0.250000 0.654498 0.000000
vt 0.000000 0.654498 0.000000
vt 0.250000 0.589049 0.000000
vt 0.000000 0.589049 0.000000
vt 0.250000 0.523599 0.000000
vt 0.000000 0.523599 0.000000
vt 0.250000 0.458149 0.000000
vt 0.000000 0.458149 0.000000
vt 0.250000 0.392699 0.000000
vt 0.000000 0.392699 0.000000
vt 0.250000 0.327249 0.000000
vt 0.000000 0.327249 0.000000
vt 0.250000 0.261799 0.000000
vt 0.000000 0.261799 0.000000
vt 0.250000 0.196350 0.000000
vt 0.000000 0.196350 0.000000
vt 0.250000 0.130900 0.000000
vt 0.000000 0.130900 0.000000
vt 0.250000 0.065450 0.000000
vt 0.000000 0.065450 0.000000
vt 0.250000 0.000000 0.000000
vt 0.000000 0.000000 0.000000
vt 0.250000 -0.065450 0.000000
vt 0.000000 -0.065450 0.000000
vt 0.250000 -0.130900 0.000000
vt 0.000000 -0.130900 0.000000
vt 0.250000 -0.196350 0.000000
vt 0.000000 -0.196350 0.000000
vt 0.250000 -0.261799 0.000000
vt 0.000000 -0.261799 0.000000
vt 0.250000 -0.327249 0.000000
vt 0.000000 -0.327249 0.000000
vt 0.250000 -0.392699 0.000000
vt 0.000000 -0.392699 0.000000
vt 0.250000 -0.458149 0.000000
vt 0.000000 -0.458149 0.000000
vt 0.250000 -0.523599 0.000000
vt 0.000000 -0.523599 0.000000
vt 0.250000 -0.589049 0.000000
vt 0.000000 -0.589049 0.000000
vt 0.250000 -0.654498 0.000000
vt 0.000000 -0.654498 0.000000
vt 0.193185 -0.051764 0.000000
vt 0.241481 -0.064705 0.000000
vt 0.200000 -0.000000 0.000000
vt 0.250000 -0.000000 0.000000
vt 0.193185 0.051764 0.000000
vt 0.241481 0.064705 0.000000
vt 0.173205 0.100000 0.000000
vt 0.216506 0.125000 0.000000
vt 0.141421 0.141421 0.000000
vt 0.176777 0.176777 0.000000
vt 0.100000 0.173205 0.000000
vt 0.125000 0.216506 0.000000
vt 0.051764 0.193185 0.000000
vt 0.064705 0.241481 0.000000
vt 0.000000 0.200000 0.000000
vt 0.000000 0.250000 0.000000
vt -0.064705 0.241481 0.000000
vt 0.173205 -0.100000 0.000000
vt 0.216506 -0.125000 0.000000
vt 0.141421 -0.141421 0.000000
vt 0.176777 -0.176777 0.000000
vt 0.100000 -0.173205 0.000000
vt 0.125000 -0.216506 0.000000
vt 0.051764 -0.193185 0.000000
vt 0.064705 -0.241481 0.000000
vt -0.000000 -0.200000 0.000000
vt -0.000000 -0.250000 0.000000
vt -0.064705 -0.241481 0.000000
vt -0.051764 -0.193185 0.000000
vt -0.125000 -0.216506 0.000000
vt -0.100000 -0.173205 0.000000
vt -0.176777 -0.176777 0.000000
vt -0.141421 -0.141421 0.000000
vt -0.216506 -0.125000 0.000000
vt -0.173205 -0.100000 0.000000
vt -0.241481 -0.064705 0.000000
vt -0.193185 -0.051764 0.000000
vt -0.250000 0.000000 0.000000
vt -0.200000 0.000000 0.000000
vt -0.193185 0.051764 0.000000
vt -0.241481 0.064705 0.000000
vt -0.173205 0.100000 0.000000
vt -0.216506 0.125000 0.000000
vt -0.141421 0.141421 0.000000
vt -0.176777 0.176777 0.000000
vt -0.100000 0.173205 0.000000
vt -0.125000 0.216506 0.000000
vt -0.051764 0.193185 0.000000
vt 0.250000 -0.719948 0.000000
vt 0.000000 -0.719948 0.000000
vt 0.250000 -0.785398 0.000000
vt 0.000000 -0.785398 0.000000
vt 0.250000 0.785398 0.000000
vt 0.000000 0.785398 0.000000
vt 0.250000 0.719948 0.000000
vt 0.000000 0.719948 0.000000
vt 0.250000 0.654498 0.000000
vt 0.000000 0.654498 0.000000
vt 0.250000 0.589049 0.000000
vt 0.000000 0.589049 0.000000
vt 0.250000 0.523599 0.000000
vt 0.000000 0.523599 0.000000
vt 0.250000 0.458149 0.000000
vt 0.000000 0.458149 0.000000
vt 0.250000 0.392699 0.000000
vt 0.000000 0.392699 0.000000
vt 0.250000 0.327249 0.000000
vt 0.000000 0.327249 0.000000
vt 0.250000 0.261799 0.000000
vt 0.000000 0.261799 0.000000
vt 0.250000 0.196350 0.000000
vt 0.000000 0.196350 0.000000
vt 0.250000 0.130900 0.000000
vt 0.000000 0.130900 0.000000
vt 0.250000 0.065450 0.000000
vt 0.000000 0.065450 0.000000
vt 0.250000 0.000000 0.000000
vt 0.000000 0.000000 0.000000
vt 0.250000 -0.065450 0.000000
vt 0.000000 -0.065450 0.000000
vt 0.250000 -0.130900 0.000000
vt 0.000000 -0.130900 0.000000
vt 0.250000 -0.196350 0.000000
vt 0.000000 -0.196350 0.000000
vt 0.250000 -0.261799 0.000000
vt 0.000000 -0.261799 0.000000
vt 0.250000 -0.327249 0.000000
vt 0.000000 -0.327249 0.000000
vt 0.250000 -0.392699 0.000000
vt 0.000000 -0.392699 0.000000
vt 0.250000 -0.458149 0.000000
vt 0.000000 -0.458149 0.000000
vt 0.250000 -0.523599 0.000000
vt 0.000000 -0.523599 0.000000
vt 0.250000 -0.589049 0.000000
vt 0.000000 -0.589049 0.000000
vt 0.250000 -0.654498 0.000000
vt 0.000000 -0.654498 0.000000
vt 0.193185 -0.051764 0.000000
vt 0.241481 -0.064705 0.000000
vt 0.200000 -0.000000 0.000000
vt 0.250000 -0.000000 0.000000
vt 0.193185 0.051764 0.000000
vt 0.241481 0.064705 0.000000
vt 0.173205 0.100000 0.000000
vt 0.216506 0.125000 0.000000
vt 0.141421 0.141421 0.000000
vt 0.176777 0.176777 0.000000
vt 0.100000 0.173205 0.000000
vt 0.125000 0.216506 0.000000
vt 0.051764 0.193185 0.000000
vt 0.064705 0.241481 0.000000
vt 0.000000 0.200000 0.000000
vt 0.000000 0.250000 0.000000
vt -0.064705 0.241481 0.000000
vt 0.173205 -0.100000 0.000000
vt 0.216506 -0.125000 0.000000
vt 0.141421 -0.141421 0.000000
vt 0.176777 -0.176777 0.000000
vt 0.100000 -0.173205 0.000000
vt 0.125000 -0.216506 0.000000
vt 0.051764 -0.193185 0.000000
vt 0.064705 -0.241481 0.000000
vt -0.000000 -0.200000 0.000000
vt -0.000000 -0.250000 0.000000
vt -0.064705 -0.241481 0.000000
vt -0.051764 -0.193185 0.000000
vt -0.125000 -0.216506 0.000000
vt -0.100000 -0.173205 0.000000
vt -0.176777 -0.176777 0.000000
vt -0.141421 -0.141421 0.000000
vt -0.216506 -0.125000 0.000000
vt -0.173205 -0.100000 0.000000
vt -0.241481 -0.064705 0.000000
vt -0.193185 -0.051764 0.000000
vt -0.250000 0.000000 0.000000
vt -0.200000 0.000000 0.000000
vt -0.193185 0.051764 0.000000
vt -0.241481 0.064705 0.000000
vt -0.173205 0.100000 0.000000
vt -0.216506 0.125000 0.000000
vt -0.141421 0.141421 0.000000
vt -0.176777 0.176777 0.000000
vt -0.100000 0.173205 0.000000
vt -0.125000 0.216506 0.000000
vt -0.051764 0.193185 0.000000
vt 0.500000 -0.575959 0.000000
vt 0.250000 -0.575959 0.000000
vt 0.500000 -0.628319 0.000000
vt 0.250000 -0.628319 0.000000
vt 0.500000 0.628319 0.000000
vt 0.250000 0.628319 0.000000
vt 0.500000 0.575959 0.000000
vt 0.250000 0.575959 0.000000
vt 0.500000 0.523599 0.000000
vt 0.250000 0.523599 0.000000
vt 0.500000 0.471239 0.000000
vt 0.250000 0.471239 0.000000
vt 0.500000 0.418879 0.000000
vt 0.250000 0.418879 0.000000
vt 0.500000 0.366519 0.000000
vt 0.250000 0.366519 0.000000
vt 0.500000 0.314159 0.000000
vt 0.250000 0.314159 0.000000
vt 0.500000 0.261799 0.000000
vt 0.250000 0.261799 0.000000
vt 0.500000 0.209440 0.000000
vt 0.250000 0.209440 0.000000
vt 0.500000 0.157080 0.000000
vt 0.250000 0.157080 0.000000
vt 0.500000 0.104720 0.000000
vt 0.250000 0.104720 0.000000
vt 0.500000 0.052360 0.000000
vt 0.250000 0.052360 0.000000
vt 0.500000 0.000000 0.000000
vt 0.250000 -0.000000 0.000000
vt 0.500000 -0.052360 0.000000
vt 0.250000 -0.052360 0.000000
vt 0.500000 -0.104720 0.000000
vt 0.250000 -0.104720 0.000000
vt 0.500000 -0.157080 0.000000
vt 0.250000 -0.157080 0.000000
vt 0.500000 -0.209440 0.000000
vt 0.250000 -0.209440 0.000000
vt 0.500000 -0.261799 0.000000
vt 0.250000 -0.261799 0.000000
vt 0.500000 -0.314159 0.000000
vt 0.250000 -0.314159 0.000000
vt 0.500000 -0.366519 0.000000
vt 0.250000 -0.366519 0.000000
vt 0.500000 -0.418879 0.000000
vt 0.250000 -0.418879 0.000000
vt 0.500000 -0.471239 0.000000
vt 0.250000 -0.471239 0.000000
vt 0.500000 -0.523599 0.000000
vt 0.250000 -0.523599 0.000000
vt 0.500000 -0.575959 0.000000
vt 0.250000 -0.575959 0.000000
vt 0.500000 -0.628319 0.000000
vt 0.250000 -0.628319 0.000000
vt 0.500000 0.628319 0.000000
vt 0.250000 0.628319 0.000000
vt 0.500000 0.575959 0.000000
vt 0.250000 0.575959 0.000000
vt 0.500000 0.523599 0.000000
vt 0.250000 0.523599 0.000000
vt 0.500000 0.471239 0.000000
vt 0.250000 0.471239 0.000000
vt 0.500000 0.418879 0.000000
vt 0.250000 0.418879 0.000000
vt 0.500000 0.366519 0.000000
vt 0.250000 0.366519 0.000000
vt 0.500000 0.314159 0.000000
vt 0.250000 0.314159 0.000000
vt 0.500000 0.261799 0.000000
vt 0.250000 0.261799 0.000000
vt 0.500000 0.209440 0.000000
vt 0.250000 0.209440 0.000000
vt 0.500000 0.157080 0.000000
vt 0.250000 0.157080 0.000000
vt 0.500000 0.104720 0.000000
vt 0.250000 0.104720 0.000000
vt 0.500000 0.052360 0.000000
vt 0.250000 0.052360 0.000000
vt 0.500000 0.000000 0.000000
vt 0.250000 -0.000000 0.000000
vt 0.500000 -0.052360 0.000000
vt 0.250000 -0.052360 0.000000
vt 0.500000 -0.104720 0.000000
vt 0.250000 -0.104720 0.000000
vt 0.500000 -0.157080 0.000000
vt 0.250000 -0.157080 0.000000
vt 0.500000 -0.209440 0.000000
vt 0.250000 -0.209440 0.000000
vt 0.500000 -0.261799 0.000000
vt 0.250000 -0.261799 0.000000
vt 0.500000 -0.314159 0.000000
vt 0.250000 -0.314159 0.000000
vt 0.500000 -0.366519 0.000000
vt 0.250000 -0.366519 0.000000
vt 0.500000 -0.418879 0.000000
vt 0.250000 -0.418879 0.000000
vt 0.500000 -0.471239 0.000000
vt 0.250000 -0.471239 0.000000
vt 0.500000 -0.523599 0.000000
vt 0.250000 -0.523599 0.000000
vt -0.000000 0.471239 0.000000
vt -2.000000 0.471239 0.000000
vt -0.000000 0.314159 0.000000
vt -2.000000 0.314159 0.000000
vt 0.000000 0.157080 0.000000
vt -2.000000 0.157080 0.000000
vt 0.000000 0.000000 0.000000
vt -2.000000 -0.000000 0.000000
vt 0.000000 -0.157080 0.000000
vt -2.000000 -0.157080 0.000000
vt 0.000000 -0.314159 0.000000
vt -2.000000 -0.314159 0.000000
vt 0.000000 -0.471239 0.000000
vt -2.000000 -0.471239 0.000000
vt 9.356204 0.799425 0.000000
vt 7.747686 0.734720 0.000000
vt 9.347686 0.734720 0.000000
vt 7.739167 0.670015 0.000000
vt 9.356204 0.670015 0.000000
vt 8.510000 0.484720 0.000000
vt 9.381179 0.609720 0.000000
vt 9.420909 0.557943 0.000000
vt 9.472686 0.518214 0.000000
vt 9.532981 0.493238 0.000000
vt 9.597686 0.484720 0.000000
vt 8.510000 0.000000 0.000000
vt 9.662390 0.493238 0.000000
vt 16.720000 0.000000 0.000000
vt 9.722686 0.518214 0.000000
vt 9.774462 0.557943 0.000000
vt 9.814192 0.609720 0.000000
vt 9.839167 0.670015 0.000000
vt 9.847686 0.734720 0.000000
vt 11.529875 1.613630 0.000000
vt 9.839167 0.799425 0.000000
vt 9.814192 0.859720 0.000000
vt 11.426348 1.600000 0.000000
vt 9.774462 0.911497 0.000000
vt 9.722686 0.951226 0.000000
vt 9.662390 0.976201 0.000000
vt 11.322820 1.613630 0.000000
vt 9.597686 0.984720 0.000000
vt 11.226348 1.653590 0.000000
vt 11.143505 1.717157 0.000000
vt 7.739167 0.799425 0.000000
vt 9.381179 0.859720 0.000000
vt 7.714192 0.859720 0.000000
vt 9.420909 0.911497 0.000000
vt 7.674462 0.911497 0.000000
vt 9.472686 0.951226 0.000000
vt 7.622686 0.951226 0.000000
vt 9.532981 0.976201 0.000000
vt 7.562390 0.976201 0.000000
vt 7.497686 0.984720 0.000000
vt 11.079938 1.800000 0.000000
vt 7.256204 0.670015 0.000000
vt 7.247686 0.734720 0.000000
vt 0.300000 0.000000 0.000000
vt 7.256204 0.799425 0.000000
vt 7.281179 0.859720 0.000000
vt 0.300000 2.000000 0.000000
vt 7.320909 0.911497 0.000000
vt 7.372686 0.951226 0.000000
vt 7.432981 0.976201 0.000000
vt 11.026348 2.000000 0.000000
vt 11.039977 1.896472 0.000000
vt 7.714192 0.609720 0.000000
vt 7.674462 0.557943 0.000000
vt 7.622686 0.518214 0.000000
vt 7.562390 0.493238 0.000000
vt 7.497686 0.484720 0.000000
vt 7.432981 0.493238 0.000000
vt 7.372686 0.518214 0.000000
vt 7.320909 0.557943 0.000000
vt 7.281179 0.609720 0.000000
vt 16.720000 2.000000 0.000000
vt 11.626348 1.653590 0.000000
vt 11.709190 1.717157 0.000000
vt 11.772758 1.800000 0.000000
vt 11.812718 1.896472 0.000000
vt 11.826348 2.000000 0.000000
vt 0.000000 0.471239 0.000000
vt -2.000000 0.471239 0.000000
vt 0.000000 0.314159 0.000000
vt -2.000000 0.314159 0.000000
vt -0.000000 0.157080 0.000000
vt -2.000000 0.157080 0.000000
vt -0.000000 0.000000 0.000000
vt -2.000000 -0.000000 0.000000
vt -0.000000 -0.157080 0.000000
vt -2.000000 -0.157080 0.000000
vt 0.000000 -0.314159 0.000000
vt -2.000000 -0.314159 0.000000
vt 0.000000 -0.471239 0.000000
vt -2.000000 -0.471239 0.000000
vt 11.020000 2.000000 0.000000
vt 0.300000 2.000000 0.000000
vt 11.020000 0.000000 0.000000
vt 0.300000 -0.000000 0.000000
vt 0.000000 0.471239 0.000000
vt -2.000000 0.471239 0.000000
vt 0.000000 0.314159 0.000000
vt -2.000000 0.314159 0.000000
vt -0.000000 0.157080 0.000000
vt -2.000000 0.157080 0.000000
vt -0.000000 -0.000000 0.000000
vt -2.000000 -0.000000 0.000000
vt -0.000000 -0.157080 0.000000
vt -2.000000 -0.157080 0.000000
vt -0.000000 -0.314159 0.000000
vt -2.000000 -0.314159 0.000000
vt -0.000000 -0.471239 0.000000
vt -2.000000 -0.471239 0.000000
vt 16.720000 2.000000 0.000000
vt 8.510000 2.000000 0.000000
vt 16.720000 -0.000000 0.000000
vt 8.510000 -0.000000 0.000000
vt 0.300000 2.000000 0.000000
vt 0.300000 -0.000000 0.000000
vt -0.000000 0.471239 0.000000
vt -2.000000 0.471239 0.000000
vt -0.000000 0.314159 0.000000
vt -2.000000 0.314159 0.000000
vt -0.000000 0.157080 0.000000
vt -2.000000 0.157080 0.000000
vt -0.000000 0.000000 0.000000
vt -2.000000 0.000000 0.000000
vt -0.000000 -0.157080 0.000000
vt -2.000000 -0.157080 0.000000
vt -0.000000 -0.314159 0.000000
vt -2.000000 -0.314159 0.000000
vt -0.000000 -0.471239 0.000000
vt -2.000000 -0.471239 0.000000
vt 0.100000 0.000000 0.000000
vt 10.820000 -0.000000 0.000000
vt 0.100000 2.000000 0.000000
vt 10.820000 2.000000 0.000000
vt 0.000000 -0.000000 0.000000
vt 8.510000 0.000000 0.000000
vt -0.000000 0.200000 0.000000
vt 8.510000 0.200000 0.000000
vt 17.020000 0.000000 0.000000
vt 17.020000 0.200000 0.000000
vt -0.065000 8.510000 0.000000
vt -0.065000 -0.000000 0.000000
vt 0.065000 8.510000 0.000000
vt 0.065000 0.000000 0.000000
vt -0.065000 -8.510000 0.000000
vt 0.065000 -8.510000 0.000000
vt 0.000000 0.000000 0.000000
vt 7.990000 0.000000 0.000000
vt -0.000000 0.300000 0.000000
vt 7.990000 0.300000 0.000000
vt 0.000000 0.000000 0.000000
vt 7.986266 0.000000 0.000000
vt -0.000000 0.300000 0.000000
vt 7.986266 0.300000 0.000000
vt 0.065000 0.520000 0.000000
vt 0.065000 8.510000 0.000000
vt 0.025000 0.520000 0.000000
vt -0.065000 8.510000 0.000000
vt -0.065000 0.000000 0.000000
vt 0.025000 -0.523734 0.000000
vt -0.065000 -8.510000 0.000000
vt 0.065000 -8.510000 0.000000
vt 0.065000 -0.523734 0.000000
vt -0.000000 0.000000 0.000000
vt 0.500000 -0.000000 0.000000
vt -0.000000 0.104720 0.000000
vt 0.500000 0.104720 0.000000
vt -0.000000 0.209440 0.000000
vt 0.500000 0.209440 0.000000
vt -0.000000 0.314159 0.000000
vt 0.500000 0.314159 0.000000
vt -0.000000 0.418879 0.000000
vt 0.500000 0.418879 0.000000
vt -0.000000 0.523599 0.000000
vt 0.500000 0.523599 0.000000
vt -0.000000 0.628319 0.000000
vt 0.500000 0.628319 0.000000
vt -0.000000 0.733038 0.000000
vt 0.500000 0.733038 0.000000
vt -0.000000 0.837758 0.000000
vt 0.500000 0.837758 0.000000
vt -0.000000 0.942478 0.000000
vt 0.500000 0.942478 0.000000
vt -0.000000 1.047198 0.000000
vt 0.500000 1.047198 0.000000
vt -0.000000 1.151917 0.000000
vt 0.500000 1.151917 0.000000
vt 0.000000 1.256637 0.000000
vt 0.500000 1.256637 0.000000
vt -0.521867 -0.100000 0.000000
vt 0.521867 -0.100000 0.000000
vt -0.521867 0.400000 0.000000
vt 0.521867 0.400000 0.000000
vt -0.000000 1.860000 0.000000
vt -1.043734 1.860000 0.000000
vt -0.000000 -0.050000 0.000000
vt -1.043734 -0.050000 0.000000
vt 5.260000 8.810000 0.000000
vt -5.460000 8.810000 0.000000
vt -5.260000 8.510000 0.000000
vt -5.615291 8.789555 0.000000
vt -5.760000 8.729615 0.000000
vt -5.884264 8.634264 0.000000
vt -5.979615 8.510000 0.000000
vt -6.039555 8.365291 0.000000
vt -6.060000 8.210000 0.000000
vt -5.260000 0.000000 0.000000
vt -6.060000 -0.000000 0.000000
vt -6.060000 -8.210000 0.000000
vt -5.260000 -8.510000 0.000000
vt -6.039555 -8.365291 0.000000
vt -5.979615 -8.510000 0.000000
vt -5.884264 -8.634264 0.000000
vt -5.760000 -8.729615 0.000000
vt -5.615291 -8.789555 0.000000
vt -5.460000 -8.810000 0.000000
vt 5.260000 -8.810000 0.000000
vt 5.360000 -8.510000 0.000000
vt 5.415291 -8.789555 0.000000
vt 5.560000 -8.729615 0.000000
vt 5.684264 -8.634264 0.000000
vt 5.779615 -8.510000 0.000000
vt 5.839555 -8.365291 0.000000
vt 5.860000 -8.210000 0.000000
vt 5.360000 0.000000 0.000000
vt 5.860000 0.000000 0.000000
vt 5.860000 8.210000 0.000000
vt 5.360000 8.510000 0.000000
vt 5.839555 8.365291 0.000000
vt 5.779615 8.510000 0.000000
vt 5.684264 8.634264 0.000000
vt 5.560000 8.729615 0.000000
vt 5.415291 8.789555 0.000000
vn -0.120085 0.992764 0.000000
vn -0.120085 0.992764 0.000000
vn -0.353600 0.935397 0.000000
vn -0.353600 0.935397 0.000000
vn -0.566670 0.823945 0.000000
vn -0.566670 0.823945 0.000000
vn -0.746975 0.664852 0.000000
vn -0.746975 0.664852 0.000000
vn -0.884089 0.467318 0.000000
vn -0.884089 0.467318 0.000000
vn -0.970085 0.242764 0.000000
vn -0.970085 0.242764 0.000000
vn 0.000000 -0.000000 1.000000
vn 0.000000 -0.000000 1.000000
vn 0.000000 -0.000000 1.000000
vn 0.000000 -0.000000 1.000000
vn 0.000000 -0.000000 1.000000
vn 0.000000 -0.000000 1.000000
vn 0.000000 -0.000000 1.000000
vn -1.000000 -0.000000 0.000000
vn -1.000000 -0.000000 0.000000
vn -1.000000 -0.000000 0.000000
vn -1.000000 -0.000000 0.000000
vn -1.000000 -0.000000 0.000000
vn -1.000000 -0.000000 0.000000
vn -1.000000 -0.000000 0.000000
vn -1.000000 -0.000000 0.000000
vn -1.000000 -0.000000 0.000000
vn -1.000000 -0.000000 0.000000
vn -1.000000 -0.000000 0.000000
vn -1.000000 -0.000000 0.000000
vn -0.000000 1.000000 0.000000
vn -0.000000 1.000000 0.000000
vn -0.000000 1.000000 0.000000
vn -0.000000 1.000000 0.000000
vn -0.000000 1.000000 0.000000
vn -0.000000 1.000000 0.000000
vn -0.000000 1.000000 0.000000
vn -0.000000 1.000000 0.000000
vn -0.000000 1.000000 0.000000
vn -0.000000 1.000000 0.000000
vn -0.000000 1.000000 0.000000
vn -0.000000 1.000000 0.000000
vn -0.000000 1.000000 0.000000
vn -0.000000 1.000000 0.000000
vn -0.000000 1.000000 0.000000
vn -0.000000 1.000000 0.000000
vn -0.000000 1.000000 0.000000
vn -0.000000 1.000000 0.000000
vn -0.000000 1.000000 0.000000
vn -0.000000 1.000000 0.000000
vn -0.000000 1.000000 0.000000
vn -0.000000 1.000000 0.000000
vn -0.000000 1.000000 0.000000
vn -0.000000 1.000000 0.000000
vn -0.000000 1.000000 0.000000
vn -0.000000 1.000000 0.000000
vn -0.000000 1.000000 0.000000
vn -0.000000 1.000000 0.000000
vn -0.000000 1.000000 0.000000
vn -0.000000 1.000000 0.000000
vn 0.000000 -0.000000 1.000000
vn 0.000000 -0.000000 1.000000
vn 0.000000 -0.000000 1.000000
vn 0.000000 -0.000000 1.000000
vn 0.000000 -0.000000 1.000000
vn 0.000000 -0.000000 1.000000
vn 0.000000 -0.000000 1.000000
vn -0.990133 -0.140133 0.000000
vn -0.990133 -0.140133 0.000000
vn -0.921638 -0.388052 -0.000000
vn -0.921638 -0.388052 -0.000000
vn -0.792171 -0.610299 -0.000000
vn -0.792171 -0.610299 -0.000000
vn -0.610299 -0.792171 -0.000000
vn -0.610299 -0.792171 -0.000000
vn -0.388052 -0.921638 -0.000000
vn -0.388052 -0.921638 -0.000000
vn -0.140133 -0.990133 -0.000000
vn -0.140133 -0.990133 -0.000000
vn -0.000000 0.000000 -1.000000
vn -0.000000 0.000000 -1.000000
vn -0.000000 0.000000 -1.000000
vn -0.000000 0.000000 -1.000000
vn -0.000000 0.000000 -1.000000
vn -0.000000 0.000000 -1.000000
vn -0.000000 0.000000 -1.000000
vn -0.000000 0.000000 -1.000000
vn -0.000000 0.000000 -1.000000
vn -0.000000 0.000000 -1.000000
vn -0.000000 0.000000 -1.000000
vn -0.000000 0.000000 -1.000000
vn -0.000000 0.000000 -1.000000
vn -0.000000 0.000000 -1.000000
vn -0.000000 0.000000 -1.000000
vn -0.000000 0.000000 -1.000000
vn -0.000000 0.000000 -1.000000
vn -0.000000 0.000000 -1.000000
vn -0.000000 0.000000 -1.000000
vn -0.000000 0.000000 -1.000000
vn -0.000000 0.000000 -1.000000
vn -0.000000 0.000000 -1.000000
vn -0.000000 0.000000 -1.000000
vn -0.000000 0.000000 -1.000000
vn -0.000000 0.000000 -1.000000
vn -0.000000 0.000000 -1.000000
vn -0.000000 0.000000 -1.000000
vn -0.000000 0.000000 -1.000000
vn -0.000000 0.000000 -1.000000
vn -0.000000 0.000000 -1.000000
vn -0.000000 0.000000 -1.000000
vn -0.000000 0.000000 -1.000000
vn -0.000000 0.000000 -1.000000
vn -0.000000 0.000000 -1.000000
vn -0.000000 0.000000 -1.000000
vn -0.000000 0.000000 -1.000000
vn -0.000000 0.000000 -1.000000
vn -0.000000 0.000000 -1.000000
vn -0.000000 0.000000 -1.000000
vn -0.000000 0.000000 -1.000000
vn -0.000000 0.000000 -1.000000
vn -0.000000 0.000000 -1.000000
vn -0.000000 0.000000 -1.000000
vn -0.000000 0.000000 -1.000000
vn -0.000000 0.000000 -1.000000
vn -0.000000 0.000000 -1.000000
vn -0.000000 0.000000 -1.000000
vn -0.000000 0.000000 -1.000000
vn -0.000000 0.000000 -1.000000
vn -0.000000 0.000000 -1.000000
vn -0.000000 0.000000 -1.000000
vn -0.000000 0.000000 -1.000000
vn -0.000000 0.000000 -1.000000
vn -0.000000 0.000000 -1.000000
vn -0.000000 0.000000 -1.000000
vn -0.000000 0.000000 -1.000000
vn -0.000000 0.000000 -1.000000
vn -0.000000 0.000000 -1.000000
vn -0.000000 0.000000 -1.000000
vn -0.000000 0.000000 -1.000000
vn -0.000000 0.000000 -1.000000
vn -0.000000 0.000000 -1.000000
vn 0.140133 -0.990133 -0.000000
vn 0.140133 -0.990133 -0.000000
vn 0.388052 -0.921638 -0.000000
vn 0.388052 -0.921638 -0.000000
vn 0.610299 -0.792171 -0.000000
vn 0.610299 -0.792171 -0.000000
vn 0.792171 -0.610299 -0.000000
vn 0.792171 -0.610299 -0.000000
vn 0.921638 -0.388052 -0.000000
vn 0.921638 -0.388052 -0.000000
vn 0.990133 -0.140133 -0.000000
vn 0.990133 -0.140133 -0.000000
vn 0.000000 -0.000000 1.000000
vn 0.000000 -0.000000 1.000000
vn 0.000000 -0.000000 1.000000
vn 0.000000 -0.000000 1.000000
vn 0.000000 -0.000000 1.000000
vn 0.000000 -0.000000 1.000000
vn 0.000000 -0.000000 1.000000
vn 1.000000 0.000000 -0.000000
vn 1.000000 0.000000 -0.000000
vn 1.000000 0.000000 -0.000000
vn 1.000000 0.000000 -0.000000
vn 1.000000 0.000000 -0.000000
vn 1.000000 0.000000 -0.000000
vn 1.000000 0.000000 -0.000000
vn 1.000000 0.000000 -0.000000
vn 1.000000 0.000000 -0.000000
vn 1.000000 0.000000 -0.000000
vn 1.000000 0.000000 -0.000000
vn 1.000000 0.000000 -0.000000
vn -0.000000 -1.000000 -0.000000
vn -0.000000 -1.000000 -0.000000
vn -0.000000 -1.000000 -0.000000
vn -0.000000 -1.000000 -0.000000
vn -0.000000 -1.000000 -0.000000
vn -0.000000 -1.000000 -0.000000
vn -0.000000 -1.000000 -0.000000
vn -0.000000 -1.000000 -0.000000
vn -0.000000 -1.000000 -0.000000
vn -0.000000 -1.000000 -0.000000
vn 0.000000 -0.000000 1.000000
vn 0.000000 -0.000000 1.000000
vn 0.000000 -0.000000 1.000000
vn 0.000000 -0.000000 1.000000
vn 0.000000 -0.000000 1.000000
vn 0.000000 -0.000000 1.000000
vn 0.000000 -0.000000 1.000000
vn 0.970085 0.242764 -0.000000
vn 0.970085 0.242764 -0.000000
vn 0.884089 0.467318 0.000000
vn 0.884089 0.467318 0.000000
vn 0.746975 0.664852 0.000000
vn 0.746975 0.664852 0.000000
vn 0.566670 0.823945 0.000000
vn 0.566670 0.823945 0.000000
vn 0.353600 0.935397 0.000000
vn 0.353600 0.935397 0.000000
vn 0.120085 0.992764 0.000000
vn 0.120085 0.992764 0.000000
vn -1.000000 -0.000000 0.000000
vn -1.000000 -0.000000 0.000000
vn -1.000000 -0.000000 0.000000
vn -1.000000 -0.000000 0.000000
vn -1.000000 -0.000000 0.000000
vn -1.000000 -0.000000 0.000000
vn -0.000000 1.000000 0.000000
vn -0.000000 1.000000 0.000000
vn -0.000000 1.000000 0.000000
vn -0.000000 1.000000 0.000000
vn -0.000000 1.000000 0.000000
vn -0.000000 1.000000 0.000000
vn -0.000000 1.000000 0.000000
vn -0.000000 1.000000 0.000000
vn -0.000000 1.000000 0.000000
vn -0.000000 1.000000 0.000000
vn -0.000000 1.000000 0.000000
vn -0.000000 1.000000 0.000000
vn -0.000000 1.000000 0.000000
vn -0.000000 1.000000 0.000000
vn -0.000000 1.000000 0.000000
vn -0.000000 1.000000 0.000000
vn -0.000000 1.000000 0.000000
vn -0.000000 1.000000 0.000000
vn -0.000000 1.000000 0.000000
vn -0.000000 1.000000 0.000000
vn -0.000000 1.000000 0.000000
vn -0.000000 1.000000 0.000000
vn -0.000000 1.000000 0.000000
vn -0.000000 1.000000 0.000000
vn -0.000000 1.000000 0.000000
vn -0.000000 1.000000 0.000000
vn -0.000000 1.000000 0.000000
vn -0.000000 1.000000 0.000000
vn -0.000000 1.000000 0.000000
vn -0.000000 1.000000 0.000000
vn -0.000000 1.000000 0.000000
vn -0.000000 1.000000 0.000000
vn -0.000000 1.000000 0.000000
vn -0.000000 1.000000 0.000000
vn -0.000000 1.000000 0.000000
vn -0.000000 1.000000 0.000000
vn -0.000000 1.000000 0.000000
vn -0.000000 1.000000 0.000000
vn -0.000000 1.000000 0.000000
vn -0.000000 1.000000 0.000000
vn -0.000000 1.000000 0.000000
vn -0.000000 1.000000 0.000000
vn -0.000000 1.000000 0.000000
vn 1.000000 0.000000 -0.000000
vn 1.000000 0.000000 -0.000000
vn 1.000000 0.000000 -0.000000
vn 1.000000 0.000000 -0.000000
vn 1.000000 0.000000 -0.000000
vn 1.000000 0.000000 -0.000000
vn -0.965926 0.000000 0.258819
vn -0.965926 0.000000 0.258819
vn -1.000000 0.000000 0.000000
vn -1.000000 0.000000 0.000000
vn -0.965926 0.000000 -0.258819
vn -0.965926 0.000000 -0.258819
vn -0.866025 0.000000 -0.500000
vn -0.866025 0.000000 -0.500000
vn -0.707107 0.000000 -0.707107
vn -0.707107 0.000000 -0.707107
vn -0.500000 0.000000 -0.866025
vn -0.500000 0.000000 -0.866025
vn -0.258819 0.000000 -0.965926
vn -0.258819 0.000000 -0.965926
vn 0.000000 0.000000 -1.000000
vn 0.000000 0.000000 -1.000000
vn 0.258819 0.000000 -0.965926
vn 0.258819 0.000000 -0.965926
vn 0.500000 0.000000 -0.866025
vn 0.500000 0.000000 -0.866025
vn 0.707107 0.000000 -0.707107
vn 0.707107 0.000000 -0.707107
vn 0.866025 0.000000 -0.500000
vn 0.866025 0.000000 -0.500000
vn 0.965926 0.000000 -0.258819
vn 0.965926 0.000000 -0.258819
vn 1.000000 0.000000 -0.000000
vn 1.000000 0.000000 -0.000000
vn 0.965926 -0.000000 0.258819
vn 0.965926 -0.000000 0.258819
vn 0.866025 -0.000000 0.500000
vn 0.866025 -0.000000 0.500000
vn 0.707107 -0.000000 0.707107
vn 0.707107 -0.000000 0.707107
vn 0.500000 -0.000000 0.866025
vn 0.500000 -0.000000 0.866025
vn 0.258819 -0.000000 0.965926
vn 0.258819 -0.000000 0.965926
vn 0.000000 -0.000000 1.000000
vn 0.000000 -0.000000 1.000000
vn -0.258819 0.000000 0.965926
vn -0.258819 0.000000 0.965926
vn -0.500000 0.000000 0.866025
vn -0.500000 0.000000 0.866025
vn -0.707107 0.000000 0.707107
vn -0.707107 0.000000 0.707107
vn -0.866025 0.000000 0.500000
vn -0.866025 0.000000 0.500000
vn -0.000000 -1.000000 -0.000000
vn -0.000000 -1.000000 -0.000000
vn -0.000000 -1.000000 -0.000000
vn -0.000000 -1.000000 -0.000000
vn -0.000000 -1.000000 -0.000000
vn -0.000000 -1.000000 -0.000000
vn -0.000000 -1.000000 -0.000000
vn -0.000000 -1.000000 -0.000000
vn -0.000000 -1.000000 -0.000000
vn -0.000000 -1.000000 -0.000000
vn -0.000000 -1.000000 -0.000000
vn -0.000000 -1.000000 -0.000000
vn -0.000000 -1.000000 -0.000000
vn -0.000000 -1.000000 -0.000000
vn -0.000000 -1.000000 -0.000000
vn -0.000000 -1.000000 -0.000000
vn -0.000000 -1.000000 -0.000000
vn -0.000000 -1.000000 -0.000000
vn -0.000000 -1.000000 -0.000000
vn -0.000000 -1.000000 -0.000000
vn -0.000000 -1.000000 -0.000000
vn -0.000000 -1.000000 -0.000000
vn -0.000000 -1.000000 -0.000000
vn -0.000000 -1.000000 -0.000000
vn -0.000000 -1.000000 -0.000000
vn -0.000000 -1.000000 -0.000000
vn -0.000000 -1.000000 -0.000000
vn -0.000000 -1.000000 -0.000000
vn -0.000000 -1.000000 -0.000000
vn -0.000000 -1.000000 -0.000000
vn -0.000000 -1.000000 -0.000000
vn -0.000000 -1.000000 -0.000000
vn -0.000000 -1.000000 -0.000000
vn -0.000000 -1.000000 -0.000000
vn -0.000000 -1.000000 -0.000000
vn -0.000000 -1.000000 -0.000000
vn -0.000000 -1.000000 -0.000000
vn -0.000000 -1.000000 -0.000000
vn -0.000000 -1.000000 -0.000000
vn -0.000000 -1.000000 -0.000000
vn -0.000000 -1.000000 -0.000000
vn -0.000000 -1.000000 -0.000000
vn -0.000000 -1.000000 -0.000000
vn -0.000000 -1.000000 -0.000000
vn -0.000000 -1.000000 -0.000000
vn -0.000000 -1.000000 -0.000000
vn -0.000000 -1.000000 -0.000000
vn -0.000000 -1.000000 -0.000000
vn -0.965926 0.000000 0.258819
vn -0.965926 0.000000 0.258819
vn -1.000000 0.000000 0.000000
vn -1.000000 0.000000 0.000000
vn -0.965926 0.000000 -0.258819
vn -0.965926 0.000000 -0.258819
vn -0.866025 0.000000 -0.500000
vn -0.866025 0.000000 -0.500000
vn -0.707107 0.000000 -0.707107
vn -0.707107 0.000000 -0.707107
vn -0.500000 0.000000 -0.866025
vn -0.500000 0.000000 -0.866025
vn -0.258819 0.000000 -0.965926
vn -0.258819 0.000000 -0.965926
vn 0.000000 0.000000 -1.000000
vn 0.000000 0.000000 -1.000000
vn 0.258819 0.000000 -0.965926
vn 0.258819 0.000000 -0.965926
vn 0.500000 0.000000 -0.866025
vn 0.500000 0.000000 -0.866025
vn 0.707107 0.000000 -0.707107
vn 0.707107 0.000000 -0.707107
vn 0.866025 0.000000 -0.500000
vn 0.866025 0.000000 -0.500000
vn 0.965926 0.000000 -0.258819
vn 0.965926 0.000000 -0.258819
vn 1.000000 0.000000 -0.000000
vn 1.000000 0.000000 -0.000000
vn 0.965926 -0.000000 0.258819
vn 0.965926 -0.000000 0.258819
vn 0.866025 -0.000000 0.500000
vn 0.866025 -0.000000 0.500000
vn 0.707107 -0.000000 0.707107
vn 0.707107 -0.000000 0.707107
vn 0.500000 -0.000000 0.866025
vn 0.500000 -0.000000 0.866025
vn 0.258819 -0.000000 0.965926
vn 0.258819 -0.000000 0.965926
vn 0.000000 -0.000000 1.000000
vn 0.000000 -0.000000 1.000000
vn -0.258819 0.000000 0.965926
vn -0.258819 0.000000 0.965926
vn -0.500000 0.000000 0.866025
vn -0.500000 0.000000 0.866025
vn -0.707107 0.000000 0.707107
vn -0.707107 0.000000 0.707107
vn -0.866025 0.000000 0.500000
vn -0.866025 0.000000 0.500000
vn -0.000000 -1.000000 -0.000000
vn -0.000000 -1.000000 -0.000000
vn -0.000000 -1.000000 -0.000000
vn -0.000000 -1.000000 -0.000000
vn -0.000000 -1.000000 -0.000000
vn -0.000000 -1.000000 -0.000000
vn -0.000000 -1.000000 -0.000000
vn -0.000000 -1.000000 -0.000000
vn -0.000000 -1.000000 -0.000000
vn -0.000000 -1.000000 -0.000000
vn -0.000000 -1.000000 -0.000000
vn -0.000000 -1.000000 -0.000000
vn -0.000000 -1.000000 -0.000000
vn -0.000000 -1.000000 -0.000000
vn -0.000000 -1.000000 -0.000000
vn -0.000000 -1.000000 -0.000000
vn -0.000000 -1.000000 -0.000000
vn -0.000000 -1.000000 -0.000000
vn -0.000000 -1.000000 -0.000000
vn -0.000000 -1.000000 -0.000000
vn -0.000000 -1.000000 -0.000000
vn -0.000000 -1.000000 -0.000000
vn -0.000000 -1.000000 -0.000000
vn -0.000000 -1.000000 -0.000000
vn -0.000000 -1.000000 -0.000000
vn -0.000000 -1.000000 -0.000000
vn -0.000000 -1.000000 -0.000000
vn -0.000000 -1.000000 -0.000000
vn -0.000000 -1.000000 -0.000000
vn -0.000000 -1.000000 -0.000000
vn -0.000000 -1.000000 -0.000000
vn -0.000000 -1.000000 -0.000000
vn -0.000000 -1.000000 -0.000000
vn -0.000000 -1.000000 -0.000000
vn -0.000000 -1.000000 -0.000000
vn -0.000000 -1.000000 -0.000000
vn -0.000000 -1.000000 -0.000000
vn -0.000000 -1.000000 -0.000000
vn -0.000000 -1.000000 -0.000000
vn -0.000000 -1.000000 -0.000000
vn -0.000000 -1.000000 -0.000000
vn -0.000000 -1.000000 -0.000000
vn -0.000000 -1.000000 -0.000000
vn -0.000000 -1.000000 -0.000000
vn -0.000000 -1.000000 -0.000000
vn -0.000000 -1.000000 -0.000000
vn -0.000000 -1.000000 -0.000000
vn -0.000000 -1.000000 -0.000000
vn -0.965926 -0.000000 0.258819
vn -0.965926 -0.000000 0.258819
vn -1.000000 -0.000000 0.000000
vn -1.000000 -0.000000 0.000000
vn -0.965926 0.000000 -0.258819
vn -0.965926 0.000000 -0.258819
vn -0.866025 0.000000 -0.500000
vn -0.866025 0.000000 -0.500000
vn -0.707107 0.000000 -0.707107
vn -0.707107 0.000000 -0.707107
vn -0.500000 0.000000 -0.866025
vn -0.500000 0.000000 -0.866025
vn -0.258819 0.000000 -0.965926
vn -0.258819 0.000000 -0.965926
vn 0.000000 0.000000 -1.000000
vn 0.000000 0.000000 -1.000000
vn 0.258819 0.000000 -0.965926
vn 0.258819 0.000000 -0.965926
vn 0.500000 0.000000 -0.866025
vn 0.500000 0.000000 -0.866025
vn 0.707107 0.000000 -0.707107
vn 0.707107 0.000000 -0.707107
vn 0.866025 0.000000 -0.500000
vn 0.866025 0.000000 -0.500000
vn 0.965926 0.000000 -0.258819
vn 0.965926 0.000000 -0.258819
vn 1.000000 0.000000 -0.000000
vn 1.000000 -0.000000 0.000000
vn 0.965926 -0.000000 0.258819
vn 0.965926 -0.000000 0.258819
vn 0.866025 -0.000000 0.500000
vn 0.866025 -0.000000 0.500000
vn 0.707107 -0.000000 0.707107
vn 0.707107 -0.000000 0.707107
vn 0.500000 -0.000000 0.866025
vn 0.500000 -0.000000 0.866025
vn 0.258819 -0.000000 0.965926
vn 0.258819 -0.000000 0.965926
vn 0.000000 -0.000000 1.000000
vn 0.000000 -0.000000 1.000000
vn -0.258819 -0.000000 0.965926
vn -0.258819 -0.000000 0.965926
vn -0.500000 -0.000000 0.866025
vn -0.500000 -0.000000 0.866025
vn -0.707107 -0.000000 0.707107
vn -0.707107 -0.000000 0.707107
vn -0.866025 -0.000000 0.500000
vn -0.866025 -0.000000 0.500000
vn -0.965926 -0.000000 0.258819
vn -0.965926 -0.000000 0.258819
vn -1.000000 -0.000000 0.000000
vn -1.000000 -0.000000 0.000000
vn -0.965926 0.000000 -0.258819
vn -0.965926 0.000000 -0.258819
vn -0.866025 0.000000 -0.500000
vn -0.866025 0.000000 -0.500000
vn -0.707107 0.000000 -0.707107
vn -0.707107 0.000000 -0.707107
vn -0.500000 0.000000 -0.866025
vn -0.500000 0.000000 -0.866025
vn -0.258819 0.000000 -0.965926
vn -0.258819 0.000000 -0.965926
vn 0.000000 0.000000 -1.000000
vn 0.000000 0.000000 -1.000000
vn 0.258819 0.000000 -0.965926
vn 0.258819 0.000000 -0.965926
vn 0.500000 0.000000 -0.866025
vn 0.500000 0.000000 -0.866025
vn 0.707107 0.000000 -0.707107
vn 0.707107 0.000000 -0.707107
vn 0.866025 0.000000 -0.500000
vn 0.866025 0.000000 -0.500000
vn 0.965926 0.000000 -0.258819
vn 0.965926 0.000000 -0.258819
vn 1.000000 0.000000 -0.000000
vn 1.000000 -0.000000 0.000000
vn 0.965926 -0.000000 0.258819
vn 0.965926 -0.000000 0.258819
vn 0.866025 -0.000000 0.500000
vn 0.866025 -0.000000 0.500000
vn 0.707107 -0.000000 0.707107
vn 0.707107 -0.000000 0.707107
vn 0.500000 -0.000000 0.866025
vn 0.500000 -0.000000 0.866025
vn 0.258819 -0.000000 0.965926
vn 0.258819 -0.000000 0.965926
vn 0.000000 -0.000000 1.000000
vn 0.000000 -0.000000 1.000000
vn -0.258819 -0.000000 0.965926
vn -0.258819 -0.000000 0.965926
vn -0.500000 -0.000000 0.866025
vn -0.500000 -0.000000 0.866025
vn -0.707107 -0.000000 0.707107
vn -0.707107 -0.000000 0.707107
vn -0.866025 -0.000000 0.500000
vn -0.866025 -0.000000 0.500000
vn -1.000000 0.000000 0.000000
vn -1.000000 -0.000000 0.000000
vn -0.965926 -0.258819 0.000000
vn -0.965926 -0.258819 0.000000
vn -0.866025 -0.500000 -0.000000
vn -0.866025 -0.500000 -0.000000
vn -0.707107 -0.707107 -0.000000
vn -0.707107 -0.707107 -0.000000
vn -0.500000 -0.866025 -0.000000
vn -0.500000 -0.866025 -0.000000
vn -0.258819 -0.965926 -0.000000
vn -0.258819 -0.965926 -0.000000
vn -0.000000 -1.000000 -0.000000
vn 0.000000 -1.000000 -0.000000
vn 0.000000 -1.000000 -0.000000
vn 0.000000 -1.000000 -0.000000
vn 0.000000 -1.000000 -0.000000
vn 0.000000 -1.000000 -0.000000
vn 0.000000 -1.000000 -0.000000
vn 0.000000 -1.000000 -0.000000
vn 0.000000 -1.000000 -0.000000
vn 0.000000 -1.000000 -0.000000
vn 0.000000 -1.000000 -0.000000
vn 0.000000 -1.000000 -0.000000
vn 0.000000 -1.000000 -0.000000
vn 0.000000 -1.000000 -0.000000
vn 0.000000 -1.000000 -0.000000
vn 0.000000 -1.000000 -0.000000
vn 0.000000 -1.000000 -0.000000
vn 0.000000 -1.000000 -0.000000
vn 0.000000 -1.000000 -0.000000
vn 0.000000 -1.000000 -0.000000
vn 0.000000 -1.000000 -0.000000
vn 0.000000 -1.000000 -0.000000
vn 0.000000 -1.000000 -0.000000
vn 0.000000 -1.000000 -0.000000
vn 0.000000 -1.000000 -0.000000
vn 0.000000 -1.000000 -0.000000
vn 0.000000 -1.000000 -0.000000
vn 0.000000 -1.000000 -0.000000
vn 0.000000 -1.000000 -0.000000
vn 0.000000 -1.000000 -0.000000
vn 0.000000 -1.000000 -0.000000
vn 0.000000 -1.000000 -0.000000
vn 0.000000 -1.000000 -0.000000
vn 0.000000 -1.000000 -0.000000
vn 0.000000 -1.000000 -0.000000
vn 0.000000 -1.000000 -0.000000
vn 0.000000 -1.000000 -0.000000
vn 0.000000 -1.000000 -0.000000
vn 0.000000 -1.000000 -0.000000
vn 0.000000 -1.000000 -0.000000
vn 0.000000 -1.000000 -0.000000
vn 0.000000 -1.000000 -0.000000
vn 0.000000 -1.000000 -0.000000
vn 0.000000 -1.000000 -0.000000
vn 0.000000 -1.000000 -0.000000
vn 0.000000 -1.000000 -0.000000
vn 0.000000 -1.000000 -0.000000
vn 0.000000 -1.000000 -0.000000
vn 0.000000 -1.000000 -0.000000
vn 0.000000 -1.000000 -0.000000
vn 0.000000 -1.000000 -0.000000
vn 0.000000 -1.000000 -0.000000
vn 0.000000 -1.000000 -0.000000
vn 0.000000 -1.000000 -0.000000
vn 0.000000 -1.000000 -0.000000
vn 0.000000 -1.000000 -0.000000
vn 0.000000 -1.000000 -0.000000
vn 0.000000 -1.000000 -0.000000
vn 0.000000 -1.000000 -0.000000
vn 0.000000 -1.000000 -0.000000
vn 0.000000 -1.000000 -0.000000
vn 0.000000 -1.000000 -0.000000
vn 0.000000 -1.000000 -0.000000
vn 0.000000 -1.000000 -0.000000
vn 0.000000 -1.000000 -0.000000
vn 0.000000 -1.000000 -0.000000
vn 0.000000 -1.000000 -0.000000
vn 0.258819 -0.965926 -0.000000
vn 0.258819 -0.965926 -0.000000
vn 0.500000 -0.866025 -0.000000
vn 0.500000 -0.866025 -0.000000
vn 0.707107 -0.707107 -0.000000
vn 0.707107 -0.707107 -0.000000
vn 0.866025 -0.500000 -0.000000
vn 0.866025 -0.500000 -0.000000
vn 0.965926 -0.258819 -0.000000
vn 0.965926 -0.258819 -0.000000
vn 1.000000 -0.000000 -0.000000
vn 1.000000 0.000000 -0.000000
vn 1.000000 0.000000 -0.000000
vn 1.000000 0.000000 -0.000000
vn 0.965926 0.258819 -0.000000
vn 0.965926 0.258819 -0.000000
vn 0.866025 0.500000 0.000000
vn 0.866025 0.500000 0.000000
vn 0.707107 0.707107 0.000000
vn 0.707107 0.707107 0.000000
vn 0.500000 0.866025 0.000000
vn 0.500000 0.866025 0.000000
vn 0.258819 0.965926 0.000000
vn 0.258819 0.965926 0.000000
vn 0.000000 1.000000 0.000000
vn 0.000000 1.000000 0.000000
vn 0.000000 1.000000 0.000000
vn 0.000000 1.000000 0.000000
vn 0.000000 1.000000 0.000000
vn 0.000000 1.000000 0.000000
vn -0.258819 0.965926 0.000000
vn -0.258819 0.965926 0.000000
vn -0.500000 0.866025 0.000000
vn -0.500000 0.866025 0.000000
vn -0.707107 0.707107 0.000000
vn -0.707107 0.707107 0.000000
vn -0.866025 0.500000 0.000000
vn -0.866025 0.500000 0.000000
vn -0.965926 0.258819 0.000000
vn -0.965926 0.258819 0.000000
vn -1.000000 0.000000 0.000000
vn -1.000000 0.000000 0.000000
vn -0.000000 0.000000 -1.000000
vn -0.000000 0.000000 -1.000000
vn -0.000000 0.000000 -1.000000
vn -0.000000 0.000000 -1.000000
vn -0.000000 0.000000 -1.000000
vn -0.000000 0.000000 -1.000000
vn -0.000000 -1.000000 -0.000000
vn -0.000000 -1.000000 -0.000000
vn -0.000000 -1.000000 -0.000000
vn -0.000000 -1.000000 -0.000000
vn -0.000000 -1.000000 -0.000000
vn -0.000000 -1.000000 -0.000000
vn -0.000000 0.000000 -1.000000
vn -0.000000 0.000000 -1.000000
vn -0.000000 0.000000 -1.000000
vn -0.000000 0.000000 -1.000000
vn -0.000000 0.000000 -1.000000
vn -0.000000 0.000000 -1.000000
vn -0.000000 0.000000 -1.000000
vn -0.000000 0.000000 -1.000000
vn 0.000000 1.000000 0.000000
vn 0.000000 1.000000 0.000000
vn 0.000000 1.000000 0.000000
vn 0.000000 1.000000 0.000000
vn 0.000000 1.000000 0.000000
vn 0.000000 1.000000 0.000000
vn 0.000000 1.000000 0.000000
vn 0.000000 1.000000 0.000000
vn 0.000000 1.000000 0.000000
vn -1.000000 0.000000 0.000000
vn -1.000000 -0.000000 0.000000
vn -0.965926 0.000000 -0.258819
vn -0.965926 0.000000 -0.258819
vn -0.866025 0.000000 -0.500000
vn -0.866025 0.000000 -0.500000
vn -0.707107 0.000000 -0.707107
vn -0.707107 0.000000 -0.707107
vn -0.500000 0.000000 -0.866025
vn -0.500000 0.000000 -0.866025
vn -0.258819 0.000000 -0.965926
vn -0.258819 0.000000 -0.965926
vn 0.000000 0.000000 -1.000000
vn 0.000000 0.000000 -1.000000
vn 0.258819 0.000000 -0.965926
vn 0.258819 0.000000 -0.965926
vn 0.500000 0.000000 -0.866025
vn 0.500000 0.000000 -0.866025
vn 0.707107 0.000000 -0.707107
vn 0.707107 0.000000 -0.707107
vn 0.866025 0.000000 -0.500000
vn 0.866025 0.000000 -0.500000
vn 0.965926 0.000000 -0.258819
vn 0.965926 0.000000 -0.258819
vn 1.000000 0.000000 -0.000000
vn 1.000000 -0.000000 0.000000
vn -0.000000 0.000000 -1.000000
vn -0.000000 0.000000 -1.000000
vn -0.000000 0.000000 -1.000000
vn -0.000000 0.000000 -1.000000
vn 0.000000 1.000000 0.000000
vn 0.000000 1.000000 0.000000
vn 0.000000 1.000000 0.000000
vn 0.000000 1.000000 0.000000
vn 0.000000 -0.000000 1.000000
vn 0.000000 -0.000000 1.000000
vn 0.000000 -0.000000 1.000000
vn 0.000000 -0.000000 1.000000
vn 0.000000 -0.000000 1.000000
vn 0.000000 -0.000000 1.000000
vn 0.000000 -0.000000 1.000000
vn 0.000000 -0.000000 1.000000
vn 0.000000 -0.000000 1.000000
vn 0.000000 -0.000000 1.000000
vn 0.000000 -0.000000 1.000000
vn 0.000000 -0.000000 1.000000
vn 0.000000 -0.000000 1.000000
vn 0.000000 -0.000000 1.000000
vn 0.000000 -0.000000 1.000000
vn 0.000000 -0.000000 1.000000
vn 0.000000 -0.000000 1.000000
vn 0.000000 -0.000000 1.000000
vn 0.000000 -0.000000 1.000000
vn 0.000000 -0.000000 1.000000
vn 0.000000 -0.000000 1.000000
vn 0.000000 -0.000000 1.000000
vn 0.000000 -0.000000 1.000000
vn 0.000000 -0.000000 1.000000
vn 0.000000 -0.000000 1.000000
vn 0.000000 -0.000000 1.000000
vn 0.000000 -0.000000 1.000000
vn 0.000000 -0.000000 1.000000
vn 0.000000 -0.000000 1.000000
vn 0.000000 -0.000000 1.000000
vn 0.000000 -0.000000 1.000000
vn 0.000000 -0.000000 1.000000
vn 0.000000 -0.000000 1.000000
vn 0.000000 -0.000000 1.000000
vn 0.000000 -0.000000 1.000000
vn 0.000000 -0.000000 1.000000
usemtl Steel_-_Satin
f 12/1/1 1/2/2 11/3/3
f 11/3/3 1/2/2 2/4/4
f 11/3/3 2/4/4 10/5/5
f 10/5/5 2/4/4 3/6/6
f 10/5/5 3/6/6 9/7/7
f 9/7/7 3/6/6 4/8/8
f 9/7/7 4/8/8 8/9/9
f 8/9/9 4/8/8 5/10/10
f 8/9/9 5/10/10 7/11/11
f 7/11/11 5/10/10 6/12/12
f 12/13/13 11/14/14 13/15/15
f 13/15/15 11/14/14 10/16/16
f 13/15/15 10/16/16 9/17/17
f 9/17/17 8/18/18 13/15/15
f 13/15/15 8/18/18 7/19/19
f 22/20/20 1/21/21 21/22/22
f 21/22/22 1/21/21 12/23/23
f 21/22/22 12/23/23 15/24/24
f 15/24/24 12/23/23 13/25/25
f 15/24/24 13/25/25 14/26/26
f 16/27/27 17/28/28 15/24/24
f 15/24/24 17/28/28 18/29/29
f 15/24/24 18/29/29 21/22/22
f 21/22/22 18/29/29 20/30/30
f 20/30/30 18/29/29 19/31/31
f 13/32/32 7/33/33 14/34/34
f 14/34/34 7/33/33 25/35/35
f 14/34/34 25/35/35 26/36/36
f 6/37/37 23/38/38 7/33/33
f 7/33/33 23/38/38 44/39/39
f 7/33/33 44/39/39 45/40/40
f 24/41/41 38/42/42 23/38/38
f 23/38/38 38/42/42 39/43/43
f 23/38/38 39/43/43 40/44/44
f 14/34/34 30/45/45 24/41/41
f 24/41/41 30/45/45 31/46/46
f 24/41/41 31/46/46 32/47/47
f 26/36/36 27/48/48 14/34/34
f 14/34/34 27/48/48 28/49/49
f 14/34/34 28/49/49 29/50/50
f 29/50/50 30/45/45 14/34/34
f 32/47/47 33/51/51 24/41/41
f 24/41/41 33/51/51 34/52/52
f 24/41/41 34/52/52 35/53/53
f 35/53/53 36/54/54 24/41/41
f 24/41/41 36/54/54 37/55/55
f 24/41/41 37/55/55 38/42/42
f 40/44/44 41/56/56 23/38/38
f 23/38/38 41/56/56 42/57/57
f 23/38/38 42/57/57 43/58/58
f 43/58/58 44/39/39 23/38/38
f 45/40/40 46/59/59 7/33/33
f 7/33/33 46/59/59 47/60/60
f 7/33/33 47/60/60 48/61/61
f 48/61/61 25/35/35 7/33/33
f 21/62/62 20/63/63 53/64/64
f 53/64/64 20/63/63 52/65/65
f 52/65/65 20/63/63 51/66/66
f 51/66/66 20/63/63 50/67/67
f 50/67/67 20/63/63 49/68/68
f 49/69/69 54/70/70 50/71/71
f 50/71/71 54/70/70 55/72/72
f 50/71/71 55/72/72 51/73/73
f 51/73/73 55/72/72 56/74/74
f 51/73/73 56/74/74 52/75/75
f 52/75/75 56/74/74 57/76/76
f 52/75/75 57/76/76 53/77/77
f 53/77/77 57/76/76 58/78/78
f 53/77/77 58/78/78 21/79/79
f 21/79/79 58/78/78 22/80/80
f 2/81/81 1/82/82 96/83/83
f 96/83/83 1/82/82 22/84/84
f 96/83/83 22/84/84 95/85/85
f 95/85/85 22/84/84 58/86/86
f 95/85/85 58/86/86 89/87/87
f 89/87/87 58/86/86 57/88/88
f 89/87/87 57/88/88 56/89/89
f 56/89/89 55/90/90 89/87/87
f 89/87/87 55/90/90 54/91/91
f 89/87/87 54/91/91 88/92/92
f 88/92/92 54/91/91 59/93/93
f 88/92/92 59/93/93 60/94/94
f 88/92/92 60/94/94 87/95/95
f 87/95/95 60/94/94 61/96/96
f 87/95/95 61/96/96 62/97/97
f 62/97/97 63/98/98 87/95/95
f 87/95/95 63/98/98 64/99/99
f 87/95/95 64/99/99 81/100/100
f 81/100/100 64/99/99 65/101/101
f 81/100/100 65/101/101 80/102/102
f 80/102/102 65/101/101 66/103/103
f 80/102/102 66/103/103 67/104/104
f 80/102/102 67/104/104 74/105/105
f 74/105/105 67/104/104 68/106/106
f 74/105/105 68/106/106 69/107/107
f 69/107/107 70/108/108 74/105/105
f 74/105/105 70/108/108 71/109/109
f 74/105/105 71/109/109 73/110/110
f 73/110/110 71/109/109 72/111/111
f 74/105/105 75/112/112 80/102/102
f 80/102/102 75/112/112 76/113/113
f 80/102/102 76/113/113 77/114/114
f 77/114/114 78/115/115 80/102/102
f 80/102/102 78/115/115 79/116/116
f 82/117/117 83/118/118 81/100/100
f 81/100/100 83/118/118 84/119/119
f 81/100/100 84/119/119 85/120/120
f 85/120/120 86/121/121 81/100/100
f 81/100/100 86/121/121 87/95/95
f 89/87/87 90/122/122 95/85/85
f 95/85/85 90/122/122 91/123/123
f 95/85/85 91/123/123 92/124/124
f 92/124/124 93/125/125 95/85/85
f 95/85/85 93/125/125 94/126/126
f 97/127/127 98/128/128 96/83/83
f 96/83/83 98/128/128 99/129/129
f 96/83/83 99/129/129 100/130/130
f 100/130/130 101/131/131 96/83/83
f 96/83/83 101/131/131 102/132/132
f 96/83/83 102/132/132 2/81/81
f 2/81/81 102/132/132 3/133/133
f 3/133/133 102/132/132 4/134/134
f 4/134/134 102/132/132 5/135/135
f 5/135/135 102/132/132 6/136/136
f 6/136/136 102/132/132 107/137/137
f 6/136/136 107/137/137 23/138/138
f 102/132/132 103/139/139 107/137/137
f 107/137/137 103/139/139 106/140/140
f 106/140/140 103/139/139 104/141/141
f 106/140/140 104/141/141 105/142/142
f 113/143/143 65/144/144 112/145/145
f 112/145/145 65/144/144 64/146/146
f 112/145/145 64/146/146 111/147/147
f 111/147/147 64/146/146 63/148/148
f 111/147/147 63/148/148 110/149/149
f 110/149/149 63/148/148 62/150/150
f 110/149/149 62/150/150 109/151/151
f 109/151/151 62/150/150 61/152/152
f 109/151/151 61/152/152 108/153/153
f 108/153/153 61/152/152 60/154/154
f 113/155/155 112/156/156 114/157/157
f 114/157/157 112/156/156 111/158/158
f 114/157/157 111/158/158 110/159/159
f 110/159/159 109/160/160 114/157/157
f 114/157/157 109/160/160 108/161/161
f 66/162/162 65/163/163 122/164/164
f 122/164/164 65/163/163 113/165/165
f 122/164/164 113/165/165 119/166/166
f 119/166/166 113/165/165 116/167/167
f 119/166/166 116/167/167 118/168/168
f 118/168/168 116/167/167 117/169/169
f 113/165/165 114/170/170 116/167/167
f 116/167/167 114/170/170 115/171/171
f 120/172/172 121/173/173 119/166/166
f 119/166/166 121/173/173 122/164/164
f 20/174/174 19/175/175 49/176/176
f 49/176/176 19/175/175 123/177/177
f 49/176/176 123/177/177 59/178/178
f 59/178/178 123/177/177 108/179/179
f 59/178/178 108/179/179 60/180/180
f 123/177/177 115/181/181 108/179/179
f 108/179/179 115/181/181 114/182/182
f 59/178/178 54/183/183 49/176/176
f 122/184/184 121/185/185 128/186/186
f 128/186/186 121/185/185 127/187/187
f 127/187/187 121/185/185 126/188/188
f 126/188/188 121/185/185 125/189/189
f 125/189/189 121/185/185 124/190/190
f 124/191/191 71/192/192 125/193/193
f 125/193/193 71/192/192 70/194/194
f 125/193/193 70/194/194 126/195/195
f 126/195/195 70/194/194 69/196/196
f 126/195/195 69/196/196 127/197/197
f 127/197/197 69/196/196 68/198/198
f 127/197/197 68/198/198 128/199/199
f 128/199/199 68/198/198 67/200/200
f 128/199/199 67/200/200 122/201/201
f 122/201/201 67/200/200 66/202/202
f 23/203/203 107/204/204 24/205/205
f 24/205/205 107/204/204 129/206/206
f 24/205/205 129/206/206 130/207/207
f 130/207/207 131/208/208 24/205/205
f 121/209/209 120/210/210 124/211/211
f 124/211/211 120/210/210 139/212/212
f 124/211/211 139/212/212 140/213/213
f 132/214/214 151/215/215 120/210/210
f 120/210/210 151/215/215 152/216/216
f 120/210/210 152/216/216 153/217/217
f 105/218/218 167/219/219 132/214/214
f 132/214/214 167/219/219 144/220/220
f 132/214/214 144/220/220 145/221/221
f 104/222/222 133/223/223 105/218/218
f 105/218/218 133/223/223 134/224/224
f 105/218/218 134/224/224 135/225/225
f 135/225/225 136/226/226 105/218/218
f 105/218/218 136/226/226 162/227/227
f 105/218/218 162/227/227 163/228/228
f 136/226/226 137/229/229 162/227/227
f 162/227/227 137/229/229 161/230/230
f 161/230/230 137/229/229 138/231/231
f 161/230/230 138/231/231 160/232/232
f 160/232/232 138/231/231 159/233/233
f 159/233/233 138/231/231 158/234/234
f 158/234/234 138/231/231 139/212/212
f 158/234/234 139/212/212 157/235/235
f 157/235/235 139/212/212 120/210/210
f 157/235/235 120/210/210 156/236/236
f 156/236/236 120/210/210 155/237/237
f 155/237/237 120/210/210 154/238/238
f 154/238/238 120/210/210 153/217/217
f 140/213/213 141/239/239 124/211/211
f 124/211/211 141/239/239 142/240/240
f 124/211/211 142/240/240 143/241/241
f 72/242/242 71/243/243 143/241/241
f 143/241/241 71/243/243 124/211/211
f 145/221/221 146/244/244 132/214/214
f 132/214/214 146/244/244 147/245/245
f 132/214/214 147/245/245 148/246/246
f 148/246/246 149/247/247 132/214/214
f 132/214/214 149/247/247 150/248/248
f 132/214/214 150/248/248 151/215/215
f 163/228/228 164/249/249 105/218/218
f 105/218/218 164/249/249 165/250/250
f 105/218/218 165/250/250 166/251/251
f 166/251/251 167/219/219 105/218/218
f 105/252/252 132/253/253 106/254/254
f 106/254/254 132/253/253 170/255/255
f 170/255/255 132/253/253 169/256/256
f 169/256/256 132/253/253 168/257/257
f 172/258/258 218/259/259 171/260/260
f 171/260/260 218/259/259 195/261/261
f 171/262/260 195/263/261 194/264/262
f 194/264/262 195/263/261 196/265/263
f 194/264/262 196/265/263 193/266/264
f 193/266/264 196/265/263 197/267/265
f 193/266/264 197/267/265 192/268/266
f 192/268/266 197/267/265 198/269/267
f 192/268/266 198/269/267 191/270/268
f 191/270/268 198/269/267 199/271/269
f 191/270/268 199/271/269 190/272/270
f 190/272/270 199/271/269 200/273/271
f 190/272/270 200/273/271 189/274/272
f 189/274/272 200/273/271 201/275/273
f 189/274/272 201/275/273 188/276/274
f 188/276/274 201/275/273 202/277/275
f 188/276/274 202/277/275 187/278/276
f 187/278/276 202/277/275 203/279/277
f 187/278/276 203/279/277 186/280/278
f 186/280/278 203/279/277 204/281/279
f 186/280/278 204/281/279 185/282/280
f 185/282/280 204/281/279 205/283/281
f 185/282/280 205/283/281 184/284/282
f 184/284/282 205/283/281 206/285/283
f 184/284/282 206/285/283 183/286/284
f 183/286/284 206/285/283 207/287/285
f 183/286/284 207/287/285 182/288/286
f 182/288/286 207/287/285 208/289/287
f 182/288/286 208/289/287 181/290/288
f 181/290/288 208/289/287 209/291/289
f 181/290/288 209/291/289 180/292/290
f 180/292/290 209/291/289 210/293/291
f 180/292/290 210/293/291 179/294/292
f 179/294/292 210/293/291 211/295/293
f 179/294/292 211/295/293 178/296/294
f 178/296/294 211/295/293 212/297/295
f 178/296/294 212/297/295 177/298/296
f 177/298/296 212/297/295 213/299/297
f 177/298/296 213/299/297 176/300/298
f 176/300/298 213/299/297 214/301/299
f 176/300/298 214/301/299 175/302/300
f 175/302/300 214/301/299 215/303/301
f 175/302/300 215/303/301 174/304/302
f 174/304/302 215/303/301 216/305/303
f 174/304/302 216/305/303 173/306/304
f 173/306/304 216/305/303 217/307/305
f 173/306/304 217/307/305 172/258/258
f 172/258/258 217/307/305 218/259/259
f 220/308/306 172/309/307 219/310/308
f 219/310/308 172/309/307 171/311/309
f 219/310/308 171/311/309 242/312/310
f 242/312/310 171/311/309 194/313/311
f 242/312/310 194/313/311 241/314/312
f 241/314/312 194/313/311 193/315/313
f 241/314/312 193/315/313 240/316/314
f 240/316/314 193/315/313 192/317/315
f 240/316/314 192/317/315 239/318/316
f 239/318/316 192/317/315 191/319/317
f 239/318/316 191/319/317 238/320/318
f 238/320/318 191/319/317 190/321/319
f 238/320/318 190/321/319 237/322/320
f 237/322/320 190/321/319 189/323/321
f 237/322/320 189/323/321 188/324/322
f 220/308/306 221/325/323 172/309/307
f 172/309/307 221/325/323 173/326/324
f 173/326/324 221/325/323 222/327/325
f 173/326/324 222/327/325 174/328/326
f 174/328/326 222/327/325 223/329/327
f 174/328/326 223/329/327 175/330/328
f 175/330/328 223/329/327 224/331/329
f 175/330/328 224/331/329 176/332/330
f 176/332/330 224/331/329 225/333/331
f 176/332/330 225/333/331 177/334/332
f 177/334/332 225/333/331 178/335/333
f 178/335/333 225/333/331 226/336/334
f 178/335/333 226/336/334 179/337/335
f 179/337/335 226/336/334 227/338/336
f 179/337/335 227/338/336 180/339/337
f 180/339/337 227/338/336 228/340/338
f 180/339/337 228/340/338 181/341/339
f 181/341/339 228/340/338 229/342/340
f 181/341/339 229/342/340 182/343/341
f 182/343/341 229/342/340 230/344/342
f 182/343/341 230/344/342 183/345/343
f 183/345/343 230/344/342 231/346/344
f 183/345/343 231/346/344 232/347/345
f 183/345/343 232/347/345 184/348/346
f 184/348/346 232/347/345 233/349/347
f 184/348/346 233/349/347 185/350/348
f 185/350/348 233/349/347 234/351/349
f 185/350/348 234/351/349 186/352/350
f 186/352/350 234/351/349 235/353/351
f 186/352/350 235/353/351 187/354/352
f 187/354/352 235/353/351 236/355/353
f 187/354/352 236/355/353 188/324/322
f 188/324/322 236/355/353 237/322/320
f 244/356/354 290/357/355 243/358/356
f 243/358/356 290/357/355 267/359/357
f 243/360/356 267/361/357 266/362/358
f 266/362/358 267/361/357 268/363/359
f 266/362/358 268/363/359 265/364/360
f 265/364/360 268/363/359 269/365/361
f 265/364/360 269/365/361 264/366/362
f 264/366/362 269/365/361 270/367/363
f 264/366/362 270/367/363 263/368/364
f 263/368/364 270/367/363 271/369/365
f 263/368/364 271/369/365 262/370/366
f 262/370/366 271/369/365 272/371/367
f 262/370/366 272/371/367 261/372/368
f 261/372/368 272/371/367 273/373/369
f 261/372/368 273/373/369 260/374/370
f 260/374/370 273/373/369 274/375/371
f 260/374/370 274/375/371 259/376/372
f 259/376/372 274/375/371 275/377/373
f 259/376/372 275/377/373 258/378/374
f 258/378/374 275/377/373 276/379/375
f 258/378/374 276/379/375 257/380/376
f 257/380/376 276/379/375 277/381/377
f 257/380/376 277/381/377 256/382/378
f 256/382/378 277/381/377 278/383/379
f 256/382/378 278/383/379 255/384/380
f 255/384/380 278/383/379 279/385/381
f 255/384/380 279/385/381 254/386/382
f 254/386/382 279/385/381 280/387/383
f 254/386/382 280/387/383 253/388/384
f 253/388/384 280/387/383 281/389/385
f 253/388/384 281/389/385 252/390/386
f 252/390/386 281/389/385 282/391/387
f 252/390/386 282/391/387 251/392/388
f 251/392/388 282/391/387 283/393/389
f 251/392/388 283/393/389 250/394/390
f 250/394/390 283/393/389 284/395/391
f 250/394/390 284/395/391 249/396/392
f 249/396/392 284/395/391 285/397/393
f 249/396/392 285/397/393 248/398/394
f 248/398/394 285/397/393 286/399/395
f 248/398/394 286/399/395 247/400/396
f 247/400/396 286/399/395 287/401/397
f 247/400/396 287/401/397 246/402/398
f 246/402/398 287/401/397 288/403/399
f 246/402/398 288/403/399 245/404/400
f 245/404/400 288/403/399 289/405/401
f 245/404/400 289/405/401 244/356/354
f 244/356/354 289/405/401 290/357/355
f 292/406/402 244/407/403 291/408/404
f 291/408/404 244/407/403 243/409/405
f 291/408/404 243/409/405 314/410/406
f 314/410/406 243/409/405 266/411/407
f 314/410/406 266/411/407 313/412/408
f 313/412/408 266/411/407 265/413/409
f 313/412/408 265/413/409 312/414/410
f 312/414/410 265/413/409 264/415/411
f 312/414/410 264/415/411 311/416/412
f 311/416/412 264/415/411 263/417/413
f 311/416/412 263/417/413 310/418/414
f 310/418/414 263/417/413 262/419/415
f 310/418/414 262/419/415 309/420/416
f 309/420/416 262/419/415 261/421/417
f 309/420/416 261/421/417 260/422/418
f 292/406/402 293/423/419 244/407/403
f 244/407/403 293/423/419 245/424/420
f 245/424/420 293/423/419 294/425/421
f 245/424/420 294/425/421 246/426/422
f 246/426/422 294/425/421 295/427/423
f 246/426/422 295/427/423 247/428/424
f 247/428/424 295/427/423 296/429/425
f 247/428/424 296/429/425 248/430/426
f 248/430/426 296/429/425 297/431/427
f 248/430/426 297/431/427 249/432/428
f 249/432/428 297/431/427 250/433/429
f 250/433/429 297/431/427 298/434/430
f 250/433/429 298/434/430 251/435/431
f 251/435/431 298/434/430 299/436/432
f 251/435/431 299/436/432 252/437/433
f 252/437/433 299/436/432 300/438/434
f 252/437/433 300/438/434 253/439/435
f 253/439/435 300/438/434 301/440/436
f 253/439/435 301/440/436 254/441/437
f 254/441/437 301/440/436 302/442/438
f 254/441/437 302/442/438 255/443/439
f 255/443/439 302/442/438 303/444/440
f 255/443/439 303/444/440 304/445/441
f 255/443/439 304/445/441 256/446/442
f 256/446/442 304/445/441 305/447/443
f 256/446/442 305/447/443 257/448/444
f 257/448/444 305/447/443 306/449/445
f 257/448/444 306/449/445 258/450/446
f 258/450/446 306/449/445 307/451/447
f 258/450/446 307/451/447 259/452/448
f 259/452/448 307/451/447 308/453/449
f 259/452/448 308/453/449 260/422/418
f 260/422/418 308/453/449 309/420/416
f 48/454/450 292/455/451 25/456/452
f 25/456/452 292/455/451 291/457/453
f 25/458/452 291/459/453 26/460/454
f 26/460/454 291/459/453 314/461/455
f 26/460/454 314/461/455 27/462/456
f 27/462/456 314/461/455 313/463/457
f 27/462/456 313/463/457 28/464/458
f 28/464/458 313/463/457 312/465/459
f 28/464/458 312/465/459 29/466/460
f 29/466/460 312/465/459 311/467/461
f 29/466/460 311/467/461 30/468/462
f 30/468/462 311/467/461 310/469/463
f 30/468/462 310/469/463 31/470/464
f 31/470/464 310/469/463 309/471/465
f 31/470/464 309/471/465 32/472/466
f 32/472/466 309/471/465 308/473/467
f 32/472/466 308/473/467 33/474/468
f 33/474/468 308/473/467 307/475/469
f 33/474/468 307/475/469 34/476/470
f 34/476/470 307/475/469 306/477/471
f 34/476/470 306/477/471 35/478/472
f 35/478/472 306/477/471 305/479/473
f 35/478/472 305/479/473 36/480/474
f 36/480/474 305/479/473 304/481/475
f 36/480/474 304/481/475 37/482/476
f 37/482/476 304/481/475 303/483/477
f 37/482/476 303/483/477 38/484/478
f 38/484/478 303/483/477 302/485/479
f 38/484/478 302/485/479 39/486/480
f 39/486/480 302/485/479 301/487/481
f 39/486/480 301/487/481 40/488/482
f 40/488/482 301/487/481 300/489/483
f 40/488/482 300/489/483 41/490/484
f 41/490/484 300/489/483 299/491/485
f 41/490/484 299/491/485 42/492/486
f 42/492/486 299/491/485 298/493/487
f 42/492/486 298/493/487 43/494/488
f 43/494/488 298/493/487 297/495/489
f 43/494/488 297/495/489 44/496/490
f 44/496/490 297/495/489 296/497/491
f 44/496/490 296/497/491 45/498/492
f 45/498/492 296/497/491 295/499/493
f 45/498/492 295/499/493 46/500/494
f 46/500/494 295/499/493 294/501/495
f 46/500/494 294/501/495 47/502/496
f 47/502/496 294/501/495 293/503/497
f 47/502/496 293/503/497 48/454/450
f 48/454/450 293/503/497 292/455/451
f 167/504/498 220/505/499 144/506/500
f 144/506/500 220/505/499 219/507/501
f 144/508/500 219/509/501 145/510/502
f 145/510/502 219/509/501 242/511/503
f 145/510/502 242/511/503 146/512/504
f 146/512/504 242/511/503 241/513/505
f 146/512/504 241/513/505 147/514/506
f 147/514/506 241/513/505 240/515/507
f 147/514/506 240/515/507 148/516/508
f 148/516/508 240/515/507 239/517/509
f 148/516/508 239/517/509 149/518/510
f 149/518/510 239/517/509 238/519/511
f 149/518/510 238/519/511 150/520/512
f 150/520/512 238/519/511 237/521/513
f 150/520/512 237/521/513 151/522/514
f 151/522/514 237/521/513 236/523/515
f 151/522/514 236/523/515 152/524/516
f 152/524/516 236/523/515 235/525/517
f 152/524/516 235/525/517 153/526/518
f 153/526/518 235/525/517 234/527/519
f 153/526/518 234/527/519 154/528/520
f 154/528/520 234/527/519 233/529/521
f 154/528/520 233/529/521 155/530/522
f 155/530/522 233/529/521 232/531/523
f 155/530/522 232/531/523 156/532/524
f 156/532/524 232/531/523 231/533/525
f 156/532/524 231/533/525 157/534/526
f 157/534/526 231/533/525 230/535/527
f 157/534/526 230/535/527 158/536/528
f 158/536/528 230/535/527 229/537/529
f 158/536/528 229/537/529 159/538/530
f 159/538/530 229/537/529 228/539/531
f 159/538/530 228/539/531 160/540/532
f 160/540/532 228/539/531 227/541/533
f 160/540/532 227/541/533 161/542/534
f 161/542/534 227/541/533 226/543/535
f 161/542/534 226/543/535 162/544/536
f 162/544/536 226/543/535 225/545/537
f 162/544/536 225/545/537 163/546/538
f 163/546/538 225/545/537 224/547/539
f 163/546/538 224/547/539 164/548/540
f 164/548/540 224/547/539 223/549/541
f 164/548/540 223/549/541 165/550/542
f 165/550/542 223/549/541 222/551/543
f 165/550/542 222/551/543 166/552/544
f 166/552/544 222/551/543 221/553/545
f 166/552/544 221/553/545 167/504/498
f 167/504/498 221/553/545 220/505/499
f 321/554/546 80/555/547 320/556/548
f 320/556/548 80/555/547 79/557/549
f 320/556/548 79/557/549 319/558/550
f 319/558/550 79/557/549 78/559/551
f 319/558/550 78/559/551 318/560/552
f 318/560/552 78/559/551 77/561/553
f 318/560/552 77/561/553 317/562/554
f 317/562/554 77/561/553 76/563/555
f 317/562/554 76/563/555 316/564/556
f 316/564/556 76/563/555 75/565/557
f 316/564/556 75/565/557 315/566/558
f 315/566/558 75/565/557 74/567/559
f 218/568/560 279/569/561 195/570/562
f 195/570/562 279/569/561 278/571/563
f 195/570/562 278/571/563 196/572/564
f 196/572/564 278/571/563 335/573/565
f 196/572/564 335/573/565 197/574/566
f 197/574/566 335/573/565 198/575/567
f 198/575/567 335/573/565 199/576/568
f 199/576/568 335/573/565 200/577/569
f 200/577/569 335/573/565 201/578/570
f 201/578/570 335/573/565 334/579/571
f 201/578/570 334/579/571 202/580/572
f 202/580/572 334/579/571 315/581/558
f 202/580/572 315/581/558 203/582/573
f 203/582/573 315/581/558 204/583/574
f 204/583/574 315/581/558 205/584/575
f 205/584/575 315/581/558 206/585/576
f 206/585/576 315/581/558 207/586/577
f 207/586/577 315/581/558 326/587/578
f 207/586/577 326/587/578 208/588/579
f 208/588/579 326/587/578 209/589/580
f 209/589/580 326/587/578 327/590/581
f 209/589/580 327/590/581 210/591/582
f 210/591/582 327/590/581 211/592/583
f 211/592/583 327/590/581 212/593/584
f 212/593/584 327/590/581 328/594/585
f 212/593/584 328/594/585 213/595/586
f 213/595/586 328/594/585 329/596/587
f 213/595/586 329/596/587 330/597/588
f 279/569/561 218/568/560 280/598/589
f 280/598/589 218/568/560 217/599/590
f 280/598/589 217/599/590 281/600/591
f 281/600/591 217/599/590 216/601/592
f 281/600/591 216/601/592 282/602/593
f 282/602/593 216/601/592 215/603/594
f 282/602/593 215/603/594 283/604/595
f 283/604/595 215/603/594 214/605/596
f 283/604/595 214/605/596 284/606/597
f 284/606/597 214/605/596 213/595/586
f 284/606/597 213/595/586 285/607/598
f 285/607/598 213/595/586 330/597/588
f 285/607/598 330/597/588 331/608/599
f 268/609/600 267/610/601 333/611/602
f 333/611/602 267/610/601 290/612/603
f 333/611/602 290/612/603 289/613/604
f 333/611/602 289/613/604 102/614/605
f 102/614/605 289/613/604 288/615/606
f 102/614/605 288/615/606 287/616/607
f 287/616/607 286/617/608 102/614/605
f 102/614/605 286/617/608 285/607/598
f 102/614/605 285/607/598 103/618/609
f 103/618/609 285/607/598 332/619/610
f 332/619/610 285/607/598 331/608/599
f 278/571/563 277/620/611 335/573/565
f 335/573/565 277/620/611 276/621/612
f 335/573/565 276/621/612 275/622/613
f 275/622/613 274/623/614 335/573/565
f 335/573/565 274/623/614 273/624/615
f 335/573/565 273/624/615 334/579/571
f 334/579/571 273/624/615 272/625/616
f 334/579/571 272/625/616 333/611/602
f 333/611/602 272/625/616 271/626/617
f 333/611/602 271/626/617 270/627/618
f 270/627/618 269/628/619 333/611/602
f 333/611/602 269/628/619 268/609/600
f 315/581/558 74/629/559 326/587/578
f 326/587/578 74/629/559 325/630/620
f 325/630/620 74/629/559 324/631/621
f 324/631/621 74/629/559 323/632/622
f 323/632/622 74/629/559 322/633/623
f 322/633/623 74/629/559 73/634/624
f 333/635/602 102/636/605 341/637/625
f 341/637/625 102/636/605 101/638/626
f 341/637/625 101/638/626 340/639/627
f 340/639/627 101/638/626 100/640/628
f 340/639/627 100/640/628 339/641/629
f 339/641/629 100/640/628 99/642/630
f 339/641/629 99/642/630 338/643/631
f 338/643/631 99/642/630 98/644/632
f 338/643/631 98/644/632 337/645/633
f 337/645/633 98/644/632 97/646/634
f 337/645/633 97/646/634 336/647/635
f 336/647/635 97/646/634 96/648/636
f 96/649/636 95/650/637 336/651/635
f 336/651/635 95/650/637 342/652/638
f 342/653/638 95/654/637 348/655/639
f 348/655/639 95/654/637 94/656/640
f 348/655/639 94/656/640 347/657/641
f 347/657/641 94/656/640 93/658/642
f 347/657/641 93/658/642 346/659/643
f 346/659/643 93/658/642 92/660/644
f 346/659/643 92/660/644 345/661/645
f 345/661/645 92/660/644 91/662/646
f 345/661/645 91/662/646 344/663/647
f 344/663/647 91/662/646 90/664/648
f 344/663/647 90/664/648 343/665/649
f 343/665/649 90/664/648 89/666/650
f 89/667/650 88/668/651 343/669/649
f 343/669/649 88/668/651 350/670/652
f 350/670/652 88/668/651 87/671/653
f 350/670/652 87/671/653 349/672/654
f 349/673/654 87/674/653 356/675/655
f 356/675/655 87/674/653 86/676/656
f 356/675/655 86/676/656 355/677/657
f 355/677/657 86/676/656 85/678/658
f 355/677/657 85/678/658 354/679/659
f 354/679/659 85/678/658 84/680/660
f 354/679/659 84/680/660 353/681/661
f 353/681/661 84/680/660 83/682/662
f 353/681/661 83/682/662 352/683/663
f 352/683/663 83/682/662 82/684/664
f 352/683/663 82/684/664 351/685/665
f 351/685/665 82/684/664 81/686/666
f 321/687/546 351/688/665 80/689/547
f 80/689/547 351/688/665 81/690/666
f 115/691/667 123/692/668 116/693/669
f 116/693/669 123/692/668 357/694/670
f 357/694/670 123/692/668 19/695/671
f 357/694/670 19/695/671 18/696/672
f 116/697/673 357/698/674 117/699/675
f 117/699/675 357/698/674 358/700/676
f 358/700/676 357/698/674 18/701/677
f 358/700/676 18/701/677 17/702/678
f 132/703/679 120/704/680 168/705/681
f 168/705/681 120/704/680 119/706/682
f 14/707/683 24/708/684 15/709/685
f 15/709/685 24/708/684 131/710/686
f 168/711/687 119/712/688 169/713/689
f 169/713/689 119/712/688 118/714/690
f 169/713/689 118/714/690 359/715/691
f 169/713/689 359/715/691 130/716/692
f 130/716/692 359/715/691 16/717/693
f 130/716/692 16/717/693 15/718/694
f 15/718/694 131/719/695 130/716/692
f 104/720/696 103/721/697 133/722/698
f 133/722/698 103/721/697 332/723/699
f 133/722/698 332/723/699 134/724/700
f 134/724/700 332/723/699 331/725/701
f 134/724/700 331/725/701 135/726/702
f 135/726/702 331/725/701 330/727/703
f 135/726/702 330/727/703 136/728/704
f 136/728/704 330/727/703 329/729/705
f 136/728/704 329/729/705 137/730/706
f 137/730/706 329/729/705 328/731/707
f 137/730/706 328/731/707 138/732/708
f 138/732/708 328/731/707 327/733/709
f 138/732/708 327/733/709 139/734/710
f 139/734/710 327/733/709 326/735/711
f 139/734/710 326/735/711 140/736/712
f 140/736/712 326/735/711 325/737/713
f 140/736/712 325/737/713 141/738/714
f 141/738/714 325/737/713 324/739/715
f 141/738/714 324/739/715 142/740/716
f 142/740/716 324/739/715 323/741/717
f 142/740/716 323/741/717 143/742/718
f 143/742/718 323/741/717 322/743/719
f 143/742/718 322/743/719 72/744/720
f 72/744/720 322/743/719 73/745/721
f 129/746/722 170/747/723 130/748/724
f 130/748/724 170/747/723 169/749/725
f 107/750/726 106/751/727 129/752/728
f 129/752/728 106/751/727 170/753/729
f 351/754/730 321/755/731 118/756/732
f 118/756/732 321/755/731 320/757/733
f 118/756/732 320/757/733 319/758/734
f 319/758/734 318/759/735 118/756/732
f 118/756/732 318/759/735 317/760/736
f 118/756/732 317/760/736 316/761/737
f 316/761/737 315/762/738 118/756/732
f 118/756/732 315/762/738 359/763/739
f 359/763/739 315/762/738 334/764/740
f 359/763/739 334/764/740 333/765/741
f 359/763/739 333/765/741 16/766/742
f 16/766/742 333/765/741 341/767/743
f 16/766/742 341/767/743 340/768/744
f 340/768/744 339/769/745 16/766/742
f 16/766/742 339/769/745 338/770/746
f 16/766/742 338/770/746 337/771/747
f 337/771/747 336/772/748 16/766/742
f 16/766/742 336/772/748 342/773/749
f 16/766/742 342/773/749 17/774/750
f 17/774/750 342/773/749 348/775/751
f 17/774/750 348/775/751 347/776/752
f 347/776/752 346/777/753 17/774/750
f 17/774/750 346/777/753 345/778/754
f 17/774/750 345/778/754 344/779/755
f 344/779/755 343/780/756 17/774/750
f 17/774/750 343/780/756 358/781/757
f 358/781/757 343/780/756 350/782/758
f 358/781/757 350/782/758 349/783/759
f 358/781/757 349/783/759 117/784/760
f 117/784/760 349/783/759 356/785/761
f 117/784/760 356/785/761 355/786/762
f 355/786/762 354/787/763 117/784/760
f 117/784/760 354/787/763 353/788/764
f 117/784/760 353/788/764 352/789/765
f 352/789/765 351/754/730 117/784/760
f 117/784/760 351/754/730 118/756/732
# 359 vertices
# 789 texture params
# 765 normals
# 726 facets

# 1 groups
